<svg width="100" height="100" viewBox="0 0 100 100" fill="none" xmlns="http://www.w3.org/2000/svg">
<g clip-path="url(#clip0)">
<path d="M18.7826 58.3779H3.52344L6.20918 65.9516C7.65508 70.0289 8.39395 74.323 8.39395 78.6492V79.4449C8.39395 83.6586 11.8098 87.0746 16.0236 87.0746C20.2373 87.0746 23.6533 83.6588 23.6533 79.4449V78.6492C23.6533 74.323 22.9145 70.0289 21.4686 65.9516L18.7826 58.3779Z" fill="url(#paint0_linear)"/>
<path d="M11.1248 68.0654C12.2293 71.1801 12.7936 74.4605 12.7936 77.7652V78.4373C12.7936 80.1393 14.1735 81.5191 15.8754 81.5191C17.5774 81.5191 18.9573 80.1393 18.9573 78.4373V77.7652C18.9573 74.4605 18.3928 71.1801 17.2885 68.0654L16.3143 66.0035C15.9155 65.1596 15.0659 64.6211 14.1323 64.6211H13.3069C11.5364 64.6213 10.3684 66.4647 11.1248 68.0654Z" fill="url(#paint1_linear)"/>
<path d="M18.7826 58.3779H3.52344L3.72383 58.9428L23.6531 78.8721V78.6496C23.6531 74.3234 22.9143 70.0293 21.4684 65.952L18.7826 58.3779Z" fill="url(#paint2_linear)"/>
<path d="M0 53.0111V38.1518C0 34.49 2.96836 31.5215 6.63027 31.5215H27.5283C31.19 31.5215 34.1586 34.4898 34.1586 38.1518V53.0111C34.1586 56.6729 31.1902 59.6414 27.5283 59.6414H6.63027C2.96836 59.6414 0 56.673 0 53.0111Z" fill="url(#paint3_linear)"/>
<path d="M63.6299 75.9743C50.7025 69.6557 37.4551 64.1063 23.8688 59.3442C22.0346 58.7014 20.8066 56.9714 20.8066 55.0278V36.1341C20.8066 34.1905 22.035 32.4604 23.8688 31.8176C37.4553 27.0557 50.7027 21.5063 63.6299 15.1876C66.4602 13.8042 69.8107 15.6132 70.1926 18.7399C72.3764 36.6196 72.3762 54.5428 70.1926 72.4221C69.8107 75.5489 66.46 77.3575 63.6299 75.9743Z" fill="url(#paint4_linear)"/>
<path d="M69.1459 74.8219L25.5467 31.2227C24.9877 31.4217 24.4291 31.6215 23.8688 31.8178C22.0346 32.4605 20.8066 34.1906 20.8066 36.1342V55.0279C20.8066 56.9715 22.035 58.7016 23.8688 59.3443C37.4553 64.1062 50.7027 69.6557 63.6299 75.9744C65.6141 76.9441 67.8523 76.3437 69.1459 74.8219Z" fill="url(#paint5_linear)"/>
<path d="M70.1706 16.2609C69.8392 13.672 67.0603 12.1742 64.7109 13.3107C63.2095 14.0369 62.4368 15.6822 62.7322 17.3236C62.7484 17.4142 62.7624 17.506 62.7738 17.599C65.0503 36.2386 65.0503 54.9234 62.7738 73.5626C62.7624 73.6556 62.7484 73.7474 62.7322 73.8378C62.4366 75.4792 63.2095 77.1248 64.7109 77.8507C67.0603 78.9873 69.8394 77.4892 70.1706 74.9005C72.6702 55.372 72.6704 35.7904 70.1706 16.2609Z" fill="url(#paint6_linear)"/>
<path d="M21.9174 61.9529C19.565 61.9529 17.6582 60.0461 17.6582 57.6938V33.4691C17.6582 31.1168 19.565 29.21 21.9174 29.21C24.2697 29.21 26.1766 31.1168 26.1766 33.4691V57.6938C26.177 60.0461 24.2697 61.9529 21.9174 61.9529Z" fill="url(#paint7_linear)"/>
<path d="M76.7567 56.4202C76.5747 56.4202 76.3907 56.4048 76.2053 56.3727C74.4557 56.0704 73.2827 54.4069 73.5852 52.6573C73.8499 51.1257 74.0311 49.5016 74.1235 47.83C74.3042 44.5653 74.119 41.3704 73.6024 38.8335C73.2481 37.0936 74.3712 35.396 76.111 35.0417C77.8518 34.688 79.5485 35.8104 79.9028 37.5503C80.535 40.6546 80.7565 44.3317 80.5434 48.1847C80.4374 50.1034 80.228 51.9766 79.921 53.752C79.6504 55.3165 78.2919 56.4202 76.7567 56.4202Z" fill="url(#paint8_linear)"/>
<path d="M84.2601 62.3964C83.8792 62.3964 83.4923 62.3285 83.1152 62.1847C81.4562 61.5521 80.6242 59.6943 81.2568 58.0353C82.6482 54.3867 83.516 50.0623 83.7665 45.5287C84.0169 40.9986 83.6306 36.6328 82.6497 32.9029C82.198 31.1859 83.2238 29.4275 84.941 28.9759C86.6574 28.5236 88.4162 29.55 88.8679 31.2671C90.0177 35.6377 90.4736 40.6921 90.1865 45.8836C89.8997 51.0712 88.8894 56.0654 87.2646 60.3263C86.7759 61.6082 85.5552 62.3964 84.2601 62.3964Z" fill="url(#paint9_linear)"/>
<path d="M91.5368 68.1646C91.01 68.1646 90.4762 68.035 89.9827 67.7619C88.4294 66.902 87.8671 64.9457 88.727 63.3924C91.4901 58.4008 93.1399 52.3379 93.4981 45.8588C93.8559 39.3877 92.8846 33.2381 90.6895 28.075C89.9948 26.441 90.7561 24.5533 92.3901 23.8586C94.0241 23.1641 95.9118 23.9254 96.6065 25.5592C99.1848 31.6229 100.33 38.7652 99.9178 46.2137C99.5065 53.6547 97.5817 60.6715 94.3522 66.5063C93.7655 67.5662 92.668 68.1646 91.5368 68.1646Z" fill="url(#paint10_linear)"/>
</g>
<defs>
<linearGradient id="paint0_linear" x1="8.99824" y1="72.7268" x2="28.3516" y2="72.7268" gradientUnits="userSpaceOnUse">
<stop stop-color="#FF4C54"/>
<stop offset="1" stop-color="#BE3F45"/>
</linearGradient>
<linearGradient id="paint1_linear" x1="17.5471" y1="73.0709" x2="8.27085" y2="73.0709" gradientUnits="userSpaceOnUse">
<stop stop-color="#FF4C54"/>
<stop offset="1" stop-color="#BE3F45"/>
</linearGradient>
<linearGradient id="paint2_linear" x1="24.4281" y1="71.8364" x2="-4.00854" y2="43.3997" gradientUnits="userSpaceOnUse">
<stop stop-color="#BE3F45" stop-opacity="0"/>
<stop offset="1" stop-color="#BE3F45"/>
</linearGradient>
<linearGradient id="paint3_linear" x1="17.0789" y1="42.3546" x2="17.0789" y2="56.3602" gradientUnits="userSpaceOnUse">
<stop stop-color="#FFB92D"/>
<stop offset="1" stop-color="#F59500"/>
</linearGradient>
<linearGradient id="paint4_linear" x1="46.3174" y1="40.0365" x2="46.3174" y2="68.2242" gradientUnits="userSpaceOnUse">
<stop stop-color="#FFB92D"/>
<stop offset="1" stop-color="#F59500"/>
</linearGradient>
<linearGradient id="paint5_linear" x1="37.641" y1="58.5382" x2="-20.7421" y2="0.155919" gradientUnits="userSpaceOnUse">
<stop stop-color="#BE3F45" stop-opacity="0"/>
<stop offset="1" stop-color="#BE3F45"/>
</linearGradient>
<linearGradient id="paint6_linear" x1="66.2791" y1="45.5821" x2="70.9496" y2="45.5821" gradientUnits="userSpaceOnUse">
<stop stop-color="#FFF465"/>
<stop offset="1" stop-color="#FFE600"/>
</linearGradient>
<linearGradient id="paint7_linear" x1="20.9398" y1="45.5826" x2="25.1808" y2="45.5826" gradientUnits="userSpaceOnUse">
<stop stop-color="#FFF465"/>
<stop offset="1" stop-color="#FFE600"/>
</linearGradient>
<linearGradient id="paint8_linear" x1="80.6487" y1="45.8758" x2="73.1995" y2="45.5386" gradientUnits="userSpaceOnUse">
<stop stop-color="#C3C3C3"/>
<stop offset="1" stop-color="#F2F2F2"/>
</linearGradient>
<linearGradient id="paint9_linear" x1="90.188" y1="45.8687" x2="81.6605" y2="45.4824" gradientUnits="userSpaceOnUse">
<stop stop-color="#C3C3C3"/>
<stop offset="1" stop-color="#F2F2F2"/>
</linearGradient>
<linearGradient id="paint10_linear" x1="99.9184" y1="46.2166" x2="89.19" y2="45.7303" gradientUnits="userSpaceOnUse">
<stop stop-color="#C3C3C3"/>
<stop offset="1" stop-color="#F2F2F2"/>
</linearGradient>
<clipPath id="clip0">
<rect width="100" height="100" fill="white"/>
</clipPath>
</defs>
</svg>
