<svg width="100" height="100" viewBox="0 0 100 100" fill="none" xmlns="http://www.w3.org/2000/svg">
<g clip-path="url(#clip0)">
<path d="M67.6953 49.9648H91.6904V61.3982H67.6953V49.9648Z" fill="#2F4859"/>
<path d="M97.2053 45.7227C97.2053 45.7227 100.056 46.0241 99.9979 47.2795C99.7439 52.0283 98.6262 56.6907 96.6992 61.0383H92.9727L97.2053 45.7227Z" fill="#3A556A"/>
<path d="M79.817 53.4688C74.8354 53.4688 70.7969 57.5071 70.7969 62.4889C70.7969 67.4707 74.8352 71.509 79.817 71.509C84.7986 71.509 88.8371 67.4707 88.8371 62.4889C88.8371 62.4857 88.8371 62.4823 88.8371 62.4792C88.8371 57.503 84.8029 53.4688 79.8267 53.4688C79.8235 53.4688 79.8204 53.4688 79.817 53.4688Z" fill="#3A556A"/>
<path d="M79.8184 57.1367C76.8628 57.1314 74.4624 59.5229 74.457 62.4787C74.4517 65.4344 76.8432 67.8348 79.7991 67.8401C82.7547 67.8455 85.1551 65.454 85.1605 62.4981C85.1605 62.4916 85.1605 62.4851 85.1605 62.4787C85.1605 59.5286 82.7686 57.1367 79.8184 57.1367Z" fill="#EBF0F3"/>
<path d="M79.8175 60.6973C78.8075 60.6973 77.9883 61.5164 77.9883 62.5265C77.9883 63.5366 78.8075 64.3558 79.8175 64.3558C80.8276 64.3558 81.6468 63.5366 81.6468 62.5265C81.6468 61.516 80.828 60.6973 79.8175 60.6973Z" fill="#3A556A"/>
<path d="M95.2797 60.9607L92.0686 61.6031C91.3901 61.7354 90.7119 61.3742 90.4437 60.737L88.4977 55.8717C87.851 54.2933 86.3112 53.2654 84.6057 53.2737H75.7217C73.8932 53.2658 72.2725 54.449 71.7225 56.193L69.6015 63.1016C69.0369 64.8727 67.3734 66.0612 65.5147 66.0208L33.7451 65.3591C31.8276 65.3182 30.1833 63.9789 29.7556 62.1091L29.2985 60.1631C28.8591 58.2658 27.1687 56.9226 25.2213 56.9228H16.6778C15.2348 56.9157 13.8898 57.6508 13.1165 58.8688L11.365 61.7682C10.6074 63.0094 9.25762 63.7653 7.80382 63.7629H0.992188C0.992188 63.7629 0.992187 60.26 1.69288 52.1934C2.39356 44.1268 14.1284 42.7355 14.1284 42.7355V42.5508C14.1284 42.4631 14.1284 42.3367 14.1965 42.1905V42.0251C14.5567 40.6433 15.763 37.3933 19.8401 33.4527C25.2696 28.1983 48.0582 27.8577 54.3539 29.0741C55.6566 29.3734 56.8761 29.9584 57.925 30.7866C58.6718 32.5874 59.5804 34.3168 60.6397 35.9534C62.0605 37.841 64.3861 39.0085 65.0476 40.1862C65.2616 40.5753 65.8066 40.9549 65.9137 41.1593C66.0233 41.3779 66.2434 41.5195 66.4877 41.5292C76.7943 42.0271 87.0374 43.4273 97.0994 45.7133C100.359 50.2767 95.2797 60.9607 95.2797 60.9607Z" fill="#FCD462"/>
<path d="M1.12902 61.1152L1.19707 59.4903C0.615666 59.484 0.112602 59.8931 4.12417e-05 60.4634V62.8084C-0.00529997 63.4479 0.508841 63.9706 1.1482 63.9759H1.1579H4.46629V61.1542C3.35452 61.2341 2.23821 61.2211 1.12902 61.1152Z" fill="#3A556A"/>
<path d="M92.7696 59.5977H96.185C96.7814 59.5977 97.2651 60.0811 97.2651 60.6778V61.4075C97.2651 62.004 96.7816 62.4877 96.185 62.4877H92.7696C92.1731 62.4877 91.6895 62.0042 91.6895 61.4075V60.6778C91.6897 60.0811 92.1731 59.5977 92.7696 59.5977Z" fill="#3A556A"/>
<path d="M62.8967 42.0546L55.6085 32.2268C54.8781 31.2411 53.7403 30.6401 52.5142 30.592L40.721 30.1445C30.8642 30.3099 25.999 32.5479 23.6538 34.3967C21.0752 36.4304 20.871 38.3959 20.8613 38.4836V51.9406C20.8667 53.3019 21.9717 54.4025 23.3329 54.4023H28.5289C30.4838 54.4071 32.2211 55.6488 32.8589 57.4967L34.3574 61.8266H61.0476C62.3175 61.8213 63.3442 60.7902 63.3442 59.5204V43.4263C63.3465 42.933 63.1895 42.4517 62.8967 42.0546ZM33.1024 57.448C32.4223 55.5026 30.5901 54.1966 28.5289 54.1883H23.3329C22.113 54.1885 21.124 53.1998 21.1238 51.9798C21.1238 51.9668 21.1238 51.9537 21.124 51.9404V38.5027C21.124 38.386 21.3964 36.4984 23.8388 34.6108C26.2811 32.7232 30.9321 30.6116 40.5945 30.4365L41.9666 61.6322H34.5424L33.1024 57.448ZM63.0913 59.5594C63.0913 60.688 62.1766 61.6027 61.048 61.6027H42.21L40.8576 30.407L52.5341 30.8545C53.6894 30.8818 54.7674 31.4423 55.4534 32.3724L62.6441 42.2099C62.908 42.5607 63.0512 42.9872 63.0526 43.4262L63.0913 59.5594Z" fill="#F7BE56"/>
<path d="M42.5247 33.6585L42.7095 40.3823C42.7405 40.9288 43.1931 41.3563 43.7409 41.3553H57.3634C57.9331 41.35 58.3903 40.8839 58.3849 40.3142C58.3831 40.1249 58.3293 39.9397 58.2292 39.7789L54.0257 33.1817C53.839 32.8887 53.5169 32.7093 53.1695 32.7048L43.5559 32.588C43.0198 32.553 42.5565 32.9594 42.5215 33.4955C42.5182 33.5499 42.519 33.6043 42.5247 33.6585Z" fill="#3A556A"/>
<path d="M38.3874 40.3618L38.0372 33.6479C38.0372 33.1106 37.6016 32.6748 37.0641 32.6748C34.1449 32.4998 25.0375 32.5775 22.7313 39.9432C22.6478 40.2194 22.6795 40.5177 22.8189 40.7703L23.1986 41.4224C23.3851 41.7788 23.7716 41.9838 24.1716 41.9379L37.444 41.4415C37.9979 41.3954 38.4157 40.9177 38.3874 40.3618Z" fill="#3A556A"/>
<path d="M66.0241 41.1597C64.2726 38.5327 60.1858 32.7527 58.0357 30.7871C57.9189 30.7871 56.4107 30.7871 56.8289 31.6823C57.1597 32.4217 60.0109 35.5742 61.6942 37.9778C62.7597 39.4745 64.2774 40.5896 66.0241 41.1597Z" fill="#3A556A"/>
<path d="M20.8639 53.4688C15.8823 53.4688 11.8438 57.5071 11.8438 62.4889C11.8438 67.4707 15.8821 71.509 20.8639 71.509C25.8456 71.509 29.884 67.4707 29.884 62.4889C29.884 62.4857 29.884 62.4823 29.884 62.4792C29.884 57.503 25.8498 53.4688 20.8736 53.4688C20.8704 53.4688 20.8672 53.4688 20.8639 53.4688Z" fill="#3A556A"/>
<path d="M20.8615 57.1367C17.9058 57.1367 15.5098 59.5329 15.5098 62.4884C15.5098 65.4441 17.906 67.8401 20.8615 67.8401C23.8169 67.8401 26.2132 65.4439 26.2132 62.4884C26.2132 62.4853 26.2132 62.4819 26.2132 62.4787C26.2132 59.5286 23.8215 57.1367 20.8712 57.1367C20.868 57.1367 20.8648 57.1367 20.8615 57.1367Z" fill="#EBF0F3"/>
<path d="M20.8605 60.6973C19.8504 60.6973 19.0312 61.5164 19.0312 62.5265C19.0312 63.5366 19.8504 64.3558 20.8605 64.3558C21.8706 64.3558 22.6898 63.5366 22.6898 62.5265C22.6898 61.516 21.871 60.6973 20.8605 60.6973Z" fill="#3A556A"/>
</g>
<defs>
<clipPath id="clip0">
<rect width="100" height="100" fill="white"/>
</clipPath>
</defs>
</svg>
