<svg width="100" height="100" viewBox="0 0 100 100" fill="none" xmlns="http://www.w3.org/2000/svg">
<path d="M19.7463 28.625V14.3367C19.7463 13.1266 18.7652 12.1455 17.5551 12.1455H10.2537C9.04356 12.1455 8.0625 13.1266 8.0625 14.3367V28.625" fill="#E5E9EA"/>
<path d="M13.3686 28.625V12.1455H10.2537C9.04355 12.1455 8.0625 13.1266 8.0625 14.3367V28.625" fill="#D1D1D1"/>
<path d="M100 31.2287V84.6879C100 88.3531 97.0285 91.3246 93.3633 91.3246H6.63672C2.97148 91.3246 0 88.3531 0 84.6879V31.2287C0 27.5635 2.97148 24.592 6.63672 24.592H19.7598C22.5863 24.592 25.1047 22.8021 26.0312 20.1309L28.4537 13.1391C29.3803 10.4676 31.8965 8.67578 34.7252 8.67578H73.4389C76.2654 8.67578 78.7816 10.4676 79.7082 13.1391L82.1326 20.1309C83.0592 22.8023 85.5754 24.592 88.402 24.592H93.3631C97.0285 24.592 100 27.5635 100 31.2287Z" fill="#FCB65F"/>
<path d="M11.8408 91.3244H6.63672C2.97148 91.3244 0 88.3529 0 84.6877V31.2285C0 27.5633 2.97148 24.5918 6.63672 24.5918H11.4285V24.6041C7.95508 24.8184 5.2041 27.7021 5.2041 31.2285V84.6877C5.2041 88.3531 8.17559 91.3244 11.8408 91.3244Z" fill="#E29A4B"/>
<path d="M39.9303 8.67578C37.1018 8.67578 34.5853 10.4676 33.6588 13.1391L31.2363 20.1309C30.3098 22.8023 27.7914 24.592 24.9648 24.592H20.5117V24.5492C23.026 24.2635 25.1893 22.5635 26.032 20.1309L28.4545 13.1391C29.3811 10.4676 31.8973 8.67578 34.726 8.67578C34.7264 8.67578 39.9303 8.67578 39.9303 8.67578Z" fill="#E29A4B"/>
<path d="M100 42.6533V84.6881C100 88.3533 97.0285 91.3248 93.3633 91.3248H6.63672C2.97148 91.3248 0 88.3533 0 84.6881V42.6533H100Z" fill="#53BCE9"/>
<path d="M11.8408 91.3246H6.63672C2.97148 91.3246 0 88.3531 0 84.6879V42.6533H5.2041V84.6881C5.2041 88.3533 8.17559 91.3246 11.8408 91.3246Z" fill="#36A6CE"/>
<path d="M49.9986 85.0998C65.2698 85.0998 77.6496 72.72 77.6496 57.4488C77.6496 42.1776 65.2698 29.7979 49.9986 29.7979C34.7274 29.7979 22.3477 42.1776 22.3477 57.4488C22.3477 72.72 34.7274 85.0998 49.9986 85.0998Z" fill="#E5E9EA"/>
<path d="M69.5512 57.4486C69.5512 63.2059 67.0635 68.3812 63.1021 71.9609C59.635 75.0935 55.043 77.0015 50.0002 77.0015C44.9594 77.0015 40.3654 75.0933 36.8982 71.9607C32.9371 68.3832 30.4473 63.2057 30.4473 57.4484C30.4473 51.6912 32.9371 46.5137 36.8982 42.9383C40.3656 39.8035 44.9594 37.8975 50.0002 37.8975C55.043 37.8975 59.635 39.8057 63.1021 42.9383C67.0635 46.516 69.5512 51.6914 69.5512 57.4486Z" fill="#566368"/>
<path d="M63.8225 43.6239C67.8934 47.6947 69.794 53.1135 69.524 58.4457C64.1918 58.7154 58.7731 56.8151 54.7022 52.7442C50.6313 48.6733 48.7307 43.2545 49.002 37.9239C54.3326 37.6526 59.7516 39.5532 63.8225 43.6239Z" fill="#6F7B7F"/>
<path d="M45.2934 62.1534C49.3643 66.2243 51.2649 71.643 50.995 76.9753C45.6641 77.2465 40.2425 75.3462 36.1718 71.2751C32.1009 67.2042 30.2003 61.7825 30.4729 56.4532C35.8038 56.1817 41.2225 58.0823 45.2934 62.1534Z" fill="#6F7B7F"/>
<path d="M50.0004 78.5311C38.3756 78.5311 28.918 69.0734 28.918 57.4486C28.918 45.8238 38.3756 36.3662 50.0004 36.3662C61.6252 36.3662 71.0828 45.8236 71.0828 57.4486C71.0828 69.0736 61.6252 78.5311 50.0004 78.5311ZM50.0004 39.4273C40.0635 39.4273 31.9791 47.5117 31.9791 57.4486C31.9791 67.3855 40.0635 75.4699 50.0004 75.4699C59.9373 75.4699 68.0217 67.3855 68.0217 57.4486C68.0217 47.5117 59.9373 39.4273 50.0004 39.4273Z" fill="#435054"/>
<path d="M49.999 49.6006C45.6713 49.6006 42.1504 53.1215 42.1504 57.4494C42.1504 61.7774 45.6713 65.2981 49.999 65.2981C54.3268 65.2981 57.8477 61.7772 57.8477 57.4494C57.8477 53.1217 54.3268 49.6006 49.999 49.6006Z" fill="#435054"/>
<path d="M59.9336 23.0619H71.9615C73.5428 23.0619 74.8248 21.7801 74.8248 20.1986V17.0479C74.8248 15.4666 73.543 14.1846 71.9615 14.1846H59.9336C58.3523 14.1846 57.0703 15.4664 57.0703 17.0479V20.1986C57.0703 21.7799 58.3523 23.0619 59.9336 23.0619Z" fill="#E5E9EA"/>
<path d="M71.9609 24.5926H59.933C57.5102 24.5926 55.5391 22.6215 55.5391 20.1986V17.0482C55.5391 14.6254 57.5102 12.6543 59.933 12.6543H71.9609C74.3838 12.6543 76.3549 14.6254 76.3549 17.0482V20.1988C76.3547 22.6217 74.3836 24.5926 71.9609 24.5926ZM59.933 15.7154C59.198 15.7154 58.6004 16.3133 58.6004 17.048V20.1986C58.6004 20.9336 59.198 21.5312 59.933 21.5312H71.9609C72.6959 21.5312 73.2936 20.9334 73.2936 20.1986V17.0482C73.2936 16.3133 72.6957 15.7156 71.9609 15.7156C71.9609 15.7154 59.933 15.7154 59.933 15.7154Z" fill="#E29A4B"/>
<path d="M19.0094 85.6584C22.0661 85.6584 24.5441 83.1804 24.5441 80.1236C24.5441 77.0669 22.0661 74.5889 19.0094 74.5889C15.9526 74.5889 13.4746 77.0669 13.4746 80.1236C13.4746 83.1804 15.9526 85.6584 19.0094 85.6584Z" fill="#566368"/>
</svg>
