<svg width="100" height="100" viewBox="0 0 100 100" fill="none" xmlns="http://www.w3.org/2000/svg">
<path d="M42.5195 61.3902C43.5018 61.3903 44.4746 61.1969 45.3821 60.8211C46.2897 60.4453 47.1143 59.8943 47.809 59.1998C48.5036 58.5052 49.0546 57.6806 49.4306 56.7731C49.8065 55.8656 50 54.8929 50 53.9105V36.1426H19.4727V53.9105C19.4726 54.8929 19.666 55.8656 20.0419 56.7732C20.4178 57.6808 20.9688 58.5054 21.6635 59.2C22.3581 59.8946 23.1828 60.4455 24.0904 60.8213C24.998 61.1971 25.9708 61.3904 26.9531 61.3902H42.5195Z" fill="#FECD1A"/>
<path d="M24.1289 27.5635H45.3453V36.1424H24.1289V27.5635Z" fill="#FC852D"/>
<path d="M29.6602 27.5639V17.4756C29.6602 17.113 29.5161 16.7652 29.2597 16.5088C29.0033 16.2524 28.6556 16.1084 28.293 16.1084C27.9304 16.1084 27.5826 16.2524 27.3262 16.5088C27.0698 16.7652 26.9258 17.113 26.9258 17.4756V27.5639C26.9258 27.9265 27.0698 28.2742 27.3262 28.5306C27.5826 28.787 27.9304 28.9311 28.293 28.9311C28.6556 28.9311 29.0033 28.787 29.2597 28.5306C29.5161 28.2742 29.6602 27.9265 29.6602 27.5639Z" fill="#120078"/>
<path d="M42.5449 27.5639V17.4756C42.5449 17.113 42.4009 16.7652 42.1445 16.5088C41.8881 16.2524 41.5403 16.1084 41.1777 16.1084C40.8151 16.1084 40.4674 16.2524 40.211 16.5088C39.9546 16.7652 39.8105 17.113 39.8105 17.4756V27.5639C39.8105 27.9265 39.9546 28.2742 40.211 28.5306C40.4674 28.787 40.8151 28.9311 41.1777 28.9311C41.5403 28.9311 41.8881 28.787 42.1445 28.5306C42.4009 28.2742 42.5449 27.9265 42.5449 27.5639Z" fill="#120078"/>
<path d="M38.5004 69.3203C39.2049 69.3203 39.8805 69.0405 40.3786 68.5423C40.8768 68.0442 41.1566 67.3685 41.1566 66.6641V61.3906H28.3145V66.6609C28.3145 67.0101 28.3833 67.3558 28.517 67.6783C28.6508 68.0009 28.8468 68.2939 29.0938 68.5406C29.3409 68.7873 29.6342 68.9829 29.9569 69.1161C30.2796 69.2494 30.6255 69.3177 30.9746 69.3172L38.5004 69.3203Z" fill="#FC852D"/>
<path d="M34.7363 67.9523C34.3737 67.9523 34.026 68.0964 33.7696 68.3528C33.5132 68.6092 33.3691 68.9569 33.3691 69.3195V73.8383C33.3731 77.2014 34.7108 80.4256 37.0889 82.8037C39.467 85.1818 42.6912 86.5195 46.0543 86.5234H67.7551C71.1181 86.5195 74.3423 85.1818 76.7202 82.8037C79.0982 80.4256 80.4357 77.2013 80.4394 73.8383V50C80.4394 49.6374 80.2954 49.2896 80.039 49.0333C79.7826 48.7769 79.4349 48.6328 79.0723 48.6328C78.7097 48.6328 78.3619 48.7769 78.1055 49.0333C77.8491 49.2896 77.7051 49.6374 77.7051 50V73.8383C77.7022 76.4764 76.653 79.0056 74.7876 80.8711C72.9223 82.7366 70.3932 83.786 67.7551 83.7891H46.0543C43.4161 83.786 40.8869 82.7366 39.0215 80.8711C37.156 79.0057 36.1066 76.4764 36.1035 73.8383V69.3195C36.1035 68.9569 35.9595 68.6092 35.7031 68.3528C35.4467 68.0964 35.0989 67.9523 34.7363 67.9523Z" fill="#120078"/>
<path d="M82.1375 50.0004C82.5341 50.0005 82.9268 49.9224 83.2931 49.7707C83.6595 49.619 83.9924 49.3966 84.2729 49.1162C84.5533 48.8358 84.7757 48.5029 84.9274 48.1365C85.0791 47.7701 85.1571 47.3774 85.157 46.9808V39.1348H72.9883V46.9808C72.9882 47.3773 73.0662 47.77 73.2178 48.1363C73.3695 48.5027 73.5918 48.8355 73.8722 49.1159C74.1525 49.3963 74.4853 49.6188 74.8516 49.7705C75.2179 49.9223 75.6105 50.0004 76.007 50.0004H82.1375Z" fill="#FD3A69"/>
<path d="M75.0723 32.8428H83.0723V39.135H75.0723V32.8428Z" fill="#FECD1A"/>
</svg>
