<svg width="100" height="100" viewBox="0 0 100 100" fill="none" xmlns="http://www.w3.org/2000/svg">
<path d="M100 48.2754L75.1242 3.49785C74.516 2.40254 73.3615 1.72344 72.1088 1.72363H27.8914C26.6387 1.72324 25.4842 2.40254 24.876 3.49785L0 48.2754V58.6203H100V48.2754Z" fill="#41767F"/>
<path d="M7.98281 72.4135H1.72422C0.77207 72.4135 0 71.6416 0 70.6893V48.2754H100V70.6893C100 71.6414 99.2281 72.4135 98.2758 72.4135H7.98281Z" fill="#41767F"/>
<path d="M44.8275 58.6211H13.7932L0 91.3797V94.8279C0 96.7324 1.54375 98.2762 3.44824 98.2762H55.1725C57.077 98.2762 58.6207 96.7322 58.6207 94.8279V91.3797L44.8275 58.6211Z" fill="#67B9CC"/>
<path d="M0 91.3789H58.6207V94.8271C58.6207 96.7316 57.0768 98.2754 55.1725 98.2754H3.44824C1.54375 98.2754 0 96.7316 0 94.8271V91.3789Z" fill="#41767F"/>
<path d="M60.3459 12.0686C61.298 12.0686 62.0701 11.2967 62.0701 10.3443C62.0701 9.39199 61.2982 8.62012 60.3459 8.62012H55.1734C54.2213 8.62012 53.4492 9.39199 53.4492 10.3443C53.4492 11.2967 54.2211 12.0686 55.1734 12.0686H60.3459Z" fill="#ECF0F1"/>
<path d="M72.4143 12.0686C73.3664 12.0686 74.1385 11.2967 74.1385 10.3443C74.1385 9.39199 73.3666 8.62012 72.4143 8.62012H67.2418C66.2896 8.62012 65.5176 9.39199 65.5176 10.3443C65.5176 11.2967 66.2895 12.0686 67.2418 12.0686H72.4143Z" fill="#ECF0F1"/>
<path d="M62.0705 18.965C63.0227 18.965 63.7947 18.1932 63.7947 17.2408C63.7947 16.2885 63.0229 15.5166 62.0705 15.5166H56.898C55.9459 15.5166 55.1738 16.2885 55.1738 17.2408C55.1738 18.1932 55.9457 18.965 56.898 18.965H62.0705Z" fill="#ECF0F1"/>
<path d="M74.1389 18.965C75.091 18.965 75.8631 18.1932 75.8631 17.2408C75.8631 16.2885 75.0912 15.5166 74.1389 15.5166H68.9664C68.0143 15.5166 67.2422 16.2885 67.2422 17.2408C67.2422 18.1932 68.0141 18.965 68.9664 18.965H74.1389Z" fill="#ECF0F1"/>
<path d="M63.7951 22.4131H58.6227C57.6705 22.4131 56.8984 23.185 56.8984 24.1373C56.8984 25.0895 57.6703 25.8615 58.6227 25.8615H63.7951C64.7473 25.8615 65.5193 25.0896 65.5193 24.1373C65.5191 23.185 64.7473 22.4131 63.7951 22.4131Z" fill="#ECF0F1"/>
<path d="M75.8635 22.4131H70.691C69.7389 22.4131 68.9668 23.185 68.9668 24.1373C68.9668 25.0895 69.7387 25.8615 70.691 25.8615H75.8635C76.8156 25.8615 77.5877 25.0896 77.5877 24.1373C77.5875 23.185 76.8156 22.4131 75.8635 22.4131Z" fill="#ECF0F1"/>
<path d="M48.2762 60.3439H10.3453C9.39316 60.3439 8.62109 59.5721 8.62109 58.6197C8.62109 57.6674 9.39297 56.8955 10.3453 56.8955H48.2764C49.2285 56.8955 50.0006 57.6674 50.0006 58.6197C50.0006 59.5721 49.2285 60.3439 48.2762 60.3439Z" fill="#3F5C6C"/>
<path d="M29.3107 63.793C21.69 63.793 15.5176 68.4309 15.5176 74.1379C15.5176 79.8449 21.69 84.4828 29.3107 84.4828C36.9314 84.4828 43.1039 79.8449 43.1039 74.1379C43.1039 68.4309 36.9314 63.793 29.3107 63.793ZM30.8969 74.793C30.8094 75.0018 30.6869 75.1943 30.5348 75.3619C30.2041 75.6768 29.767 75.8553 29.3105 75.8619C29.2006 75.859 29.091 75.8475 28.983 75.8273C28.8688 75.8113 28.758 75.7764 28.6555 75.7238C28.5455 75.6861 28.4412 75.634 28.3451 75.5687L28.0865 75.3619C27.9344 75.1941 27.8119 75.0018 27.7244 74.793C27.6277 74.5885 27.5805 74.3641 27.5865 74.1379C27.5932 73.6814 27.7717 73.2443 28.0865 72.9137C28.1684 72.8394 28.2549 72.7705 28.3451 72.7068C28.4412 72.6416 28.5455 72.5893 28.6555 72.5518C28.7582 72.4992 28.8689 72.4643 28.983 72.4482C29.1992 72.4051 29.4219 72.4051 29.6381 72.4482C29.7523 72.4643 29.8631 72.4992 29.9656 72.5518C30.0756 72.5895 30.1799 72.6416 30.276 72.7068C30.3664 72.7705 30.4527 72.8396 30.5346 72.9137C30.8494 73.2443 31.0279 73.6814 31.0346 74.1379C31.0322 74.3631 30.9854 74.5855 30.8969 74.793Z" fill="#7D6599"/>
<path d="M100 48.275H0L4.79316 39.6543H95.2068L100 48.275Z" fill="#67B9CC"/>
<path d="M93.1031 56.8961V63.7926C93.1031 64.7447 92.3312 65.5168 91.3789 65.5168H56.8961C55.9439 65.5168 55.1719 64.7449 55.1719 63.7926V56.8961C55.1719 55.9439 55.9438 55.1719 56.8961 55.1719H91.3789C92.3311 55.1721 93.1031 55.9439 93.1031 56.8961Z" fill="#65DDB9"/>
<path d="M78.7246 55.1719H68.9658L58.6211 65.5166H68.3797L78.7246 55.1719Z" fill="#84E4C7"/>
<path d="M87.9314 55.1719H83.0693L72.7246 65.5166H77.5865L87.9314 55.1719Z" fill="#84E4C7"/>
</svg>
