<svg width="100" height="100" viewBox="0 0 100 100" fill="none" xmlns="http://www.w3.org/2000/svg">
<path d="M97.6562 75.7812H92.9688C92.1047 75.7812 91.4062 75.0828 91.4062 74.2188C91.4062 73.3547 92.1047 72.6562 92.9688 72.6562H97.6562C98.5203 72.6562 99.2188 73.3547 99.2188 74.2188C99.2188 75.0828 98.5203 75.7812 97.6562 75.7812Z" fill="#545C66"/>
<path d="M97.6562 83.6016H92.9688C92.1047 83.6016 91.4062 82.9031 91.4062 82.0391C91.4062 81.175 92.1047 80.4766 92.9688 80.4766H97.6562C98.5203 80.4766 99.2188 81.175 99.2188 82.0391C99.2188 82.9031 98.5203 83.6016 97.6562 83.6016Z" fill="#545C66"/>
<path d="M54.3438 22.6562H82.4219C82.1562 23.3906 82.0156 24.1719 82.0156 25C82.0156 25.8281 82.1562 26.6094 82.4219 27.3438H58.125C57.0156 25.6562 55.7516 24.0938 54.3438 22.6562Z" fill="#434A54"/>
<path d="M10.1562 44.5313C10.1562 32.4531 19.9547 22.6562 32.0312 22.6562C37.1422 22.6562 41.8297 24.4063 45.5625 27.3438H32.0312C20.75 27.3438 11.4688 35.8594 10.2656 46.8281C10.2031 46.0781 10.1562 45.3125 10.1562 44.5313Z" fill="#434A54"/>
<path d="M32.0312 75.7812C14.7656 75.7812 0.78125 61.7812 0.78125 44.5312C0.78125 27.2656 14.7656 13.2812 32.0312 13.2812C40.7656 13.2812 48.6719 16.8594 54.3438 22.6562C55.75 24.0938 57.0156 25.6562 58.125 27.3438C61.3906 32.2812 63.2812 38.1859 63.2812 44.5312C63.2812 61.7812 49.2812 75.7812 32.0312 75.7812ZM5.46875 44.5312C5.46875 59.1875 17.3594 71.0938 32.0312 71.0938C46.6875 71.0938 58.5938 59.1875 58.5938 44.5312C58.5938 29.8594 46.6875 17.9688 32.0312 17.9688C17.3594 17.9688 5.46875 29.8594 5.46875 44.5312Z" fill="#545C66"/>
<path d="M5.46875 44.5312C5.46875 29.8594 17.3594 17.9688 32.0312 17.9688C46.6875 17.9688 58.5938 29.8594 58.5938 44.5312C58.5938 59.1875 46.6875 71.0938 32.0312 71.0938C17.3594 71.0938 5.46875 59.1875 5.46875 44.5312ZM32.0312 22.6562C19.9547 22.6562 10.1562 32.4531 10.1562 44.5312C10.1562 45.3125 10.2031 46.0781 10.2656 46.8281C11.4219 57.8281 20.7344 66.4062 32.0312 66.4062C44.1094 66.4062 53.9062 56.6078 53.9062 44.5312C53.9062 37.5625 50.6406 31.3438 45.5625 27.3438C41.8297 24.4062 37.1422 22.6562 32.0312 22.6562Z" fill="#656D78"/>
<path d="M0.78125 44.5312C0.78125 61.7812 14.7656 75.7812 32.0312 75.7812H82.4219C82.1562 76.5156 82.0156 77.2969 82.0156 78.125C82.0156 78.9531 82.1562 79.7344 82.4219 80.4688H32.0312C14.7656 80.4688 0.78125 66.4844 0.78125 49.2188V44.5312Z" fill="#434A54"/>
<path d="M92.968 69.5293H89.0586C84.3211 69.5293 80.4648 73.3855 80.4648 78.123C80.4648 82.8605 84.3211 86.7168 89.0586 86.7168L92.968 86.7184C93.832 86.7184 94.5305 86.0199 94.5305 85.1559V71.0918C94.5305 70.2277 93.832 69.5293 92.968 69.5293Z" fill="#656D78"/>
<path d="M92.968 16.4062H89.0586C84.3211 16.4062 80.4648 20.2625 80.4648 25C80.4648 29.7375 84.3211 33.5937 89.0586 33.5937L92.968 33.5953C93.832 33.5953 94.5305 32.8969 94.5305 32.0328V17.9687C94.5305 17.1047 93.832 16.4062 92.968 16.4062Z" fill="#656D78"/>
</svg>
