<svg width="253" height="190" viewBox="0 0 253 190" fill="none" xmlns="http://www.w3.org/2000/svg">
<mask id="mask0" mask-type="alpha" maskUnits="userSpaceOnUse" x="0" y="126" width="64" height="64">
<rect y="126" width="63.4737" height="63.4737" fill="white"/>
</mask>
<g mask="url(#mask0)">
<rect x="84.3115" y="138.873" width="5.28947" height="101.029" transform="rotate(45 84.3115 138.873)" fill="#00B294"/>
<rect x="92.54" y="147.102" width="5.28947" height="101.029" transform="rotate(45 92.54 147.102)" fill="#00B294"/>
<rect x="67.8545" y="122.416" width="5.28947" height="101.029" transform="rotate(45 67.8545 122.416)" fill="#00B294"/>
<rect x="76.083" y="130.645" width="5.28947" height="101.029" transform="rotate(45 76.083 130.645)" fill="#00B294"/>
<rect x="51.3975" y="105.959" width="5.28947" height="101.029" transform="rotate(45 51.3975 105.959)" fill="#00B294"/>
<rect x="59.626" y="114.188" width="5.28947" height="101.029" transform="rotate(45 59.626 114.188)" fill="#00B294"/>
<rect x="34.9404" y="89.5029" width="5.28947" height="101.029" transform="rotate(45 34.9404 89.5029)" fill="#00B294"/>
<rect x="43.1689" y="97.7305" width="5.28947" height="101.029" transform="rotate(45 43.1689 97.7305)" fill="#00B294"/>
</g>
<rect x="63.3967" y="126.397" width="62.6803" height="62.6803" stroke="#00B294" stroke-width="0.793421"/>
<rect x="126.397" y="63.3972" width="62.6803" height="62.6803" stroke="#00B294" stroke-width="0.793421"/>
<path d="M135.389 63.3967H180.085V93.6789C180.085 106.021 170.079 116.027 157.737 116.027C145.394 116.027 135.389 106.021 135.389 93.6789V63.3967Z" stroke="#00B294" stroke-width="0.793421"/>
<rect x="0.396711" y="0.396711" width="62.6803" height="62.6803" stroke="#00B294" stroke-width="0.793421"/>
<circle cx="31.737" cy="18.5134" r="2.64474" fill="#00B294"/>
<circle cx="31.737" cy="31.737" r="2.64474" fill="#00B294"/>
<circle cx="31.737" cy="44.9611" r="2.64474" fill="#00B294"/>
<circle cx="18.5129" cy="18.5134" r="2.64474" fill="#00B294"/>
<circle cx="18.5129" cy="31.737" r="2.64474" fill="#00B294"/>
<circle cx="18.5129" cy="44.9611" r="2.64474" fill="#00B294"/>
<circle cx="44.9607" cy="18.5134" r="2.64474" fill="#00B294"/>
<circle cx="44.9607" cy="31.737" r="2.64474" fill="#00B294"/>
<circle cx="44.9607" cy="44.9611" r="2.64474" fill="#00B294"/>
<rect x="63.8703" y="63.3967" width="62.6803" height="62.6803" stroke="#00B294" stroke-width="0.793421"/>
<path d="M126.549 63.3979C126.336 97.9187 98.3923 125.862 63.8716 126.076C64.0848 91.555 92.0286 63.6112 126.549 63.3979Z" stroke="#00B294" stroke-width="0.793421"/>
<rect x="189.397" y="0.396711" width="62.6803" height="62.6803" stroke="#00B294" stroke-width="0.793421"/>
<circle cx="235.018" cy="26.9763" r="2.64474" transform="rotate(90 235.018 26.9763)" fill="#00B294"/>
<circle cx="225.497" cy="26.9768" r="2.64474" transform="rotate(90 225.497 26.9768)" fill="#00B294"/>
<circle cx="215.976" cy="26.9768" r="2.64474" transform="rotate(90 215.976 26.9768)" fill="#00B294"/>
<circle cx="235.018" cy="26.9763" r="2.64474" transform="rotate(90 235.018 26.9763)" fill="#00B294"/>
<circle cx="225.497" cy="26.9768" r="2.64474" transform="rotate(90 225.497 26.9768)" fill="#00B294"/>
<circle cx="215.976" cy="26.9768" r="2.64474" transform="rotate(90 215.976 26.9768)" fill="#00B294"/>
<circle cx="225.497" cy="36.4978" r="2.64474" transform="rotate(90 225.497 36.4978)" fill="#00B294"/>
<circle cx="215.976" cy="36.4978" r="2.64474" transform="rotate(90 215.976 36.4978)" fill="#00B294"/>
<circle cx="206.455" cy="36.4978" r="2.64474" transform="rotate(90 206.455 36.4978)" fill="#00B294"/>
<rect x="126.397" y="0.396711" width="62.6803" height="62.6803" stroke="#00B294" stroke-width="0.793421"/>
<circle cx="148.216" cy="12.6945" r="2.64474" fill="#00B294"/>
<circle cx="148.216" cy="22.216" r="2.64474" fill="#00B294"/>
<circle cx="148.216" cy="31.737" r="2.64474" fill="#00B294"/>
<circle cx="148.216" cy="12.6945" r="2.64474" fill="#00B294"/>
<circle cx="148.216" cy="22.216" r="2.64474" fill="#00B294"/>
<circle cx="148.216" cy="31.737" r="2.64474" fill="#00B294"/>
<circle cx="167.258" cy="31.737" r="2.64474" fill="#00B294"/>
<circle cx="167.258" cy="41.258" r="2.64474" fill="#00B294"/>
<circle cx="167.258" cy="50.779" r="2.64474" fill="#00B294"/>
<circle cx="157.737" cy="22.216" r="2.64474" fill="#00B294"/>
<circle cx="157.737" cy="31.737" r="2.64474" fill="#00B294"/>
<circle cx="157.737" cy="41.258" r="2.64474" fill="#00B294"/>
<rect x="0.396711" y="-0.396711" width="62.6803" height="62.6803" transform="matrix(1 0 0 -1 0 126.154)" stroke="#00B294" stroke-width="0.793421"/>
<path d="M63.0757 126.549C62.8625 92.0286 34.9187 64.0848 0.397939 63.8715C0.611206 98.3923 28.555 126.336 63.0757 126.549Z" stroke="#00B294" stroke-width="0.793421"/>
<rect x="63.3967" y="0.396711" width="62.6803" height="62.6803" stroke="#00B294" stroke-width="0.793421"/>
<circle cx="94.7367" cy="31.7367" r="4.89276" stroke="#00B294" stroke-width="0.793421"/>
</svg>
