<svg width="358" height="359" viewBox="0 0 358 359" fill="none" xmlns="http://www.w3.org/2000/svg">
<rect x="238.75" y="119.75" width="118.5" height="118.5" stroke="#808E9B" stroke-width="1.5"/>
<circle cx="280" cy="143" r="5" fill="#C4C4C4"/>
<circle cx="280" cy="161" r="5" fill="#C4C4C4"/>
<circle cx="280" cy="179" r="5" fill="#C4C4C4"/>
<circle cx="280" cy="143" r="5" fill="#C4C4C4"/>
<circle cx="280" cy="161" r="5" fill="#C4C4C4"/>
<circle cx="280" cy="179" r="5" fill="#C4C4C4"/>
<circle cx="316" cy="179" r="5" fill="#C4C4C4"/>
<circle cx="316" cy="197" r="5" fill="#C4C4C4"/>
<circle cx="316" cy="215" r="5" fill="#C4C4C4"/>
<circle cx="298" cy="161" r="5" fill="#C4C4C4"/>
<circle cx="298" cy="179" r="5" fill="#C4C4C4"/>
<circle cx="298" cy="197" r="5" fill="#C4C4C4"/>
<mask id="mask0" mask-type="alpha" maskUnits="userSpaceOnUse" x="119" y="0" width="120" height="120">
<rect x="119" width="120" height="120" fill="white"/>
</mask>
<g mask="url(#mask0)">
<rect x="278.395" y="24.3379" width="10" height="191" transform="rotate(45 278.395 24.3379)" fill="#C4C4C4"/>
<rect x="293.952" y="39.8945" width="10" height="191" transform="rotate(45 293.952 39.8945)" fill="#C4C4C4"/>
<rect x="247.283" y="-6.77441" width="10" height="191" transform="rotate(45 247.283 -6.77441)" fill="#C4C4C4"/>
<rect x="262.839" y="8.78223" width="10" height="191" transform="rotate(45 262.839 8.78223)" fill="#C4C4C4"/>
<rect x="216.17" y="-37.8877" width="10" height="191" transform="rotate(45 216.17 -37.8877)" fill="#C4C4C4"/>
<rect x="231.726" y="-22.3311" width="10" height="191" transform="rotate(45 231.726 -22.3311)" fill="#C4C4C4"/>
<rect x="185.057" y="-69" width="10" height="191" transform="rotate(45 185.057 -69)" fill="#C4C4C4"/>
<rect x="200.613" y="-53.4434" width="10" height="191" transform="rotate(45 200.613 -53.4434)" fill="#C4C4C4"/>
</g>
<rect x="238.75" y="0.75" width="118.5" height="118.5" stroke="#808E9B" stroke-width="1.5"/>
<circle cx="298" cy="35" r="5" fill="#C4C4C4"/>
<circle cx="298" cy="60" r="5" fill="#F1F2F3"/>
<circle cx="298" cy="85" r="5" fill="#C4C4C4"/>
<circle cx="273" cy="35" r="5" fill="#F1F2F3"/>
<circle cx="273" cy="60" r="5" fill="#C4C4C4"/>
<circle cx="273" cy="85" r="5" fill="#F1F2F3"/>
<circle cx="323" cy="35" r="5" fill="#F1F2F3"/>
<circle cx="323" cy="60" r="5" fill="#C4C4C4"/>
<circle cx="323" cy="85" r="5" fill="#C4C4C4"/>
<rect x="119.75" y="119.75" width="118.5" height="118.5" stroke="#808E9B" stroke-width="1.5"/>
<path d="M136.75 238.25H221.25V181C221.25 157.666 202.334 138.75 179 138.75C155.666 138.75 136.75 157.666 136.75 181V238.25Z" stroke="#808E9B" stroke-width="1.5"/>
<path d="M150.75 238.25H208.25V182.5C208.25 166.622 195.378 153.75 179.5 153.75C163.622 153.75 150.75 166.622 150.75 182.5V238.25Z" stroke="#808E9B" stroke-width="1.5"/>
<rect x="0.75" y="0.75" width="118.5" height="118.5" stroke="#808E9B" stroke-width="1.5"/>
<circle cx="87" cy="51" r="5" transform="rotate(90 87 51)" fill="#C4C4C4"/>
<circle cx="69" cy="51" r="5" transform="rotate(90 69 51)" fill="#C4C4C4"/>
<circle cx="51" cy="51" r="5" transform="rotate(90 51 51)" fill="#C4C4C4"/>
<circle cx="87" cy="51" r="5" transform="rotate(90 87 51)" fill="#C4C4C4"/>
<circle cx="69" cy="51" r="5" transform="rotate(90 69 51)" fill="#C4C4C4"/>
<circle cx="51" cy="51" r="5" transform="rotate(90 51 51)" fill="#C4C4C4"/>
<circle cx="69" cy="69" r="5" transform="rotate(90 69 69)" fill="#C4C4C4"/>
<circle cx="51" cy="69" r="5" transform="rotate(90 51 69)" fill="#C4C4C4"/>
<circle cx="33" cy="69" r="5" transform="rotate(90 33 69)" fill="#C4C4C4"/>
<rect x="238.75" y="239.75" width="118.5" height="118.5" stroke="#808E9B" stroke-width="1.5"/>
<path d="M357.25 346.247C298.612 345.846 251.154 298.388 250.753 239.75H357.25V346.247Z" stroke="#808E9B" stroke-width="1.5"/>
<path d="M357.25 316.246C315.181 315.846 281.154 281.819 280.754 239.75H357.25V316.246Z" stroke="#808E9B" stroke-width="1.5"/>
<path d="M357.25 282.244C333.959 281.848 315.152 263.041 314.756 239.75H357.25V282.244Z" stroke="#808E9B" stroke-width="1.5"/>
</svg>
