<svg width="100" height="100" viewBox="0 0 100 100" fill="none" xmlns="http://www.w3.org/2000/svg">
<path d="M64.186 2.01581V17.2384L60.1444 18.0986L50.7334 20.1026L37.4453 17.2384V2.01581C37.4453 0.903842 38.3492 0 39.4611 0H62.1682C63.2821 0 64.186 0.903842 64.186 2.01581Z" fill="#DCF5F8"/>
<path d="M64.187 2.01581V17.2384L60.1455 18.0986L58.3596 17.2384V2.01581C58.3596 0.903842 57.4557 0 56.3418 0H62.1692C63.2831 0 64.187 0.903842 64.187 2.01581Z" fill="#B3EDF2"/>
<path d="M66.2936 17.2393H35.3414C34.5597 17.2393 33.9258 17.8731 33.9258 18.6549V65.4095C33.9258 69.8274 35.6215 73.8485 38.3978 76.8585L39.1845 78.507L40.6725 78.9165C43.4972 81.0414 47.0105 82.3012 50.8173 82.3012C60.1463 82.3012 67.7091 74.7385 67.7091 65.4095V18.6549C67.7093 17.8731 67.0756 17.2393 66.2936 17.2393ZM50.8175 73.2311C46.9756 73.2311 43.8611 70.1166 43.8611 66.2747C43.8611 62.4327 46.9756 59.3184 50.8175 59.3184C54.6594 59.3184 57.7737 62.4329 57.7737 66.2747C57.7739 70.1166 54.6594 73.2311 50.8175 73.2311Z" fill="#537983"/>
<path d="M66.2922 17.2393H60.4648C61.2467 17.2393 61.8804 17.8731 61.8804 18.6549V65.4095C61.8804 73.7442 55.8421 80.6642 47.9023 82.0455C48.8494 82.2102 49.8218 82.301 50.816 82.301C60.145 82.301 67.7078 74.7383 67.7078 65.4093V18.6549C67.7078 17.8731 67.0741 17.2393 66.2922 17.2393Z" fill="#4B6F77"/>
<path d="M58.7167 50.0648H42.5905C41.7249 50.0648 41.0234 49.3631 41.0234 48.4977V27.7272C41.0234 26.8616 41.7251 26.1602 42.5905 26.1602H58.7167C59.5823 26.1602 60.2838 26.8618 60.2838 27.7272V48.4975C60.2838 49.3631 59.5821 50.0648 58.7167 50.0648Z" fill="#2ED1E2"/>
<path d="M58.7152 26.1602H54.2441C55.1097 26.1602 55.8112 26.8618 55.8112 27.7272V48.4977C55.8112 49.3633 55.1095 50.0648 54.2441 50.0648H58.7152C59.5808 50.0648 60.2822 49.3631 60.2822 48.4977V27.7272C60.2822 26.8616 59.5806 26.1602 58.7152 26.1602Z" fill="#03BED7"/>
<path d="M50.8171 57.2676C45.8429 57.2676 41.8105 61.3 41.8105 66.2741C41.8105 71.2482 45.8429 75.2806 50.8171 75.2806C55.7912 75.2806 59.8236 71.2482 59.8236 66.2741C59.8236 61.3 55.7914 57.2676 50.8171 57.2676ZM50.8171 70.1148C48.6994 70.1148 46.9765 68.392 46.9765 66.2743C46.9765 64.1566 48.6996 62.4337 50.8171 62.4337C52.9347 62.4337 54.6576 64.1566 54.6576 66.2743C54.6578 68.392 52.9347 70.1148 50.8171 70.1148Z" fill="#CB97E7"/>
<path d="M50.8171 57.2676C50.1933 57.2676 49.5842 57.3312 48.9961 57.4519C53.0973 58.2939 56.1816 61.9238 56.1816 66.2741C56.1816 70.6244 53.0973 74.2543 48.9961 75.0963C49.5842 75.217 50.1933 75.2806 50.8171 75.2806C55.7912 75.2806 59.8236 71.2482 59.8236 66.2741C59.8236 61.3 55.7914 57.2676 50.8171 57.2676Z" fill="#BD80E1"/>
<path d="M56.3342 13.0383C55.5131 13.0383 54.8477 12.3727 54.8477 11.5517V7.83424C54.8477 7.01325 55.5131 6.34766 56.3342 6.34766C57.1554 6.34766 57.8208 7.01325 57.8208 7.83424V11.5517C57.8208 12.3727 57.1554 13.0383 56.3342 13.0383Z" fill="#B3EDF2"/>
<path d="M45.301 13.0383C44.4798 13.0383 43.8145 12.3727 43.8145 11.5517V7.83424C43.8145 7.01325 44.4798 6.34766 45.301 6.34766C46.1222 6.34766 46.7876 7.01325 46.7876 7.83424V11.5517C46.7876 12.3727 46.122 13.0383 45.301 13.0383Z" fill="#B3EDF2"/>
<path d="M39.3404 100C38.6154 100 37.8645 99.8983 37.0897 99.6946C35.0343 99.2173 33.5596 98.025 32.824 96.2451C30.2891 90.1109 37.5742 78.1647 38.3971 76.8583C38.3971 76.8583 39.3977 77.958 40.6718 78.9163C40.6997 78.9374 38.8905 81.7571 37.3371 85.3443C35.4226 89.765 34.7958 93.2335 35.572 95.1104C35.9419 96.0049 36.643 96.5426 37.7781 96.8023C37.7948 96.8061 37.8114 96.8102 37.8281 96.8146C39.3854 97.2284 40.7091 97.0278 41.8728 96.2021C46.8972 92.6357 48.3231 78.4026 48.7731 72.5472C48.8878 71.0547 48.9707 69.9762 49.0805 69.341C49.2204 68.5317 49.9909 67.9898 50.7986 68.1293C51.6077 68.2693 52.15 69.0383 52.0102 69.8474C51.9242 70.3443 51.8378 71.4708 51.7375 72.7752C51.1744 80.0995 49.7546 94.2535 43.5934 98.6268C42.3051 99.541 40.8807 100 39.3404 100Z" fill="#DCF5F8"/>
<path d="M46.9768 45.5822C46.1556 45.5822 45.4902 44.9166 45.4902 44.0956V40.0862C45.4902 39.2652 46.1556 38.5996 46.9768 38.5996C47.798 38.5996 48.4634 39.2652 48.4634 40.0862V44.0956C48.4634 44.9166 47.798 45.5822 46.9768 45.5822Z" fill="#03BED7"/>
<path d="M52.6135 45.5826C51.7923 45.5826 51.127 44.917 51.127 44.096V33.1555C51.127 32.3345 51.7923 31.6689 52.6135 31.6689C53.4347 31.6689 54.1001 32.3345 54.1001 33.1555V44.096C54.1001 44.917 53.4347 45.5826 52.6135 45.5826Z" fill="#03BED7"/>
</svg>
