<svg width="1440" height="811" viewBox="0 0 1440 811" fill="none" xmlns="http://www.w3.org/2000/svg">
<mask id="mask0" mask-type="alpha" maskUnits="userSpaceOnUse" x="0" y="0" width="1440" height="811">
<rect width="1440" height="811" transform="matrix(1 0 0 -1 0 811)" fill="#C4C4C4"/>
</mask>
<g mask="url(#mask0)">
<path d="M1058.37 19.0215C1197.57 -1.37849 1373.04 27.5217 1443.37 44.5217L1577.87 771C1520.37 729.5 1360.37 715.5 1246.37 735.5C998.153 779.047 820.396 846.303 589.869 786C438.869 746.5 122.369 691.5 -33.1313 758.5C-71.4647 572.167 -139.212 89.4587 -33.1313 40.5217C141.369 -39.9782 268.869 19.0216 477.369 57.0217C701.063 97.7911 884.369 44.5215 1058.37 19.0215Z" fill="#D8FFF8"/>
<path d="M-7 766.43C66.5 746.264 252.4 711.43 408 733.43C602.5 760.93 859 823.43 1064 784.43C1269 745.43 1412 701.43 1515 722.43" stroke="#00B294" stroke-width="3"/>
<path d="M4 43.3557C77.5 23.189 220.219 -5.79152 356 17.8557C623 64.3556 868 86.3556 1052 50.3556C1282 5.35563 1425.5 9.35563 1490.5 33.8556" stroke="#00B294" stroke-width="3"/>
</g>
</svg>
