<svg width="402" height="402" viewBox="0 0 402 402" fill="none" xmlns="http://www.w3.org/2000/svg">
<path d="M359.114 126.01C372.091 119.856 387.776 125.355 392.204 139.017C398.564 158.633 401.882 179.162 401.997 199.887C402.112 220.612 399.021 241.176 392.879 260.862C388.602 274.572 372.979 280.245 359.935 274.234C346.892 268.224 341.436 252.796 345.09 238.907C348.405 226.303 350.063 213.282 349.99 200.175C349.918 187.068 348.116 174.066 344.661 161.5C340.853 147.652 346.138 132.164 359.114 126.01Z" fill="#34E7E4"/>
<path d="M131.548 361.624C125.848 374.806 110.429 381.012 98.0924 373.659C74.7361 359.738 54.3662 341.174 38.2957 319.018C17.1169 289.82 4.1853 255.461 0.85734 219.545C-2.47062 183.629 3.92765 147.479 19.3811 114.886C34.8345 82.2942 58.7736 54.4609 88.6874 34.306C118.601 14.1511 153.388 2.41725 189.398 0.335146C225.408 -1.74695 261.314 5.89944 293.352 22.4723C325.389 39.0452 352.377 63.9339 371.484 94.5278C385.982 117.743 395.537 143.593 399.668 170.468C401.849 184.663 390.307 196.623 375.949 196.955C361.592 197.287 349.912 185.825 347.092 171.743C343.579 154.204 336.922 137.369 327.372 122.077C313.209 99.3989 293.204 80.9501 269.456 68.6653C245.708 56.3806 219.092 50.7127 192.4 52.256C165.707 53.7994 139.921 62.4972 117.748 77.4371C95.5738 92.3771 77.8289 113.009 66.3739 137.168C54.919 161.327 50.1762 188.123 52.6431 214.747C55.11 241.37 64.6956 266.839 80.3945 288.482C90.9804 303.076 104.083 315.568 119.019 325.41C131.011 333.312 137.248 348.442 131.548 361.624Z" fill="#FFC048"/>
<path d="M173.895 373.884C171.67 388.072 158.291 397.935 144.509 393.898C119.982 386.716 96.9715 374.898 76.7573 359.002C49.7057 337.731 28.5685 309.87 15.3702 278.088C2.17191 246.306 -2.64544 211.668 1.37953 177.491C5.40449 143.314 18.137 110.743 38.3575 82.8966C58.578 55.0505 85.6094 32.8623 116.863 18.4571C148.116 4.05193 182.544 -2.08781 216.85 0.625933C251.156 3.33968 284.191 14.816 312.791 33.9558C334.162 48.2579 352.522 66.4811 366.943 87.58C375.046 99.4366 369.809 115.211 357.006 121.718C344.203 128.224 328.716 122.938 320.085 111.46C310.061 98.1274 297.83 86.5231 283.866 77.1775C262.666 62.99 238.179 54.4832 212.749 52.4716C187.32 50.46 161.799 55.0111 138.633 65.689C115.466 76.367 95.4289 92.8141 80.4403 113.455C65.4517 134.096 56.0137 158.24 53.0302 183.574C50.0467 208.908 53.6175 234.584 63.4009 258.142C73.1842 281.7 88.8522 302.352 108.904 318.12C122.113 328.507 136.933 336.545 152.713 341.951C166.299 346.605 176.119 359.696 173.895 373.884Z" fill="#5D5FEF"/>
<path d="M234.956 372.67C237.743 386.759 228.567 400.618 214.237 401.564C189.348 403.206 164.293 400.207 140.368 392.637C108.151 382.444 79.0232 364.293 55.6783 339.862C32.3334 315.431 15.5246 285.509 6.8058 252.861C-1.91296 220.214 -2.26023 185.896 5.79609 153.079C13.8524 120.262 30.0523 90.0057 52.898 65.1074C75.7438 40.209 104.498 21.4722 136.502 10.6291C168.507 -0.213954 202.729 -2.81332 236.004 3.07134C260.714 7.44136 284.31 16.3853 305.609 29.3664C317.872 36.8407 319.586 53.3733 310.592 64.5698C301.598 75.7663 285.307 77.3179 272.719 70.4049C258.496 62.5939 243.04 57.1304 226.947 54.2842C202.281 49.9222 176.914 51.849 153.191 59.8865C129.467 67.924 108.153 81.8128 91.2186 100.269C74.284 118.725 62.2758 141.152 56.304 165.478C50.3322 189.804 50.5896 215.243 57.0524 239.443C63.5153 263.643 75.9749 285.823 93.2795 303.932C110.584 322.042 132.175 335.496 156.056 343.052C171.638 347.982 187.867 350.297 204.09 349.96C218.449 349.663 232.169 358.582 234.956 372.67Z" fill="#EF5DA8"/>
<path d="M89.6237 335.978C80.4833 347.055 63.9461 348.728 54.1407 338.235C31.5358 314.045 15.16 284.537 6.64749 252.265C-4.08566 211.574 -1.7766 168.541 13.2491 129.232C28.2748 89.9237 55.2592 56.3225 90.3979 33.1662C118.267 14.8008 150.15 3.74009 183.126 0.796046C197.431 -0.481011 208.636 11.7963 208.057 26.1461C207.478 40.496 195.298 51.4255 181.065 53.3471C159.008 56.3252 137.784 64.224 119.016 76.5923C92.9688 93.757 72.9665 118.664 61.8286 147.802C50.6907 176.94 48.9791 208.838 56.9351 239C62.6679 260.734 73.2118 280.777 87.6585 297.708C96.9802 308.633 98.7641 324.9 89.6237 335.978Z" fill="#0057FF"/>
<path d="M375.996 201C390.358 201 402.173 212.69 400.32 226.932C397.308 250.082 390.277 272.598 379.479 293.446C364.682 322.014 343.242 346.613 316.963 365.175C290.684 383.737 260.333 395.72 228.461 400.115C196.59 404.511 164.128 401.191 133.806 390.436C103.483 379.68 76.1859 361.803 54.2076 338.306C32.2294 314.81 16.2127 286.38 7.50381 255.408C-1.20512 224.436 -2.3518 191.825 4.16013 160.318C8.91203 137.326 17.6408 115.411 29.8898 95.5376C37.4251 83.3117 53.966 81.6797 65.1175 90.7293C76.2691 99.779 77.7395 116.077 70.7638 128.631C63.4555 141.783 58.1569 156.011 55.0913 170.844C50.2643 194.199 51.1143 218.372 57.5698 241.33C64.0254 264.289 75.8978 285.362 92.1893 302.779C108.481 320.196 128.715 333.448 151.192 341.42C173.669 349.393 197.731 351.854 221.356 348.595C244.981 345.337 267.479 336.455 286.958 322.696C306.438 308.937 322.33 290.703 333.299 269.526C340.265 256.077 345.116 241.69 347.729 226.872C350.223 212.729 361.635 201 375.996 201Z" fill="#0BE881"/>
<path fill-rule="evenodd" clip-rule="evenodd" d="M400.328 226.879C402.145 212.661 390.341 201 375.997 201C361.635 201 350.223 212.729 347.73 226.872C347.016 230.92 346.135 234.935 345.09 238.907C341.436 252.796 346.892 268.224 359.936 274.234C372.978 280.244 388.599 274.573 392.878 260.867C392.919 260.737 392.959 260.606 393 260.476C396.389 249.535 398.84 238.312 400.321 226.932C400.323 226.914 400.326 226.897 400.328 226.879Z" fill="#34E7E4"/>
</svg>
