<svg width="101" height="100" viewBox="0 0 101 100" fill="none" xmlns="http://www.w3.org/2000/svg">
<path d="M78.2292 37.3583L63.557 43.2736L54.4244 36.9165L48.1582 27.8748L54.0736 13.2027C54.8167 11.3595 57.2006 10.8734 58.606 12.2788L79.1531 32.8259C80.5584 34.2312 80.0724 36.6152 78.2292 37.3583Z" fill="#F28CC4"/>
<path d="M79.1546 32.8273L74.8927 28.5654C76.2981 29.9708 75.812 32.3547 73.9688 33.0978L59.2969 39.0134L60.8017 41.3561L63.5585 43.275L78.2307 37.3597C80.0739 36.6166 80.5599 34.2326 79.1546 32.8273Z" fill="#ED74B7"/>
<path d="M52.9689 76.0158L56.021 72.9637C57.9889 70.9958 57.9889 67.8055 56.021 65.8376L48.5076 58.3242L41.8926 64.9393L45.5322 72.0318L52.9689 76.0158Z" fill="#F28CC4"/>
<path d="M56.0229 65.837L51.7611 61.5752C53.729 63.5431 53.729 66.7336 51.7611 68.7013L48.709 71.7534L49.8818 74.3603L52.9708 76.015L56.0229 72.9629C57.9908 70.9954 57.9908 67.8049 56.0229 65.837Z" fill="#ED74B7"/>
<path d="M25.8125 79.7282L43.1077 87.3099C45.2498 88.2471 47.1972 89.5775 48.8518 91.2323L52.6315 95.012L61.7931 94.2336L62.2991 85.3444L43.1324 66.1777L25.8125 79.7282Z" fill="#B3DAFE"/>
<path d="M42.3124 74.7753L63.5582 43.2748L48.1594 27.876L16.6589 49.1218C7.02463 55.6197 5.70788 69.292 13.9249 77.5093C22.1422 85.7265 35.8145 84.4098 42.3124 74.7753Z" fill="#B3DAFE"/>
<path d="M59.2964 39.0127L38.0506 70.5132C32.1281 79.2944 20.2465 81.1643 11.9668 75.2054C12.5458 76.0099 13.1973 76.7812 13.925 77.5088C22.1422 85.7261 35.8144 84.4093 42.3125 74.775L63.5583 43.2745L59.2964 39.0127Z" fill="#A4C7FF"/>
<path d="M36.7552 73.2065C36.4856 73.4761 36.2081 73.7298 35.9227 73.9697L34.4361 73.4349L32.9495 75.8468C31.6888 76.4196 30.3568 76.7784 29.005 76.9251L27.5917 75.444L26.0317 76.9074C24.6779 76.7449 23.3439 76.3683 22.0852 75.7776L20.7536 73.6583L19.112 73.843C18.8781 73.6408 18.6502 73.4287 18.4282 73.2067C13.3677 68.1463 13.3677 59.9401 18.4282 54.8797C18.6502 54.6577 18.8781 54.4456 19.112 54.2434L20.5986 54.3294L22.0852 52.3088C23.3439 51.7181 24.6779 51.3415 26.0317 51.179L27.5183 52.3088L29.005 51.1611C30.3568 51.3078 31.6888 51.6666 32.9495 52.2394L34.5945 54.5712L35.9227 54.1165C36.2081 54.3564 36.4856 54.6101 36.7552 54.8797C41.8157 59.9399 41.8157 68.1463 36.7552 73.2065Z" fill="#91B6FF"/>
<path d="M36.7563 54.8795C36.4874 54.6105 36.2099 54.3562 35.9238 54.1166L34.8818 53.9062L35.1169 54.3929C37.3024 59.1736 36.4299 65.0089 32.4945 68.9443C28.1678 73.271 21.544 73.8951 16.5508 70.8234C17.0719 71.6704 17.6959 72.4722 18.4299 73.2059C18.6517 73.4278 18.8796 73.6406 19.1129 73.843L20.7545 73.6583L22.0856 75.777C23.344 76.3675 24.6778 76.7445 26.0324 76.9078L27.5924 75.4442L29.0049 76.9249C30.3569 76.7776 31.6903 76.4178 32.951 75.8458L34.4368 73.4351L35.9234 73.9701C36.2093 73.7296 36.487 73.4751 36.7559 73.2061C41.817 68.1453 41.817 59.9401 36.7563 54.8795Z" fill="#7DA8FF"/>
<path d="M52.6309 95.0123L56.4772 98.8587C57.9985 100.38 60.4647 100.381 61.9874 98.8587L66.1448 94.7013C67.6661 93.18 67.6661 90.7124 66.1448 89.1911L62.2984 85.3447L52.6309 95.0123Z" fill="#91B6FF"/>
<path d="M46.8694 46.0511C46.489 46.0511 46.1084 45.906 45.8182 45.6158C45.2377 45.0351 45.2377 44.0939 45.8182 43.5134L50.2284 39.1033C50.8089 38.5229 51.7503 38.5229 52.3306 39.1033C52.9112 39.684 52.9112 40.6252 52.3306 41.2057L47.9205 45.6158C47.6303 45.9058 47.25 46.0511 46.8694 46.0511Z" fill="#D8ECFE"/>
<path d="M69.5159 9.8091C69.1355 9.8091 68.7549 9.66401 68.4647 9.37382C67.8842 8.79305 67.8842 7.85192 68.4647 7.27134L75.2998 0.436259C75.8804 -0.144118 76.8217 -0.144118 77.4021 0.436259C77.9827 1.01703 77.9827 1.95816 77.4021 2.53874L70.567 9.37382C70.2768 9.66381 69.8964 9.8091 69.5159 9.8091Z" fill="#D8ECFE"/>
<path d="M87.8147 0.520243C87.2341 -0.0601332 86.2928 -0.0601332 85.7124 0.520243L73.7128 12.5196C73.1322 13.1004 73.1322 14.0416 73.7128 14.6221C74.003 14.9123 74.3835 15.0574 74.7639 15.0574C75.1443 15.0574 75.5249 14.9123 75.8151 14.6221L87.8147 2.62272C88.3952 2.04215 88.3952 1.10102 87.8147 0.520243Z" fill="#D8ECFE"/>
<path d="M84.4163 24.7093C84.0359 24.7093 83.6553 24.5642 83.3651 24.274C82.7845 23.6932 82.7845 22.7521 83.3651 22.1715L90.2002 15.3366C90.7808 14.7561 91.7221 14.7565 92.3025 15.3366C92.8831 15.9174 92.8831 16.8586 92.3025 17.4391L85.4674 24.274C85.1772 24.564 84.7966 24.7093 84.4163 24.7093Z" fill="#D8ECFE"/>
<path d="M42.7084 50.3573C43.5117 50.3573 44.1629 49.7061 44.1629 48.9028C44.1629 48.0994 43.5117 47.4482 42.7084 47.4482C41.9051 47.4482 41.2539 48.0994 41.2539 48.9028C41.2539 49.7061 41.9051 50.3573 42.7084 50.3573Z" fill="#D8ECFE"/>
<path d="M22.0846 52.3096V75.7784C21.0301 75.2848 20.0271 74.6406 19.1113 73.8438V54.2442C20.0271 53.4475 21.0301 52.8033 22.0846 52.3096Z" fill="#D8ECFE"/>
<path d="M29.0045 51.1616V76.9258C28.0154 77.0328 27.0184 77.0288 26.0312 76.9079V51.1795C27.0184 51.0586 28.0154 51.0548 29.0045 51.1616Z" fill="#D8ECFE"/>
<path d="M35.9225 54.1173V71.4355C35.0027 72.2105 34.0017 75.3701 32.9492 75.8478V52.2402C33.4448 52.4642 33.9284 52.7219 34.3962 53.0133C34.9254 53.3382 35.4349 53.7068 35.9225 54.1173Z" fill="#D8ECFE"/>
<path d="M19.1113 72.0312C20.0786 72.3643 21.0756 72.5803 22.0846 72.6755V75.7775C21.0301 75.284 20.0271 74.6398 19.1113 73.8429V72.0312Z" fill="#A4C7FF"/>
<path d="M26.0312 72.4554C27.0521 72.2393 28.0511 71.8984 29.0045 71.4346V76.9252C28.0154 77.0322 27.0184 77.0282 26.0312 76.9073V72.4554Z" fill="#A4C7FF"/>
<path d="M35.9211 54.1169V56.7254C35.608 55.4291 35.0906 54.1705 34.3711 53.001C34.379 53.0049 34.387 53.0109 34.3949 53.0129C34.9241 53.3377 35.4335 53.7064 35.9211 54.1169Z" fill="#A4C7FF"/>
<path d="M32.9492 68.4652C34.4398 66.818 35.4309 64.8794 35.9225 62.8438V73.9696C35.0027 74.7446 34.0017 75.369 32.9492 75.8467V68.4652Z" fill="#A4C7FF"/>
</svg>
