<svg width="100" height="100" viewBox="0 0 100 100" fill="none" xmlns="http://www.w3.org/2000/svg">
<g clip-path="url(#clip0)">
<path d="M6.17734 50.3789C6.17734 37.4643 11.843 25.699 20.8096 17.5586C20.7207 17.482 20.6326 17.4043 20.5484 17.3201L16.2973 13.0693C15.7367 13.5807 15.1848 14.1045 14.6445 14.6447C5.20098 24.0883 0 36.6443 0 49.9998V66.5572L0.873828 67.6057H6.17734V50.3789Z" fill="#DBEDFF"/>
<path d="M3.21367 49.9998C3.21367 36.6443 8.41445 24.0883 17.8582 14.6445C17.8607 14.6422 17.8631 14.6398 17.8654 14.6375L16.2973 13.0693C15.7367 13.5807 15.1848 14.1045 14.6445 14.6447C5.20098 24.0883 0 36.6443 0 49.9998V66.5572L0.873828 67.6057H4.0875L3.21367 66.5572V49.9998Z" fill="#B5DCFF"/>
<path d="M85.3545 14.6447C84.8143 14.1045 84.2623 13.5807 83.7018 13.0693L79.4508 17.3203C79.4049 17.366 79.3559 17.4066 79.3086 17.4502C88.2139 25.477 93.8219 37.0953 93.8219 49.9998V67.6059H98.7109L99.9992 66.5574V50C99.999 36.6443 94.7982 24.0883 85.3545 14.6447Z" fill="#DBEDFF"/>
<path d="M85.3545 14.6447C84.8143 14.1045 84.2623 13.5807 83.7018 13.0693L79.4508 17.3203C79.4049 17.366 79.3559 17.4066 79.3086 17.4502C88.2139 25.477 93.8219 37.0953 93.8219 49.9998V67.6059H98.7109L99.9992 66.5574V50C99.999 36.6443 94.7982 24.0883 85.3545 14.6447Z" fill="#DBEDFF"/>
<path d="M97.1443 67.6061V50C97.1443 37.6508 92.0086 26.4793 83.7621 18.5061C83.1535 17.9176 83.1529 16.9416 83.7514 16.343C84.1369 15.9574 84.6684 15.4256 85.4012 14.6926C85.3854 14.6768 85.3703 14.6605 85.3545 14.6447C84.8143 14.1045 84.2623 13.5807 83.7018 13.0693L79.4508 17.3205C79.4049 17.3662 79.3559 17.4068 79.3086 17.4504C88.2139 25.4771 93.8219 37.0955 93.8219 50V67.6061H97.1443Z" fill="#B5DCFF"/>
<path d="M93.8238 66.5566L92.9785 67.2027V78.7053L93.8238 79.6353C97.2355 79.6353 100.001 76.8697 100.001 73.458V66.5568H93.8238V66.5566Z" fill="#A5AFE7"/>
<path d="M97.1465 66.5566H93.8238L92.9785 67.2027V78.7053L93.8238 79.6353C95.0473 79.6353 96.1867 79.2781 97.1465 78.6645V66.5566Z" fill="#8896E0"/>
<path d="M6.17734 66.5566H0V73.4578C0 76.8695 2.76562 79.6352 6.17734 79.6352L7.49707 78.8393V67.6051L6.17734 66.5566Z" fill="#8896E0"/>
<path d="M3.21367 73.4578V66.5566H0V73.4578C0 76.8695 2.76562 79.6352 6.17734 79.6352L6.98398 79.1486C4.76816 78.2102 3.21367 76.0156 3.21367 73.4578Z" fill="#6B7ED9"/>
<path d="M50.0008 0C37.4092 0 25.5291 4.6248 16.2969 13.068L20.549 17.3201C22.1896 18.9607 24.7766 19.1541 26.6533 17.7898C33.2158 13.0191 41.285 10.2014 50.0008 10.2014C58.7166 10.2014 66.7855 13.0191 73.3482 17.7898C75.225 19.1541 77.8119 18.9607 79.4525 17.3201L83.7047 13.068C74.4725 4.6248 62.5924 0 50.0008 0Z" fill="#FF636E"/>
<path d="M30.6391 10.2652C37.8707 4.71562 46.4148 1.28809 55.4982 0.299609C53.685 0.102539 51.851 0 50.0008 0C37.4092 0 25.5291 4.6248 16.2969 13.0682L20.549 17.3203C22.1896 18.9609 24.7766 19.1543 26.6533 17.79C27.7072 17.0238 28.8006 16.3088 29.9287 15.6469C28.6631 13.991 28.9355 11.5727 30.6391 10.2652Z" fill="#FF4654"/>
<path d="M89.5139 58.6504H86.3793L85.2285 60.5639V94.6688L86.3793 95.8807H89.5139C91.8824 95.8807 93.8205 93.9428 93.8205 91.574V62.957C93.8205 60.5883 91.8826 58.6504 89.5139 58.6504Z" fill="#6B7ED9"/>
<path d="M13.617 58.6504H10.4824C8.11387 58.6504 6.17578 60.5883 6.17578 62.957V91.574C6.17578 93.9428 8.11367 95.8807 10.4824 95.8807H13.617L15.2758 94.8197V60.2621L13.617 58.6504Z" fill="#6B7ED9"/>
<path d="M90.6857 58.8172C90.3129 58.7111 89.9213 58.6504 89.5158 58.6504H86.3813L85.2305 60.5639V94.6688L86.3813 95.8807H89.5158C89.9215 95.8807 90.3131 95.8199 90.6857 95.7139V58.8172Z" fill="#4D66D2"/>
<path d="M10.7258 91.574V62.957C10.7258 61.0148 12.0293 59.3645 13.8041 58.8322L13.617 58.6504H10.4824C8.11387 58.6504 6.17578 60.5883 6.17578 62.957V91.574C6.17578 93.9428 8.11367 95.8807 10.4824 95.8807H13.617L13.8732 95.7166C12.0637 95.2068 10.7258 93.541 10.7258 91.574Z" fill="#4D66D2"/>
<path d="M71.4873 54.5303H83.4342C85.0547 54.5303 86.3805 55.8561 86.3805 57.4766V97.0537C86.3805 98.6742 85.0547 100 83.4342 100H71.4873C69.8668 100 68.541 98.6742 68.541 97.0537V57.4766C68.541 55.8562 69.8668 54.5303 71.4873 54.5303Z" fill="#FF636E"/>
<path d="M28.5104 54.5303H16.5635C14.943 54.5303 13.6172 55.8561 13.6172 57.4766V97.0537C13.6172 98.6742 14.943 100 16.5635 100H28.5104C30.1309 100 31.4566 98.6742 31.4566 97.0537V57.4766C31.4568 55.8562 30.1309 54.5303 28.5104 54.5303Z" fill="#FF636E"/>
<path d="M75.9539 97.0539V57.4766C75.9539 55.8561 77.2797 54.5303 78.9002 54.5303H71.4873C69.8668 54.5303 68.541 55.8562 68.541 57.4766V97.0537C68.541 98.6742 69.8668 100 71.4873 100H78.9002C77.2797 100 75.9539 98.6742 75.9539 97.0539Z" fill="#FF4654"/>
<path d="M21.0303 97.0539V57.4766C21.0303 55.8561 22.3561 54.5303 23.9766 54.5303H16.5635C14.943 54.5303 13.6172 55.8562 13.6172 57.4766V97.0537C13.6172 98.6742 14.943 100 16.5635 100H23.9764C22.3561 100 21.0303 98.6742 21.0303 97.0539Z" fill="#FF4654"/>
</g>
<defs>
<clipPath id="clip0">
<rect width="100" height="100" fill="white"/>
</clipPath>
</defs>
</svg>
