<svg width="32" height="32" viewBox="0 0 32 32" fill="none" xmlns="http://www.w3.org/2000/svg">
<path d="M16.7354 3.04748L14.9026 5.35795e-08H12.3211C11.1386 -0.000214236 10.0427 0.642369 9.43446 1.6926L7.72412 4.57151L13.7931 8.57159L16.7354 3.04748Z" fill="#6A9923"/>
<path d="M26.3996 5.49308L24.2761 1.71428C23.7357 0.656224 22.6732 -0.00405265 21.5174 1.87208e-05H14.9028L19.8623 9.71417L17.1037 11.4284L25.3144 12.3958L29.2416 3.99996L26.3996 5.49308Z" fill="#88B337"/>
<path d="M29.7931 12L23.1724 16L25.931 21.1428H30.3448L31.4979 19.2143C32.1382 18.1406 32.1682 16.7922 31.5762 15.6891L29.7931 12Z" fill="#6A9923"/>
<path d="M19.3102 21.143V18.2859L13.793 24.5716L19.3102 32.0001V29.7144H23.724C24.8863 29.7437 25.9607 29.0761 26.4826 28.0001L30.3447 21.143H19.3102Z" fill="#88B337"/>
<path d="M5.51727 21.7144L4.17383 24.9213L5.85272 27.9334C6.47547 29.025 7.60347 29.7004 8.8276 29.7146H11.0345V21.7144H5.51727Z" fill="#6A9923"/>
<path d="M12.1379 16.5715L8.82755 9.14307L0 9.71449L3.1553 11.7407L1.10344 16.0001C0.532687 17.0665 0.532687 18.3622 1.10344 19.4286L4.17322 24.9211L5.32191 22.8571L9.4223 15.4858L12.1379 16.5715Z" fill="#88B337"/>
</svg>
