<svg width="32" height="31" viewBox="0 0 32 31" fill="none" xmlns="http://www.w3.org/2000/svg">
<path d="M7.47788 6.48842L20.2348 3.00633L19.5592 1.64081C19.1172 0.753215 18.0391 0.386679 17.1515 0.828678L5.73145 6.48842H7.47788Z" fill="#367BFF"/>
<path d="M24.1947 3.10693C24.0366 3.10693 23.8785 3.12849 23.7204 3.17162L20.7234 3.99093L11.5708 6.4884H21.9596H26.4874L25.9268 4.43293C25.7112 3.63158 24.9853 3.10693 24.1947 3.10693Z" fill="#0057FF"/>
<path d="M28.3598 7H27.9501H27.3931H26.8362H22.5851H6.96418H4.91589H3.19102H2.8712H1.80034C1.23257 7 0.725884 7.26232 0.395284 7.67558C0.244357 7.86603 0.129366 8.08523 0.0646828 8.326C0.0251544 8.47692 0 8.63504 0 8.79674V9.01235V11.0606V28.8161C0 29.8079 0.804941 30.6128 1.79674 30.6128H28.3562C29.348 30.6128 30.1529 29.8079 30.1529 28.8161V23.8031H19.4911C17.8057 23.8031 16.4366 22.434 16.4366 20.7487V19.1029V18.5459V17.9889V16.7527C16.4366 15.9262 16.7672 15.1752 17.3026 14.6254C17.777 14.1367 18.413 13.8061 19.1245 13.7234C19.2431 13.7091 19.3653 13.7019 19.4875 13.7019H28.6581H29.215H29.772H30.1529V8.79674C30.1565 7.80494 29.3516 7 28.3598 7Z" fill="#367BFF"/>
<mask id="mask0" mask-type="alpha" maskUnits="userSpaceOnUse" x="0" y="7" width="31" height="24">
<path d="M28.3598 7H27.9501H27.3931H26.8362H22.5851H6.96418H4.91589H3.19102H2.8712H1.80034C1.23257 7 0.725884 7.26232 0.395284 7.67558C0.244357 7.86603 0.129366 8.08523 0.0646828 8.326C0.0251544 8.47692 0 8.63504 0 8.79674V9.01235V11.0606V28.8161C0 29.8079 0.804941 30.6128 1.79674 30.6128H28.3562C29.348 30.6128 30.1529 29.8079 30.1529 28.8161V23.8031H19.4911C17.8057 23.8031 16.4366 22.434 16.4366 20.7487V19.1029V18.5459V17.9889V16.7527C16.4366 15.9262 16.7672 15.1752 17.3026 14.6254C17.777 14.1367 18.413 13.8061 19.1245 13.7234C19.2431 13.7091 19.3653 13.7019 19.4875 13.7019H28.6581H29.215H29.772H30.1529V8.79674C30.1565 7.80494 29.3516 7 28.3598 7Z" fill="black"/>
</mask>
<g mask="url(#mask0)">
<path d="M-0.5 32.5C10.3 30.1 23.6667 14.1667 29 6.5H33.5V32.5H-0.5Z" fill="#0057FF"/>
</g>
<path d="M31.4143 15.4707C31.2346 15.3054 31.0226 15.1796 30.7854 15.097C30.6021 15.0359 30.4081 15 30.2033 15H30.1565H30.1206H29.5636H27.5549H19.4911C18.4992 15 17.6943 15.8049 17.6943 16.7967V17.6915V18.2485V18.8055V20.7963C17.6943 21.7881 18.4992 22.593 19.4911 22.593H30.1565H30.2033C30.4081 22.593 30.6021 22.5571 30.7854 22.496C31.0226 22.4169 31.2346 22.2876 31.4143 22.1223C31.7736 21.7952 32 21.3209 32 20.7963V16.7967C32 16.2721 31.7736 15.7977 31.4143 15.4707ZM23.2427 19.154C23.2427 19.6499 22.8402 20.0524 22.3443 20.0524H21.7478C21.2519 20.0524 20.8494 19.6499 20.8494 19.154V18.5575C20.8494 18.27 20.9824 18.0149 21.1944 17.8532C21.3489 17.7346 21.5394 17.6591 21.7478 17.6591H21.8987H22.3443C22.8402 17.6591 23.2427 18.0616 23.2427 18.5575V19.154Z" fill="#0057FF"/>
</svg>
