<svg width="32" height="32" viewBox="0 0 32 32" fill="none" xmlns="http://www.w3.org/2000/svg">
<g clip-path="url(#clip0)">
<path d="M15.9944 31.9906C24.8279 31.9906 31.9889 24.8296 31.9889 15.9962C31.9889 7.16267 24.8279 0.00170898 15.9944 0.00170898C7.16096 0.00170898 0 7.16267 0 15.9962C0 24.8296 7.16096 31.9906 15.9944 31.9906Z" fill="#4398D1"/>
<path d="M24.996 2.77539C22.7976 17.0678 12.7624 24.4242 5.38623 27.9644C11.9919 33.8292 22.1012 33.2286 27.966 26.6229C33.8308 20.0172 33.2302 9.90795 26.6244 4.04316C26.1095 3.58594 25.5655 3.1625 24.996 2.77539Z" fill="#3E8CC7"/>
<path d="M20.9585 12.6871V16.5478H24.2677V22.6147H27.0254L28.68 19.3055V15.9963L29.783 13.2386H27.0254V10.481H23.1646L20.9585 12.6871Z" fill="#88B337"/>
<path d="M12.6851 17.0991H18.7519V22.0629L17.0973 25.3721H14.8912V22.0629H12.6851V17.0991Z" fill="#88B337"/>
<path d="M8.82465 14.8931L12.6854 17.0993V12.1355H17.6492V9.37781L14.34 4.96555H10.4792V0.978516C5.12697 2.95052 1.2275 7.62035 0.241699 13.2385H8.82465V14.8931Z" fill="#88B337"/>
<path d="M24.2675 7.72317H29.6852C27.596 4.27327 24.2828 1.73801 20.4067 0.623291V3.86244L24.2675 7.72317Z" fill="#88B337"/>
<path d="M7.16993 22.5853V2.20784C7.16993 0.989435 6.1822 0.00170898 4.96379 0.00170898C3.74539 0.00170898 2.75766 0.989435 2.75766 2.20784V22.5853C1.07514 23.4188 0.00765252 25.131 0 27.0086C0.0174422 29.6868 2.13457 31.8794 4.81047 31.9906C7.54897 32.079 9.84058 29.9306 9.9289 27.1921C9.99164 25.2485 8.91304 23.4474 7.16993 22.5853Z" fill="#DEDEDE"/>
<path d="M4.96387 19.3052H7.17V20.4082H4.96387V19.3052Z" fill="#BABABA"/>
<path d="M4.96387 15.9961H7.17V17.0992H4.96387V15.9961Z" fill="#BABABA"/>
<path d="M4.96387 12.6868H7.17V13.7898H4.96387V12.6868Z" fill="#BABABA"/>
<path d="M4.96387 9.37769H7.17V10.4808H4.96387V9.37769Z" fill="#BABABA"/>
<path d="M4.96387 6.06836H7.17V7.17142H4.96387V6.06836Z" fill="#BABABA"/>
<path d="M4.96387 2.75928H7.17V3.86234H4.96387V2.75928Z" fill="#BABABA"/>
<path d="M4.96394 29.2328C6.18236 29.2328 7.17007 28.2451 7.17007 27.0267C7.17007 25.8083 6.18236 24.8206 4.96394 24.8206C3.74553 24.8206 2.75781 25.8083 2.75781 27.0267C2.75781 28.2451 3.74553 29.2328 4.96394 29.2328Z" fill="#DE4C3C"/>
<path d="M4.4126 8.27466H5.51566V26.4752H4.4126V8.27466Z" fill="#DE4C3C"/>
<path d="M8.82452 13.2385H7.16992V22.5854C9.62341 23.8001 10.6277 26.7738 9.41286 29.2274C9.23113 29.5944 9.00459 29.9376 8.73848 30.2489C9.22907 30.4989 9.7322 30.7234 10.2458 30.9218C12.396 29.226 12.7644 26.1083 11.0687 23.9581C10.6133 23.3807 10.0351 22.9117 9.37605 22.5853C9.37605 22.5853 9.36778 19.2287 9.35289 15.1947L8.82452 14.8931V13.2385Z" fill="#3E8CC7"/>
<path d="M9.1036 1.56809C8.8319 1.69791 8.5642 1.83483 8.30056 1.97898C8.20956 2.02917 8.11966 2.08157 8.02921 2.13341C7.79281 2.26909 7.56006 2.41104 7.33097 2.5592L7.16992 2.66509V13.2385H8.82452V14.8931L9.35289 15.1954C9.33083 9.18366 9.29443 1.66847 9.2481 1.49805C9.19956 1.52066 9.15213 1.54603 9.1036 1.56809Z" fill="#80AB30"/>
</g>
<defs>
<clipPath id="clip0">
<rect width="32" height="32" fill="white"/>
</clipPath>
</defs>
</svg>
