<svg width="100" height="100" viewBox="0 0 100 100" fill="none" xmlns="http://www.w3.org/2000/svg">
<g clip-path="url(#clip0)">
<path d="M91.0339 35.675C90.3831 35.675 89.782 35.2516 89.5859 34.5963C89.3456 33.7959 89.8003 32.9521 90.6006 32.7118L94.6327 31.5025C96.0342 31.0822 96.9757 29.8164 96.9757 28.3531C96.9757 26.5404 95.5009 25.0656 93.689 25.0656H75.4524C71.9719 25.0656 69.1406 22.2328 69.1406 18.7508V17.1379C69.1406 16.3025 69.8181 15.625 70.6528 15.625C71.489 15.625 72.1657 16.3025 72.1657 17.1379V18.7508C72.1657 20.5635 73.6404 22.039 75.4524 22.039H93.689C97.1695 22.039 100.001 24.8711 100.001 28.3531C100.001 31.1638 98.1926 33.5953 95.5017 34.4017L91.4688 35.611C91.3239 35.6544 91.1781 35.675 91.0339 35.675Z" fill="#E4EAF7"/>
<path d="M25.3434 49.0444H20.4277V44.5614C20.4277 43.1545 21.0671 41.8232 22.1657 40.9443L23.6641 39.7442C24.3409 39.2025 25.3434 39.6847 25.3434 40.5514V49.0444Z" fill="#C7CFE2"/>
<path d="M89.0422 36.9852L81.4235 38.1769C80.1128 38.3821 78.8837 37.4857 78.6792 36.1742L78.6541 36.017C78.4496 34.7063 79.346 33.4772 80.6568 33.2727L88.2755 32.081C89.5862 31.8758 90.8153 32.7722 91.0205 34.083L91.0449 34.2401C91.2502 35.5516 90.3537 36.78 89.0422 36.9852Z" fill="#AFB9D2"/>
<path d="M73.9723 84.3717H4.68674C2.09808 84.3717 0 82.2728 0 79.6842V79.5293H78.6598V79.6849C78.6598 82.2728 76.561 84.3717 73.9723 84.3717Z" fill="#AFB9D2"/>
<path d="M64.6748 79.5293C64.6748 82.2042 62.5073 84.3717 59.834 84.3717H73.8202C76.4935 84.3717 78.661 82.2042 78.661 79.5293H64.6748Z" fill="#A1A8C6"/>
<path d="M97.0589 67.288L85.2959 38.8975L84.7794 37.6524C83.2161 33.8812 79.3739 31.5748 75.3136 31.9708L55.1353 33.9323C35.6567 35.8267 18.3243 47.1022 8.6937 64.1462L7.10983 66.9493L0 79.5301H78.6598C80.1567 77.8089 82.7301 75.2783 86.5868 73.2748C89.7919 71.6101 92.8314 70.8517 95.2301 70.5084C96.7445 70.2925 97.6463 68.7025 97.0589 67.288ZM77.4506 54.3745C77.4506 58.2754 74.2897 61.437 70.3903 61.437H50.6836C46.785 61.437 43.6241 58.2754 43.6241 54.3745C43.6241 50.4743 46.785 47.3127 50.6836 47.3127H70.3903C74.2897 47.3127 77.4506 50.4743 77.4506 54.3745Z" fill="#40CB7F"/>
<path d="M97.058 67.288L85.295 38.8975L84.7785 37.6524C83.2153 33.8812 79.3731 31.5748 75.3127 31.9708L66.3688 32.8398C68.3799 33.8049 70.0309 35.4864 70.9281 37.6524L71.4446 38.8975L76.1909 50.3515C76.7547 51.164 77.1522 52.1009 77.3345 53.1126L83.2084 67.288C83.7951 68.7025 82.8933 70.2925 81.3789 70.5084C78.9802 70.8509 75.9406 71.6101 72.7355 73.2748C68.8789 75.2783 66.3055 77.8089 64.8086 79.5294H78.659C80.1559 77.8089 82.7293 75.2783 86.5859 73.2748C89.791 71.6101 92.8306 70.8509 95.2285 70.5084C96.7437 70.2925 97.6455 68.7025 97.058 67.288Z" fill="#40BC79"/>
<path d="M85.2954 38.8971C78.6212 38.8109 72.7756 39.0428 67.9286 39.3755C59.534 39.9485 53.3298 40.8747 48.3821 42.2205C43.4344 43.5648 39.7388 45.3279 36.3628 47.5817C24.8073 55.2858 24.7302 64.8745 13.5036 66.8177C11.1957 67.2167 9.02969 67.1869 7.10938 66.9481L8.69324 64.1458C18.3238 47.101 35.6563 35.8263 55.1349 33.9312L75.3131 31.9696C79.3735 31.5744 83.2156 33.8808 84.7789 37.652L85.2954 38.8971Z" fill="#E4EAF7"/>
<path d="M75.3131 31.9707L66.3691 32.8397C68.3802 33.8049 70.0312 35.4864 70.9285 37.6524L71.445 38.8975L71.5533 39.1584C75.603 38.9509 80.2073 38.8311 85.2954 38.8975L85.0375 38.2749L84.7789 37.6524C84.2418 36.3561 83.4353 35.2331 82.4427 34.3328C81.811 33.7606 81.1046 33.2784 80.3447 32.8992C78.8241 32.1416 77.0892 31.7976 75.3131 31.9707Z" fill="#D7DEED"/>
<path d="M26.8578 72.1653C26.8578 73.0007 26.1804 73.6774 25.3449 73.6774C24.5095 73.6774 23.832 73.0007 23.832 72.1653C23.832 71.3298 24.5095 70.6523 25.3449 70.6523C26.1804 70.6523 26.8578 71.3298 26.8578 72.1653Z" fill="white"/>
<path d="M33.2114 72.1653C33.2114 73.0007 32.5339 73.6774 31.6985 73.6774C30.863 73.6774 30.1855 73.0007 30.1855 72.1653C30.1855 71.3298 30.863 70.6523 31.6985 70.6523C32.5339 70.6523 33.2114 71.3298 33.2114 72.1653Z" fill="white"/>
<path d="M66.3903 72.1653C66.3903 73.0007 65.7136 73.6774 64.8781 73.6774C64.0427 73.6774 63.3652 73.0007 63.3652 72.1653C63.3652 71.3298 64.0427 70.6523 64.8781 70.6523C65.7136 70.6523 66.3903 71.3298 66.3903 72.1653Z" fill="white"/>
<path d="M72.7458 72.1653C72.7458 73.0007 72.069 73.6774 71.2328 73.6774C70.3974 73.6774 69.7207 73.0007 69.7207 72.1653C69.7207 71.3298 70.3974 70.6523 71.2328 70.6523C72.069 70.6523 72.7458 71.3298 72.7458 72.1653Z" fill="white"/>
<path d="M67.1961 61.4369H53.8164V58.7811C53.8164 57.5329 54.8288 56.5205 56.077 56.5205H64.9355C66.1844 56.5205 67.1961 57.5329 67.1961 58.7811V61.4369Z" fill="#409F7F"/>
<path d="M56.1514 56.5205C55.0955 56.5205 54.2036 57.2232 53.916 58.186H67.0981C66.8105 57.2232 65.9186 56.5205 64.8619 56.5205H56.1514Z" fill="#E4EAF7"/>
</g>
<defs>
<clipPath id="clip0">
<rect width="100" height="100" fill="white"/>
</clipPath>
</defs>
</svg>
