<svg width="100" height="100" viewBox="0 0 100 100" fill="none" xmlns="http://www.w3.org/2000/svg">
<g clip-path="url(#clip0)">
<path d="M50.9428 6.1036C50.9634 5.72441 50.9473 5.33455 50.8894 4.93935C50.5117 2.34306 48.3808 0.299136 45.7708 0.031343C42.2979 -0.324188 39.3674 2.39189 39.3674 5.79232C39.3674 5.88387 39.3697 5.97466 39.3743 6.06545C39.4162 6.96877 38.8341 7.7752 37.9544 7.98577C29.1203 10.1006 21.1438 16.1737 17.2383 26.2056H73.081C69.1748 16.1729 61.1982 10.1006 52.3641 7.98501C51.4982 7.77825 50.8955 6.99242 50.9428 6.1036Z" fill="#3E73B7"/>
<path d="M73.0799 26.2063L67.7477 26.2056C66.5674 23.1736 64.9126 20.3179 62.8427 17.804C60.1411 14.5234 55.9099 12.5054 51.8235 11.6311C50.0444 11.2504 48.8015 10.7568 47.4382 9.5452C46.2525 8.49234 46.058 6.704 46.0099 5.18727C45.9687 3.86128 44.8648 2.69474 43.9744 1.77235C43.8081 1.59992 42.727 0.528752 42.4844 0.656164C43.4525 0.14957 44.5802 -0.0907564 45.7711 0.0313143C48.3796 0.298344 50.512 2.34379 50.8889 4.94008C50.9469 5.33529 50.9637 5.72362 50.9423 6.10433C50.895 6.99163 51.4993 7.77822 52.3637 7.98498C61.1978 10.1006 69.1744 16.1736 73.0799 26.2063Z" fill="#1E5996"/>
<path d="M65.5684 25.2969H82.215C90.2503 25.2969 96.7643 31.8109 96.7643 39.8462V57.152C96.7643 59.3881 94.9516 61.2009 92.7154 61.2009C90.7714 61.2009 89.1013 59.8184 88.7382 57.9088L85.2843 39.7531C84.6076 36.1947 81.4963 33.619 77.8731 33.619H68.2409L65.5684 25.2969Z" fill="#6A6C78"/>
<path d="M79.5302 33.8016C78.9954 33.6826 78.4407 33.62 77.8731 33.62H68.2409L65.5684 25.2979H77.0071C77.9418 28.1009 78.7795 30.9383 79.5302 33.8016Z" fill="#5B5D68"/>
<path d="M72.6137 25.2976C72.6137 25.2969 72.6137 25.2969 72.613 25.2969H6.20576C4.5189 25.2969 3.2425 26.8594 3.56598 28.544C4.23051 32.0123 6.08064 37.5162 11.2259 41.282C12.2368 42.0213 12.7137 43.3038 12.439 44.539C9.67104 56.9773 8.36718 69.8061 7.84075 82.442H82.9028C82.0994 63.1502 79.4879 43.4076 72.6137 25.2976Z" fill="#C5DBFF"/>
<path d="M82.9026 82.4412H7.83984C7.90469 80.8932 7.98099 79.3429 8.06796 77.7888H71.5234C74.0121 77.7888 75.9881 75.6579 75.8431 73.1303C74.9177 56.9796 72.5945 40.632 67.4454 25.2969H72.6121H72.6144C79.4885 43.4083 82.1 63.1518 82.9026 82.4412Z" fill="#9ECAFF"/>
<path d="M12.7051 92.2646L13.9769 98.0264C14.234 99.1921 15.0832 100 16.0513 100H74.691C75.66 100 76.5091 99.1921 76.7663 98.0264L78.0373 92.2646H12.7051Z" fill="#6A6C78"/>
<path d="M78.0365 92.2637L77.2751 95.7076H13.4657L12.7051 92.2637H78.0365Z" fill="#5B5D68"/>
<path d="M83.6647 93.8046H7.07987C6.04074 93.8046 5.19922 92.9623 5.19922 91.9231V83.3484C5.19922 82.3093 6.04074 81.4678 7.07987 81.4678H83.6647C84.7038 81.4678 85.5454 82.3093 85.5454 83.3484V91.9231C85.5454 92.9623 84.7038 93.8046 83.6647 93.8046Z" fill="#3E73B7"/>
<path d="M45.3727 73.3301C41.2109 73.3301 37.8379 69.9571 37.8379 65.7961V40.9676C37.8379 36.8066 41.2109 33.4336 45.3727 33.4336C49.5338 33.4336 52.9067 36.8066 52.9067 40.9676V65.7961C52.9067 69.9571 49.5338 73.3301 45.3727 73.3301Z" fill="#FEF1DA"/>
<path d="M52.9053 40.9682V65.7959C52.9053 69.9569 49.5324 73.3314 45.3713 73.3314C42.4286 73.3314 39.8796 71.6446 38.6406 69.1841C39.5325 69.5556 40.5091 69.7616 41.5368 69.7616C45.6978 69.7616 49.0708 66.3871 49.0708 62.2261V37.3984C49.0708 36.1815 48.7816 35.0295 48.2697 34.0117C49.186 34.3932 50.0092 34.9501 50.6989 35.6406C52.0615 37.0047 52.9053 38.8877 52.9053 40.9682Z" fill="#FDE6BF"/>
<path d="M46.7182 38.1445H44.0273C43.1919 38.1445 42.5137 38.822 42.5137 39.6582C42.5137 40.4944 43.1919 41.1719 44.0273 41.1719H46.7182C47.5544 41.1719 48.2319 40.4944 48.2319 39.6582C48.2319 38.822 47.5544 38.1445 46.7182 38.1445Z" fill="#3E73B7"/>
<path d="M46.7182 47.2939H44.0273C43.1919 47.2939 42.5137 47.9714 42.5137 48.8076C42.5137 49.643 43.1919 50.3213 44.0273 50.3213H46.7182C47.5544 50.3213 48.2319 49.643 48.2319 48.8076C48.2319 47.9714 47.5544 47.2939 46.7182 47.2939Z" fill="#3E73B7"/>
<path d="M46.7182 56.4434H44.0273C43.1919 56.4434 42.5137 57.1209 42.5137 57.9563C42.5137 58.7925 43.1919 59.47 44.0273 59.47H46.7182C47.5544 59.47 48.2319 58.7925 48.2319 57.9563C48.2319 57.1209 47.5544 56.4434 46.7182 56.4434Z" fill="#3E73B7"/>
<path d="M46.7182 65.5918H44.0273C43.1919 65.5918 42.5137 66.2693 42.5137 67.1055C42.5137 67.9417 43.1919 68.6192 44.0273 68.6192H46.7182C47.5544 68.6192 48.2319 67.9417 48.2319 67.1055C48.2319 66.2693 47.5544 65.5918 46.7182 65.5918Z" fill="#3E73B7"/>
</g>
<defs>
<clipPath id="clip0">
<rect width="100" height="100" fill="white"/>
</clipPath>
</defs>
</svg>
