<svg width="100" height="100" viewBox="0 0 100 100" fill="none" xmlns="http://www.w3.org/2000/svg">
<g clip-path="url(#clip0)">
<path d="M64.9304 32.1472L57.3681 24.5849C56.8146 24.0316 56.0787 23.7265 55.2961 23.7265H48.2494C43.4023 23.7265 39.459 19.7832 39.459 14.9361V3.50879H45.3191V14.9363C45.3191 16.5519 46.6336 17.8664 48.2492 17.8664H55.2957C57.6439 17.8664 59.8511 18.7808 61.5115 20.4412L69.0738 28.0035L64.9304 32.1472Z" fill="#FF52A0"/>
<path d="M55.034 17.8664H48.2494C46.6338 17.8664 45.3193 16.5519 45.3193 14.9363V8.15175L40.6764 3.50879H39.459V14.9363C39.459 19.7834 43.4023 23.7267 48.2494 23.7267H55.2959C56.0787 23.7267 56.8142 24.0316 57.3679 24.5851L64.9302 32.1474L67.1226 29.955L55.034 17.8664Z" fill="#FF318E"/>
<path d="M40.0447 54.4929H34.1845V39.8423C34.1845 37.688 32.432 35.9355 30.2777 35.9355H23.6361C18.2506 35.9355 13.8691 31.5541 13.8691 26.1685V25.5826C13.8691 20.197 18.2506 15.8156 23.6361 15.8156C25.7904 15.8156 27.5429 14.0631 27.5429 11.9088V3.50879H33.4031V11.9084C33.4031 17.2939 29.0216 21.6754 23.6361 21.6754C21.4818 21.6754 19.7293 23.4279 19.7293 25.5822V26.1681C19.7293 28.3224 21.4818 30.075 23.6361 30.075H30.2777C35.6632 30.075 40.0447 34.4564 40.0447 39.8419V54.4929Z" fill="#6B77E8"/>
<path d="M37.1152 32.876V54.4927H40.0453V39.8422C40.0453 37.1166 38.9221 34.6494 37.1152 32.876Z" fill="#3A4DE2"/>
<path d="M74.2295 96.4909H0V51.5625H74.2295V96.4909Z" fill="#C3C8F6"/>
<path d="M74.23 51.5625H37.1152V96.4909H74.23V51.5625Z" fill="#979FEF"/>
<path d="M51.9595 80.8633H22.2676V86.7234H51.9595V80.8633Z" fill="#FFDB2D"/>
<path d="M18.3601 80.8633H12.5V86.7234H18.3601V80.8633Z" fill="#FFDB2D"/>
<path d="M35.159 71.0967H29.2988V76.9568H35.159V71.0967Z" fill="#FFDB2D"/>
<path d="M30.2762 61.3291H24.416V67.1892H30.2762V61.3291Z" fill="#FFDB2D"/>
<path d="M40.0437 61.3291H34.1836V67.1892H40.0437V61.3291Z" fill="#FFDB2D"/>
<path d="M15.6258 71.0967H9.76562V76.9568H15.6258V71.0967Z" fill="#FFDB2D"/>
<path d="M25.3933 71.0967H19.5332V76.9568H25.3933V71.0967Z" fill="#FFDB2D"/>
<path d="M20.5086 61.3291H14.6484V67.1892H20.5086V61.3291Z" fill="#FFDB2D"/>
<path d="M84.1843 62.8325C80.1325 62.8325 76.0808 61.2902 72.996 58.2054L60.0121 45.2214C56.5845 41.7939 56.5845 36.2174 60.0121 32.79L69.9572 22.8449C73.3847 19.4174 78.9616 19.4178 82.3886 22.8449L95.3725 35.8289C101.542 41.9982 101.542 52.0361 95.3725 58.2054C92.2878 61.2902 88.236 62.8325 84.1843 62.8325Z" fill="#FFEC97"/>
<path d="M64.9856 32.2093L73.6875 40.9111L77.8312 36.7674L69.1293 28.0656L64.9856 32.2093Z" fill="#FFB64C"/>
<path d="M69.957 22.8457L64.9844 27.8183L95.3722 58.2062C101.542 52.0368 101.542 41.999 95.3722 35.8296L82.3882 22.8457C78.9615 19.4187 73.3846 19.4185 69.957 22.8457Z" fill="#FFF5CB"/>
<path d="M75.7582 38.8385L77.8301 36.7666L69.1282 28.0647L67.0564 30.1366L75.7582 38.8385Z" fill="#FFDB2D"/>
<path d="M85.1508 51.1619C86.769 51.1619 88.0808 49.8501 88.0808 48.2318C88.0808 46.6136 86.769 45.3018 85.1508 45.3018C83.5325 45.3018 82.2207 46.6136 82.2207 48.2318C82.2207 49.8501 83.5325 51.1619 85.1508 51.1619Z" fill="#FF52A0"/>
<path d="M82.2207 48.232C82.2207 49.8502 83.5326 51.1621 85.1508 51.1621C85.96 51.1621 86.6924 50.8342 87.2228 50.3039L83.0791 46.1602C82.5488 46.6902 82.2207 47.423 82.2207 48.232Z" fill="#FF318E"/>
<path d="M61.7293 80.8633H55.8691V86.7234H61.7293V80.8633Z" fill="#FFB64C"/>
<path d="M44.9285 71.0967H39.0684V76.9568H44.9285V71.0967Z" fill="#FFB64C"/>
<path d="M49.8113 61.3291H43.9512V67.1892H49.8113V61.3291Z" fill="#FFB64C"/>
<path d="M54.6961 71.0967H48.8359V76.9568H54.6961V71.0967Z" fill="#FFB64C"/>
<path d="M64.4617 71.0967H58.6016V76.9568H64.4617V71.0967Z" fill="#FFB64C"/>
<path d="M59.5789 61.3291H53.7188V67.1892H59.5789V61.3291Z" fill="#FFB64C"/>
<path d="M51.9611 80.8633H37.1152V86.7234H51.9611V80.8633Z" fill="#FFB64C"/>
<path d="M40.0453 61.3291H37.1152V67.1892H40.0453V61.3291Z" fill="#FFB64C"/>
</g>
<defs>
<clipPath id="clip0">
<rect width="100" height="100" fill="white"/>
</clipPath>
</defs>
</svg>
