<svg width="192" height="111" viewBox="0 0 192 111" fill="none" xmlns="http://www.w3.org/2000/svg">
<circle cx="190.5" cy="91.5" r="1.5" transform="rotate(-180 190.5 91.5)" fill="#00BA4F"/>
<circle cx="181.5" cy="91.5" r="1.5" transform="rotate(-180 181.5 91.5)" fill="#00BA4F"/>
<circle cx="172.5" cy="91.5" r="1.5" transform="rotate(-180 172.5 91.5)" fill="#00BA4F"/>
<circle cx="163.5" cy="91.5" r="1.5" transform="rotate(-180 163.5 91.5)" fill="#00BA4F"/>
<circle cx="154.5" cy="91.5" r="1.5" transform="rotate(-180 154.5 91.5)" fill="#00BA4F"/>
<circle cx="145.5" cy="91.5" r="1.5" transform="rotate(-180 145.5 91.5)" fill="#00BA4F"/>
<circle cx="136.5" cy="91.5" r="1.5" transform="rotate(-180 136.5 91.5)" fill="#00BA4F"/>
<circle cx="127.5" cy="91.5" r="1.5" transform="rotate(-180 127.5 91.5)" fill="#00BA4F"/>
<circle cx="118.5" cy="91.5" r="1.5" transform="rotate(-180 118.5 91.5)" fill="#00BA4F"/>
<circle cx="109.5" cy="91.5" r="1.5" transform="rotate(-180 109.5 91.5)" fill="#00BA4F"/>
<circle cx="100.5" cy="91.5" r="1.5" transform="rotate(-180 100.5 91.5)" fill="#00BA4F"/>
<circle cx="190.5" cy="82.5" r="1.5" transform="rotate(-180 190.5 82.5)" fill="#00BA4F"/>
<circle cx="181.5" cy="82.5" r="1.5" transform="rotate(-180 181.5 82.5)" fill="#00BA4F"/>
<circle cx="172.5" cy="82.5" r="1.5" transform="rotate(-180 172.5 82.5)" fill="#00BA4F"/>
<circle cx="163.5" cy="82.5" r="1.5" transform="rotate(-180 163.5 82.5)" fill="#00BA4F"/>
<circle cx="154.5" cy="82.5" r="1.5" transform="rotate(-180 154.5 82.5)" fill="#00BA4F"/>
<circle cx="145.5" cy="82.5" r="1.5" transform="rotate(-180 145.5 82.5)" fill="#00BA4F"/>
<circle cx="136.5" cy="82.5" r="1.5" transform="rotate(-180 136.5 82.5)" fill="#00BA4F"/>
<circle cx="127.5" cy="82.5" r="1.5" transform="rotate(-180 127.5 82.5)" fill="#00BA4F"/>
<circle cx="118.5" cy="82.5" r="1.5" transform="rotate(-180 118.5 82.5)" fill="#00BA4F"/>
<circle cx="109.5" cy="82.5" r="1.5" transform="rotate(-180 109.5 82.5)" fill="#00BA4F"/>
<circle cx="100.5" cy="82.5" r="1.5" transform="rotate(-180 100.5 82.5)" fill="#00BA4F"/>
<circle cx="190.5" cy="73.5" r="1.5" transform="rotate(-180 190.5 73.5)" fill="#00BA4F"/>
<circle cx="181.5" cy="73.5" r="1.5" transform="rotate(-180 181.5 73.5)" fill="#00BA4F"/>
<circle cx="172.5" cy="73.5" r="1.5" transform="rotate(-180 172.5 73.5)" fill="#00BA4F"/>
<circle cx="163.5" cy="73.5" r="1.5" transform="rotate(-180 163.5 73.5)" fill="#00BA4F"/>
<circle cx="154.5" cy="73.5" r="1.5" transform="rotate(-180 154.5 73.5)" fill="#00BA4F"/>
<circle cx="145.5" cy="73.5" r="1.5" transform="rotate(-180 145.5 73.5)" fill="#00BA4F"/>
<circle cx="136.5" cy="73.5" r="1.5" transform="rotate(-180 136.5 73.5)" fill="#00BA4F"/>
<circle cx="127.5" cy="73.5" r="1.5" transform="rotate(-180 127.5 73.5)" fill="#00BA4F"/>
<circle cx="118.5" cy="73.5" r="1.5" transform="rotate(-180 118.5 73.5)" fill="#00BA4F"/>
<circle cx="109.5" cy="73.5" r="1.5" transform="rotate(-180 109.5 73.5)" fill="#00BA4F"/>
<circle cx="100.5" cy="73.5" r="1.5" transform="rotate(-180 100.5 73.5)" fill="#00BA4F"/>
<circle cx="190.5" cy="64.5" r="1.5" transform="rotate(-180 190.5 64.5)" fill="#00BA4F"/>
<circle cx="181.5" cy="64.5" r="1.5" transform="rotate(-180 181.5 64.5)" fill="#00BA4F"/>
<circle cx="172.5" cy="64.5" r="1.5" transform="rotate(-180 172.5 64.5)" fill="#00BA4F"/>
<circle cx="163.5" cy="64.5" r="1.5" transform="rotate(-180 163.5 64.5)" fill="#00BA4F"/>
<circle cx="154.5" cy="64.5" r="1.5" transform="rotate(-180 154.5 64.5)" fill="#00BA4F"/>
<circle cx="145.5" cy="64.5" r="1.5" transform="rotate(-180 145.5 64.5)" fill="#00BA4F"/>
<circle cx="136.5" cy="64.5" r="1.5" transform="rotate(-180 136.5 64.5)" fill="#00BA4F"/>
<circle cx="127.5" cy="64.5" r="1.5" transform="rotate(-180 127.5 64.5)" fill="#00BA4F"/>
<circle cx="118.5" cy="64.5" r="1.5" transform="rotate(-180 118.5 64.5)" fill="#00BA4F"/>
<circle cx="109.5" cy="64.5" r="1.5" transform="rotate(-180 109.5 64.5)" fill="#00BA4F"/>
<circle cx="100.5" cy="64.5" r="1.5" transform="rotate(-180 100.5 64.5)" fill="#00BA4F"/>
<circle cx="190.5" cy="55.5" r="1.5" transform="rotate(-180 190.5 55.5)" fill="#00BA4F"/>
<circle cx="181.5" cy="55.5" r="1.5" transform="rotate(-180 181.5 55.5)" fill="#00BA4F"/>
<circle cx="172.5" cy="55.5" r="1.5" transform="rotate(-180 172.5 55.5)" fill="#00BA4F"/>
<circle cx="163.5" cy="55.5" r="1.5" transform="rotate(-180 163.5 55.5)" fill="#00BA4F"/>
<circle cx="154.5" cy="55.5" r="1.5" transform="rotate(-180 154.5 55.5)" fill="#00BA4F"/>
<circle cx="145.5" cy="55.5" r="1.5" transform="rotate(-180 145.5 55.5)" fill="#00BA4F"/>
<circle cx="136.5" cy="55.5" r="1.5" transform="rotate(-180 136.5 55.5)" fill="#00BA4F"/>
<circle cx="127.5" cy="55.5" r="1.5" transform="rotate(-180 127.5 55.5)" fill="#00BA4F"/>
<circle cx="118.5" cy="55.5" r="1.5" transform="rotate(-180 118.5 55.5)" fill="#00BA4F"/>
<circle cx="109.5" cy="55.5" r="1.5" transform="rotate(-180 109.5 55.5)" fill="#00BA4F"/>
<circle cx="100.5" cy="55.5" r="1.5" transform="rotate(-180 100.5 55.5)" fill="#00BA4F"/>
<circle cx="190.5" cy="46.5" r="1.5" transform="rotate(-180 190.5 46.5)" fill="#00BA4F"/>
<circle cx="181.5" cy="46.5" r="1.5" transform="rotate(-180 181.5 46.5)" fill="#00BA4F"/>
<circle cx="172.5" cy="46.5" r="1.5" transform="rotate(-180 172.5 46.5)" fill="#00BA4F"/>
<circle cx="163.5" cy="46.5" r="1.5" transform="rotate(-180 163.5 46.5)" fill="#00BA4F"/>
<circle cx="154.5" cy="46.5" r="1.5" transform="rotate(-180 154.5 46.5)" fill="#00BA4F"/>
<circle cx="145.5" cy="46.5" r="1.5" transform="rotate(-180 145.5 46.5)" fill="#00BA4F"/>
<circle cx="136.5" cy="46.5" r="1.5" transform="rotate(-180 136.5 46.5)" fill="#00BA4F"/>
<circle cx="127.5" cy="46.5" r="1.5" transform="rotate(-180 127.5 46.5)" fill="#00BA4F"/>
<circle cx="118.5" cy="46.5" r="1.5" transform="rotate(-180 118.5 46.5)" fill="#00BA4F"/>
<circle cx="109.5" cy="46.5" r="1.5" transform="rotate(-180 109.5 46.5)" fill="#00BA4F"/>
<circle cx="100.5" cy="46.5" r="1.5" transform="rotate(-180 100.5 46.5)" fill="#00BA4F"/>
<circle cx="190.5" cy="37.5" r="1.5" transform="rotate(-180 190.5 37.5)" fill="#00BA4F"/>
<circle cx="181.5" cy="37.5" r="1.5" transform="rotate(-180 181.5 37.5)" fill="#00BA4F"/>
<circle cx="172.5" cy="37.5" r="1.5" transform="rotate(-180 172.5 37.5)" fill="#00BA4F"/>
<circle cx="163.5" cy="37.5" r="1.5" transform="rotate(-180 163.5 37.5)" fill="#00BA4F"/>
<circle cx="154.5" cy="37.5" r="1.5" transform="rotate(-180 154.5 37.5)" fill="#00BA4F"/>
<circle cx="145.5" cy="37.5" r="1.5" transform="rotate(-180 145.5 37.5)" fill="#00BA4F"/>
<circle cx="136.5" cy="37.5" r="1.5" transform="rotate(-180 136.5 37.5)" fill="#00BA4F"/>
<circle cx="127.5" cy="37.5" r="1.5" transform="rotate(-180 127.5 37.5)" fill="#00BA4F"/>
<circle cx="118.5" cy="37.5" r="1.5" transform="rotate(-180 118.5 37.5)" fill="#00BA4F"/>
<circle cx="109.5" cy="37.5" r="1.5" transform="rotate(-180 109.5 37.5)" fill="#00BA4F"/>
<circle cx="100.5" cy="37.5" r="1.5" transform="rotate(-180 100.5 37.5)" fill="#00BA4F"/>
<circle cx="190.5" cy="28.5" r="1.5" transform="rotate(-180 190.5 28.5)" fill="#00BA4F"/>
<circle cx="181.5" cy="28.5" r="1.5" transform="rotate(-180 181.5 28.5)" fill="#00BA4F"/>
<circle cx="172.5" cy="28.5" r="1.5" transform="rotate(-180 172.5 28.5)" fill="#00BA4F"/>
<circle cx="163.5" cy="28.5" r="1.5" transform="rotate(-180 163.5 28.5)" fill="#00BA4F"/>
<circle cx="154.5" cy="28.5" r="1.5" transform="rotate(-180 154.5 28.5)" fill="#00BA4F"/>
<circle cx="145.5" cy="28.5" r="1.5" transform="rotate(-180 145.5 28.5)" fill="#00BA4F"/>
<circle cx="136.5" cy="28.5" r="1.5" transform="rotate(-180 136.5 28.5)" fill="#00BA4F"/>
<circle cx="127.5" cy="28.5" r="1.5" transform="rotate(-180 127.5 28.5)" fill="#00BA4F"/>
<circle cx="118.5" cy="28.5" r="1.5" transform="rotate(-180 118.5 28.5)" fill="#00BA4F"/>
<circle cx="109.5" cy="28.5" r="1.5" transform="rotate(-180 109.5 28.5)" fill="#00BA4F"/>
<circle cx="100.5" cy="28.5" r="1.5" transform="rotate(-180 100.5 28.5)" fill="#00BA4F"/>
<circle cx="190.5" cy="19.5" r="1.5" transform="rotate(-180 190.5 19.5)" fill="#00BA4F"/>
<circle cx="181.5" cy="19.5" r="1.5" transform="rotate(-180 181.5 19.5)" fill="#00BA4F"/>
<circle cx="172.5" cy="19.5" r="1.5" transform="rotate(-180 172.5 19.5)" fill="#00BA4F"/>
<circle cx="163.5" cy="19.5" r="1.5" transform="rotate(-180 163.5 19.5)" fill="#00BA4F"/>
<circle cx="154.5" cy="19.5" r="1.5" transform="rotate(-180 154.5 19.5)" fill="#00BA4F"/>
<circle cx="145.5" cy="19.5" r="1.5" transform="rotate(-180 145.5 19.5)" fill="#00BA4F"/>
<circle cx="136.5" cy="19.5" r="1.5" transform="rotate(-180 136.5 19.5)" fill="#00BA4F"/>
<circle cx="127.5" cy="19.5" r="1.5" transform="rotate(-180 127.5 19.5)" fill="#00BA4F"/>
<circle cx="118.5" cy="19.5" r="1.5" transform="rotate(-180 118.5 19.5)" fill="#00BA4F"/>
<circle cx="109.5" cy="19.5" r="1.5" transform="rotate(-180 109.5 19.5)" fill="#00BA4F"/>
<circle cx="100.5" cy="19.5" r="1.5" transform="rotate(-180 100.5 19.5)" fill="#00BA4F"/>
<circle cx="190.5" cy="10.5" r="1.5" transform="rotate(-180 190.5 10.5)" fill="#00BA4F"/>
<circle cx="181.5" cy="10.5" r="1.5" transform="rotate(-180 181.5 10.5)" fill="#00BA4F"/>
<circle cx="172.5" cy="10.5" r="1.5" transform="rotate(-180 172.5 10.5)" fill="#00BA4F"/>
<circle cx="163.5" cy="10.5" r="1.5" transform="rotate(-180 163.5 10.5)" fill="#00BA4F"/>
<circle cx="154.5" cy="10.5" r="1.5" transform="rotate(-180 154.5 10.5)" fill="#00BA4F"/>
<circle cx="145.5" cy="10.5" r="1.5" transform="rotate(-180 145.5 10.5)" fill="#00BA4F"/>
<circle cx="136.5" cy="10.5" r="1.5" transform="rotate(-180 136.5 10.5)" fill="#00BA4F"/>
<circle cx="127.5" cy="10.5" r="1.5" transform="rotate(-180 127.5 10.5)" fill="#00BA4F"/>
<circle cx="118.5" cy="10.5" r="1.5" transform="rotate(-180 118.5 10.5)" fill="#00BA4F"/>
<circle cx="109.5" cy="10.5" r="1.5" transform="rotate(-180 109.5 10.5)" fill="#00BA4F"/>
<circle cx="100.5" cy="10.5" r="1.5" transform="rotate(-180 100.5 10.5)" fill="#00BA4F"/>
<circle cx="190.5" cy="1.5" r="1.5" transform="rotate(-180 190.5 1.5)" fill="#00BA4F"/>
<circle cx="181.5" cy="1.5" r="1.5" transform="rotate(-180 181.5 1.5)" fill="#00BA4F"/>
<circle cx="172.5" cy="1.5" r="1.5" transform="rotate(-180 172.5 1.5)" fill="#00BA4F"/>
<circle cx="163.5" cy="1.5" r="1.5" transform="rotate(-180 163.5 1.5)" fill="#00BA4F"/>
<circle cx="154.5" cy="1.5" r="1.5" transform="rotate(-180 154.5 1.5)" fill="#00BA4F"/>
<circle cx="145.5" cy="1.5" r="1.5" transform="rotate(-180 145.5 1.5)" fill="#00BA4F"/>
<circle cx="136.5" cy="1.5" r="1.5" transform="rotate(-180 136.5 1.5)" fill="#00BA4F"/>
<circle cx="127.5" cy="1.5" r="1.5" transform="rotate(-180 127.5 1.5)" fill="#00BA4F"/>
<circle cx="118.5" cy="1.5" r="1.5" transform="rotate(-180 118.5 1.5)" fill="#00BA4F"/>
<circle cx="109.5" cy="1.5" r="1.5" transform="rotate(-180 109.5 1.5)" fill="#00BA4F"/>
<circle cx="100.5" cy="1.5" r="1.5" transform="rotate(-180 100.5 1.5)" fill="#00BA4F"/>
<circle cx="91.5" cy="91.5" r="1.5" transform="rotate(-180 91.5 91.5)" fill="#00BA4F"/>
<circle cx="82.5" cy="91.5" r="1.5" transform="rotate(-180 82.5 91.5)" fill="#00BA4F"/>
<circle cx="73.5" cy="91.5" r="1.5" transform="rotate(-180 73.5 91.5)" fill="#00BA4F"/>
<circle cx="64.5" cy="91.5" r="1.5" transform="rotate(-180 64.5 91.5)" fill="#00BA4F"/>
<circle cx="55.5" cy="91.5" r="1.5" transform="rotate(-180 55.5 91.5)" fill="#00BA4F"/>
<circle cx="46.5" cy="91.5" r="1.5" transform="rotate(-180 46.5 91.5)" fill="#00BA4F"/>
<circle cx="37.5" cy="91.5" r="1.5" transform="rotate(-180 37.5 91.5)" fill="#00BA4F"/>
<circle cx="28.5" cy="91.5" r="1.5" transform="rotate(-180 28.5 91.5)" fill="#00BA4F"/>
<circle cx="19.5" cy="91.5" r="1.5" transform="rotate(-180 19.5 91.5)" fill="#00BA4F"/>
<circle cx="10.5" cy="91.5" r="1.5" transform="rotate(-180 10.5 91.5)" fill="#00BA4F"/>
<circle cx="1.5" cy="91.5" r="1.5" transform="rotate(-180 1.5 91.5)" fill="#00BA4F"/>
<circle cx="91.5" cy="82.5" r="1.5" transform="rotate(-180 91.5 82.5)" fill="#00BA4F"/>
<circle cx="82.5" cy="82.5" r="1.5" transform="rotate(-180 82.5 82.5)" fill="#00BA4F"/>
<circle cx="73.5" cy="82.5" r="1.5" transform="rotate(-180 73.5 82.5)" fill="#00BA4F"/>
<circle cx="64.5" cy="82.5" r="1.5" transform="rotate(-180 64.5 82.5)" fill="#00BA4F"/>
<circle cx="55.5" cy="82.5" r="1.5" transform="rotate(-180 55.5 82.5)" fill="#00BA4F"/>
<circle cx="46.5" cy="82.5" r="1.5" transform="rotate(-180 46.5 82.5)" fill="#00BA4F"/>
<circle cx="37.5" cy="82.5" r="1.5" transform="rotate(-180 37.5 82.5)" fill="#00BA4F"/>
<circle cx="28.5" cy="82.5" r="1.5" transform="rotate(-180 28.5 82.5)" fill="#00BA4F"/>
<circle cx="19.5" cy="82.5" r="1.5" transform="rotate(-180 19.5 82.5)" fill="#00BA4F"/>
<circle cx="10.5" cy="82.5" r="1.5" transform="rotate(-180 10.5 82.5)" fill="#00BA4F"/>
<circle cx="1.5" cy="82.5" r="1.5" transform="rotate(-180 1.5 82.5)" fill="#00BA4F"/>
<circle cx="91.5" cy="73.5" r="1.5" transform="rotate(-180 91.5 73.5)" fill="#00BA4F"/>
<circle cx="82.5" cy="73.5" r="1.5" transform="rotate(-180 82.5 73.5)" fill="#00BA4F"/>
<circle cx="73.5" cy="73.5" r="1.5" transform="rotate(-180 73.5 73.5)" fill="#00BA4F"/>
<circle cx="64.5" cy="73.5" r="1.5" transform="rotate(-180 64.5 73.5)" fill="#00BA4F"/>
<circle cx="55.5" cy="73.5" r="1.5" transform="rotate(-180 55.5 73.5)" fill="#00BA4F"/>
<circle cx="46.5" cy="73.5" r="1.5" transform="rotate(-180 46.5 73.5)" fill="#00BA4F"/>
<circle cx="37.5" cy="73.5" r="1.5" transform="rotate(-180 37.5 73.5)" fill="#00BA4F"/>
<circle cx="28.5" cy="73.5" r="1.5" transform="rotate(-180 28.5 73.5)" fill="#00BA4F"/>
<circle cx="19.5" cy="73.5" r="1.5" transform="rotate(-180 19.5 73.5)" fill="#00BA4F"/>
<circle cx="10.5" cy="73.5" r="1.5" transform="rotate(-180 10.5 73.5)" fill="#00BA4F"/>
<circle cx="1.5" cy="73.5" r="1.5" transform="rotate(-180 1.5 73.5)" fill="#00BA4F"/>
<circle cx="91.5" cy="64.5" r="1.5" transform="rotate(-180 91.5 64.5)" fill="#00BA4F"/>
<circle cx="82.5" cy="64.5" r="1.5" transform="rotate(-180 82.5 64.5)" fill="#00BA4F"/>
<circle cx="73.5" cy="64.5" r="1.5" transform="rotate(-180 73.5 64.5)" fill="#00BA4F"/>
<circle cx="64.5" cy="64.5" r="1.5" transform="rotate(-180 64.5 64.5)" fill="#00BA4F"/>
<circle cx="55.5" cy="64.5" r="1.5" transform="rotate(-180 55.5 64.5)" fill="#00BA4F"/>
<circle cx="46.5" cy="64.5" r="1.5" transform="rotate(-180 46.5 64.5)" fill="#00BA4F"/>
<circle cx="37.5" cy="64.5" r="1.5" transform="rotate(-180 37.5 64.5)" fill="#00BA4F"/>
<circle cx="28.5" cy="64.5" r="1.5" transform="rotate(-180 28.5 64.5)" fill="#00BA4F"/>
<circle cx="19.5" cy="64.5" r="1.5" transform="rotate(-180 19.5 64.5)" fill="#00BA4F"/>
<circle cx="10.5" cy="64.5" r="1.5" transform="rotate(-180 10.5 64.5)" fill="#00BA4F"/>
<circle cx="1.5" cy="64.5" r="1.5" transform="rotate(-180 1.5 64.5)" fill="#00BA4F"/>
<circle cx="91.5" cy="55.5" r="1.5" transform="rotate(-180 91.5 55.5)" fill="#00BA4F"/>
<circle cx="82.5" cy="55.5" r="1.5" transform="rotate(-180 82.5 55.5)" fill="#00BA4F"/>
<circle cx="73.5" cy="55.5" r="1.5" transform="rotate(-180 73.5 55.5)" fill="#00BA4F"/>
<circle cx="64.5" cy="55.5" r="1.5" transform="rotate(-180 64.5 55.5)" fill="#00BA4F"/>
<circle cx="55.5" cy="55.5" r="1.5" transform="rotate(-180 55.5 55.5)" fill="#00BA4F"/>
<circle cx="46.5" cy="55.5" r="1.5" transform="rotate(-180 46.5 55.5)" fill="#00BA4F"/>
<circle cx="37.5" cy="55.5" r="1.5" transform="rotate(-180 37.5 55.5)" fill="#00BA4F"/>
<circle cx="28.5" cy="55.5" r="1.5" transform="rotate(-180 28.5 55.5)" fill="#00BA4F"/>
<circle cx="19.5" cy="55.5" r="1.5" transform="rotate(-180 19.5 55.5)" fill="#00BA4F"/>
<circle cx="10.5" cy="55.5" r="1.5" transform="rotate(-180 10.5 55.5)" fill="#00BA4F"/>
<circle cx="1.5" cy="55.5" r="1.5" transform="rotate(-180 1.5 55.5)" fill="#00BA4F"/>
<circle cx="190.5" cy="109.5" r="1.5" transform="rotate(-180 190.5 109.5)" fill="#00BA4F"/>
<circle cx="181.5" cy="109.5" r="1.5" transform="rotate(-180 181.5 109.5)" fill="#00BA4F"/>
<circle cx="172.5" cy="109.5" r="1.5" transform="rotate(-180 172.5 109.5)" fill="#00BA4F"/>
<circle cx="163.5" cy="109.5" r="1.5" transform="rotate(-180 163.5 109.5)" fill="#00BA4F"/>
<circle cx="154.5" cy="109.5" r="1.5" transform="rotate(-180 154.5 109.5)" fill="#00BA4F"/>
<circle cx="145.5" cy="109.5" r="1.5" transform="rotate(-180 145.5 109.5)" fill="#00BA4F"/>
<circle cx="136.5" cy="109.5" r="1.5" transform="rotate(-180 136.5 109.5)" fill="#00BA4F"/>
<circle cx="127.5" cy="109.5" r="1.5" transform="rotate(-180 127.5 109.5)" fill="#00BA4F"/>
<circle cx="118.5" cy="109.5" r="1.5" transform="rotate(-180 118.5 109.5)" fill="#00BA4F"/>
<circle cx="109.5" cy="109.5" r="1.5" transform="rotate(-180 109.5 109.5)" fill="#00BA4F"/>
<circle cx="100.5" cy="109.5" r="1.5" transform="rotate(-180 100.5 109.5)" fill="#00BA4F"/>
<circle cx="190.5" cy="100.5" r="1.5" transform="rotate(-180 190.5 100.5)" fill="#00BA4F"/>
<circle cx="181.5" cy="100.5" r="1.5" transform="rotate(-180 181.5 100.5)" fill="#00BA4F"/>
<circle cx="172.5" cy="100.5" r="1.5" transform="rotate(-180 172.5 100.5)" fill="#00BA4F"/>
<circle cx="163.5" cy="100.5" r="1.5" transform="rotate(-180 163.5 100.5)" fill="#00BA4F"/>
<circle cx="154.5" cy="100.5" r="1.5" transform="rotate(-180 154.5 100.5)" fill="#00BA4F"/>
<circle cx="145.5" cy="100.5" r="1.5" transform="rotate(-180 145.5 100.5)" fill="#00BA4F"/>
<circle cx="136.5" cy="100.5" r="1.5" transform="rotate(-180 136.5 100.5)" fill="#00BA4F"/>
<circle cx="127.5" cy="100.5" r="1.5" transform="rotate(-180 127.5 100.5)" fill="#00BA4F"/>
<circle cx="118.5" cy="100.5" r="1.5" transform="rotate(-180 118.5 100.5)" fill="#00BA4F"/>
<circle cx="109.5" cy="100.5" r="1.5" transform="rotate(-180 109.5 100.5)" fill="#00BA4F"/>
<circle cx="100.5" cy="100.5" r="1.5" transform="rotate(-180 100.5 100.5)" fill="#00BA4F"/>
<circle cx="91.5" cy="109.5" r="1.5" transform="rotate(-180 91.5 109.5)" fill="#00BA4F"/>
<circle cx="82.5" cy="109.5" r="1.5" transform="rotate(-180 82.5 109.5)" fill="#00BA4F"/>
<circle cx="73.5" cy="109.5" r="1.5" transform="rotate(-180 73.5 109.5)" fill="#00BA4F"/>
<circle cx="64.5" cy="109.5" r="1.5" transform="rotate(-180 64.5 109.5)" fill="#00BA4F"/>
<circle cx="55.5" cy="109.5" r="1.5" transform="rotate(-180 55.5 109.5)" fill="#00BA4F"/>
<circle cx="46.5" cy="109.5" r="1.5" transform="rotate(-180 46.5 109.5)" fill="#00BA4F"/>
<circle cx="37.5" cy="109.5" r="1.5" transform="rotate(-180 37.5 109.5)" fill="#00BA4F"/>
<circle cx="28.5" cy="109.5" r="1.5" transform="rotate(-180 28.5 109.5)" fill="#00BA4F"/>
<circle cx="19.5" cy="109.5" r="1.5" transform="rotate(-180 19.5 109.5)" fill="#00BA4F"/>
<circle cx="10.5" cy="109.5" r="1.5" transform="rotate(-180 10.5 109.5)" fill="#00BA4F"/>
<circle cx="1.5" cy="109.5" r="1.5" transform="rotate(-180 1.5 109.5)" fill="#00BA4F"/>
<circle cx="91.5" cy="100.5" r="1.5" transform="rotate(-180 91.5 100.5)" fill="#00BA4F"/>
<circle cx="82.5" cy="100.5" r="1.5" transform="rotate(-180 82.5 100.5)" fill="#00BA4F"/>
<circle cx="73.5" cy="100.5" r="1.5" transform="rotate(-180 73.5 100.5)" fill="#00BA4F"/>
<circle cx="64.5" cy="100.5" r="1.5" transform="rotate(-180 64.5 100.5)" fill="#00BA4F"/>
<circle cx="55.5" cy="100.5" r="1.5" transform="rotate(-180 55.5 100.5)" fill="#00BA4F"/>
<circle cx="46.5" cy="100.5" r="1.5" transform="rotate(-180 46.5 100.5)" fill="#00BA4F"/>
<circle cx="37.5" cy="100.5" r="1.5" transform="rotate(-180 37.5 100.5)" fill="#00BA4F"/>
<circle cx="28.5" cy="100.5" r="1.5" transform="rotate(-180 28.5 100.5)" fill="#00BA4F"/>
<circle cx="19.5" cy="100.5" r="1.5" transform="rotate(-180 19.5 100.5)" fill="#00BA4F"/>
<circle cx="10.5" cy="100.5" r="1.5" transform="rotate(-180 10.5 100.5)" fill="#00BA4F"/>
<circle cx="1.5" cy="100.5" r="1.5" transform="rotate(-180 1.5 100.5)" fill="#00BA4F"/>
<circle cx="91.5" cy="46.5" r="1.5" transform="rotate(-180 91.5 46.5)" fill="#00BA4F"/>
<circle cx="82.5" cy="46.5" r="1.5" transform="rotate(-180 82.5 46.5)" fill="#00BA4F"/>
<circle cx="73.5" cy="46.5" r="1.5" transform="rotate(-180 73.5 46.5)" fill="#00BA4F"/>
<circle cx="64.5" cy="46.5" r="1.5" transform="rotate(-180 64.5 46.5)" fill="#00BA4F"/>
<circle cx="55.5" cy="46.5" r="1.5" transform="rotate(-180 55.5 46.5)" fill="#00BA4F"/>
<circle cx="46.5" cy="46.5" r="1.5" transform="rotate(-180 46.5 46.5)" fill="#00BA4F"/>
<circle cx="37.5" cy="46.5" r="1.5" transform="rotate(-180 37.5 46.5)" fill="#00BA4F"/>
<circle cx="28.5" cy="46.5" r="1.5" transform="rotate(-180 28.5 46.5)" fill="#00BA4F"/>
<circle cx="19.5" cy="46.5" r="1.5" transform="rotate(-180 19.5 46.5)" fill="#00BA4F"/>
<circle cx="10.5" cy="46.5" r="1.5" transform="rotate(-180 10.5 46.5)" fill="#00BA4F"/>
<circle cx="1.5" cy="46.5" r="1.5" transform="rotate(-180 1.5 46.5)" fill="#00BA4F"/>
<circle cx="91.5" cy="37.5" r="1.5" transform="rotate(-180 91.5 37.5)" fill="#00BA4F"/>
<circle cx="82.5" cy="37.5" r="1.5" transform="rotate(-180 82.5 37.5)" fill="#00BA4F"/>
<circle cx="73.5" cy="37.5" r="1.5" transform="rotate(-180 73.5 37.5)" fill="#00BA4F"/>
<circle cx="64.5" cy="37.5" r="1.5" transform="rotate(-180 64.5 37.5)" fill="#00BA4F"/>
<circle cx="55.5" cy="37.5" r="1.5" transform="rotate(-180 55.5 37.5)" fill="#00BA4F"/>
<circle cx="46.5" cy="37.5" r="1.5" transform="rotate(-180 46.5 37.5)" fill="#00BA4F"/>
<circle cx="37.5" cy="37.5" r="1.5" transform="rotate(-180 37.5 37.5)" fill="#00BA4F"/>
<circle cx="28.5" cy="37.5" r="1.5" transform="rotate(-180 28.5 37.5)" fill="#00BA4F"/>
<circle cx="19.5" cy="37.5" r="1.5" transform="rotate(-180 19.5 37.5)" fill="#00BA4F"/>
<circle cx="10.5" cy="37.5" r="1.5" transform="rotate(-180 10.5 37.5)" fill="#00BA4F"/>
<circle cx="1.5" cy="37.5" r="1.5" transform="rotate(-180 1.5 37.5)" fill="#00BA4F"/>
<circle cx="91.5" cy="28.5" r="1.5" transform="rotate(-180 91.5 28.5)" fill="#00BA4F"/>
<circle cx="82.5" cy="28.5" r="1.5" transform="rotate(-180 82.5 28.5)" fill="#00BA4F"/>
<circle cx="73.5" cy="28.5" r="1.5" transform="rotate(-180 73.5 28.5)" fill="#00BA4F"/>
<circle cx="64.5" cy="28.5" r="1.5" transform="rotate(-180 64.5 28.5)" fill="#00BA4F"/>
<circle cx="55.5" cy="28.5" r="1.5" transform="rotate(-180 55.5 28.5)" fill="#00BA4F"/>
<circle cx="46.5" cy="28.5" r="1.5" transform="rotate(-180 46.5 28.5)" fill="#00BA4F"/>
<circle cx="37.5" cy="28.5" r="1.5" transform="rotate(-180 37.5 28.5)" fill="#00BA4F"/>
<circle cx="28.5" cy="28.5" r="1.5" transform="rotate(-180 28.5 28.5)" fill="#00BA4F"/>
<circle cx="19.5" cy="28.5" r="1.5" transform="rotate(-180 19.5 28.5)" fill="#00BA4F"/>
<circle cx="10.5" cy="28.5" r="1.5" transform="rotate(-180 10.5 28.5)" fill="#00BA4F"/>
<circle cx="1.5" cy="28.5" r="1.5" transform="rotate(-180 1.5 28.5)" fill="#00BA4F"/>
<circle cx="91.5" cy="19.5" r="1.5" transform="rotate(-180 91.5 19.5)" fill="#00BA4F"/>
<circle cx="82.5" cy="19.5" r="1.5" transform="rotate(-180 82.5 19.5)" fill="#00BA4F"/>
<circle cx="73.5" cy="19.5" r="1.5" transform="rotate(-180 73.5 19.5)" fill="#00BA4F"/>
<circle cx="64.5" cy="19.5" r="1.5" transform="rotate(-180 64.5 19.5)" fill="#00BA4F"/>
<circle cx="55.5" cy="19.5" r="1.5" transform="rotate(-180 55.5 19.5)" fill="#00BA4F"/>
<circle cx="46.5" cy="19.5" r="1.5" transform="rotate(-180 46.5 19.5)" fill="#00BA4F"/>
<circle cx="37.5" cy="19.5" r="1.5" transform="rotate(-180 37.5 19.5)" fill="#00BA4F"/>
<circle cx="28.5" cy="19.5" r="1.5" transform="rotate(-180 28.5 19.5)" fill="#00BA4F"/>
<circle cx="19.5" cy="19.5" r="1.5" transform="rotate(-180 19.5 19.5)" fill="#00BA4F"/>
<circle cx="10.5" cy="19.5" r="1.5" transform="rotate(-180 10.5 19.5)" fill="#00BA4F"/>
<circle cx="1.5" cy="19.5" r="1.5" transform="rotate(-180 1.5 19.5)" fill="#00BA4F"/>
<circle cx="91.5" cy="10.5" r="1.5" transform="rotate(-180 91.5 10.5)" fill="#00BA4F"/>
<circle cx="82.5" cy="10.5" r="1.5" transform="rotate(-180 82.5 10.5)" fill="#00BA4F"/>
<circle cx="73.5" cy="10.5" r="1.5" transform="rotate(-180 73.5 10.5)" fill="#00BA4F"/>
<circle cx="64.5" cy="10.5" r="1.5" transform="rotate(-180 64.5 10.5)" fill="#00BA4F"/>
<circle cx="55.5" cy="10.5" r="1.5" transform="rotate(-180 55.5 10.5)" fill="#00BA4F"/>
<circle cx="46.5" cy="10.5" r="1.5" transform="rotate(-180 46.5 10.5)" fill="#00BA4F"/>
<circle cx="37.5" cy="10.5" r="1.5" transform="rotate(-180 37.5 10.5)" fill="#00BA4F"/>
<circle cx="28.5" cy="10.5" r="1.5" transform="rotate(-180 28.5 10.5)" fill="#00BA4F"/>
<circle cx="19.5" cy="10.5" r="1.5" transform="rotate(-180 19.5 10.5)" fill="#00BA4F"/>
<circle cx="10.5" cy="10.5" r="1.5" transform="rotate(-180 10.5 10.5)" fill="#00BA4F"/>
<circle cx="1.5" cy="10.5" r="1.5" transform="rotate(-180 1.5 10.5)" fill="#00BA4F"/>
<circle cx="91.5" cy="1.5" r="1.5" transform="rotate(-180 91.5 1.5)" fill="#00BA4F"/>
<circle cx="82.5" cy="1.5" r="1.5" transform="rotate(-180 82.5 1.5)" fill="#00BA4F"/>
<circle cx="73.5" cy="1.5" r="1.5" transform="rotate(-180 73.5 1.5)" fill="#00BA4F"/>
<circle cx="64.5" cy="1.5" r="1.5" transform="rotate(-180 64.5 1.5)" fill="#00BA4F"/>
<circle cx="55.5" cy="1.5" r="1.5" transform="rotate(-180 55.5 1.5)" fill="#00BA4F"/>
<circle cx="46.5" cy="1.5" r="1.5" transform="rotate(-180 46.5 1.5)" fill="#00BA4F"/>
<circle cx="37.5" cy="1.5" r="1.5" transform="rotate(-180 37.5 1.5)" fill="#00BA4F"/>
<circle cx="28.5" cy="1.5" r="1.5" transform="rotate(-180 28.5 1.5)" fill="#00BA4F"/>
<circle cx="19.5" cy="1.5" r="1.5" transform="rotate(-180 19.5 1.5)" fill="#00BA4F"/>
<circle cx="10.5" cy="1.5" r="1.5" transform="rotate(-180 10.5 1.5)" fill="#00BA4F"/>
<circle cx="1.5" cy="1.5" r="1.5" transform="rotate(-180 1.5 1.5)" fill="#00BA4F"/>
</svg>
