<svg width="150" height="106" viewBox="0 0 150 106" fill="none" xmlns="http://www.w3.org/2000/svg">
<circle cx="46.9627" cy="2.1028" r="2.1028" fill="#00B294"/>
<circle cx="58.1775" cy="2.1028" r="2.1028" fill="#00B294"/>
<circle cx="69.3924" cy="2.1028" r="2.1028" fill="#00B294"/>
<circle cx="80.6077" cy="2.1028" r="2.1028" fill="#00B294"/>
<circle cx="91.8225" cy="2.1028" r="2.1028" fill="#00B294"/>
<circle cx="103.037" cy="2.1028" r="2.1028" fill="#00B294"/>
<circle cx="114.252" cy="2.1028" r="2.1028" fill="#00B294"/>
<circle cx="125.467" cy="2.1028" r="2.1028" fill="#00B294"/>
<circle cx="136.682" cy="2.1028" r="2.1028" fill="#00B294"/>
<circle cx="147.897" cy="2.1028" r="2.1028" fill="#00B294"/>
<circle cx="46.9627" cy="13.3176" r="2.1028" fill="#00B294"/>
<circle cx="58.1775" cy="13.3176" r="2.1028" fill="#00B294"/>
<circle cx="69.3924" cy="13.3176" r="2.1028" fill="#00B294"/>
<circle cx="80.6077" cy="13.3176" r="2.1028" fill="#00B294"/>
<circle cx="91.8225" cy="13.3176" r="2.1028" fill="#00B294"/>
<circle cx="103.037" cy="13.3176" r="2.1028" fill="#00B294"/>
<circle cx="114.252" cy="13.3176" r="2.1028" fill="#00B294"/>
<circle cx="125.467" cy="13.3176" r="2.1028" fill="#00B294"/>
<circle cx="136.682" cy="13.3176" r="2.1028" fill="#00B294"/>
<circle cx="147.897" cy="13.3176" r="2.1028" fill="#00B294"/>
<circle cx="46.9627" cy="24.5335" r="2.1028" fill="#00B294"/>
<circle cx="58.1775" cy="24.5335" r="2.1028" fill="#00B294"/>
<circle cx="69.3924" cy="24.5335" r="2.1028" fill="#00B294"/>
<circle cx="80.6077" cy="24.5335" r="2.1028" fill="#00B294"/>
<circle cx="91.8225" cy="24.5335" r="2.1028" fill="#00B294"/>
<circle cx="103.037" cy="24.5335" r="2.1028" fill="#00B294"/>
<circle cx="114.252" cy="24.5335" r="2.1028" fill="#00B294"/>
<circle cx="125.467" cy="24.5335" r="2.1028" fill="#00B294"/>
<circle cx="136.682" cy="24.5335" r="2.1028" fill="#00B294"/>
<circle cx="147.897" cy="24.5335" r="2.1028" fill="#00B294"/>
<circle cx="46.9627" cy="35.7483" r="2.1028" fill="#00B294"/>
<circle cx="58.1775" cy="35.7483" r="2.1028" fill="#00B294"/>
<circle cx="69.3924" cy="35.7483" r="2.1028" fill="#00B294"/>
<circle cx="80.6077" cy="35.7483" r="2.1028" fill="#00B294"/>
<circle cx="91.8225" cy="35.7483" r="2.1028" fill="#00B294"/>
<circle cx="103.037" cy="35.7483" r="2.1028" fill="#00B294"/>
<circle cx="114.252" cy="35.7483" r="2.1028" fill="#00B294"/>
<circle cx="125.467" cy="35.7483" r="2.1028" fill="#00B294"/>
<circle cx="136.682" cy="35.7483" r="2.1028" fill="#00B294"/>
<circle cx="147.897" cy="35.7483" r="2.1028" fill="#00B294"/>
<circle cx="46.9627" cy="46.9632" r="2.1028" fill="#00B294"/>
<circle cx="58.1775" cy="46.9632" r="2.1028" fill="#00B294"/>
<circle cx="69.3924" cy="46.9632" r="2.1028" fill="#00B294"/>
<circle cx="80.6077" cy="46.9632" r="2.1028" fill="#00B294"/>
<circle cx="91.8225" cy="46.9632" r="2.1028" fill="#00B294"/>
<circle cx="103.037" cy="46.9632" r="2.1028" fill="#00B294"/>
<circle cx="114.252" cy="46.9632" r="2.1028" fill="#00B294"/>
<circle cx="125.467" cy="46.9632" r="2.1028" fill="#00B294"/>
<circle cx="136.682" cy="46.9632" r="2.1028" fill="#00B294"/>
<circle cx="147.897" cy="46.9632" r="2.1028" fill="#00B294"/>
<circle cx="46.9627" cy="58.178" r="2.1028" fill="#00B294"/>
<circle cx="58.1775" cy="58.178" r="2.1028" fill="#00B294"/>
<circle cx="69.3924" cy="58.178" r="2.1028" fill="#00B294"/>
<circle cx="80.6077" cy="58.178" r="2.1028" fill="#00B294"/>
<circle cx="91.8225" cy="58.178" r="2.1028" fill="#00B294"/>
<circle cx="103.037" cy="58.178" r="2.1028" fill="#00B294"/>
<circle cx="114.252" cy="58.178" r="2.1028" fill="#00B294"/>
<circle cx="125.467" cy="58.178" r="2.1028" fill="#00B294"/>
<circle cx="136.682" cy="58.178" r="2.1028" fill="#00B294"/>
<circle cx="147.897" cy="58.178" r="2.1028" fill="#00B294"/>
<circle cx="46.9627" cy="69.3928" r="2.1028" fill="#00B294"/>
<circle cx="58.1775" cy="69.3928" r="2.1028" fill="#00B294"/>
<circle cx="69.3924" cy="69.3928" r="2.1028" fill="#00B294"/>
<circle cx="80.6077" cy="69.3928" r="2.1028" fill="#00B294"/>
<circle cx="91.8225" cy="69.3928" r="2.1028" fill="#00B294"/>
<circle cx="103.037" cy="69.3928" r="2.1028" fill="#00B294"/>
<circle cx="114.252" cy="69.3928" r="2.1028" fill="#00B294"/>
<circle cx="125.467" cy="69.3928" r="2.1028" fill="#00B294"/>
<circle cx="136.682" cy="69.3928" r="2.1028" fill="#00B294"/>
<circle cx="147.897" cy="69.3928" r="2.1028" fill="#00B294"/>
<circle cx="46.9627" cy="80.6077" r="2.1028" fill="#00B294"/>
<circle cx="58.1775" cy="80.6077" r="2.1028" fill="#00B294"/>
<circle cx="69.3924" cy="80.6077" r="2.1028" fill="#00B294"/>
<circle cx="80.6077" cy="80.6077" r="2.1028" fill="#00B294"/>
<circle cx="91.8225" cy="80.6077" r="2.1028" fill="#00B294"/>
<circle cx="103.037" cy="80.6077" r="2.1028" fill="#00B294"/>
<circle cx="114.252" cy="80.6077" r="2.1028" fill="#00B294"/>
<circle cx="125.467" cy="80.6077" r="2.1028" fill="#00B294"/>
<circle cx="136.682" cy="80.6077" r="2.1028" fill="#00B294"/>
<circle cx="147.897" cy="80.6077" r="2.1028" fill="#00B294"/>
<circle cx="46.9627" cy="91.8225" r="2.1028" fill="#00B294"/>
<circle cx="58.1775" cy="91.8225" r="2.1028" fill="#00B294"/>
<circle cx="69.3924" cy="91.8225" r="2.1028" fill="#00B294"/>
<circle cx="80.6077" cy="91.8225" r="2.1028" fill="#00B294"/>
<circle cx="91.8225" cy="91.8225" r="2.1028" fill="#00B294"/>
<circle cx="103.037" cy="91.8225" r="2.1028" fill="#00B294"/>
<circle cx="114.252" cy="91.8225" r="2.1028" fill="#00B294"/>
<circle cx="125.467" cy="91.8225" r="2.1028" fill="#00B294"/>
<circle cx="136.682" cy="91.8225" r="2.1028" fill="#00B294"/>
<circle cx="147.897" cy="91.8225" r="2.1028" fill="#00B294"/>
<circle cx="46.9627" cy="103.037" r="2.1028" fill="#00B294"/>
<circle cx="58.1775" cy="103.037" r="2.1028" fill="#00B294"/>
<circle cx="69.3924" cy="103.037" r="2.1028" fill="#00B294"/>
<circle cx="80.6077" cy="103.037" r="2.1028" fill="#00B294"/>
<circle cx="2.1028" cy="2.1028" r="2.1028" fill="#00B294"/>
<circle cx="13.3176" cy="2.1028" r="2.1028" fill="#00B294"/>
<circle cx="24.5325" cy="2.1028" r="2.1028" fill="#00B294"/>
<circle cx="35.7478" cy="2.1028" r="2.1028" fill="#00B294"/>
<circle cx="2.1028" cy="13.3176" r="2.1028" fill="#00B294"/>
<circle cx="13.3176" cy="13.3176" r="2.1028" fill="#00B294"/>
<circle cx="24.5325" cy="13.3176" r="2.1028" fill="#00B294"/>
<circle cx="35.7478" cy="13.3176" r="2.1028" fill="#00B294"/>
<circle cx="2.1028" cy="24.5335" r="2.1028" fill="#00B294"/>
<circle cx="13.3176" cy="24.5335" r="2.1028" fill="#00B294"/>
<circle cx="24.5325" cy="24.5335" r="2.1028" fill="#00B294"/>
<circle cx="35.7478" cy="24.5335" r="2.1028" fill="#00B294"/>
<circle cx="2.1028" cy="35.7483" r="2.1028" fill="#00B294"/>
<circle cx="13.3176" cy="35.7483" r="2.1028" fill="#00B294"/>
<circle cx="24.5325" cy="35.7483" r="2.1028" fill="#00B294"/>
<circle cx="35.7478" cy="35.7483" r="2.1028" fill="#00B294"/>
<circle cx="2.1028" cy="46.9632" r="2.1028" fill="#00B294"/>
<circle cx="13.3176" cy="46.9632" r="2.1028" fill="#00B294"/>
<circle cx="24.5325" cy="46.9632" r="2.1028" fill="#00B294"/>
<circle cx="35.7478" cy="46.9632" r="2.1028" fill="#00B294"/>
<circle cx="2.1028" cy="58.178" r="2.1028" fill="#00B294"/>
<circle cx="13.3176" cy="58.178" r="2.1028" fill="#00B294"/>
<circle cx="24.5325" cy="58.178" r="2.1028" fill="#00B294"/>
<circle cx="35.7478" cy="58.178" r="2.1028" fill="#00B294"/>
<circle cx="2.1028" cy="69.3928" r="2.1028" fill="#00B294"/>
<circle cx="13.3176" cy="69.3928" r="2.1028" fill="#00B294"/>
<circle cx="24.5325" cy="69.3928" r="2.1028" fill="#00B294"/>
<circle cx="35.7478" cy="69.3928" r="2.1028" fill="#00B294"/>
<circle cx="2.1028" cy="80.6077" r="2.1028" fill="#00B294"/>
<circle cx="13.3176" cy="80.6077" r="2.1028" fill="#00B294"/>
<circle cx="24.5325" cy="80.6077" r="2.1028" fill="#00B294"/>
<circle cx="35.7478" cy="80.6077" r="2.1028" fill="#00B294"/>
<circle cx="2.1028" cy="91.8225" r="2.1028" fill="#00B294"/>
<circle cx="13.3176" cy="91.8225" r="2.1028" fill="#00B294"/>
<circle cx="24.5325" cy="91.8225" r="2.1028" fill="#00B294"/>
<circle cx="35.7478" cy="91.8225" r="2.1028" fill="#00B294"/>
<circle cx="2.1028" cy="103.037" r="2.1028" fill="#00B294"/>
<circle cx="13.3176" cy="103.037" r="2.1028" fill="#00B294"/>
<circle cx="24.5325" cy="103.037" r="2.1028" fill="#00B294"/>
<circle cx="35.7478" cy="103.037" r="2.1028" fill="#00B294"/>
<circle cx="91.8225" cy="103.037" r="2.1028" fill="#00B294"/>
<circle cx="103.037" cy="103.037" r="2.1028" fill="#00B294"/>
<circle cx="114.252" cy="103.037" r="2.1028" fill="#00B294"/>
<circle cx="125.467" cy="103.037" r="2.1028" fill="#00B294"/>
<circle cx="136.682" cy="103.037" r="2.1028" fill="#00B294"/>
<circle cx="147.897" cy="103.037" r="2.1028" fill="#00B294"/>
</svg>
