<svg width="228" height="192" viewBox="0 0 228 192" fill="none" xmlns="http://www.w3.org/2000/svg">
<circle cx="91.5" cy="1.5" r="1.5" transform="rotate(90 91.5 1.5)" fill="#00BA4F"/>
<circle cx="91.5" cy="10.5" r="1.5" transform="rotate(90 91.5 10.5)" fill="#00BA4F"/>
<circle cx="91.5" cy="19.5" r="1.5" transform="rotate(90 91.5 19.5)" fill="#00BA4F"/>
<circle cx="91.5" cy="28.5" r="1.5" transform="rotate(90 91.5 28.5)" fill="#00BA4F"/>
<circle cx="91.5" cy="37.5" r="1.5" transform="rotate(90 91.5 37.5)" fill="#00BA4F"/>
<circle cx="91.5" cy="46.5" r="1.5" transform="rotate(90 91.5 46.5)" fill="#00BA4F"/>
<circle cx="91.5" cy="55.5" r="1.5" transform="rotate(90 91.5 55.5)" fill="#00BA4F"/>
<circle cx="91.5" cy="64.5" r="1.5" transform="rotate(90 91.5 64.5)" fill="#00BA4F"/>
<circle cx="91.5" cy="73.5" r="1.5" transform="rotate(90 91.5 73.5)" fill="#00BA4F"/>
<circle cx="91.5" cy="82.5" r="1.5" transform="rotate(90 91.5 82.5)" fill="#00BA4F"/>
<circle cx="91.5" cy="91.5" r="1.5" transform="rotate(90 91.5 91.5)" fill="#00BA4F"/>
<circle cx="82.5" cy="1.5" r="1.5" transform="rotate(90 82.5 1.5)" fill="#00BA4F"/>
<circle cx="82.5" cy="10.5" r="1.5" transform="rotate(90 82.5 10.5)" fill="#00BA4F"/>
<circle cx="82.5" cy="19.5" r="1.5" transform="rotate(90 82.5 19.5)" fill="#00BA4F"/>
<circle cx="82.5" cy="28.5" r="1.5" transform="rotate(90 82.5 28.5)" fill="#00BA4F"/>
<circle cx="82.5" cy="37.5" r="1.5" transform="rotate(90 82.5 37.5)" fill="#00BA4F"/>
<circle cx="82.5" cy="46.5" r="1.5" transform="rotate(90 82.5 46.5)" fill="#00BA4F"/>
<circle cx="82.5" cy="55.5" r="1.5" transform="rotate(90 82.5 55.5)" fill="#00BA4F"/>
<circle cx="82.5" cy="64.5" r="1.5" transform="rotate(90 82.5 64.5)" fill="#00BA4F"/>
<circle cx="82.5" cy="73.5" r="1.5" transform="rotate(90 82.5 73.5)" fill="#00BA4F"/>
<circle cx="82.5" cy="82.5" r="1.5" transform="rotate(90 82.5 82.5)" fill="#00BA4F"/>
<circle cx="82.5" cy="91.5" r="1.5" transform="rotate(90 82.5 91.5)" fill="#00BA4F"/>
<circle cx="73.5" cy="1.5" r="1.5" transform="rotate(90 73.5 1.5)" fill="#00BA4F"/>
<circle cx="73.5" cy="10.5" r="1.5" transform="rotate(90 73.5 10.5)" fill="#00BA4F"/>
<circle cx="73.5" cy="19.5" r="1.5" transform="rotate(90 73.5 19.5)" fill="#00BA4F"/>
<circle cx="73.5" cy="28.5" r="1.5" transform="rotate(90 73.5 28.5)" fill="#00BA4F"/>
<circle cx="73.5" cy="37.5" r="1.5" transform="rotate(90 73.5 37.5)" fill="#00BA4F"/>
<circle cx="73.5" cy="46.5" r="1.5" transform="rotate(90 73.5 46.5)" fill="#00BA4F"/>
<circle cx="73.5" cy="55.5" r="1.5" transform="rotate(90 73.5 55.5)" fill="#00BA4F"/>
<circle cx="73.5" cy="64.5" r="1.5" transform="rotate(90 73.5 64.5)" fill="#00BA4F"/>
<circle cx="73.5" cy="73.5" r="1.5" transform="rotate(90 73.5 73.5)" fill="#00BA4F"/>
<circle cx="73.5" cy="82.5" r="1.5" transform="rotate(90 73.5 82.5)" fill="#00BA4F"/>
<circle cx="73.5" cy="91.5" r="1.5" transform="rotate(90 73.5 91.5)" fill="#00BA4F"/>
<circle cx="64.5" cy="1.5" r="1.5" transform="rotate(90 64.5 1.5)" fill="#00BA4F"/>
<circle cx="64.5" cy="10.5" r="1.5" transform="rotate(90 64.5 10.5)" fill="#00BA4F"/>
<circle cx="64.5" cy="19.5" r="1.5" transform="rotate(90 64.5 19.5)" fill="#00BA4F"/>
<circle cx="64.5" cy="28.5" r="1.5" transform="rotate(90 64.5 28.5)" fill="#00BA4F"/>
<circle cx="64.5" cy="37.5" r="1.5" transform="rotate(90 64.5 37.5)" fill="#00BA4F"/>
<circle cx="64.5" cy="46.5" r="1.5" transform="rotate(90 64.5 46.5)" fill="#00BA4F"/>
<circle cx="64.5" cy="55.5" r="1.5" transform="rotate(90 64.5 55.5)" fill="#00BA4F"/>
<circle cx="64.5" cy="64.5" r="1.5" transform="rotate(90 64.5 64.5)" fill="#00BA4F"/>
<circle cx="64.5" cy="73.5" r="1.5" transform="rotate(90 64.5 73.5)" fill="#00BA4F"/>
<circle cx="64.5" cy="82.5" r="1.5" transform="rotate(90 64.5 82.5)" fill="#00BA4F"/>
<circle cx="64.5" cy="91.5" r="1.5" transform="rotate(90 64.5 91.5)" fill="#00BA4F"/>
<circle cx="55.5" cy="1.5" r="1.5" transform="rotate(90 55.5 1.5)" fill="#00BA4F"/>
<circle cx="55.5" cy="10.5" r="1.5" transform="rotate(90 55.5 10.5)" fill="#00BA4F"/>
<circle cx="55.5" cy="19.5" r="1.5" transform="rotate(90 55.5 19.5)" fill="#00BA4F"/>
<circle cx="55.5" cy="28.5" r="1.5" transform="rotate(90 55.5 28.5)" fill="#00BA4F"/>
<circle cx="55.5" cy="37.5" r="1.5" transform="rotate(90 55.5 37.5)" fill="#00BA4F"/>
<circle cx="55.5" cy="46.5" r="1.5" transform="rotate(90 55.5 46.5)" fill="#00BA4F"/>
<circle cx="55.5" cy="55.5" r="1.5" transform="rotate(90 55.5 55.5)" fill="#00BA4F"/>
<circle cx="55.5" cy="64.5" r="1.5" transform="rotate(90 55.5 64.5)" fill="#00BA4F"/>
<circle cx="55.5" cy="73.5" r="1.5" transform="rotate(90 55.5 73.5)" fill="#00BA4F"/>
<circle cx="55.5" cy="82.5" r="1.5" transform="rotate(90 55.5 82.5)" fill="#00BA4F"/>
<circle cx="55.5" cy="91.5" r="1.5" transform="rotate(90 55.5 91.5)" fill="#00BA4F"/>
<circle cx="46.5" cy="1.5" r="1.5" transform="rotate(90 46.5 1.5)" fill="#00BA4F"/>
<circle cx="46.5" cy="10.5" r="1.5" transform="rotate(90 46.5 10.5)" fill="#00BA4F"/>
<circle cx="46.5" cy="19.5" r="1.5" transform="rotate(90 46.5 19.5)" fill="#00BA4F"/>
<circle cx="46.5" cy="28.5" r="1.5" transform="rotate(90 46.5 28.5)" fill="#00BA4F"/>
<circle cx="46.5" cy="37.5" r="1.5" transform="rotate(90 46.5 37.5)" fill="#00BA4F"/>
<circle cx="46.5" cy="46.5" r="1.5" transform="rotate(90 46.5 46.5)" fill="#00BA4F"/>
<circle cx="46.5" cy="55.5" r="1.5" transform="rotate(90 46.5 55.5)" fill="#00BA4F"/>
<circle cx="46.5" cy="64.5" r="1.5" transform="rotate(90 46.5 64.5)" fill="#00BA4F"/>
<circle cx="46.5" cy="73.5" r="1.5" transform="rotate(90 46.5 73.5)" fill="#00BA4F"/>
<circle cx="46.5" cy="82.5" r="1.5" transform="rotate(90 46.5 82.5)" fill="#00BA4F"/>
<circle cx="46.5" cy="91.5" r="1.5" transform="rotate(90 46.5 91.5)" fill="#00BA4F"/>
<circle cx="37.5" cy="1.5" r="1.5" transform="rotate(90 37.5 1.5)" fill="#00BA4F"/>
<circle cx="37.5" cy="10.5" r="1.5" transform="rotate(90 37.5 10.5)" fill="#00BA4F"/>
<circle cx="37.5" cy="19.5" r="1.5" transform="rotate(90 37.5 19.5)" fill="#00BA4F"/>
<circle cx="37.5" cy="28.5" r="1.5" transform="rotate(90 37.5 28.5)" fill="#00BA4F"/>
<circle cx="37.5" cy="37.5" r="1.5" transform="rotate(90 37.5 37.5)" fill="#00BA4F"/>
<circle cx="37.5" cy="46.5" r="1.5" transform="rotate(90 37.5 46.5)" fill="#00BA4F"/>
<circle cx="37.5" cy="55.5" r="1.5" transform="rotate(90 37.5 55.5)" fill="#00BA4F"/>
<circle cx="37.5" cy="64.5" r="1.5" transform="rotate(90 37.5 64.5)" fill="#00BA4F"/>
<circle cx="37.5" cy="73.5" r="1.5" transform="rotate(90 37.5 73.5)" fill="#00BA4F"/>
<circle cx="37.5" cy="82.5" r="1.5" transform="rotate(90 37.5 82.5)" fill="#00BA4F"/>
<circle cx="37.5" cy="91.5" r="1.5" transform="rotate(90 37.5 91.5)" fill="#00BA4F"/>
<circle cx="28.5" cy="1.5" r="1.5" transform="rotate(90 28.5 1.5)" fill="#00BA4F"/>
<circle cx="28.5" cy="10.5" r="1.5" transform="rotate(90 28.5 10.5)" fill="#00BA4F"/>
<circle cx="28.5" cy="19.5" r="1.5" transform="rotate(90 28.5 19.5)" fill="#00BA4F"/>
<circle cx="28.5" cy="28.5" r="1.5" transform="rotate(90 28.5 28.5)" fill="#00BA4F"/>
<circle cx="28.5" cy="37.5" r="1.5" transform="rotate(90 28.5 37.5)" fill="#00BA4F"/>
<circle cx="28.5" cy="46.5" r="1.5" transform="rotate(90 28.5 46.5)" fill="#00BA4F"/>
<circle cx="28.5" cy="55.5" r="1.5" transform="rotate(90 28.5 55.5)" fill="#00BA4F"/>
<circle cx="28.5" cy="64.5" r="1.5" transform="rotate(90 28.5 64.5)" fill="#00BA4F"/>
<circle cx="28.5" cy="73.5" r="1.5" transform="rotate(90 28.5 73.5)" fill="#00BA4F"/>
<circle cx="28.5" cy="82.5" r="1.5" transform="rotate(90 28.5 82.5)" fill="#00BA4F"/>
<circle cx="28.5" cy="91.5" r="1.5" transform="rotate(90 28.5 91.5)" fill="#00BA4F"/>
<circle cx="19.5" cy="1.5" r="1.5" transform="rotate(90 19.5 1.5)" fill="#00BA4F"/>
<circle cx="19.5" cy="10.5" r="1.5" transform="rotate(90 19.5 10.5)" fill="#00BA4F"/>
<circle cx="19.5" cy="19.5" r="1.5" transform="rotate(90 19.5 19.5)" fill="#00BA4F"/>
<circle cx="19.5" cy="28.5" r="1.5" transform="rotate(90 19.5 28.5)" fill="#00BA4F"/>
<circle cx="19.5" cy="37.5" r="1.5" transform="rotate(90 19.5 37.5)" fill="#00BA4F"/>
<circle cx="19.5" cy="46.5" r="1.5" transform="rotate(90 19.5 46.5)" fill="#00BA4F"/>
<circle cx="19.5" cy="55.5" r="1.5" transform="rotate(90 19.5 55.5)" fill="#00BA4F"/>
<circle cx="19.5" cy="64.5" r="1.5" transform="rotate(90 19.5 64.5)" fill="#00BA4F"/>
<circle cx="19.5" cy="73.5" r="1.5" transform="rotate(90 19.5 73.5)" fill="#00BA4F"/>
<circle cx="19.5" cy="82.5" r="1.5" transform="rotate(90 19.5 82.5)" fill="#00BA4F"/>
<circle cx="19.5" cy="91.5" r="1.5" transform="rotate(90 19.5 91.5)" fill="#00BA4F"/>
<circle cx="10.5" cy="1.5" r="1.5" transform="rotate(90 10.5 1.5)" fill="#00BA4F"/>
<circle cx="10.5" cy="10.5" r="1.5" transform="rotate(90 10.5 10.5)" fill="#00BA4F"/>
<circle cx="10.5" cy="19.5" r="1.5" transform="rotate(90 10.5 19.5)" fill="#00BA4F"/>
<circle cx="10.5" cy="28.5" r="1.5" transform="rotate(90 10.5 28.5)" fill="#00BA4F"/>
<circle cx="10.5" cy="37.5" r="1.5" transform="rotate(90 10.5 37.5)" fill="#00BA4F"/>
<circle cx="10.5" cy="46.5" r="1.5" transform="rotate(90 10.5 46.5)" fill="#00BA4F"/>
<circle cx="10.5" cy="55.5" r="1.5" transform="rotate(90 10.5 55.5)" fill="#00BA4F"/>
<circle cx="10.5" cy="64.5" r="1.5" transform="rotate(90 10.5 64.5)" fill="#00BA4F"/>
<circle cx="10.5" cy="73.5" r="1.5" transform="rotate(90 10.5 73.5)" fill="#00BA4F"/>
<circle cx="10.5" cy="82.5" r="1.5" transform="rotate(90 10.5 82.5)" fill="#00BA4F"/>
<circle cx="10.5" cy="91.5" r="1.5" transform="rotate(90 10.5 91.5)" fill="#00BA4F"/>
<circle cx="1.5" cy="1.5" r="1.5" transform="rotate(90 1.5 1.5)" fill="#00BA4F"/>
<circle cx="1.5" cy="10.5" r="1.5" transform="rotate(90 1.5 10.5)" fill="#00BA4F"/>
<circle cx="1.5" cy="19.5" r="1.5" transform="rotate(90 1.5 19.5)" fill="#00BA4F"/>
<circle cx="1.5" cy="28.5" r="1.5" transform="rotate(90 1.5 28.5)" fill="#00BA4F"/>
<circle cx="1.5" cy="37.5" r="1.5" transform="rotate(90 1.5 37.5)" fill="#00BA4F"/>
<circle cx="1.5" cy="46.5" r="1.5" transform="rotate(90 1.5 46.5)" fill="#00BA4F"/>
<circle cx="1.5" cy="55.5" r="1.5" transform="rotate(90 1.5 55.5)" fill="#00BA4F"/>
<circle cx="1.5" cy="64.5" r="1.5" transform="rotate(90 1.5 64.5)" fill="#00BA4F"/>
<circle cx="1.5" cy="73.5" r="1.5" transform="rotate(90 1.5 73.5)" fill="#00BA4F"/>
<circle cx="1.5" cy="82.5" r="1.5" transform="rotate(90 1.5 82.5)" fill="#00BA4F"/>
<circle cx="1.5" cy="91.5" r="1.5" transform="rotate(90 1.5 91.5)" fill="#00BA4F"/>
<circle cx="91.5" cy="100.5" r="1.5" transform="rotate(90 91.5 100.5)" fill="#00BA4F"/>
<circle cx="91.5" cy="109.5" r="1.5" transform="rotate(90 91.5 109.5)" fill="#00BA4F"/>
<circle cx="91.5" cy="118.5" r="1.5" transform="rotate(90 91.5 118.5)" fill="#00BA4F"/>
<circle cx="91.5" cy="127.5" r="1.5" transform="rotate(90 91.5 127.5)" fill="#00BA4F"/>
<circle cx="91.5" cy="136.5" r="1.5" transform="rotate(90 91.5 136.5)" fill="#00BA4F"/>
<circle cx="91.5" cy="145.5" r="1.5" transform="rotate(90 91.5 145.5)" fill="#00BA4F"/>
<circle cx="91.5" cy="154.5" r="1.5" transform="rotate(90 91.5 154.5)" fill="#00BA4F"/>
<circle cx="91.5" cy="163.5" r="1.5" transform="rotate(90 91.5 163.5)" fill="#00BA4F"/>
<circle cx="91.5" cy="172.5" r="1.5" transform="rotate(90 91.5 172.5)" fill="#00BA4F"/>
<circle cx="91.5" cy="181.5" r="1.5" transform="rotate(90 91.5 181.5)" fill="#00BA4F"/>
<circle cx="91.5" cy="190.5" r="1.5" transform="rotate(90 91.5 190.5)" fill="#00BA4F"/>
<circle cx="82.5" cy="100.5" r="1.5" transform="rotate(90 82.5 100.5)" fill="#00BA4F"/>
<circle cx="82.5" cy="109.5" r="1.5" transform="rotate(90 82.5 109.5)" fill="#00BA4F"/>
<circle cx="82.5" cy="118.5" r="1.5" transform="rotate(90 82.5 118.5)" fill="#00BA4F"/>
<circle cx="82.5" cy="127.5" r="1.5" transform="rotate(90 82.5 127.5)" fill="#00BA4F"/>
<circle cx="82.5" cy="136.5" r="1.5" transform="rotate(90 82.5 136.5)" fill="#00BA4F"/>
<circle cx="82.5" cy="145.5" r="1.5" transform="rotate(90 82.5 145.5)" fill="#00BA4F"/>
<circle cx="82.5" cy="154.5" r="1.5" transform="rotate(90 82.5 154.5)" fill="#00BA4F"/>
<circle cx="82.5" cy="163.5" r="1.5" transform="rotate(90 82.5 163.5)" fill="#00BA4F"/>
<circle cx="82.5" cy="172.5" r="1.5" transform="rotate(90 82.5 172.5)" fill="#00BA4F"/>
<circle cx="82.5" cy="181.5" r="1.5" transform="rotate(90 82.5 181.5)" fill="#00BA4F"/>
<circle cx="82.5" cy="190.5" r="1.5" transform="rotate(90 82.5 190.5)" fill="#00BA4F"/>
<circle cx="73.5" cy="100.5" r="1.5" transform="rotate(90 73.5 100.5)" fill="#00BA4F"/>
<circle cx="73.5" cy="109.5" r="1.5" transform="rotate(90 73.5 109.5)" fill="#00BA4F"/>
<circle cx="73.5" cy="118.5" r="1.5" transform="rotate(90 73.5 118.5)" fill="#00BA4F"/>
<circle cx="73.5" cy="127.5" r="1.5" transform="rotate(90 73.5 127.5)" fill="#00BA4F"/>
<circle cx="73.5" cy="136.5" r="1.5" transform="rotate(90 73.5 136.5)" fill="#00BA4F"/>
<circle cx="73.5" cy="145.5" r="1.5" transform="rotate(90 73.5 145.5)" fill="#00BA4F"/>
<circle cx="73.5" cy="154.5" r="1.5" transform="rotate(90 73.5 154.5)" fill="#00BA4F"/>
<circle cx="73.5" cy="163.5" r="1.5" transform="rotate(90 73.5 163.5)" fill="#00BA4F"/>
<circle cx="73.5" cy="172.5" r="1.5" transform="rotate(90 73.5 172.5)" fill="#00BA4F"/>
<circle cx="73.5" cy="181.5" r="1.5" transform="rotate(90 73.5 181.5)" fill="#00BA4F"/>
<circle cx="73.5" cy="190.5" r="1.5" transform="rotate(90 73.5 190.5)" fill="#00BA4F"/>
<circle cx="64.5" cy="100.5" r="1.5" transform="rotate(90 64.5 100.5)" fill="#00BA4F"/>
<circle cx="64.5" cy="109.5" r="1.5" transform="rotate(90 64.5 109.5)" fill="#00BA4F"/>
<circle cx="64.5" cy="118.5" r="1.5" transform="rotate(90 64.5 118.5)" fill="#00BA4F"/>
<circle cx="64.5" cy="127.5" r="1.5" transform="rotate(90 64.5 127.5)" fill="#00BA4F"/>
<circle cx="64.5" cy="136.5" r="1.5" transform="rotate(90 64.5 136.5)" fill="#00BA4F"/>
<circle cx="64.5" cy="145.5" r="1.5" transform="rotate(90 64.5 145.5)" fill="#00BA4F"/>
<circle cx="64.5" cy="154.5" r="1.5" transform="rotate(90 64.5 154.5)" fill="#00BA4F"/>
<circle cx="64.5" cy="163.5" r="1.5" transform="rotate(90 64.5 163.5)" fill="#00BA4F"/>
<circle cx="64.5" cy="172.5" r="1.5" transform="rotate(90 64.5 172.5)" fill="#00BA4F"/>
<circle cx="64.5" cy="181.5" r="1.5" transform="rotate(90 64.5 181.5)" fill="#00BA4F"/>
<circle cx="64.5" cy="190.5" r="1.5" transform="rotate(90 64.5 190.5)" fill="#00BA4F"/>
<circle cx="55.5" cy="100.5" r="1.5" transform="rotate(90 55.5 100.5)" fill="#00BA4F"/>
<circle cx="55.5" cy="109.5" r="1.5" transform="rotate(90 55.5 109.5)" fill="#00BA4F"/>
<circle cx="55.5" cy="118.5" r="1.5" transform="rotate(90 55.5 118.5)" fill="#00BA4F"/>
<circle cx="55.5" cy="127.5" r="1.5" transform="rotate(90 55.5 127.5)" fill="#00BA4F"/>
<circle cx="55.5" cy="136.5" r="1.5" transform="rotate(90 55.5 136.5)" fill="#00BA4F"/>
<circle cx="55.5" cy="145.5" r="1.5" transform="rotate(90 55.5 145.5)" fill="#00BA4F"/>
<circle cx="55.5" cy="154.5" r="1.5" transform="rotate(90 55.5 154.5)" fill="#00BA4F"/>
<circle cx="55.5" cy="163.5" r="1.5" transform="rotate(90 55.5 163.5)" fill="#00BA4F"/>
<circle cx="55.5" cy="172.5" r="1.5" transform="rotate(90 55.5 172.5)" fill="#00BA4F"/>
<circle cx="55.5" cy="181.5" r="1.5" transform="rotate(90 55.5 181.5)" fill="#00BA4F"/>
<circle cx="55.5" cy="190.5" r="1.5" transform="rotate(90 55.5 190.5)" fill="#00BA4F"/>
<circle cx="109.5" cy="1.5" r="1.5" transform="rotate(90 109.5 1.5)" fill="#00BA4F"/>
<circle cx="109.5" cy="10.5" r="1.5" transform="rotate(90 109.5 10.5)" fill="#00BA4F"/>
<circle cx="109.5" cy="19.5" r="1.5" transform="rotate(90 109.5 19.5)" fill="#00BA4F"/>
<circle cx="109.5" cy="28.5" r="1.5" transform="rotate(90 109.5 28.5)" fill="#00BA4F"/>
<circle cx="109.5" cy="37.5" r="1.5" transform="rotate(90 109.5 37.5)" fill="#00BA4F"/>
<circle cx="109.5" cy="46.5" r="1.5" transform="rotate(90 109.5 46.5)" fill="#00BA4F"/>
<circle cx="109.5" cy="55.5" r="1.5" transform="rotate(90 109.5 55.5)" fill="#00BA4F"/>
<circle cx="109.5" cy="64.5" r="1.5" transform="rotate(90 109.5 64.5)" fill="#00BA4F"/>
<circle cx="109.5" cy="73.5" r="1.5" transform="rotate(90 109.5 73.5)" fill="#00BA4F"/>
<circle cx="109.5" cy="82.5" r="1.5" transform="rotate(90 109.5 82.5)" fill="#00BA4F"/>
<circle cx="109.5" cy="91.5" r="1.5" transform="rotate(90 109.5 91.5)" fill="#00BA4F"/>
<circle cx="100.5" cy="1.5" r="1.5" transform="rotate(90 100.5 1.5)" fill="#00BA4F"/>
<circle cx="100.5" cy="10.5" r="1.5" transform="rotate(90 100.5 10.5)" fill="#00BA4F"/>
<circle cx="100.5" cy="19.5" r="1.5" transform="rotate(90 100.5 19.5)" fill="#00BA4F"/>
<circle cx="100.5" cy="28.5" r="1.5" transform="rotate(90 100.5 28.5)" fill="#00BA4F"/>
<circle cx="100.5" cy="37.5" r="1.5" transform="rotate(90 100.5 37.5)" fill="#00BA4F"/>
<circle cx="100.5" cy="46.5" r="1.5" transform="rotate(90 100.5 46.5)" fill="#00BA4F"/>
<circle cx="100.5" cy="55.5" r="1.5" transform="rotate(90 100.5 55.5)" fill="#00BA4F"/>
<circle cx="100.5" cy="64.5" r="1.5" transform="rotate(90 100.5 64.5)" fill="#00BA4F"/>
<circle cx="100.5" cy="73.5" r="1.5" transform="rotate(90 100.5 73.5)" fill="#00BA4F"/>
<circle cx="100.5" cy="82.5" r="1.5" transform="rotate(90 100.5 82.5)" fill="#00BA4F"/>
<circle cx="100.5" cy="91.5" r="1.5" transform="rotate(90 100.5 91.5)" fill="#00BA4F"/>
<circle cx="109.5" cy="100.5" r="1.5" transform="rotate(90 109.5 100.5)" fill="#00BA4F"/>
<circle cx="109.5" cy="109.5" r="1.5" transform="rotate(90 109.5 109.5)" fill="#00BA4F"/>
<circle cx="109.5" cy="118.5" r="1.5" transform="rotate(90 109.5 118.5)" fill="#00BA4F"/>
<circle cx="109.5" cy="127.5" r="1.5" transform="rotate(90 109.5 127.5)" fill="#00BA4F"/>
<circle cx="109.5" cy="136.5" r="1.5" transform="rotate(90 109.5 136.5)" fill="#00BA4F"/>
<circle cx="109.5" cy="145.5" r="1.5" transform="rotate(90 109.5 145.5)" fill="#00BA4F"/>
<circle cx="109.5" cy="154.5" r="1.5" transform="rotate(90 109.5 154.5)" fill="#00BA4F"/>
<circle cx="109.5" cy="163.5" r="1.5" transform="rotate(90 109.5 163.5)" fill="#00BA4F"/>
<circle cx="109.5" cy="172.5" r="1.5" transform="rotate(90 109.5 172.5)" fill="#00BA4F"/>
<circle cx="109.5" cy="181.5" r="1.5" transform="rotate(90 109.5 181.5)" fill="#00BA4F"/>
<circle cx="109.5" cy="190.5" r="1.5" transform="rotate(90 109.5 190.5)" fill="#00BA4F"/>
<circle cx="100.5" cy="100.5" r="1.5" transform="rotate(90 100.5 100.5)" fill="#00BA4F"/>
<circle cx="100.5" cy="109.5" r="1.5" transform="rotate(90 100.5 109.5)" fill="#00BA4F"/>
<circle cx="100.5" cy="118.5" r="1.5" transform="rotate(90 100.5 118.5)" fill="#00BA4F"/>
<circle cx="100.5" cy="127.5" r="1.5" transform="rotate(90 100.5 127.5)" fill="#00BA4F"/>
<circle cx="100.5" cy="136.5" r="1.5" transform="rotate(90 100.5 136.5)" fill="#00BA4F"/>
<circle cx="100.5" cy="145.5" r="1.5" transform="rotate(90 100.5 145.5)" fill="#00BA4F"/>
<circle cx="100.5" cy="154.5" r="1.5" transform="rotate(90 100.5 154.5)" fill="#00BA4F"/>
<circle cx="100.5" cy="163.5" r="1.5" transform="rotate(90 100.5 163.5)" fill="#00BA4F"/>
<circle cx="100.5" cy="172.5" r="1.5" transform="rotate(90 100.5 172.5)" fill="#00BA4F"/>
<circle cx="100.5" cy="181.5" r="1.5" transform="rotate(90 100.5 181.5)" fill="#00BA4F"/>
<circle cx="100.5" cy="190.5" r="1.5" transform="rotate(90 100.5 190.5)" fill="#00BA4F"/>
<circle cx="46.5" cy="100.5" r="1.5" transform="rotate(90 46.5 100.5)" fill="#00BA4F"/>
<circle cx="46.5" cy="109.5" r="1.5" transform="rotate(90 46.5 109.5)" fill="#00BA4F"/>
<circle cx="46.5" cy="118.5" r="1.5" transform="rotate(90 46.5 118.5)" fill="#00BA4F"/>
<circle cx="46.5" cy="127.5" r="1.5" transform="rotate(90 46.5 127.5)" fill="#00BA4F"/>
<circle cx="46.5" cy="136.5" r="1.5" transform="rotate(90 46.5 136.5)" fill="#00BA4F"/>
<circle cx="46.5" cy="145.5" r="1.5" transform="rotate(90 46.5 145.5)" fill="#00BA4F"/>
<circle cx="46.5" cy="154.5" r="1.5" transform="rotate(90 46.5 154.5)" fill="#00BA4F"/>
<circle cx="46.5" cy="163.5" r="1.5" transform="rotate(90 46.5 163.5)" fill="#00BA4F"/>
<circle cx="46.5" cy="172.5" r="1.5" transform="rotate(90 46.5 172.5)" fill="#00BA4F"/>
<circle cx="46.5" cy="181.5" r="1.5" transform="rotate(90 46.5 181.5)" fill="#00BA4F"/>
<circle cx="46.5" cy="190.5" r="1.5" transform="rotate(90 46.5 190.5)" fill="#00BA4F"/>
<circle cx="37.5" cy="100.5" r="1.5" transform="rotate(90 37.5 100.5)" fill="#00BA4F"/>
<circle cx="37.5" cy="109.5" r="1.5" transform="rotate(90 37.5 109.5)" fill="#00BA4F"/>
<circle cx="37.5" cy="118.5" r="1.5" transform="rotate(90 37.5 118.5)" fill="#00BA4F"/>
<circle cx="37.5" cy="127.5" r="1.5" transform="rotate(90 37.5 127.5)" fill="#00BA4F"/>
<circle cx="37.5" cy="136.5" r="1.5" transform="rotate(90 37.5 136.5)" fill="#00BA4F"/>
<circle cx="37.5" cy="145.5" r="1.5" transform="rotate(90 37.5 145.5)" fill="#00BA4F"/>
<circle cx="37.5" cy="154.5" r="1.5" transform="rotate(90 37.5 154.5)" fill="#00BA4F"/>
<circle cx="37.5" cy="163.5" r="1.5" transform="rotate(90 37.5 163.5)" fill="#00BA4F"/>
<circle cx="37.5" cy="172.5" r="1.5" transform="rotate(90 37.5 172.5)" fill="#00BA4F"/>
<circle cx="37.5" cy="181.5" r="1.5" transform="rotate(90 37.5 181.5)" fill="#00BA4F"/>
<circle cx="37.5" cy="190.5" r="1.5" transform="rotate(90 37.5 190.5)" fill="#00BA4F"/>
<circle cx="28.5" cy="100.5" r="1.5" transform="rotate(90 28.5 100.5)" fill="#00BA4F"/>
<circle cx="28.5" cy="109.5" r="1.5" transform="rotate(90 28.5 109.5)" fill="#00BA4F"/>
<circle cx="28.5" cy="118.5" r="1.5" transform="rotate(90 28.5 118.5)" fill="#00BA4F"/>
<circle cx="28.5" cy="127.5" r="1.5" transform="rotate(90 28.5 127.5)" fill="#00BA4F"/>
<circle cx="28.5" cy="136.5" r="1.5" transform="rotate(90 28.5 136.5)" fill="#00BA4F"/>
<circle cx="28.5" cy="145.5" r="1.5" transform="rotate(90 28.5 145.5)" fill="#00BA4F"/>
<circle cx="28.5" cy="154.5" r="1.5" transform="rotate(90 28.5 154.5)" fill="#00BA4F"/>
<circle cx="28.5" cy="163.5" r="1.5" transform="rotate(90 28.5 163.5)" fill="#00BA4F"/>
<circle cx="28.5" cy="172.5" r="1.5" transform="rotate(90 28.5 172.5)" fill="#00BA4F"/>
<circle cx="28.5" cy="181.5" r="1.5" transform="rotate(90 28.5 181.5)" fill="#00BA4F"/>
<circle cx="28.5" cy="190.5" r="1.5" transform="rotate(90 28.5 190.5)" fill="#00BA4F"/>
<circle cx="19.5" cy="100.5" r="1.5" transform="rotate(90 19.5 100.5)" fill="#00BA4F"/>
<circle cx="19.5" cy="109.5" r="1.5" transform="rotate(90 19.5 109.5)" fill="#00BA4F"/>
<circle cx="19.5" cy="118.5" r="1.5" transform="rotate(90 19.5 118.5)" fill="#00BA4F"/>
<circle cx="19.5" cy="127.5" r="1.5" transform="rotate(90 19.5 127.5)" fill="#00BA4F"/>
<circle cx="19.5" cy="136.5" r="1.5" transform="rotate(90 19.5 136.5)" fill="#00BA4F"/>
<circle cx="19.5" cy="145.5" r="1.5" transform="rotate(90 19.5 145.5)" fill="#00BA4F"/>
<circle cx="19.5" cy="154.5" r="1.5" transform="rotate(90 19.5 154.5)" fill="#00BA4F"/>
<circle cx="19.5" cy="163.5" r="1.5" transform="rotate(90 19.5 163.5)" fill="#00BA4F"/>
<circle cx="19.5" cy="172.5" r="1.5" transform="rotate(90 19.5 172.5)" fill="#00BA4F"/>
<circle cx="19.5" cy="181.5" r="1.5" transform="rotate(90 19.5 181.5)" fill="#00BA4F"/>
<circle cx="19.5" cy="190.5" r="1.5" transform="rotate(90 19.5 190.5)" fill="#00BA4F"/>
<circle cx="10.5" cy="100.5" r="1.5" transform="rotate(90 10.5 100.5)" fill="#00BA4F"/>
<circle cx="10.5" cy="109.5" r="1.5" transform="rotate(90 10.5 109.5)" fill="#00BA4F"/>
<circle cx="10.5" cy="118.5" r="1.5" transform="rotate(90 10.5 118.5)" fill="#00BA4F"/>
<circle cx="10.5" cy="127.5" r="1.5" transform="rotate(90 10.5 127.5)" fill="#00BA4F"/>
<circle cx="10.5" cy="136.5" r="1.5" transform="rotate(90 10.5 136.5)" fill="#00BA4F"/>
<circle cx="10.5" cy="145.5" r="1.5" transform="rotate(90 10.5 145.5)" fill="#00BA4F"/>
<circle cx="10.5" cy="154.5" r="1.5" transform="rotate(90 10.5 154.5)" fill="#00BA4F"/>
<circle cx="10.5" cy="163.5" r="1.5" transform="rotate(90 10.5 163.5)" fill="#00BA4F"/>
<circle cx="10.5" cy="172.5" r="1.5" transform="rotate(90 10.5 172.5)" fill="#00BA4F"/>
<circle cx="10.5" cy="181.5" r="1.5" transform="rotate(90 10.5 181.5)" fill="#00BA4F"/>
<circle cx="10.5" cy="190.5" r="1.5" transform="rotate(90 10.5 190.5)" fill="#00BA4F"/>
<circle cx="1.5" cy="100.5" r="1.5" transform="rotate(90 1.5 100.5)" fill="#00BA4F"/>
<circle cx="1.5" cy="109.5" r="1.5" transform="rotate(90 1.5 109.5)" fill="#00BA4F"/>
<circle cx="1.5" cy="118.5" r="1.5" transform="rotate(90 1.5 118.5)" fill="#00BA4F"/>
<circle cx="1.5" cy="127.5" r="1.5" transform="rotate(90 1.5 127.5)" fill="#00BA4F"/>
<circle cx="1.5" cy="136.5" r="1.5" transform="rotate(90 1.5 136.5)" fill="#00BA4F"/>
<circle cx="1.5" cy="145.5" r="1.5" transform="rotate(90 1.5 145.5)" fill="#00BA4F"/>
<circle cx="1.5" cy="154.5" r="1.5" transform="rotate(90 1.5 154.5)" fill="#00BA4F"/>
<circle cx="1.5" cy="163.5" r="1.5" transform="rotate(90 1.5 163.5)" fill="#00BA4F"/>
<circle cx="1.5" cy="172.5" r="1.5" transform="rotate(90 1.5 172.5)" fill="#00BA4F"/>
<circle cx="1.5" cy="181.5" r="1.5" transform="rotate(90 1.5 181.5)" fill="#00BA4F"/>
<circle cx="1.5" cy="190.5" r="1.5" transform="rotate(90 1.5 190.5)" fill="#00BA4F"/>
<circle cx="208.5" cy="1.5" r="1.5" transform="rotate(90 208.5 1.5)" fill="#00BA4F"/>
<circle cx="208.5" cy="10.5" r="1.5" transform="rotate(90 208.5 10.5)" fill="#00BA4F"/>
<circle cx="208.5" cy="19.5" r="1.5" transform="rotate(90 208.5 19.5)" fill="#00BA4F"/>
<circle cx="208.5" cy="28.5" r="1.5" transform="rotate(90 208.5 28.5)" fill="#00BA4F"/>
<circle cx="208.5" cy="37.5" r="1.5" transform="rotate(90 208.5 37.5)" fill="#00BA4F"/>
<circle cx="208.5" cy="46.5" r="1.5" transform="rotate(90 208.5 46.5)" fill="#00BA4F"/>
<circle cx="208.5" cy="55.5" r="1.5" transform="rotate(90 208.5 55.5)" fill="#00BA4F"/>
<circle cx="208.5" cy="64.5" r="1.5" transform="rotate(90 208.5 64.5)" fill="#00BA4F"/>
<circle cx="208.5" cy="73.5" r="1.5" transform="rotate(90 208.5 73.5)" fill="#00BA4F"/>
<circle cx="208.5" cy="82.5" r="1.5" transform="rotate(90 208.5 82.5)" fill="#00BA4F"/>
<circle cx="208.5" cy="91.5" r="1.5" transform="rotate(90 208.5 91.5)" fill="#00BA4F"/>
<circle cx="199.5" cy="1.5" r="1.5" transform="rotate(90 199.5 1.5)" fill="#00BA4F"/>
<circle cx="199.5" cy="10.5" r="1.5" transform="rotate(90 199.5 10.5)" fill="#00BA4F"/>
<circle cx="199.5" cy="19.5" r="1.5" transform="rotate(90 199.5 19.5)" fill="#00BA4F"/>
<circle cx="199.5" cy="28.5" r="1.5" transform="rotate(90 199.5 28.5)" fill="#00BA4F"/>
<circle cx="199.5" cy="37.5" r="1.5" transform="rotate(90 199.5 37.5)" fill="#00BA4F"/>
<circle cx="199.5" cy="46.5" r="1.5" transform="rotate(90 199.5 46.5)" fill="#00BA4F"/>
<circle cx="199.5" cy="55.5" r="1.5" transform="rotate(90 199.5 55.5)" fill="#00BA4F"/>
<circle cx="199.5" cy="64.5" r="1.5" transform="rotate(90 199.5 64.5)" fill="#00BA4F"/>
<circle cx="199.5" cy="73.5" r="1.5" transform="rotate(90 199.5 73.5)" fill="#00BA4F"/>
<circle cx="199.5" cy="82.5" r="1.5" transform="rotate(90 199.5 82.5)" fill="#00BA4F"/>
<circle cx="199.5" cy="91.5" r="1.5" transform="rotate(90 199.5 91.5)" fill="#00BA4F"/>
<circle cx="190.5" cy="1.5" r="1.5" transform="rotate(90 190.5 1.5)" fill="#00BA4F"/>
<circle cx="190.5" cy="10.5" r="1.5" transform="rotate(90 190.5 10.5)" fill="#00BA4F"/>
<circle cx="190.5" cy="19.5" r="1.5" transform="rotate(90 190.5 19.5)" fill="#00BA4F"/>
<circle cx="190.5" cy="28.5" r="1.5" transform="rotate(90 190.5 28.5)" fill="#00BA4F"/>
<circle cx="190.5" cy="37.5" r="1.5" transform="rotate(90 190.5 37.5)" fill="#00BA4F"/>
<circle cx="190.5" cy="46.5" r="1.5" transform="rotate(90 190.5 46.5)" fill="#00BA4F"/>
<circle cx="190.5" cy="55.5" r="1.5" transform="rotate(90 190.5 55.5)" fill="#00BA4F"/>
<circle cx="190.5" cy="64.5" r="1.5" transform="rotate(90 190.5 64.5)" fill="#00BA4F"/>
<circle cx="190.5" cy="73.5" r="1.5" transform="rotate(90 190.5 73.5)" fill="#00BA4F"/>
<circle cx="190.5" cy="82.5" r="1.5" transform="rotate(90 190.5 82.5)" fill="#00BA4F"/>
<circle cx="190.5" cy="91.5" r="1.5" transform="rotate(90 190.5 91.5)" fill="#00BA4F"/>
<circle cx="181.5" cy="1.5" r="1.5" transform="rotate(90 181.5 1.5)" fill="#00BA4F"/>
<circle cx="181.5" cy="10.5" r="1.5" transform="rotate(90 181.5 10.5)" fill="#00BA4F"/>
<circle cx="181.5" cy="19.5" r="1.5" transform="rotate(90 181.5 19.5)" fill="#00BA4F"/>
<circle cx="181.5" cy="28.5" r="1.5" transform="rotate(90 181.5 28.5)" fill="#00BA4F"/>
<circle cx="181.5" cy="37.5" r="1.5" transform="rotate(90 181.5 37.5)" fill="#00BA4F"/>
<circle cx="181.5" cy="46.5" r="1.5" transform="rotate(90 181.5 46.5)" fill="#00BA4F"/>
<circle cx="181.5" cy="55.5" r="1.5" transform="rotate(90 181.5 55.5)" fill="#00BA4F"/>
<circle cx="181.5" cy="64.5" r="1.5" transform="rotate(90 181.5 64.5)" fill="#00BA4F"/>
<circle cx="181.5" cy="73.5" r="1.5" transform="rotate(90 181.5 73.5)" fill="#00BA4F"/>
<circle cx="181.5" cy="82.5" r="1.5" transform="rotate(90 181.5 82.5)" fill="#00BA4F"/>
<circle cx="181.5" cy="91.5" r="1.5" transform="rotate(90 181.5 91.5)" fill="#00BA4F"/>
<circle cx="172.5" cy="1.5" r="1.5" transform="rotate(90 172.5 1.5)" fill="#00BA4F"/>
<circle cx="172.5" cy="10.5" r="1.5" transform="rotate(90 172.5 10.5)" fill="#00BA4F"/>
<circle cx="172.5" cy="19.5" r="1.5" transform="rotate(90 172.5 19.5)" fill="#00BA4F"/>
<circle cx="172.5" cy="28.5" r="1.5" transform="rotate(90 172.5 28.5)" fill="#00BA4F"/>
<circle cx="172.5" cy="37.5" r="1.5" transform="rotate(90 172.5 37.5)" fill="#00BA4F"/>
<circle cx="172.5" cy="46.5" r="1.5" transform="rotate(90 172.5 46.5)" fill="#00BA4F"/>
<circle cx="172.5" cy="55.5" r="1.5" transform="rotate(90 172.5 55.5)" fill="#00BA4F"/>
<circle cx="172.5" cy="64.5" r="1.5" transform="rotate(90 172.5 64.5)" fill="#00BA4F"/>
<circle cx="172.5" cy="73.5" r="1.5" transform="rotate(90 172.5 73.5)" fill="#00BA4F"/>
<circle cx="172.5" cy="82.5" r="1.5" transform="rotate(90 172.5 82.5)" fill="#00BA4F"/>
<circle cx="172.5" cy="91.5" r="1.5" transform="rotate(90 172.5 91.5)" fill="#00BA4F"/>
<circle cx="163.5" cy="1.5" r="1.5" transform="rotate(90 163.5 1.5)" fill="#00BA4F"/>
<circle cx="163.5" cy="10.5" r="1.5" transform="rotate(90 163.5 10.5)" fill="#00BA4F"/>
<circle cx="163.5" cy="19.5" r="1.5" transform="rotate(90 163.5 19.5)" fill="#00BA4F"/>
<circle cx="163.5" cy="28.5" r="1.5" transform="rotate(90 163.5 28.5)" fill="#00BA4F"/>
<circle cx="163.5" cy="37.5" r="1.5" transform="rotate(90 163.5 37.5)" fill="#00BA4F"/>
<circle cx="163.5" cy="46.5" r="1.5" transform="rotate(90 163.5 46.5)" fill="#00BA4F"/>
<circle cx="163.5" cy="55.5" r="1.5" transform="rotate(90 163.5 55.5)" fill="#00BA4F"/>
<circle cx="163.5" cy="64.5" r="1.5" transform="rotate(90 163.5 64.5)" fill="#00BA4F"/>
<circle cx="163.5" cy="73.5" r="1.5" transform="rotate(90 163.5 73.5)" fill="#00BA4F"/>
<circle cx="163.5" cy="82.5" r="1.5" transform="rotate(90 163.5 82.5)" fill="#00BA4F"/>
<circle cx="163.5" cy="91.5" r="1.5" transform="rotate(90 163.5 91.5)" fill="#00BA4F"/>
<circle cx="154.5" cy="1.5" r="1.5" transform="rotate(90 154.5 1.5)" fill="#00BA4F"/>
<circle cx="154.5" cy="10.5" r="1.5" transform="rotate(90 154.5 10.5)" fill="#00BA4F"/>
<circle cx="154.5" cy="19.5" r="1.5" transform="rotate(90 154.5 19.5)" fill="#00BA4F"/>
<circle cx="154.5" cy="28.5" r="1.5" transform="rotate(90 154.5 28.5)" fill="#00BA4F"/>
<circle cx="154.5" cy="37.5" r="1.5" transform="rotate(90 154.5 37.5)" fill="#00BA4F"/>
<circle cx="154.5" cy="46.5" r="1.5" transform="rotate(90 154.5 46.5)" fill="#00BA4F"/>
<circle cx="154.5" cy="55.5" r="1.5" transform="rotate(90 154.5 55.5)" fill="#00BA4F"/>
<circle cx="154.5" cy="64.5" r="1.5" transform="rotate(90 154.5 64.5)" fill="#00BA4F"/>
<circle cx="154.5" cy="73.5" r="1.5" transform="rotate(90 154.5 73.5)" fill="#00BA4F"/>
<circle cx="154.5" cy="82.5" r="1.5" transform="rotate(90 154.5 82.5)" fill="#00BA4F"/>
<circle cx="154.5" cy="91.5" r="1.5" transform="rotate(90 154.5 91.5)" fill="#00BA4F"/>
<circle cx="145.5" cy="1.5" r="1.5" transform="rotate(90 145.5 1.5)" fill="#00BA4F"/>
<circle cx="145.5" cy="10.5" r="1.5" transform="rotate(90 145.5 10.5)" fill="#00BA4F"/>
<circle cx="145.5" cy="19.5" r="1.5" transform="rotate(90 145.5 19.5)" fill="#00BA4F"/>
<circle cx="145.5" cy="28.5" r="1.5" transform="rotate(90 145.5 28.5)" fill="#00BA4F"/>
<circle cx="145.5" cy="37.5" r="1.5" transform="rotate(90 145.5 37.5)" fill="#00BA4F"/>
<circle cx="145.5" cy="46.5" r="1.5" transform="rotate(90 145.5 46.5)" fill="#00BA4F"/>
<circle cx="145.5" cy="55.5" r="1.5" transform="rotate(90 145.5 55.5)" fill="#00BA4F"/>
<circle cx="145.5" cy="64.5" r="1.5" transform="rotate(90 145.5 64.5)" fill="#00BA4F"/>
<circle cx="145.5" cy="73.5" r="1.5" transform="rotate(90 145.5 73.5)" fill="#00BA4F"/>
<circle cx="145.5" cy="82.5" r="1.5" transform="rotate(90 145.5 82.5)" fill="#00BA4F"/>
<circle cx="145.5" cy="91.5" r="1.5" transform="rotate(90 145.5 91.5)" fill="#00BA4F"/>
<circle cx="136.5" cy="1.5" r="1.5" transform="rotate(90 136.5 1.5)" fill="#00BA4F"/>
<circle cx="136.5" cy="10.5" r="1.5" transform="rotate(90 136.5 10.5)" fill="#00BA4F"/>
<circle cx="136.5" cy="19.5" r="1.5" transform="rotate(90 136.5 19.5)" fill="#00BA4F"/>
<circle cx="136.5" cy="28.5" r="1.5" transform="rotate(90 136.5 28.5)" fill="#00BA4F"/>
<circle cx="136.5" cy="37.5" r="1.5" transform="rotate(90 136.5 37.5)" fill="#00BA4F"/>
<circle cx="136.5" cy="46.5" r="1.5" transform="rotate(90 136.5 46.5)" fill="#00BA4F"/>
<circle cx="136.5" cy="55.5" r="1.5" transform="rotate(90 136.5 55.5)" fill="#00BA4F"/>
<circle cx="136.5" cy="64.5" r="1.5" transform="rotate(90 136.5 64.5)" fill="#00BA4F"/>
<circle cx="136.5" cy="73.5" r="1.5" transform="rotate(90 136.5 73.5)" fill="#00BA4F"/>
<circle cx="136.5" cy="82.5" r="1.5" transform="rotate(90 136.5 82.5)" fill="#00BA4F"/>
<circle cx="136.5" cy="91.5" r="1.5" transform="rotate(90 136.5 91.5)" fill="#00BA4F"/>
<circle cx="127.5" cy="1.5" r="1.5" transform="rotate(90 127.5 1.5)" fill="#00BA4F"/>
<circle cx="127.5" cy="10.5" r="1.5" transform="rotate(90 127.5 10.5)" fill="#00BA4F"/>
<circle cx="127.5" cy="19.5" r="1.5" transform="rotate(90 127.5 19.5)" fill="#00BA4F"/>
<circle cx="127.5" cy="28.5" r="1.5" transform="rotate(90 127.5 28.5)" fill="#00BA4F"/>
<circle cx="127.5" cy="37.5" r="1.5" transform="rotate(90 127.5 37.5)" fill="#00BA4F"/>
<circle cx="127.5" cy="46.5" r="1.5" transform="rotate(90 127.5 46.5)" fill="#00BA4F"/>
<circle cx="127.5" cy="55.5" r="1.5" transform="rotate(90 127.5 55.5)" fill="#00BA4F"/>
<circle cx="127.5" cy="64.5" r="1.5" transform="rotate(90 127.5 64.5)" fill="#00BA4F"/>
<circle cx="127.5" cy="73.5" r="1.5" transform="rotate(90 127.5 73.5)" fill="#00BA4F"/>
<circle cx="127.5" cy="82.5" r="1.5" transform="rotate(90 127.5 82.5)" fill="#00BA4F"/>
<circle cx="127.5" cy="91.5" r="1.5" transform="rotate(90 127.5 91.5)" fill="#00BA4F"/>
<circle cx="118.5" cy="1.5" r="1.5" transform="rotate(90 118.5 1.5)" fill="#00BA4F"/>
<circle cx="118.5" cy="10.5" r="1.5" transform="rotate(90 118.5 10.5)" fill="#00BA4F"/>
<circle cx="118.5" cy="19.5" r="1.5" transform="rotate(90 118.5 19.5)" fill="#00BA4F"/>
<circle cx="118.5" cy="28.5" r="1.5" transform="rotate(90 118.5 28.5)" fill="#00BA4F"/>
<circle cx="118.5" cy="37.5" r="1.5" transform="rotate(90 118.5 37.5)" fill="#00BA4F"/>
<circle cx="118.5" cy="46.5" r="1.5" transform="rotate(90 118.5 46.5)" fill="#00BA4F"/>
<circle cx="118.5" cy="55.5" r="1.5" transform="rotate(90 118.5 55.5)" fill="#00BA4F"/>
<circle cx="118.5" cy="64.5" r="1.5" transform="rotate(90 118.5 64.5)" fill="#00BA4F"/>
<circle cx="118.5" cy="73.5" r="1.5" transform="rotate(90 118.5 73.5)" fill="#00BA4F"/>
<circle cx="118.5" cy="82.5" r="1.5" transform="rotate(90 118.5 82.5)" fill="#00BA4F"/>
<circle cx="118.5" cy="91.5" r="1.5" transform="rotate(90 118.5 91.5)" fill="#00BA4F"/>
<circle cx="208.5" cy="100.5" r="1.5" transform="rotate(90 208.5 100.5)" fill="#00BA4F"/>
<circle cx="208.5" cy="109.5" r="1.5" transform="rotate(90 208.5 109.5)" fill="#00BA4F"/>
<circle cx="208.5" cy="118.5" r="1.5" transform="rotate(90 208.5 118.5)" fill="#00BA4F"/>
<circle cx="208.5" cy="127.5" r="1.5" transform="rotate(90 208.5 127.5)" fill="#00BA4F"/>
<circle cx="208.5" cy="136.5" r="1.5" transform="rotate(90 208.5 136.5)" fill="#00BA4F"/>
<circle cx="208.5" cy="145.5" r="1.5" transform="rotate(90 208.5 145.5)" fill="#00BA4F"/>
<circle cx="208.5" cy="154.5" r="1.5" transform="rotate(90 208.5 154.5)" fill="#00BA4F"/>
<circle cx="208.5" cy="163.5" r="1.5" transform="rotate(90 208.5 163.5)" fill="#00BA4F"/>
<circle cx="208.5" cy="172.5" r="1.5" transform="rotate(90 208.5 172.5)" fill="#00BA4F"/>
<circle cx="208.5" cy="181.5" r="1.5" transform="rotate(90 208.5 181.5)" fill="#00BA4F"/>
<circle cx="208.5" cy="190.5" r="1.5" transform="rotate(90 208.5 190.5)" fill="#00BA4F"/>
<circle cx="199.5" cy="100.5" r="1.5" transform="rotate(90 199.5 100.5)" fill="#00BA4F"/>
<circle cx="199.5" cy="109.5" r="1.5" transform="rotate(90 199.5 109.5)" fill="#00BA4F"/>
<circle cx="199.5" cy="118.5" r="1.5" transform="rotate(90 199.5 118.5)" fill="#00BA4F"/>
<circle cx="199.5" cy="127.5" r="1.5" transform="rotate(90 199.5 127.5)" fill="#00BA4F"/>
<circle cx="199.5" cy="136.5" r="1.5" transform="rotate(90 199.5 136.5)" fill="#00BA4F"/>
<circle cx="199.5" cy="145.5" r="1.5" transform="rotate(90 199.5 145.5)" fill="#00BA4F"/>
<circle cx="199.5" cy="154.5" r="1.5" transform="rotate(90 199.5 154.5)" fill="#00BA4F"/>
<circle cx="199.5" cy="163.5" r="1.5" transform="rotate(90 199.5 163.5)" fill="#00BA4F"/>
<circle cx="199.5" cy="172.5" r="1.5" transform="rotate(90 199.5 172.5)" fill="#00BA4F"/>
<circle cx="199.5" cy="181.5" r="1.5" transform="rotate(90 199.5 181.5)" fill="#00BA4F"/>
<circle cx="199.5" cy="190.5" r="1.5" transform="rotate(90 199.5 190.5)" fill="#00BA4F"/>
<circle cx="190.5" cy="100.5" r="1.5" transform="rotate(90 190.5 100.5)" fill="#00BA4F"/>
<circle cx="190.5" cy="109.5" r="1.5" transform="rotate(90 190.5 109.5)" fill="#00BA4F"/>
<circle cx="190.5" cy="118.5" r="1.5" transform="rotate(90 190.5 118.5)" fill="#00BA4F"/>
<circle cx="190.5" cy="127.5" r="1.5" transform="rotate(90 190.5 127.5)" fill="#00BA4F"/>
<circle cx="190.5" cy="136.5" r="1.5" transform="rotate(90 190.5 136.5)" fill="#00BA4F"/>
<circle cx="190.5" cy="145.5" r="1.5" transform="rotate(90 190.5 145.5)" fill="#00BA4F"/>
<circle cx="190.5" cy="154.5" r="1.5" transform="rotate(90 190.5 154.5)" fill="#00BA4F"/>
<circle cx="190.5" cy="163.5" r="1.5" transform="rotate(90 190.5 163.5)" fill="#00BA4F"/>
<circle cx="190.5" cy="172.5" r="1.5" transform="rotate(90 190.5 172.5)" fill="#00BA4F"/>
<circle cx="190.5" cy="181.5" r="1.5" transform="rotate(90 190.5 181.5)" fill="#00BA4F"/>
<circle cx="190.5" cy="190.5" r="1.5" transform="rotate(90 190.5 190.5)" fill="#00BA4F"/>
<circle cx="181.5" cy="100.5" r="1.5" transform="rotate(90 181.5 100.5)" fill="#00BA4F"/>
<circle cx="181.5" cy="109.5" r="1.5" transform="rotate(90 181.5 109.5)" fill="#00BA4F"/>
<circle cx="181.5" cy="118.5" r="1.5" transform="rotate(90 181.5 118.5)" fill="#00BA4F"/>
<circle cx="181.5" cy="127.5" r="1.5" transform="rotate(90 181.5 127.5)" fill="#00BA4F"/>
<circle cx="181.5" cy="136.5" r="1.5" transform="rotate(90 181.5 136.5)" fill="#00BA4F"/>
<circle cx="181.5" cy="145.5" r="1.5" transform="rotate(90 181.5 145.5)" fill="#00BA4F"/>
<circle cx="181.5" cy="154.5" r="1.5" transform="rotate(90 181.5 154.5)" fill="#00BA4F"/>
<circle cx="181.5" cy="163.5" r="1.5" transform="rotate(90 181.5 163.5)" fill="#00BA4F"/>
<circle cx="181.5" cy="172.5" r="1.5" transform="rotate(90 181.5 172.5)" fill="#00BA4F"/>
<circle cx="181.5" cy="181.5" r="1.5" transform="rotate(90 181.5 181.5)" fill="#00BA4F"/>
<circle cx="181.5" cy="190.5" r="1.5" transform="rotate(90 181.5 190.5)" fill="#00BA4F"/>
<circle cx="172.5" cy="100.5" r="1.5" transform="rotate(90 172.5 100.5)" fill="#00BA4F"/>
<circle cx="172.5" cy="109.5" r="1.5" transform="rotate(90 172.5 109.5)" fill="#00BA4F"/>
<circle cx="172.5" cy="118.5" r="1.5" transform="rotate(90 172.5 118.5)" fill="#00BA4F"/>
<circle cx="172.5" cy="127.5" r="1.5" transform="rotate(90 172.5 127.5)" fill="#00BA4F"/>
<circle cx="172.5" cy="136.5" r="1.5" transform="rotate(90 172.5 136.5)" fill="#00BA4F"/>
<circle cx="172.5" cy="145.5" r="1.5" transform="rotate(90 172.5 145.5)" fill="#00BA4F"/>
<circle cx="172.5" cy="154.5" r="1.5" transform="rotate(90 172.5 154.5)" fill="#00BA4F"/>
<circle cx="172.5" cy="163.5" r="1.5" transform="rotate(90 172.5 163.5)" fill="#00BA4F"/>
<circle cx="172.5" cy="172.5" r="1.5" transform="rotate(90 172.5 172.5)" fill="#00BA4F"/>
<circle cx="172.5" cy="181.5" r="1.5" transform="rotate(90 172.5 181.5)" fill="#00BA4F"/>
<circle cx="172.5" cy="190.5" r="1.5" transform="rotate(90 172.5 190.5)" fill="#00BA4F"/>
<circle cx="226.5" cy="1.5" r="1.5" transform="rotate(90 226.5 1.5)" fill="#00BA4F"/>
<circle cx="226.5" cy="10.5" r="1.5" transform="rotate(90 226.5 10.5)" fill="#00BA4F"/>
<circle cx="226.5" cy="19.5" r="1.5" transform="rotate(90 226.5 19.5)" fill="#00BA4F"/>
<circle cx="226.5" cy="28.5" r="1.5" transform="rotate(90 226.5 28.5)" fill="#00BA4F"/>
<circle cx="226.5" cy="37.5" r="1.5" transform="rotate(90 226.5 37.5)" fill="#00BA4F"/>
<circle cx="226.5" cy="46.5" r="1.5" transform="rotate(90 226.5 46.5)" fill="#00BA4F"/>
<circle cx="226.5" cy="55.5" r="1.5" transform="rotate(90 226.5 55.5)" fill="#00BA4F"/>
<circle cx="226.5" cy="64.5" r="1.5" transform="rotate(90 226.5 64.5)" fill="#00BA4F"/>
<circle cx="226.5" cy="73.5" r="1.5" transform="rotate(90 226.5 73.5)" fill="#00BA4F"/>
<circle cx="226.5" cy="82.5" r="1.5" transform="rotate(90 226.5 82.5)" fill="#00BA4F"/>
<circle cx="226.5" cy="91.5" r="1.5" transform="rotate(90 226.5 91.5)" fill="#00BA4F"/>
<circle cx="217.5" cy="1.5" r="1.5" transform="rotate(90 217.5 1.5)" fill="#00BA4F"/>
<circle cx="217.5" cy="10.5" r="1.5" transform="rotate(90 217.5 10.5)" fill="#00BA4F"/>
<circle cx="217.5" cy="19.5" r="1.5" transform="rotate(90 217.5 19.5)" fill="#00BA4F"/>
<circle cx="217.5" cy="28.5" r="1.5" transform="rotate(90 217.5 28.5)" fill="#00BA4F"/>
<circle cx="217.5" cy="37.5" r="1.5" transform="rotate(90 217.5 37.5)" fill="#00BA4F"/>
<circle cx="217.5" cy="46.5" r="1.5" transform="rotate(90 217.5 46.5)" fill="#00BA4F"/>
<circle cx="217.5" cy="55.5" r="1.5" transform="rotate(90 217.5 55.5)" fill="#00BA4F"/>
<circle cx="217.5" cy="64.5" r="1.5" transform="rotate(90 217.5 64.5)" fill="#00BA4F"/>
<circle cx="217.5" cy="73.5" r="1.5" transform="rotate(90 217.5 73.5)" fill="#00BA4F"/>
<circle cx="217.5" cy="82.5" r="1.5" transform="rotate(90 217.5 82.5)" fill="#00BA4F"/>
<circle cx="217.5" cy="91.5" r="1.5" transform="rotate(90 217.5 91.5)" fill="#00BA4F"/>
<circle cx="226.5" cy="100.5" r="1.5" transform="rotate(90 226.5 100.5)" fill="#00BA4F"/>
<circle cx="226.5" cy="109.5" r="1.5" transform="rotate(90 226.5 109.5)" fill="#00BA4F"/>
<circle cx="226.5" cy="118.5" r="1.5" transform="rotate(90 226.5 118.5)" fill="#00BA4F"/>
<circle cx="226.5" cy="127.5" r="1.5" transform="rotate(90 226.5 127.5)" fill="#00BA4F"/>
<circle cx="226.5" cy="136.5" r="1.5" transform="rotate(90 226.5 136.5)" fill="#00BA4F"/>
<circle cx="226.5" cy="145.5" r="1.5" transform="rotate(90 226.5 145.5)" fill="#00BA4F"/>
<circle cx="226.5" cy="154.5" r="1.5" transform="rotate(90 226.5 154.5)" fill="#00BA4F"/>
<circle cx="226.5" cy="163.5" r="1.5" transform="rotate(90 226.5 163.5)" fill="#00BA4F"/>
<circle cx="226.5" cy="172.5" r="1.5" transform="rotate(90 226.5 172.5)" fill="#00BA4F"/>
<circle cx="226.5" cy="181.5" r="1.5" transform="rotate(90 226.5 181.5)" fill="#00BA4F"/>
<circle cx="226.5" cy="190.5" r="1.5" transform="rotate(90 226.5 190.5)" fill="#00BA4F"/>
<circle cx="217.5" cy="100.5" r="1.5" transform="rotate(90 217.5 100.5)" fill="#00BA4F"/>
<circle cx="217.5" cy="109.5" r="1.5" transform="rotate(90 217.5 109.5)" fill="#00BA4F"/>
<circle cx="217.5" cy="118.5" r="1.5" transform="rotate(90 217.5 118.5)" fill="#00BA4F"/>
<circle cx="217.5" cy="127.5" r="1.5" transform="rotate(90 217.5 127.5)" fill="#00BA4F"/>
<circle cx="217.5" cy="136.5" r="1.5" transform="rotate(90 217.5 136.5)" fill="#00BA4F"/>
<circle cx="217.5" cy="145.5" r="1.5" transform="rotate(90 217.5 145.5)" fill="#00BA4F"/>
<circle cx="217.5" cy="154.5" r="1.5" transform="rotate(90 217.5 154.5)" fill="#00BA4F"/>
<circle cx="217.5" cy="163.5" r="1.5" transform="rotate(90 217.5 163.5)" fill="#00BA4F"/>
<circle cx="217.5" cy="172.5" r="1.5" transform="rotate(90 217.5 172.5)" fill="#00BA4F"/>
<circle cx="217.5" cy="181.5" r="1.5" transform="rotate(90 217.5 181.5)" fill="#00BA4F"/>
<circle cx="217.5" cy="190.5" r="1.5" transform="rotate(90 217.5 190.5)" fill="#00BA4F"/>
<circle cx="163.5" cy="100.5" r="1.5" transform="rotate(90 163.5 100.5)" fill="#00BA4F"/>
<circle cx="163.5" cy="109.5" r="1.5" transform="rotate(90 163.5 109.5)" fill="#00BA4F"/>
<circle cx="163.5" cy="118.5" r="1.5" transform="rotate(90 163.5 118.5)" fill="#00BA4F"/>
<circle cx="163.5" cy="127.5" r="1.5" transform="rotate(90 163.5 127.5)" fill="#00BA4F"/>
<circle cx="163.5" cy="136.5" r="1.5" transform="rotate(90 163.5 136.5)" fill="#00BA4F"/>
<circle cx="163.5" cy="145.5" r="1.5" transform="rotate(90 163.5 145.5)" fill="#00BA4F"/>
<circle cx="163.5" cy="154.5" r="1.5" transform="rotate(90 163.5 154.5)" fill="#00BA4F"/>
<circle cx="163.5" cy="163.5" r="1.5" transform="rotate(90 163.5 163.5)" fill="#00BA4F"/>
<circle cx="163.5" cy="172.5" r="1.5" transform="rotate(90 163.5 172.5)" fill="#00BA4F"/>
<circle cx="163.5" cy="181.5" r="1.5" transform="rotate(90 163.5 181.5)" fill="#00BA4F"/>
<circle cx="163.5" cy="190.5" r="1.5" transform="rotate(90 163.5 190.5)" fill="#00BA4F"/>
<circle cx="154.5" cy="100.5" r="1.5" transform="rotate(90 154.5 100.5)" fill="#00BA4F"/>
<circle cx="154.5" cy="109.5" r="1.5" transform="rotate(90 154.5 109.5)" fill="#00BA4F"/>
<circle cx="154.5" cy="118.5" r="1.5" transform="rotate(90 154.5 118.5)" fill="#00BA4F"/>
<circle cx="154.5" cy="127.5" r="1.5" transform="rotate(90 154.5 127.5)" fill="#00BA4F"/>
<circle cx="154.5" cy="136.5" r="1.5" transform="rotate(90 154.5 136.5)" fill="#00BA4F"/>
<circle cx="154.5" cy="145.5" r="1.5" transform="rotate(90 154.5 145.5)" fill="#00BA4F"/>
<circle cx="154.5" cy="154.5" r="1.5" transform="rotate(90 154.5 154.5)" fill="#00BA4F"/>
<circle cx="154.5" cy="163.5" r="1.5" transform="rotate(90 154.5 163.5)" fill="#00BA4F"/>
<circle cx="154.5" cy="172.5" r="1.5" transform="rotate(90 154.5 172.5)" fill="#00BA4F"/>
<circle cx="154.5" cy="181.5" r="1.5" transform="rotate(90 154.5 181.5)" fill="#00BA4F"/>
<circle cx="154.5" cy="190.5" r="1.5" transform="rotate(90 154.5 190.5)" fill="#00BA4F"/>
<circle cx="145.5" cy="100.5" r="1.5" transform="rotate(90 145.5 100.5)" fill="#00BA4F"/>
<circle cx="145.5" cy="109.5" r="1.5" transform="rotate(90 145.5 109.5)" fill="#00BA4F"/>
<circle cx="145.5" cy="118.5" r="1.5" transform="rotate(90 145.5 118.5)" fill="#00BA4F"/>
<circle cx="145.5" cy="127.5" r="1.5" transform="rotate(90 145.5 127.5)" fill="#00BA4F"/>
<circle cx="145.5" cy="136.5" r="1.5" transform="rotate(90 145.5 136.5)" fill="#00BA4F"/>
<circle cx="145.5" cy="145.5" r="1.5" transform="rotate(90 145.5 145.5)" fill="#00BA4F"/>
<circle cx="145.5" cy="154.5" r="1.5" transform="rotate(90 145.5 154.5)" fill="#00BA4F"/>
<circle cx="145.5" cy="163.5" r="1.5" transform="rotate(90 145.5 163.5)" fill="#00BA4F"/>
<circle cx="145.5" cy="172.5" r="1.5" transform="rotate(90 145.5 172.5)" fill="#00BA4F"/>
<circle cx="145.5" cy="181.5" r="1.5" transform="rotate(90 145.5 181.5)" fill="#00BA4F"/>
<circle cx="145.5" cy="190.5" r="1.5" transform="rotate(90 145.5 190.5)" fill="#00BA4F"/>
<circle cx="136.5" cy="100.5" r="1.5" transform="rotate(90 136.5 100.5)" fill="#00BA4F"/>
<circle cx="136.5" cy="109.5" r="1.5" transform="rotate(90 136.5 109.5)" fill="#00BA4F"/>
<circle cx="136.5" cy="118.5" r="1.5" transform="rotate(90 136.5 118.5)" fill="#00BA4F"/>
<circle cx="136.5" cy="127.5" r="1.5" transform="rotate(90 136.5 127.5)" fill="#00BA4F"/>
<circle cx="136.5" cy="136.5" r="1.5" transform="rotate(90 136.5 136.5)" fill="#00BA4F"/>
<circle cx="136.5" cy="145.5" r="1.5" transform="rotate(90 136.5 145.5)" fill="#00BA4F"/>
<circle cx="136.5" cy="154.5" r="1.5" transform="rotate(90 136.5 154.5)" fill="#00BA4F"/>
<circle cx="136.5" cy="163.5" r="1.5" transform="rotate(90 136.5 163.5)" fill="#00BA4F"/>
<circle cx="136.5" cy="172.5" r="1.5" transform="rotate(90 136.5 172.5)" fill="#00BA4F"/>
<circle cx="136.5" cy="181.5" r="1.5" transform="rotate(90 136.5 181.5)" fill="#00BA4F"/>
<circle cx="136.5" cy="190.5" r="1.5" transform="rotate(90 136.5 190.5)" fill="#00BA4F"/>
<circle cx="127.5" cy="100.5" r="1.5" transform="rotate(90 127.5 100.5)" fill="#00BA4F"/>
<circle cx="127.5" cy="109.5" r="1.5" transform="rotate(90 127.5 109.5)" fill="#00BA4F"/>
<circle cx="127.5" cy="118.5" r="1.5" transform="rotate(90 127.5 118.5)" fill="#00BA4F"/>
<circle cx="127.5" cy="127.5" r="1.5" transform="rotate(90 127.5 127.5)" fill="#00BA4F"/>
<circle cx="127.5" cy="136.5" r="1.5" transform="rotate(90 127.5 136.5)" fill="#00BA4F"/>
<circle cx="127.5" cy="145.5" r="1.5" transform="rotate(90 127.5 145.5)" fill="#00BA4F"/>
<circle cx="127.5" cy="154.5" r="1.5" transform="rotate(90 127.5 154.5)" fill="#00BA4F"/>
<circle cx="127.5" cy="163.5" r="1.5" transform="rotate(90 127.5 163.5)" fill="#00BA4F"/>
<circle cx="127.5" cy="172.5" r="1.5" transform="rotate(90 127.5 172.5)" fill="#00BA4F"/>
<circle cx="127.5" cy="181.5" r="1.5" transform="rotate(90 127.5 181.5)" fill="#00BA4F"/>
<circle cx="127.5" cy="190.5" r="1.5" transform="rotate(90 127.5 190.5)" fill="#00BA4F"/>
<circle cx="118.5" cy="100.5" r="1.5" transform="rotate(90 118.5 100.5)" fill="#00BA4F"/>
<circle cx="118.5" cy="109.5" r="1.5" transform="rotate(90 118.5 109.5)" fill="#00BA4F"/>
<circle cx="118.5" cy="118.5" r="1.5" transform="rotate(90 118.5 118.5)" fill="#00BA4F"/>
<circle cx="118.5" cy="127.5" r="1.5" transform="rotate(90 118.5 127.5)" fill="#00BA4F"/>
<circle cx="118.5" cy="136.5" r="1.5" transform="rotate(90 118.5 136.5)" fill="#00BA4F"/>
<circle cx="118.5" cy="145.5" r="1.5" transform="rotate(90 118.5 145.5)" fill="#00BA4F"/>
<circle cx="118.5" cy="154.5" r="1.5" transform="rotate(90 118.5 154.5)" fill="#00BA4F"/>
<circle cx="118.5" cy="163.5" r="1.5" transform="rotate(90 118.5 163.5)" fill="#00BA4F"/>
<circle cx="118.5" cy="172.5" r="1.5" transform="rotate(90 118.5 172.5)" fill="#00BA4F"/>
<circle cx="118.5" cy="181.5" r="1.5" transform="rotate(90 118.5 181.5)" fill="#00BA4F"/>
<circle cx="118.5" cy="190.5" r="1.5" transform="rotate(90 118.5 190.5)" fill="#00BA4F"/>
</svg>
