<svg width="100" height="100" viewBox="0 0 100 100" fill="none" xmlns="http://www.w3.org/2000/svg">
<g clip-path="url(#clip0)">
<path d="M97.3979 33.582L39.6482 0.239899C39.1622 -0.0407649 38.7218 -0.0667414 38.4036 0.118024L37.5921 0.589703C37.5931 0.589117 37.5941 0.588726 37.5952 0.58814C37.2796 0.769976 37.0833 1.15845 37.0818 1.71197L36.9714 40.6713C36.9683 41.772 37.7363 43.1107 38.6911 43.6765C37.7214 43.1492 36.2015 43.1582 35.2593 43.7056L1.57481 63.2812C1.09668 63.5591 0.858011 63.923 0.858401 64.2874C0.858401 64.2863 0.858206 64.2849 0.858206 64.2839L0.855472 65.2224C0.854495 65.5904 1.09727 65.9589 1.5836 66.2396L59.3335 99.5813C60.2999 100.139 61.861 100.139 62.8206 99.5815L96.5053 80.0062C96.9822 79.729 97.2209 79.3663 97.2221 79.003L97.2248 78.0646C97.2248 78.0751 97.2238 78.0857 97.2234 78.0962C97.2383 77.7306 97.0119 77.3616 96.5449 77.0767C97.0131 77.3226 97.4338 77.3294 97.7363 77.1374C97.7274 77.1431 97.7188 77.1493 97.7096 77.1546L98.5211 76.6829C98.835 76.5005 99.0297 76.1124 99.0313 75.5612L99.1416 36.6019C99.1447 35.492 98.3645 34.1398 97.3979 33.582Z" fill="#77767E"/>
<path d="M37.5938 0.565371L38.4053 0.0936926C38.7232 -0.091268 39.1637 -0.0650962 39.6498 0.215567L38.8383 0.687246C38.3521 0.406583 37.9117 0.380606 37.5938 0.565371Z" fill="#ACABB1"/>
<path d="M98.5225 76.6832L97.7109 77.1549C98.0248 76.9725 98.2195 76.5844 98.2211 76.0332L99.0326 75.5615C99.031 76.1127 98.8363 76.5008 98.5225 76.6832Z" fill="#57565C"/>
<path d="M98.333 37.0684L99.1445 36.5967L99.034 75.5558L98.2227 76.0275L98.333 37.0684Z" fill="#77767E"/>
<path d="M38.8379 0.715819L39.6496 0.244141L97.3993 33.5863L96.5878 34.0576L38.8379 0.715819Z" fill="#C6C5CB"/>
<path d="M96.5879 34.0654L97.3994 33.5938C98.3658 34.1518 99.1463 35.5037 99.1434 36.6141L98.3318 37.0857C98.335 35.9756 97.5543 34.6234 96.5879 34.0654Z" fill="#ACABB1"/>
<path d="M96.5876 34.0456C97.554 34.6036 98.3345 35.9556 98.3315 37.0659L98.2212 76.0254C98.2181 77.1354 97.4323 77.583 96.4659 77.025L38.716 43.6833C37.75 43.1255 36.9695 41.7737 36.9727 40.6638L37.083 1.70428C37.0863 0.593923 37.8719 0.14607 38.8377 0.703689L96.5876 34.0456Z" fill="#898890"/>
<path d="M0.857426 65.2207L0.86016 64.2822C0.859184 64.6502 1.10196 65.0187 1.58828 65.2994L1.58555 66.2379C1.09922 65.9574 0.856254 65.5887 0.857426 65.2207Z" fill="#C6C5CB"/>
<path d="M97.2273 78.0762L97.2246 79.0146C97.2236 79.3779 96.9848 79.7406 96.5078 80.0178L96.5105 79.0793C96.9875 78.802 97.2264 78.4393 97.2273 78.0762Z" fill="#57565C"/>
<path d="M96.5095 79.0527L96.507 79.991L62.8223 99.5666L62.825 98.6279L96.5095 79.0527Z" fill="#77767E"/>
<path d="M59.3384 98.6495L59.3358 99.588L1.58594 66.2461L1.58848 65.3076L59.3384 98.6495Z" fill="#898890"/>
<path d="M62.8258 98.633L62.8231 99.571C61.8635 100.128 60.3022 100.128 59.3359 99.5708L59.3387 98.6328C60.3049 99.1903 61.866 99.1903 62.8258 98.633Z" fill="#57565C"/>
<path d="M96.498 77.0463C97.4644 77.6043 97.4694 78.5086 96.5095 79.0664L62.8248 98.6416C61.8652 99.1995 60.3039 99.1995 59.3377 98.6415L1.58759 65.2998C0.621181 64.7418 0.616103 63.8375 1.57567 63.2799L35.2602 43.7046C36.2203 43.1466 37.7815 43.1466 38.7479 43.7046L96.498 77.0463Z" fill="#ACABB1"/>
<path d="M94.8108 37.7916L40.5596 6.46973L40.4648 39.8845L94.7163 71.2061L94.8108 37.7916Z" fill="#2E2E30"/>
<path d="M54.6386 80.3047L44.2242 74.292L40.5605 76.4211L50.975 82.4338L54.6386 80.3047Z" fill="#2E2E30"/>
<path d="M39.8097 50.8473L34.8746 47.998L31.2109 50.1273L36.1459 52.9765L39.8097 50.8473Z" fill="#2E2E30"/>
<path d="M45.2883 53.9967L40.3531 51.1475L36.6895 53.2766L41.6244 56.1258L45.2883 53.9967Z" fill="#2E2E30"/>
<path d="M50.7672 57.1463L45.8316 54.2969L42.168 56.4262L47.1035 59.2756L50.7672 57.1463Z" fill="#2E2E30"/>
<path d="M56.2473 60.3199L51.3123 57.4707L47.6484 59.5998L52.5836 62.449L56.2473 60.3199Z" fill="#2E2E30"/>
<path d="M61.7277 63.4937L56.7928 60.6445L53.1289 62.7738L58.0641 65.623L61.7277 63.4937Z" fill="#2E2E30"/>
<path d="M67.206 66.6427L62.2711 63.7939L58.6074 65.9229L63.5424 68.7717L67.206 66.6427Z" fill="#2E2E30"/>
<path d="M72.6865 69.8172L67.7516 66.9678L64.0879 69.0972L69.0228 71.9465L72.6865 69.8172Z" fill="#2E2E30"/>
<path d="M78.1676 72.991L73.232 70.1416L69.5684 72.2709L74.5037 75.1203L78.1676 72.991Z" fill="#2E2E30"/>
<path d="M83.6457 76.1404L78.7107 73.291L75.0469 75.4203L79.9818 78.2697L83.6457 76.1404Z" fill="#2E2E30"/>
<path d="M89.1265 79.2898L84.1912 76.4404L80.5273 78.5697L85.4629 81.4191L89.1265 79.2898Z" fill="#2E2E30"/>
<path d="M34.3756 53.9967L29.4406 51.1475L25.7773 53.2766L30.7123 56.1254L34.3756 53.9967Z" fill="#2E2E30"/>
<path d="M39.8541 57.1463L34.9191 54.2969L31.2559 56.4261L36.1908 59.2754L39.8541 57.1463Z" fill="#2E2E30"/>
<path d="M45.3349 60.3201L40.3996 57.4707L36.7363 59.5994L41.6717 62.4488L45.3349 60.3201Z" fill="#2E2E30"/>
<path d="M50.815 63.4693L45.8801 60.6201L42.2168 62.7492L47.1517 65.5982L50.815 63.4693Z" fill="#2E2E30"/>
<path d="M56.2935 66.6429L51.3586 63.7939L47.6953 65.9225L52.6303 68.7715L56.2935 66.6429Z" fill="#2E2E30"/>
<path d="M61.7721 69.817L56.8369 66.9678L53.1738 69.0969L58.1088 71.9459L61.7721 69.817Z" fill="#2E2E30"/>
<path d="M67.2527 72.9666L62.3176 70.1172L58.6543 72.2461L63.5895 75.0955L67.2527 72.9666Z" fill="#2E2E30"/>
<path d="M72.7316 76.1406L67.7961 73.291L64.1328 75.4199L69.0684 78.2697L72.7316 76.1406Z" fill="#2E2E30"/>
<path d="M78.2115 79.2896L73.2766 76.4404L69.6133 78.5695L74.5482 81.4185L78.2115 79.2896Z" fill="#2E2E30"/>
<path d="M83.6922 82.4639L78.7568 79.6143L75.0938 81.7431L80.0289 84.5928L83.6922 82.4639Z" fill="#2E2E30"/>
<path d="M30.1705 56.4381L25.2355 53.5889L21.5723 55.7178L26.5072 58.567L30.1705 56.4381Z" fill="#2E2E30"/>
<path d="M35.649 59.6119L30.7141 56.7627L27.0508 58.8916L31.9857 61.7408L35.649 59.6119Z" fill="#2E2E30"/>
<path d="M41.1299 62.7615L36.1945 59.9121L32.5312 62.0408L37.4666 64.8904L41.1299 62.7615Z" fill="#2E2E30"/>
<path d="M46.6099 65.9351L41.675 63.0859L38.0117 65.2148L42.9467 68.064L46.6099 65.9351Z" fill="#2E2E30"/>
<path d="M52.0885 69.0846L47.1535 66.2354L43.4902 68.3641L48.4252 71.2133L52.0885 69.0846Z" fill="#2E2E30"/>
<path d="M57.5687 72.2586L52.6338 69.4092L48.9707 71.5382L53.9055 74.3877L57.5687 72.2586Z" fill="#2E2E30"/>
<path d="M68.5285 78.5818L63.593 75.7324L59.9297 77.8611L64.8652 80.7107L68.5285 78.5818Z" fill="#2E2E30"/>
<path d="M74.0064 81.7557L69.0715 78.9062L65.4082 81.0351L70.3432 83.8846L74.0064 81.7557Z" fill="#2E2E30"/>
<path d="M79.4873 84.9051L74.5519 82.0557L70.8887 84.1844L75.824 87.034L79.4873 84.9051Z" fill="#2E2E30"/>
<path d="M25.9658 58.8795L21.0309 56.0303L17.3672 58.1596L22.3021 61.0086L25.9658 58.8795Z" fill="#2E2E30"/>
<path d="M31.4463 62.0535L26.5113 59.2041L22.8477 61.3336L27.7826 64.1828L31.4463 62.0535Z" fill="#2E2E30"/>
<path d="M36.9254 65.2033L31.9898 62.3535L28.3262 64.483L33.2615 67.3328L36.9254 65.2033Z" fill="#2E2E30"/>
<path d="M42.4055 68.3768L37.4705 65.5273L33.8066 67.6568L38.7416 70.506L42.4055 68.3768Z" fill="#2E2E30"/>
<path d="M47.884 71.526L42.949 68.6768L39.2852 70.806L44.2201 73.6551L47.884 71.526Z" fill="#2E2E30"/>
<path d="M53.364 74.7L48.4293 71.8506L44.7656 73.98L49.7004 76.8293L53.364 74.7Z" fill="#2E2E30"/>
<path d="M32.7203 67.6441L27.7848 64.7949L24.1211 66.9237L29.0566 69.773L32.7203 67.6441Z" fill="#2E2E30"/>
<path d="M38.2004 70.818L33.2654 67.9688L29.6016 70.0978L34.5365 72.9471L38.2004 70.818Z" fill="#2E2E30"/>
<path d="M43.6808 73.9918L38.7459 71.1426L35.082 73.2717L40.0172 76.1209L43.6808 73.9918Z" fill="#2E2E30"/>
<path d="M65.5988 86.6383L60.6639 83.7891L57 85.9182L61.9349 88.7674L65.5988 86.6383Z" fill="#2E2E30"/>
<path d="M17.5572 63.7623L12.6221 60.9131L8.95898 63.042L13.8939 65.8912L17.5572 63.7623Z" fill="#2E2E30"/>
<path d="M23.0359 66.9363L18.1008 64.0869L14.4375 66.2162L19.3726 69.0656L23.0359 66.9363Z" fill="#2E2E30"/>
<path d="M50.4342 82.7318L45.4992 79.8828L41.8359 82.0117L46.7709 84.8609L50.4342 82.7318Z" fill="#2E2E30"/>
<path d="M44.955 79.601L23.581 67.2607L19.918 69.3896L41.2918 81.73L44.955 79.601Z" fill="#2E2E30"/>
<path d="M55.9133 85.9058L50.9777 83.0566L47.3145 85.1854L52.25 88.0348L55.9133 85.9058Z" fill="#2E2E30"/>
<path d="M61.3951 89.0797L56.4601 86.2305L52.7969 88.3596L57.7318 91.2088L61.3951 89.0797Z" fill="#2E2E30"/>
<path d="M66.8738 92.2537L61.9385 89.4043L58.2754 91.5332L63.2105 94.3826L66.8738 92.2537Z" fill="#2E2E30"/>
<path d="M63.047 75.4321L58.1121 72.583L50.2441 77.155L55.1791 80.0039L63.047 75.4321Z" fill="#2E2E30"/>
<path d="M27.2422 64.4844L16.8277 58.4717L13.1641 60.6008L23.5783 66.6135L27.2422 64.4844Z" fill="#2E2E30"/>
</g>
<defs>
<clipPath id="clip0">
<rect width="100" height="100" fill="white"/>
</clipPath>
</defs>
</svg>
