<svg width="100" height="100" viewBox="0 0 100 100" fill="none" xmlns="http://www.w3.org/2000/svg">
<path d="M61.1672 66.18H64.0877C65.4226 66.18 66.509 65.0934 66.509 63.7586V10.0307C66.5089 4.50026 62.0093 0 56.4782 0C55.7717 0 55.0625 0.0775421 54.3706 0.229813C53.7325 0.370831 53.2488 0.764168 53.0438 1.30978C52.8189 1.90743 52.948 2.60215 53.3979 3.21387C53.9801 4.00634 54.46 4.87654 54.8248 5.80195L54.9027 6.00046C55.4177 7.30848 55.6102 7.79817 56.2656 7.79817C56.3382 7.79817 56.4087 7.78358 56.4787 7.76424C57.729 7.76424 58.746 8.78178 58.746 10.0316V63.7593C58.7459 65.0941 59.8323 66.18 61.1672 66.18Z" fill="black"/>
<path d="M34.1504 10.0307V63.7585C34.1504 65.0934 35.2367 66.1798 36.5716 66.1798H39.492C40.8269 66.1798 41.9132 65.0932 41.9132 63.7585V10.0307C41.9132 8.7809 42.9307 7.76336 44.1806 7.76336C45.4304 7.76336 46.4479 8.7809 46.4479 10.0307V63.7585C46.4479 65.0934 47.5342 66.1798 48.8691 66.1798H51.7902C53.1252 66.1798 54.2116 65.0932 54.2116 63.7585V10.0307C54.2114 4.50026 49.7117 0 44.1806 0C38.6494 0 34.1504 4.50026 34.1504 10.0307Z" fill="black"/>
<path d="M64.4276 85.1724C66.7224 84.3585 68.8862 83.3828 70.8599 82.2708C71.8686 81.7022 72.6585 80.3233 72.6585 79.1303V70.0609C72.6585 68.7259 71.572 67.6396 70.2371 67.6396H30.4212C29.0863 67.6396 28 68.7259 28 70.0609V79.1303C28 80.323 28.7893 81.7029 29.7977 82.2719C31.7702 83.3835 33.9342 84.3596 36.2305 85.1731C36.8621 85.3964 37.198 85.8047 37.2238 85.9092V86.8938C37.2238 90.0393 39.3421 92.8022 42.375 93.6143C42.9572 93.7696 43.4527 94.2658 43.6088 94.848C44.4206 97.8811 47.184 99.9993 50.329 99.9993C53.4739 99.9993 56.2373 97.8804 57.0493 94.848C57.2052 94.2658 57.7007 93.7696 58.2836 93.6143C61.3166 92.8018 63.4343 90.0382 63.4343 86.8938L63.4327 85.9289C63.4601 85.8044 63.7953 85.3964 64.4276 85.1724Z" fill="black"/>
</svg>
