<svg width="100" height="100" viewBox="0 0 100 100" fill="none" xmlns="http://www.w3.org/2000/svg">
<path d="M79.6875 34.3753C79.687 29.1936 78.3303 24.1022 75.7523 19.6074C73.1742 15.1126 69.4645 11.3708 64.9921 8.75403C60.5197 6.13728 55.4402 4.73672 50.2587 4.69156C45.0772 4.6464 39.9741 5.95822 35.4568 8.49661C30.9394 11.035 27.1651 14.7116 24.5091 19.1608C21.8531 23.61 20.4078 28.6769 20.3171 33.8578C20.2263 39.0387 21.4931 44.1532 23.9916 48.6927C26.4902 53.2322 30.1333 57.0388 34.559 59.7339C35.4621 60.2919 36.2068 61.0724 36.7218 62.0007C37.2367 62.929 37.5047 63.974 37.5 65.0356V73.4378H62.5V65.0348C62.5021 63.962 62.7795 62.9077 63.3055 61.9727C63.8316 61.0378 64.5888 60.2534 65.5047 59.6948C69.8393 57.0425 73.42 53.3212 75.9035 48.8877C78.387 44.4541 79.6899 39.457 79.6875 34.3753Z" fill="#FFE76C"/>
<path d="M73.4375 37.5C73.0231 37.5 72.6257 37.3354 72.3326 37.0424C72.0396 36.7493 71.875 36.3519 71.875 35.9375V34.375C71.8684 28.5754 69.5616 23.0152 65.4607 18.9143C61.3598 14.8134 55.7996 12.5066 50 12.5H48.4375C48.0231 12.5 47.6257 12.3354 47.3326 12.0424C47.0396 11.7493 46.875 11.3519 46.875 10.9375C46.875 10.5231 47.0396 10.1257 47.3326 9.83265C47.6257 9.53962 48.0231 9.375 48.4375 9.375H50C56.6281 9.3825 62.9826 12.0188 67.6694 16.7056C72.3562 21.3924 74.9925 27.7469 75 34.375V35.9375C75 36.3519 74.8354 36.7493 74.5424 37.0424C74.2493 37.3354 73.8519 37.5 73.4375 37.5Z" fill="#FFB632"/>
<path d="M56.25 45.3125C55.0072 45.3139 53.8158 45.8082 52.937 46.687C52.0582 47.5658 51.5639 48.7572 51.5625 50V51.5625H48.4375V50C48.4375 49.0729 48.1626 48.1666 47.6475 47.3958C47.1325 46.6249 46.4004 46.0241 45.5438 45.6693C44.6873 45.3145 43.7448 45.2217 42.8355 45.4026C41.9262 45.5834 41.091 46.0299 40.4354 46.6854C39.7799 47.341 39.3334 48.1762 39.1526 49.0855C38.9717 49.9948 39.0645 50.9373 39.4193 51.7938C39.7741 52.6504 40.3749 53.3824 41.1458 53.8975C41.9166 54.4126 42.8229 54.6875 43.75 54.6875H45.3125V68.75C45.3125 69.1644 45.4771 69.5618 45.7702 69.8549C46.0632 70.1479 46.4606 70.3125 46.875 70.3125H53.125C53.5394 70.3125 53.9368 70.1479 54.2299 69.8549C54.5229 69.5618 54.6875 69.1644 54.6875 68.75V54.6875H56.25C57.4932 54.6875 58.6855 54.1936 59.5646 53.3146C60.4437 52.4355 60.9375 51.2432 60.9375 50C60.9375 48.7568 60.4437 47.5645 59.5646 46.6854C58.6855 45.8064 57.4932 45.3125 56.25 45.3125ZM42.1875 50C42.1875 49.5856 42.3521 49.1882 42.6451 48.8951C42.9382 48.6021 43.3356 48.4375 43.75 48.4375C44.1644 48.4375 44.5618 48.6021 44.8549 48.8951C45.1479 49.1882 45.3125 49.5856 45.3125 50V51.5625H43.75C43.3357 51.562 42.9386 51.3973 42.6457 51.1043C42.3527 50.8114 42.188 50.4143 42.1875 50ZM51.5625 67.1875H48.4375V54.6875H51.5625V67.1875ZM56.25 51.5625H54.6875V50C54.6875 49.691 54.7791 49.3889 54.9508 49.1319C55.1225 48.875 55.3666 48.6747 55.6521 48.5564C55.9376 48.4382 56.2517 48.4072 56.5548 48.4675C56.8579 48.5278 57.1363 48.6766 57.3549 48.8951C57.5734 49.1137 57.7222 49.3921 57.7825 49.6952C57.8428 49.9983 57.8118 50.3124 57.6936 50.5979C57.5753 50.8835 57.375 51.1275 57.1181 51.2992C56.8611 51.4709 56.559 51.5625 56.25 51.5625Z" fill="#FFB632"/>
<path d="M62.5 79.6875H37.5C36.6712 79.6875 35.8763 79.3583 35.2903 78.7722C34.7042 78.1862 34.375 77.3913 34.375 76.5625C34.375 75.7337 34.7042 74.9388 35.2903 74.3528C35.8763 73.7667 36.6712 73.4375 37.5 73.4375H62.5C63.3288 73.4375 64.1237 73.7667 64.7097 74.3528C65.2958 74.9388 65.625 75.7337 65.625 76.5625C65.625 77.3913 65.2958 78.1862 64.7097 78.7722C64.1237 79.3583 63.3288 79.6875 62.5 79.6875Z" fill="#DADCDE"/>
<path d="M62.5 85.9375H37.5C36.6712 85.9375 35.8763 85.6083 35.2903 85.0222C34.7042 84.4362 34.375 83.6413 34.375 82.8125C34.375 81.9837 34.7042 81.1888 35.2903 80.6028C35.8763 80.0167 36.6712 79.6875 37.5 79.6875H62.5C63.3288 79.6875 64.1237 80.0167 64.7097 80.6028C65.2958 81.1888 65.625 81.9837 65.625 82.8125C65.625 83.6413 65.2958 84.4362 64.7097 85.0222C64.1237 85.6083 63.3288 85.9375 62.5 85.9375Z" fill="#E9EEF2"/>
<path d="M37.5 85.9375H62.5V89.0625C62.5 90.7201 61.8415 92.3098 60.6694 93.4819C59.4973 94.654 57.9076 95.3125 56.25 95.3125H43.75C42.0924 95.3125 40.5027 94.654 39.3306 93.4819C38.1585 92.3098 37.5 90.7201 37.5 89.0625V85.9375Z" fill="#DADCDE"/>
<path d="M62.5 73.4375H37.5C36.6712 73.4375 35.8763 73.1083 35.2903 72.5222C34.7042 71.9362 34.375 71.1413 34.375 70.3125C34.375 69.4837 34.7042 68.6888 35.2903 68.1028C35.8763 67.5167 36.6712 67.1875 37.5 67.1875H62.5C63.3288 67.1875 64.1237 67.5167 64.7097 68.1028C65.2958 68.6888 65.625 69.4837 65.625 70.3125C65.625 71.1413 65.2958 71.9362 64.7097 72.5222C64.1237 73.1083 63.3288 73.4375 62.5 73.4375Z" fill="#E9EEF2"/>
</svg>
