<svg width="73" height="86" viewBox="0 0 73 86" fill="none" xmlns="http://www.w3.org/2000/svg">
<path d="M57.0823 59.9235C54.2067 66.249 52.5304 73.9751 46.0085 76.3422C39.0702 78.8604 31.7404 75.3986 25.5388 71.3718C18.7281 66.9495 10.9156 61.6116 10.8071 53.4855C10.7003 45.4861 18.8526 40.7429 25.063 35.7283C30.8383 31.0649 36.7604 25.7483 44.1391 26.571C52.0582 27.454 59.6812 32.4648 62.5707 39.9104C65.206 46.7013 60.0929 53.3012 57.0823 59.9235Z" fill="#FFC0BE"/>
<ellipse cx="32.5" cy="64" rx="4.5" ry="2" fill="#D98D8D"/>
<g clip-path="url(#clip0)">
<path d="M30.4468 63.3076C29.5637 62.3241 8.82129 39.0394 8.82129 23.1782C8.82141 10.3977 19.2192 0 31.9998 0C44.7804 0 55.178 10.3977 55.178 23.1782C55.178 39.0392 34.4357 62.3241 33.5525 63.3076C32.7229 64.2318 31.2745 64.2299 30.4468 63.3076Z" fill="#FF5752"/>
<path d="M55.1781 23.1782C55.1781 10.3977 44.7804 0 32 0V64C32.569 64 33.1383 63.7696 33.5529 63.3076C34.4358 62.3242 55.1781 39.0394 55.1781 23.1782Z" fill="#DB3A3C"/>
<path d="M32.0002 34.8399C25.57 34.8399 20.3389 29.6085 20.3389 23.1782C20.3389 16.748 25.5702 11.5166 32.0002 11.5166C38.4302 11.5166 43.6616 16.748 43.6616 23.1782C43.6616 29.6085 38.4302 34.8399 32.0002 34.8399Z" fill="#EFEFEF"/>
<path d="M32 11.5166V34.8397C38.4303 34.8397 43.6614 29.6083 43.6614 23.1781C43.6614 16.7478 38.43 11.5166 32 11.5166Z" fill="#C5D8DF"/>
</g>
<defs>
<clipPath id="clip0">
<rect width="64" height="64" fill="white"/>
</clipPath>
</defs>
</svg>
