<svg width="32" height="32" viewBox="0 0 32 32" fill="none" xmlns="http://www.w3.org/2000/svg">
<path d="M16 0C9.28 0 3.8125 5.4675 3.8125 12.1875C3.8125 14.8469 4.6525 17.3737 6.24375 19.4937L15.2487 31.6219C15.2712 31.6513 15.3056 31.6626 15.3306 31.6888C15.7806 32.1707 16.43 32.0494 16.7506 31.6219C19.3438 28.1619 24.0969 21.7 25.9244 19.2625L25.9256 19.2594L25.9369 19.2444C27.4094 17.1756 28.1875 14.7356 28.1875 12.1875C28.1875 5.4675 22.72 0 16 0ZM16 18C12.3819 18 10 15.6181 10 12C10 8.38188 12.3819 6 16 6C19.6181 6 22 8.56938 22 12.1875C22 15.8056 19.6181 18 16 18Z" fill="#00B294"/>
</svg>
