<svg width="159" height="178" viewBox="0 0 159 178" fill="none" xmlns="http://www.w3.org/2000/svg">
<path d="M55.6562 48.7236H59.7129V63.2621H55.6562V48.7236Z" fill="#293B44"/>
<path d="M102.865 15.9902H67.9963C66.0195 15.9902 64.104 16.6759 62.5763 17.9303L50.9626 27.4668C48.9869 29.089 47.8418 31.511 47.8418 34.0674V52.7112C47.8418 54.6297 49.3971 56.185 51.3156 56.185H102.865C107.582 56.185 111.406 52.3611 111.406 47.6443V24.5309C111.406 19.8139 107.582 15.9902 102.865 15.9902ZM103.25 27.0778C102.629 27.6991 101.765 28.0876 100.813 28.0876H75.2014C73.2984 28.0876 71.7547 26.5438 71.7547 24.6409C71.7547 23.6894 72.143 22.8253 72.7645 22.2039C73.3857 21.5825 74.25 21.1942 75.2014 21.1942H100.813C102.716 21.1942 104.26 22.738 104.26 24.6409C104.26 25.5923 103.872 26.4564 103.25 27.0778Z" fill="#DD584D"/>
<path d="M61.763 62.1182H53.6062C51.2321 62.1182 49.3008 64.0495 49.3008 66.4236V79.7041C49.3008 82.0782 51.2321 84.0096 53.6062 84.0096H61.763C64.1362 84.0096 66.0675 82.0782 66.0675 79.7041V66.4236C66.0675 64.0495 64.1362 62.1182 61.763 62.1182ZM52.2134 79.7041V66.4236C52.2134 65.6556 52.8383 65.0308 53.6062 65.0308H56.2278V81.0969H53.6062C52.8383 81.0969 52.2134 80.4721 52.2134 79.7041ZM63.1549 79.7041C63.1549 80.4721 62.5301 81.0969 61.763 81.0969H59.1405V65.0308H61.763C62.5301 65.0308 63.1549 65.6556 63.1549 66.4236V79.7041Z" fill="#EDEDED"/>
<path d="M74.8926 36.834H101.125V47.3707H74.8926V36.834Z" fill="#EDEDED"/>
<path d="M81.2763 40.0078C80.1193 40.0078 79.1816 40.9457 79.1816 42.1025C79.1816 43.2593 80.1193 44.1971 81.2763 44.1971C82.433 44.1971 83.3708 43.2593 83.3708 42.1025C83.3708 40.9457 82.433 40.0078 81.2763 40.0078Z" fill="#4ABBA4"/>
<path d="M88.0087 40.0078C86.8518 40.0078 85.9141 40.9457 85.9141 42.1025C85.9141 43.2593 86.8518 44.1971 88.0087 44.1971C89.1654 44.1971 90.1033 43.2593 90.1033 42.1025C90.1033 40.9457 89.1654 40.0078 88.0087 40.0078Z" fill="#4288B9"/>
<path d="M94.7431 40.0078C93.5861 40.0078 92.6484 40.9457 92.6484 42.1025C92.6484 43.2593 93.5861 44.1971 94.7431 44.1971C95.8998 44.1971 96.8376 43.2593 96.8376 42.1025C96.8376 40.9457 95.8998 40.0078 94.7431 40.0078Z" fill="#FEDA6F"/>
<path d="M19.0312 171H15.75V161.99H6.53516V171H3.26758V151.012H6.53516V159.188H15.75V151.012H19.0312V171ZM33.4141 171L32.7715 168.895H32.6621C31.9329 169.815 31.1992 170.444 30.4609 170.781C29.7227 171.109 28.7747 171.273 27.6172 171.273C26.1315 171.273 24.9694 170.872 24.1309 170.07C23.3014 169.268 22.8867 168.133 22.8867 166.666C22.8867 165.107 23.4655 163.932 24.623 163.139C25.7806 162.346 27.5443 161.913 29.9141 161.84L32.5254 161.758V160.951C32.5254 159.985 32.2975 159.265 31.8418 158.791C31.3952 158.308 30.6979 158.066 29.75 158.066C28.9753 158.066 28.2324 158.18 27.5215 158.408C26.8105 158.636 26.127 158.905 25.4707 159.215L24.4316 156.918C25.252 156.49 26.1497 156.166 27.125 155.947C28.1003 155.719 29.0208 155.605 29.8867 155.605C31.8099 155.605 33.2591 156.025 34.2344 156.863C35.2188 157.702 35.7109 159.019 35.7109 160.814V171H33.4141ZM28.6289 168.812C29.7956 168.812 30.7298 168.489 31.4316 167.842C32.1426 167.186 32.498 166.27 32.498 165.094V163.781L30.5566 163.863C29.0436 163.918 27.9408 164.173 27.248 164.629C26.5645 165.076 26.2227 165.764 26.2227 166.693C26.2227 167.368 26.4232 167.892 26.8242 168.266C27.2253 168.63 27.8268 168.812 28.6289 168.812ZM53.498 171H50.2715V161.703C50.2715 160.536 50.0345 159.666 49.5605 159.092C49.0957 158.518 48.3529 158.23 47.332 158.23C45.974 158.23 44.9805 158.632 44.3516 159.434C43.7227 160.236 43.4082 161.58 43.4082 163.467V171H40.1953V155.879H42.7109L43.1621 157.861H43.3262C43.7819 157.141 44.429 156.585 45.2676 156.193C46.1061 155.801 47.0358 155.605 48.0566 155.605C51.6842 155.605 53.498 157.451 53.498 161.143V171ZM63.0684 171.273C61.1816 171.273 59.7096 170.59 58.6523 169.223C57.5951 167.855 57.0664 165.937 57.0664 163.467C57.0664 160.988 57.5996 159.06 58.666 157.684C59.7415 156.298 61.2272 155.605 63.123 155.605C65.11 155.605 66.623 156.339 67.6621 157.807H67.8262C67.6712 156.722 67.5938 155.865 67.5938 155.236V149.727H70.8203V171H68.3047L67.7441 169.018H67.5938C66.5638 170.521 65.0553 171.273 63.0684 171.273ZM63.9297 168.676C65.2513 168.676 66.2129 168.307 66.8145 167.568C67.416 166.821 67.7259 165.613 67.7441 163.945V163.494C67.7441 161.589 67.4342 160.236 66.8145 159.434C66.1947 158.632 65.224 158.23 63.9023 158.23C62.7721 158.23 61.9017 158.691 61.291 159.611C60.6803 160.523 60.375 161.826 60.375 163.521C60.375 165.199 60.6712 166.479 61.2637 167.363C61.8561 168.238 62.7448 168.676 63.9297 168.676ZM95.4297 171H92.2031V161.676C92.2031 160.518 91.9844 159.657 91.5469 159.092C91.1094 158.518 90.4258 158.23 89.4961 158.23C88.2565 158.23 87.3451 158.636 86.7617 159.447C86.1875 160.249 85.9004 161.589 85.9004 163.467V171H82.6875V155.879H85.2031L85.6543 157.861H85.8184C86.2376 157.141 86.8438 156.585 87.6367 156.193C88.4388 155.801 89.3184 155.605 90.2754 155.605C92.5996 155.605 94.14 156.398 94.8965 157.984H95.1152C95.5618 157.237 96.1908 156.654 97.002 156.234C97.8132 155.815 98.7428 155.605 99.791 155.605C101.596 155.605 102.908 156.061 103.729 156.973C104.558 157.884 104.973 159.274 104.973 161.143V171H101.76V161.676C101.76 160.518 101.536 159.657 101.09 159.092C100.652 158.518 99.9688 158.23 99.0391 158.23C97.7904 158.23 96.8743 158.622 96.291 159.406C95.7168 160.181 95.4297 161.375 95.4297 162.988V171ZM112.67 171H109.457V155.879H112.67V171ZM109.266 151.873C109.266 151.299 109.421 150.857 109.73 150.547C110.049 150.237 110.501 150.082 111.084 150.082C111.649 150.082 112.087 150.237 112.396 150.547C112.715 150.857 112.875 151.299 112.875 151.873C112.875 152.42 112.715 152.853 112.396 153.172C112.087 153.482 111.649 153.637 111.084 153.637C110.501 153.637 110.049 153.482 109.73 153.172C109.421 152.853 109.266 152.42 109.266 151.873ZM120.641 163.275L115.568 155.879H119.232L122.678 161.17L126.15 155.879H129.787L124.701 163.275L130.047 171H126.41L122.678 165.34L118.959 171H115.322L120.641 163.275ZM139.303 171.273C136.951 171.273 135.11 170.59 133.779 169.223C132.458 167.846 131.797 165.955 131.797 163.549C131.797 161.079 132.412 159.137 133.643 157.725C134.873 156.312 136.564 155.605 138.715 155.605C140.711 155.605 142.288 156.212 143.445 157.424C144.603 158.636 145.182 160.304 145.182 162.428V164.164H135.105C135.151 165.632 135.548 166.762 136.295 167.555C137.042 168.339 138.095 168.73 139.453 168.73C140.346 168.73 141.176 168.648 141.941 168.484C142.716 168.311 143.546 168.029 144.43 167.637V170.248C143.646 170.622 142.853 170.886 142.051 171.041C141.249 171.196 140.333 171.273 139.303 171.273ZM138.715 158.039C137.694 158.039 136.874 158.363 136.254 159.01C135.643 159.657 135.279 160.6 135.16 161.84H142.023C142.005 160.591 141.704 159.648 141.121 159.01C140.538 158.363 139.736 158.039 138.715 158.039ZM156.502 155.605C157.149 155.605 157.682 155.651 158.102 155.742L157.787 158.736C157.331 158.627 156.857 158.572 156.365 158.572C155.08 158.572 154.036 158.992 153.234 159.83C152.441 160.669 152.045 161.758 152.045 163.098V171H148.832V155.879H151.348L151.771 158.545H151.936C152.437 157.643 153.089 156.927 153.891 156.398C154.702 155.87 155.572 155.605 156.502 155.605Z" fill="black"/>
</svg>
