<svg width="101" height="100" viewBox="0 0 101 100" fill="none" xmlns="http://www.w3.org/2000/svg">
<path d="M26.6562 48.7236H30.7129V63.2621H26.6562V48.7236Z" fill="#293B44"/>
<path d="M73.865 15.9902H38.9963C37.0195 15.9902 35.104 16.6759 33.5763 17.9303L21.9626 27.4668C19.9869 29.089 18.8418 31.511 18.8418 34.0674V52.7112C18.8418 54.6297 20.3971 56.185 22.3156 56.185H73.865C78.582 56.185 82.4057 52.3611 82.4057 47.6443V24.5309C82.4057 19.8139 78.582 15.9902 73.865 15.9902ZM74.2502 27.0778C73.6289 27.6991 72.7647 28.0876 71.8133 28.0876H46.2014C44.2984 28.0876 42.7547 26.5438 42.7547 24.6409C42.7547 23.6894 43.143 22.8253 43.7645 22.2039C44.3857 21.5825 45.25 21.1942 46.2014 21.1942H71.8133C73.7163 21.1942 75.26 22.738 75.26 24.6409C75.26 25.5923 74.8717 26.4564 74.2502 27.0778Z" fill="#DD584D"/>
<path d="M32.763 62.1182H24.6062C22.2321 62.1182 20.3008 64.0495 20.3008 66.4236V79.7041C20.3008 82.0782 22.2321 84.0096 24.6062 84.0096H32.763C35.1362 84.0096 37.0675 82.0782 37.0675 79.7041V66.4236C37.0675 64.0495 35.1362 62.1182 32.763 62.1182ZM23.2134 79.7041V66.4236C23.2134 65.6556 23.8383 65.0308 24.6062 65.0308H27.2278V81.0969H24.6062C23.8383 81.0969 23.2134 80.4721 23.2134 79.7041ZM34.1549 79.7041C34.1549 80.4721 33.5301 81.0969 32.763 81.0969H30.1405V65.0308H32.763C33.5301 65.0308 34.1549 65.6556 34.1549 66.4236V79.7041Z" fill="#EDEDED"/>
<path d="M45.8926 36.834H72.1247V47.3707H45.8926V36.834Z" fill="#EDEDED"/>
<path d="M52.2763 40.0078C51.1193 40.0078 50.1816 40.9457 50.1816 42.1025C50.1816 43.2593 51.1193 44.1971 52.2763 44.1971C53.433 44.1971 54.3708 43.2593 54.3708 42.1025C54.3708 40.9457 53.433 40.0078 52.2763 40.0078Z" fill="#4ABBA4"/>
<path d="M59.0087 40.0078C57.8518 40.0078 56.9141 40.9457 56.9141 42.1025C56.9141 43.2593 57.8518 44.1971 59.0087 44.1971C60.1654 44.1971 61.1033 43.2593 61.1033 42.1025C61.1033 40.9457 60.1654 40.0078 59.0087 40.0078Z" fill="#4288B9"/>
<path d="M65.7431 40.0078C64.5861 40.0078 63.6484 40.9457 63.6484 42.1025C63.6484 43.2593 64.5861 44.1971 65.7431 44.1971C66.8998 44.1971 67.8376 43.2593 67.8376 42.1025C67.8376 40.9457 66.8998 40.0078 65.7431 40.0078Z" fill="#FEDA6F"/>
</svg>
