<svg width="100" height="100" viewBox="0 0 100 100" fill="none" xmlns="http://www.w3.org/2000/svg">
<g clip-path="url(#clip0)">
<path d="M97.332 79.485H2.66667C1.1939 79.485 0 78.2911 0 76.8183V50.152C0 48.6792 1.1939 47.4854 2.66667 47.4854H97.332C98.8048 47.4854 99.9987 48.6792 99.9987 50.152V76.8183C99.9987 78.2911 98.8048 79.485 97.332 79.485Z" fill="#E0E5E8"/>
<path d="M100.001 54.1504H0.00195312V72.8169H100.001V54.1504Z" fill="#1A76A1"/>
<path d="M6.47656 79.4922H17.9336V81.1221C17.9336 81.8584 17.3367 82.4555 16.6002 82.4555H7.8099C7.07362 82.4555 6.47656 81.8586 6.47656 81.1221V79.4922Z" fill="#3B566A"/>
<path d="M82.0664 79.4922H93.5234V81.1221C93.5234 81.8584 92.9263 82.4555 92.1901 82.4555H83.3997C82.6635 82.4555 82.0664 81.8586 82.0664 81.1221V79.4922Z" fill="#3B566A"/>
<path d="M12.8926 67.4727C15.1017 67.4727 16.8926 65.6818 16.8926 63.4727C16.8926 61.2635 15.1017 59.4727 12.8926 59.4727C10.6834 59.4727 8.89258 61.2635 8.89258 63.4727C8.89258 65.6818 10.6834 67.4727 12.8926 67.4727Z" fill="#FAD362"/>
<path d="M24.8945 67.4727C27.1037 67.4727 28.8946 65.6818 28.8946 63.4727C28.8946 61.2635 27.1037 59.4727 24.8945 59.4727C22.6854 59.4727 20.8945 61.2635 20.8945 63.4727C20.8945 65.6818 22.6854 67.4727 24.8945 67.4727Z" fill="#EBEFF2"/>
<path d="M36.8945 67.4727C39.1037 67.4727 40.8946 65.6818 40.8946 63.4727C40.8946 61.2635 39.1037 59.4727 36.8945 59.4727C34.6854 59.4727 32.8945 61.2635 32.8945 63.4727C32.8945 65.6818 34.6854 67.4727 36.8945 67.4727Z" fill="#E56354"/>
<path d="M91.1064 59.4727H61.7734V67.4725H91.1064V59.4727Z" fill="#29A1DA"/>
<path d="M13.4855 47.5021H8.15234V20.2204C8.15234 18.7476 9.34624 17.5537 10.819 17.5537C12.2918 17.5537 13.4857 18.7476 13.4857 20.2204V47.5021H13.4855Z" fill="#3B566A"/>
<path d="M91.847 47.5019H86.5137V20.2204C86.5137 18.7476 87.7076 17.5537 89.1803 17.5537C90.6531 17.5537 91.847 18.7476 91.847 20.2204V47.5019Z" fill="#3B566A"/>
</g>
<defs>
<clipPath id="clip0">
<rect width="100" height="100" fill="white"/>
</clipPath>
</defs>
</svg>
