<svg width="100" height="100" viewBox="0 0 100 100" fill="none" xmlns="http://www.w3.org/2000/svg">
<path d="M50 14.0625L31.25 46.875V87.5H79.6875V46.875L95.3125 14.0625H50Z" fill="#E74444"/>
<path d="M4.6875 46.875H79.6875V87.5H4.6875V46.875Z" fill="#E74444"/>
<path d="M54.6875 46.875H79.6875V87.5H54.6875V46.875Z" fill="#CE3536"/>
<path d="M85.9375 76.5625H73.4375C73.0231 76.5625 72.6257 76.3979 72.3326 76.1049C72.0396 75.8118 71.875 75.4144 71.875 75V62.5H67.1875C66.7731 62.5 66.3757 62.3354 66.0826 62.0424C65.7896 61.7493 65.625 61.3519 65.625 60.9375C65.625 60.5231 65.7896 60.1257 66.0826 59.8326C66.3757 59.5396 66.7731 59.375 67.1875 59.375H73.4375C73.8519 59.375 74.2493 59.5396 74.5424 59.8326C74.8354 60.1257 75 60.5231 75 60.9375V73.4375H85.9375C86.3519 73.4375 86.7493 73.6021 87.0424 73.8951C87.3354 74.1882 87.5 74.5856 87.5 75C87.5 75.4144 87.3354 75.8118 87.0424 76.1049C86.7493 76.3979 86.3519 76.5625 85.9375 76.5625Z" fill="#D9DBDD"/>
<path d="M92.1875 71.875H89.0625C87.3366 71.875 85.9375 73.2741 85.9375 75C85.9375 76.7259 87.3366 78.125 89.0625 78.125H92.1875C93.9134 78.125 95.3125 76.7259 95.3125 75C95.3125 73.2741 93.9134 71.875 92.1875 71.875Z" fill="#E8EDF1"/>
<path d="M10.9375 53.125H48.4375V81.25H10.9375V53.125Z" fill="#CE3536"/>
<path d="M67.1875 21.875H54.6875C54.2731 21.875 53.8757 22.0396 53.5826 22.3326C53.2896 22.6257 53.125 23.0231 53.125 23.4375V31.5188C52.1868 31.1871 51.1675 31.1625 50.2144 31.4487C49.2614 31.7349 48.4242 32.3169 47.8239 33.1105C47.2236 33.9042 46.8915 34.8682 46.8756 35.8632C46.8597 36.8581 47.1608 37.8323 47.7354 38.6448C48.3099 39.4572 49.1281 40.0657 50.0715 40.3822C51.0149 40.6987 52.0346 40.7068 52.9829 40.4053C53.9311 40.1038 54.7589 39.5083 55.3463 38.7051C55.9336 37.9019 56.2501 36.9326 56.25 35.9375V25H65.625V28.3938C64.6868 28.0621 63.6675 28.0375 62.7144 28.3237C61.7614 28.6099 60.9242 29.1919 60.3239 29.9855C59.7236 30.7792 59.3915 31.7432 59.3756 32.7382C59.3597 33.7331 59.6608 34.7073 60.2354 35.5198C60.8099 36.3322 61.6281 36.9407 62.5715 37.2572C63.5149 37.5737 64.5346 37.5818 65.4829 37.2803C66.4311 36.9788 67.2589 36.3833 67.8463 35.5801C68.4336 34.7769 68.7502 33.8076 68.75 32.8125V23.4375C68.75 23.0231 68.5854 22.6257 68.2924 22.3326C67.9993 22.0396 67.6019 21.875 67.1875 21.875ZM51.5625 37.5C51.2535 37.5 50.9514 37.4084 50.6944 37.2367C50.4375 37.065 50.2372 36.821 50.1189 36.5354C50.0007 36.2499 49.9697 35.9358 50.03 35.6327C50.0903 35.3296 50.2391 35.0512 50.4576 34.8326C50.6762 34.6141 50.9546 34.4653 51.2577 34.405C51.5608 34.3447 51.8749 34.3757 52.1604 34.4939C52.446 34.6122 52.69 34.8125 52.8617 35.0694C53.0334 35.3264 53.125 35.6285 53.125 35.9375C53.1245 36.3518 52.9598 36.7489 52.6668 37.0418C52.3739 37.3348 51.9768 37.4995 51.5625 37.5ZM64.0625 34.375C63.7535 34.375 63.4514 34.2834 63.1944 34.1117C62.9375 33.94 62.7372 33.696 62.6189 33.4104C62.5007 33.1249 62.4697 32.8108 62.53 32.5077C62.5903 32.2046 62.7391 31.9262 62.9577 31.7076C63.1762 31.4891 63.4546 31.3403 63.7577 31.28C64.0608 31.2197 64.3749 31.2507 64.6604 31.3689C64.946 31.4872 65.19 31.6875 65.3617 31.9444C65.5334 32.2014 65.625 32.5035 65.625 32.8125C65.6245 33.2268 65.4598 33.6239 65.1668 33.9168C64.8739 34.2098 64.4768 34.3745 64.0625 34.375Z" fill="#F3DB70"/>
<path d="M35.0738 11.8838C33.8819 11.2977 32.5777 10.975 31.25 10.9375C30.8356 10.9375 30.4382 11.1021 30.1451 11.3951C29.8521 11.6882 29.6875 12.0856 29.6875 12.5V22.1438C28.7493 21.8121 27.73 21.7875 26.7769 22.0737C25.8239 22.3599 24.9866 22.9419 24.3864 23.7355C23.7861 24.5292 23.454 25.4932 23.4381 26.4882C23.4222 27.4831 23.7233 28.4573 24.2979 29.2698C24.8724 30.0822 25.6906 30.6907 26.634 31.0072C27.5774 31.3237 28.5971 31.3318 29.5453 31.0303C30.4936 30.7288 31.3214 30.1333 31.9088 29.3301C32.4961 28.5269 32.8126 27.5576 32.8125 26.5625V14.3371C33.1094 14.4267 33.3983 14.541 33.6762 14.6787C35.1979 15.4396 35.9375 16.7713 35.9375 18.75C35.9375 19.1644 36.1021 19.5618 36.3952 19.8549C36.6882 20.1479 37.0856 20.3125 37.5 20.3125C37.9144 20.3125 38.3118 20.1479 38.6049 19.8549C38.8979 19.5618 39.0625 19.1644 39.0625 18.75C39.0625 15.6082 37.6459 13.1699 35.0738 11.8838ZM28.125 28.125C27.816 28.125 27.5139 28.0334 27.2569 27.8617C27 27.69 26.7997 27.446 26.6814 27.1604C26.5632 26.8749 26.5322 26.5608 26.5925 26.2577C26.6528 25.9546 26.8016 25.6762 27.0201 25.4576C27.2387 25.2391 27.5171 25.0903 27.8202 25.03C28.1233 24.9697 28.4374 25.0007 28.7229 25.1189C29.0085 25.2372 29.2525 25.4375 29.4242 25.6944C29.5959 25.9514 29.6875 26.2535 29.6875 26.5625C29.687 26.9768 29.5223 27.3739 29.2293 27.6668C28.9364 27.9598 28.5393 28.1245 28.125 28.125Z" fill="#F3DB70"/>
<path d="M38.1516 68.6523L29.696 74.9941C29.6934 74.996 29.6904 74.997 29.6872 74.997C29.684 74.997 29.6809 74.996 29.6784 74.9941L21.2227 68.6523C20.7213 68.2762 20.3065 67.7968 20.0064 67.2465C19.7064 66.6961 19.5281 66.0877 19.4837 65.4625C19.4392 64.8373 19.5296 64.2098 19.7488 63.6225C19.968 63.0353 20.3108 62.502 20.754 62.0588C21.4986 61.3141 22.4869 60.863 23.5374 60.7884C24.5879 60.7137 25.63 61.0205 26.4725 61.6523L29.6782 64.0566C29.6807 64.0585 29.6838 64.0595 29.687 64.0595C29.6902 64.0595 29.6932 64.0585 29.6958 64.0566L32.9014 61.6523C33.7439 61.0205 34.7861 60.7137 35.8366 60.7884C36.887 60.863 37.8753 61.3141 38.62 62.0588C39.0632 62.502 39.406 63.0352 39.6252 63.6225C39.8444 64.2097 39.9349 64.8372 39.8905 65.4624C39.8461 66.0877 39.6678 66.696 39.3678 67.2464C39.0678 67.7967 38.6531 68.2762 38.1516 68.6523Z" fill="#F3DB70"/>
</svg>
