<svg width="100" height="100" viewBox="0 0 100 100" fill="none" xmlns="http://www.w3.org/2000/svg">
<g clip-path="url(#clip0)">
<path d="M97.7863 100H58.5844C57.3619 100 56.3711 99.009 56.3711 97.7867V2.21328C56.3711 0.991016 57.3621 0 58.5844 0H97.7863C99.0086 0 99.9996 0.991016 99.9996 2.21328V97.7867C99.9996 99.009 99.0086 100 97.7863 100Z" fill="#5A5A5A"/>
<path d="M97.7857 0H89.8008C91.0232 0 92.0141 0.99082 92.0141 2.21328V97.7867C92.0141 99.0092 91.0232 100 89.8008 100H97.7857C99.0082 100 99.999 99.0092 99.999 97.7867V2.21328C99.999 0.99082 99.0082 0 97.7857 0V0Z" fill="#444444"/>
<path d="M56.3711 9.42383H99.9996V27.6666H56.3711V9.42383Z" fill="#9C9C9C"/>
<path d="M56.3711 27.6611H99.9996V45.9039H56.3711V27.6611Z" fill="#ACACAC"/>
<path d="M92.0156 9.42383H100.001V27.6666H92.0156V9.42383Z" fill="#838383"/>
<path d="M92.0156 27.6611H100.001V45.9039H92.0156V27.6611Z" fill="#9C9C9C"/>
<path d="M62.4082 20.6185V16.4601C62.4082 15.9045 62.8586 15.4541 63.4143 15.4541H92.9582C93.5138 15.4541 93.9642 15.9045 93.9642 16.4601V20.6185C93.9642 21.1741 93.5138 21.6245 92.9582 21.6245H63.4143C62.8586 21.6243 62.4082 21.1739 62.4082 20.6185Z" fill="#444444"/>
<path d="M62.4082 38.856V34.6975C62.4082 34.1418 62.8586 33.6914 63.4143 33.6914H92.9582C93.5138 33.6914 93.9642 34.1418 93.9642 34.6975V38.856C93.9642 39.4117 93.5138 39.8621 92.9582 39.8621H63.4143C62.8586 39.8621 62.4082 39.4115 62.4082 38.856Z" fill="#444444"/>
<path d="M33.0586 62.207H45.1311V94.5844H33.0586V62.207Z" fill="#838383"/>
<path d="M57.3035 91.1133H20.885C20.107 91.1133 19.4766 91.7439 19.4766 92.5217V98.5914C19.4766 99.3693 20.1072 99.9998 20.885 99.9998H57.3035C58.0814 99.9998 58.7119 99.3691 58.7119 98.5914V92.5217C58.7119 91.7439 58.0814 91.1133 57.3035 91.1133Z" fill="#444444"/>
<path d="M75.3689 83.5312H2.81699C1.26113 83.5312 0 82.2699 0 80.7143V30.4781C0 28.9225 1.26113 27.6611 2.81699 27.6611H75.3689C76.9246 27.6611 78.1859 28.9223 78.1859 30.4781V80.7143C78.1858 82.2699 76.9246 83.5312 75.3689 83.5312Z" fill="#838383"/>
<path d="M5.63477 76.4943V34.7092C5.63477 33.9312 6.26543 33.3008 7.04316 33.3008H71.1443C71.9223 33.3008 72.5527 33.9314 72.5527 34.7092V76.4945C72.5527 77.2725 71.9221 77.9029 71.1443 77.9029H7.04316C6.26543 77.9027 5.63477 77.2723 5.63477 76.4943Z" fill="#B2CAEC"/>
<path d="M75.3689 83.5312H2.81699C1.26113 83.5312 0 82.2699 0 80.7143V30.4781C0 28.9225 1.26113 27.6611 2.81699 27.6611H75.3689C76.9246 27.6611 78.1859 28.9223 78.1859 30.4781V80.7143C78.1858 82.2699 76.9246 83.5312 75.3689 83.5312Z" fill="#444444"/>
<path d="M5.63477 76.4943V34.7092C5.63477 33.9312 6.26543 33.3008 7.04316 33.3008H71.1443C71.9223 33.3008 72.5527 33.9314 72.5527 34.7092V76.4945C72.5527 77.2725 71.9221 77.9029 71.1443 77.9029H7.04316C6.26543 77.9027 5.63477 77.2723 5.63477 76.4943Z" fill="#B2CAEC"/>
<path d="M71.1412 33.3008H63.1562C63.9342 33.3008 64.5647 33.9313 64.5647 34.7092V76.4949C64.5647 77.2728 63.9342 77.9033 63.1562 77.9033H71.1412C71.9192 77.9033 72.5496 77.2728 72.5496 76.4949V34.7094C72.5496 33.9315 71.919 33.3008 71.1412 33.3008Z" fill="#82AEE3"/>
<path d="M92.484 58.258H84.8381C84.2824 58.258 83.832 57.8076 83.832 57.252V53.2277C83.832 52.6721 84.2824 52.2217 84.8381 52.2217H92.484C93.0397 52.2217 93.49 52.6721 93.49 53.2277V57.252C93.49 57.8076 93.0397 58.258 92.484 58.258Z" fill="#ACACAC"/>
<path d="M92.4846 52.2217H92.0156V58.2582H92.4846C93.0402 58.2582 93.4906 57.8078 93.4906 57.2521V53.2276C93.4906 52.6721 93.0402 52.2217 92.4846 52.2217Z" fill="#9C9C9C"/>
</g>
<defs>
<clipPath id="clip0">
<rect width="100" height="100" fill="white"/>
</clipPath>
</defs>
</svg>
