<svg width="100" height="100" viewBox="0 0 100 100" fill="none" xmlns="http://www.w3.org/2000/svg">
<g clip-path="url(#clip0)">
<path d="M71.337 5.28354C71.0979 4.51049 70.2768 4.07748 69.5047 4.31694C41.8135 12.883 14.8327 18.2238 14.5633 18.2767C13.7696 18.4328 13.2526 19.2029 13.4086 19.9966C13.546 20.6951 14.1585 21.1792 14.8444 21.1792C14.9379 21.1792 15.0333 21.1703 15.1286 21.1515C15.3993 21.0982 42.5258 15.7292 70.3706 7.11577C71.1432 6.8767 71.576 6.05639 71.337 5.28354Z" fill="#D9E2F4"/>
<path d="M87.6191 50.0859C87.6191 51.4082 87.6094 52.7461 87.5879 54.0625C87.582 54.4961 87.3848 54.9043 87.0488 55.1777L82.2109 59.1113L53.1855 82.707C52.9336 82.9121 52.6211 83.0274 52.2949 83.0352C49.4863 83.1016 46.6309 83.1348 43.8086 83.1348C19.5469 83.1348 3.12695 80.6445 2.96484 80.6191C2.33008 80.5215 1.83398 80.0215 1.73828 79.3867C1.7207 79.2695 0 67.4844 0 50.0859C0 32.6875 1.7207 20.9023 1.73828 20.7871C1.83398 20.1504 2.33008 19.6523 2.96484 19.5547C3.12695 19.5293 19.5469 17.0371 43.8086 17.0371C61.0879 17.0371 74.3887 18.3008 80.6738 19.0391C83.2129 19.3359 84.6074 19.5488 84.6543 19.5547C85.2891 19.6523 85.7852 20.1504 85.8789 20.7871C85.8965 20.9023 87.6191 32.6875 87.6191 50.0859Z" fill="#FF3976"/>
<path d="M85.8789 20.7871C85.8965 20.9023 87.6191 32.6875 87.6191 50.0859C87.6191 51.4082 87.6094 52.7461 87.5879 54.0625C87.582 54.4961 87.3848 54.9043 87.0488 55.1777L82.2109 59.1113C82.2949 56.2871 82.3457 53.2676 82.3457 50.0859C82.3457 35.1387 81.2344 23.8125 80.6738 19.0391C83.2129 19.3359 84.6074 19.5488 84.6543 19.5547C85.2891 19.6523 85.7852 20.1504 85.8789 20.7871Z" fill="#B2024A"/>
<path d="M74.5643 32.4545C74.4395 31.8309 73.9266 31.359 73.2947 31.2867C73.1486 31.2699 69.6584 30.877 64.366 30.877C59.0736 30.877 55.5834 31.2699 55.4373 31.2867C54.8055 31.3592 54.2926 31.8309 54.1678 32.4545C54.1514 32.5361 53.7676 34.4873 53.7676 37.4008C53.7676 40.3143 54.1514 42.2654 54.1678 42.3471C54.2926 42.9707 54.8055 43.4424 55.4373 43.5148C55.5834 43.5316 59.0736 43.9246 64.366 43.9246C69.6584 43.9246 73.1486 43.5316 73.2947 43.5148C73.9266 43.4424 74.4395 42.9705 74.5643 42.3471C74.5807 42.2654 74.9645 40.3143 74.9645 37.4008C74.9645 34.4873 74.5807 32.5361 74.5643 32.4545Z" fill="white"/>
<path d="M49.2598 50.2578C49.2598 61.3594 40.2422 70.3945 29.1582 70.3945C28.332 70.3945 27.5176 70.3437 26.7168 70.2461C16.7793 69.0352 9.05664 60.5312 9.05664 50.2578C9.05664 39.9824 16.7793 31.4785 26.7168 30.2695C27.5176 30.1719 28.332 30.1211 29.1582 30.1211C40.2422 30.1211 49.2598 39.1543 49.2598 50.2578Z" fill="#4A4A5E"/>
<path d="M49.2598 50.2578C49.2598 61.3594 40.2422 70.3945 29.1582 70.3945C28.332 70.3945 27.5176 70.3437 26.7168 70.2461C36.6543 69.0352 44.377 60.5312 44.377 50.2578C44.377 39.9824 36.6543 31.4785 26.7168 30.2695C27.5176 30.1719 28.332 30.1211 29.1582 30.1211C40.2422 30.1211 49.2598 39.1543 49.2598 50.2578Z" fill="#262635"/>
<path d="M100 74.873C100 88.7285 88.7481 100 74.918 100C74.1621 100 73.4141 99.9668 72.6738 99.9004C72.6719 99.9004 72.6719 99.9004 72.6699 99.9004C59.8887 98.7578 49.8359 87.9687 49.8359 74.873C49.8359 61.7793 59.8887 50.9902 72.6699 49.8477H72.6738C73.4141 49.7812 74.1621 49.748 74.918 49.748C88.7481 49.748 100 61.0195 100 74.873Z" fill="#D9E2F4"/>
<path d="M100 74.873C100 88.7285 88.748 100 74.918 100C74.1621 100 73.4141 99.9668 72.6738 99.9004C85.4551 98.7578 95.5078 87.9687 95.5078 74.873C95.5078 61.7793 85.4551 50.9902 72.6738 49.8477C73.4141 49.7812 74.1621 49.748 74.918 49.748C88.748 49.748 100 61.0195 100 74.873Z" fill="#BAC7DB"/>
<path d="M72.5566 0C70.1334 0 68.1621 1.97383 68.1621 4.4002C68.1621 6.82656 70.1336 8.80039 72.5566 8.80039C74.9797 8.80039 76.9512 6.82656 76.9512 4.4002C76.9514 1.97383 74.9799 0 72.5566 0Z" fill="#97A3B7"/>
<path d="M29.1602 39.707C28.3512 39.707 27.6953 40.3629 27.6953 41.1719V59.343C27.6953 60.152 28.3512 60.8078 29.1602 60.8078C29.9691 60.8078 30.625 60.152 30.625 59.343V41.1719C30.625 40.3629 29.9691 39.707 29.1602 39.707Z" fill="#262635"/>
<path d="M21.6758 43.0479C20.8668 43.0479 20.2109 43.7037 20.2109 44.5127V56.0012C20.2109 56.8102 20.8668 57.466 21.6758 57.466C22.4848 57.466 23.1406 56.8102 23.1406 56.0012V44.5127C23.1406 43.7037 22.4848 43.0479 21.6758 43.0479Z" fill="#262635"/>
<path d="M36.6426 43.0479C35.8336 43.0479 35.1777 43.7037 35.1777 44.5127V56.0012C35.1777 56.8102 35.8336 57.466 36.6426 57.466C37.4516 57.466 38.1074 56.8102 38.1074 56.0012V44.5127C38.1074 43.7037 37.4516 43.0479 36.6426 43.0479Z" fill="#262635"/>
<path d="M9.40234 74.5C10.2114 74.5 10.8672 73.8442 10.8672 73.0352C10.8672 72.2261 10.2114 71.5703 9.40234 71.5703C8.59333 71.5703 7.9375 72.2261 7.9375 73.0352C7.9375 73.8442 8.59333 74.5 9.40234 74.5Z" fill="#B2024A"/>
<path d="M9.40234 28.6016C10.2114 28.6016 10.8672 27.9457 10.8672 27.1367C10.8672 26.3277 10.2114 25.6719 9.40234 25.6719C8.59333 25.6719 7.9375 26.3277 7.9375 27.1367C7.9375 27.9457 8.59333 28.6016 9.40234 28.6016Z" fill="#B2024A"/>
<path d="M78.2148 28.6016C79.0239 28.6016 79.6797 27.9457 79.6797 27.1367C79.6797 26.3277 79.0239 25.6719 78.2148 25.6719C77.4058 25.6719 76.75 26.3277 76.75 27.1367C76.75 27.9457 77.4058 28.6016 78.2148 28.6016Z" fill="#B2024A"/>
<path d="M87.555 73.1563C77.3886 68.7349 67.9075 61.5321 67.813 61.4599C67.3312 61.0921 66.6729 61.0587 66.1569 61.3763C65.6405 61.6936 65.3729 62.2962 65.4839 62.8921C65.4935 62.9433 66.4347 68.0804 66.4347 74.4997C66.4347 80.9186 65.4935 86.0559 65.4839 86.1067C65.3727 86.7026 65.6401 87.3056 66.1565 87.6231C66.3927 87.7683 66.6585 87.8401 66.9237 87.8401C67.2384 87.8401 67.552 87.7388 67.8134 87.5392C67.9079 87.4671 77.3772 80.2692 87.5552 75.8431C88.0899 75.6106 88.4358 75.0827 88.4358 74.4997C88.4358 73.9167 88.0897 73.3891 87.555 73.1563Z" fill="#97A3B7"/>
</g>
<defs>
<clipPath id="clip0">
<rect width="100" height="100" fill="white"/>
</clipPath>
</defs>
</svg>
