<svg width="100" height="100" viewBox="0 0 100 100" fill="none" xmlns="http://www.w3.org/2000/svg">
<path d="M65.625 75H90.625C94.0766 75 96.875 72.2016 96.875 68.75V9.375C96.875 5.92344 94.0766 3.125 90.625 3.125H65.625C62.1734 3.125 59.375 5.92344 59.375 9.375V68.75C59.375 72.2016 62.1734 75 65.625 75Z" fill="#88929F"/>
<path d="M92.1875 15.625C92.1875 11.2734 91.5516 7.075 90.3734 3.125H65.625C62.1734 3.125 59.375 5.92344 59.375 9.375V57.025C78.0719 53.2406 92.1875 36.1484 92.1875 15.625Z" fill="#A0A8B2"/>
<path d="M59.375 12.5H96.875V59.375H59.375V12.5Z" fill="#63ADF6"/>
<path d="M92.1875 15.625C92.1875 14.5734 92.1469 13.5328 92.0734 12.5H59.375V57.025C78.0719 53.2406 92.1875 36.1484 92.1875 15.625Z" fill="#82BDF8"/>
<path d="M78.125 48.4375C85.0286 48.4375 90.625 42.8411 90.625 35.9375C90.625 29.0339 85.0286 23.4375 78.125 23.4375C71.2214 23.4375 65.625 29.0339 65.625 35.9375C65.625 42.8411 71.2214 48.4375 78.125 48.4375Z" fill="#F5B95B"/>
<path d="M89.4813 30.7375C87.5063 26.4328 83.1703 23.4375 78.125 23.4375C71.2219 23.4375 65.625 29.0344 65.625 35.9375C65.625 42.4953 70.6781 47.8641 77.1016 48.3859C82.5938 43.7656 86.9031 37.7047 89.4813 30.7375Z" fill="#F7C77C"/>
<path d="M6.25 75H50C51.7266 75 53.125 73.6016 53.125 71.875V6.25C53.125 4.52344 51.7266 3.125 50 3.125H6.25C4.52344 3.125 3.125 4.52344 3.125 6.25V71.875C3.125 73.6016 4.52344 75 6.25 75Z" fill="#4D5D79"/>
<path d="M3.125 6.25V70.2703C27.425 69.3734 46.875 47.7078 46.875 21.0938C46.875 14.75 45.7578 8.69375 43.7453 3.125H6.25C4.52344 3.125 3.125 4.52344 3.125 6.25Z" fill="#717D94"/>
<path d="M78.125 70.3125C79.8509 70.3125 81.25 68.9134 81.25 67.1875C81.25 65.4616 79.8509 64.0625 78.125 64.0625C76.3991 64.0625 75 65.4616 75 67.1875C75 68.9134 76.3991 70.3125 78.125 70.3125Z" fill="white"/>
<path d="M72.1797 41.2363L81.5547 28.7363L84.0547 30.6113L74.6797 43.1113L72.1797 41.2363Z" fill="white"/>
<path d="M71.875 31.25H75V34.375H71.875V31.25Z" fill="white"/>
<path d="M81.25 37.5H84.375V40.625H81.25V37.5Z" fill="white"/>
<path d="M12.5 59.375H43.75V65.625H12.5V59.375Z" fill="#F5B95B"/>
<path d="M37.5 75H46.875V81.25H37.5V75Z" fill="#B8BEC5"/>
<path d="M70.3125 98.4375H50C44.8297 98.4375 40.625 94.2328 40.625 89.0625V81.25H43.75V89.0625C43.75 92.5094 46.5531 95.3125 50 95.3125H70.3125C73.7594 95.3125 76.5625 92.5094 76.5625 89.0625V81.25H79.6875V89.0625C79.6875 94.2328 75.4828 98.4375 70.3125 98.4375Z" fill="#88929F"/>
<path d="M75 75H81.25V81.25H75V75Z" fill="#B8BEC5"/>
<path d="M35.9375 15.625L29.6875 25H37.5L21.875 43.75L26.5625 31.25H18.75L28.125 15.625H35.9375Z" fill="#F5B95B"/>
<path d="M12.5 59.375V65.625H20.8344C24.1312 63.9391 27.2094 61.8359 30.0141 59.375H12.5Z" fill="#F9D18F"/>
</svg>
