<svg width="100" height="100" viewBox="0 0 100 100" fill="none" xmlns="http://www.w3.org/2000/svg">
<g clip-path="url(#clip0)">
<path d="M16.1028 18.6441C15.2148 18.6459 14.4759 17.9621 14.4092 17.0766C14.3424 16.1911 14.9704 15.4042 15.8486 15.2729L92.374 3.62881V1.69492C92.374 0.758839 93.1329 0 94.0689 0C95.005 0 95.7638 0.758839 95.7638 1.69492V8.47458C95.7638 9.41065 95.005 10.1695 94.0689 10.1695C93.1329 10.1695 92.374 9.41065 92.374 8.47458V7.05763L16.3571 18.6254C16.2729 18.6383 16.1879 18.6445 16.1028 18.6441Z" fill="#95A5A5"/>
<path d="M92.3731 22.0342H7.62732C3.88301 22.0342 0.847656 25.0695 0.847656 28.8138V86.441C0.847656 90.1853 3.88301 93.2206 7.62732 93.2206H92.3731C96.1174 93.2206 99.1527 90.1853 99.1527 86.441V28.8138C99.1527 25.0695 96.1174 22.0342 92.3731 22.0342Z" fill="#3F5C6C"/>
<path d="M9.32227 93.2207H22.8816V96.6105C22.8816 98.4827 21.3639 100 19.4918 100H12.7121C10.8399 100 9.32227 98.4827 9.32227 96.6105V93.2207Z" fill="#2C3E50"/>
<path d="M78.8125 93.2207H92.3718V96.6105C92.3718 98.4827 90.8541 100 88.982 100H82.2023C80.3302 100 78.8125 98.4827 78.8125 96.6105V93.2207Z" fill="#2C3E50"/>
<path d="M90.6796 69.4921C90.6796 70.0684 90.6457 70.6277 90.5948 71.187C90.414 73.0051 89.9329 74.7806 89.1711 76.4413C88.7201 77.4856 88.1514 78.475 87.4762 79.3904C86.4143 80.876 85.1143 82.176 83.6287 83.2379C82.7133 83.9131 81.7238 84.4818 80.6796 84.9328C79.0189 85.6946 77.2434 86.1757 75.4253 86.3565C74.866 86.4074 74.3067 86.4413 73.7304 86.4413C73.1541 86.4413 72.5948 86.4074 72.0355 86.3565C70.2174 86.1757 68.4419 85.6946 66.7813 84.9328C65.737 84.4818 64.7475 83.9131 63.8321 83.2379C62.3465 82.176 61.0465 80.876 59.9846 79.3904C59.3094 78.475 58.7408 77.4856 58.2897 76.4413C57.5279 74.7806 57.0468 73.0051 56.866 71.187C56.8151 70.6277 56.7812 70.0684 56.7812 69.4921C56.7812 68.9159 56.8151 68.3565 56.866 67.7972C57.0468 65.9791 57.5279 64.2036 58.2897 62.543C58.7408 61.4987 59.3094 60.5092 59.9846 59.5938C61.0465 58.1082 62.3465 56.8082 63.8321 55.7464C64.7475 55.0711 65.737 54.5025 66.7813 54.0514C68.4419 53.2896 70.2174 52.8085 72.0355 52.6277C72.5948 52.5769 73.1541 52.543 73.7304 52.543C74.3067 52.543 74.866 52.5769 75.4253 52.6277C77.2434 52.8085 79.0189 53.2896 80.6796 54.0514C81.7238 54.5025 82.7133 55.0711 83.6287 55.7464C85.1143 56.8082 86.4143 58.1082 87.4762 59.5938C88.1514 60.5092 88.7201 61.4987 89.1711 62.543C89.9329 64.2036 90.414 65.9791 90.5948 67.7972C90.6457 68.3565 90.6796 68.9159 90.6796 69.4921Z" fill="#95A5A5"/>
<path d="M21.1882 28.8135V45.7626H11.0187C9.1489 45.757 7.63449 44.2426 7.62891 42.3728V32.2033C7.63449 30.3335 9.1489 28.8191 11.0187 28.8135H21.1882Z" fill="#2FA8CC"/>
<path d="M92.3739 32.2033V42.3728C92.3684 44.2426 90.8539 45.757 88.9841 45.7626H21.1875V28.8135H88.9841C90.8539 28.8191 92.3684 30.3335 92.3739 32.2033Z" fill="#67B9CC"/>
<path d="M46.612 52.543H11.0187C9.14658 52.543 7.62891 54.0606 7.62891 55.9328V83.0514C7.62891 84.9236 9.14658 86.4413 11.0187 86.4413H46.612C48.4841 86.4413 50.0018 84.9236 50.0018 83.0514V55.9328C50.0018 54.0606 48.4841 52.543 46.612 52.543Z" fill="#67B9CC"/>
<path d="M73.7289 76.2712C77.4732 76.2712 80.5085 73.2359 80.5085 69.4916C80.5085 65.7473 77.4732 62.7119 73.7289 62.7119C69.9846 62.7119 66.9492 65.7473 66.9492 69.4916C66.9492 73.2359 69.9846 76.2712 73.7289 76.2712Z" fill="#7F8C8D"/>
<path d="M73.7301 71.1857C74.6662 71.1857 75.425 70.4269 75.425 69.4908C75.425 68.5547 74.6662 67.7959 73.7301 67.7959C72.794 67.7959 72.0352 68.5547 72.0352 69.4908C72.0352 70.4269 72.794 71.1857 73.7301 71.1857Z" fill="#95A5A5"/>
<path d="M75.425 52.6277V54.2379C75.425 55.174 74.6662 55.9328 73.7301 55.9328C72.794 55.9328 72.0352 55.174 72.0352 54.2379V52.6277C72.5945 52.5769 73.1538 52.543 73.7301 52.543C74.3063 52.543 74.8657 52.5769 75.425 52.6277Z" fill="#7F8C8D"/>
<path d="M75.425 84.7467V86.3568C74.8657 86.4077 74.3063 86.4416 73.7301 86.4416C73.1538 86.4416 72.5945 86.4077 72.0352 86.3568V84.7467C72.0352 83.8106 72.794 83.0518 73.7301 83.0518C74.6662 83.0518 75.425 83.8106 75.425 84.7467Z" fill="#7F8C8D"/>
<path d="M66.9507 57.7457C66.5628 57.9767 66.0984 58.0422 65.6617 57.9275C65.2251 57.8127 64.8529 57.5274 64.6286 57.1355L63.832 55.7457C64.7475 55.0705 65.7369 54.5018 66.7812 54.0508L67.5778 55.4406C68.0378 56.2507 67.7577 57.2803 66.9507 57.7457Z" fill="#7F8C8D"/>
<path d="M83.6285 83.2376C82.713 83.9128 81.7236 84.4814 80.6793 84.9325L79.8827 83.5426C79.4147 82.7283 79.6954 81.6886 80.5098 81.2206C81.3242 80.7526 82.3638 81.0333 82.8319 81.8477L83.6285 83.2376Z" fill="#7F8C8D"/>
<path d="M61.9859 62.7124C61.5205 63.5194 60.491 63.7995 59.6808 63.3395L58.291 62.5429C58.742 61.4986 59.3107 60.5092 59.9859 59.5938L61.3758 60.3904C62.1812 60.8663 62.4533 61.902 61.9859 62.7124Z" fill="#7F8C8D"/>
<path d="M89.1707 76.441C88.7197 77.4853 88.1511 78.4748 87.4758 79.3902L86.086 78.5936C85.2716 78.1255 84.9908 77.0859 85.4589 76.2716C85.9269 75.4572 86.9665 75.1764 87.7809 75.6444L89.1707 76.441Z" fill="#7F8C8D"/>
<path d="M60.1711 69.4918C60.1711 70.4279 59.4122 71.1867 58.4762 71.1867H56.866C56.8151 70.6274 56.7812 70.0681 56.7812 69.4918C56.7812 68.9155 56.8151 68.3562 56.866 67.7969H58.4762C59.4122 67.7969 60.1711 68.5557 60.1711 69.4918Z" fill="#7F8C8D"/>
<path d="M90.6789 69.4918C90.6789 70.0681 90.645 70.6274 90.5942 71.1867H88.984C88.0479 71.1867 87.2891 70.4279 87.2891 69.4918C87.2891 68.5557 88.0479 67.7969 88.984 67.7969H90.5942C90.645 68.3562 90.6789 68.9155 90.6789 69.4918Z" fill="#7F8C8D"/>
<path d="M61.3758 78.5936L59.9859 79.3902C59.3107 78.4748 58.742 77.4853 58.291 76.441L59.6808 75.6444C60.4952 75.1764 61.5348 75.4572 62.0029 76.2716C62.4709 77.0859 62.1901 78.1255 61.3758 78.5936Z" fill="#7F8C8D"/>
<path d="M89.1734 62.5429L87.7836 63.3395C86.9735 63.7995 85.944 63.5194 85.4785 62.7124C85.0111 61.902 85.2833 60.8663 86.0887 60.3904L87.4785 59.5938C88.1537 60.5092 88.7224 61.4986 89.1734 62.5429Z" fill="#7F8C8D"/>
<path d="M67.5778 83.5426L66.7812 84.9325C65.7369 84.4814 64.7475 83.9128 63.832 83.2376L64.6286 81.8477C65.0967 81.0333 66.1363 80.7526 66.9507 81.2206C67.7651 81.6886 68.0458 82.7283 67.5778 83.5426Z" fill="#7F8C8D"/>
<path d="M83.6272 55.7457L82.8306 57.1355C82.6064 57.5274 82.2342 57.8127 81.7975 57.9275C81.3609 58.0422 80.8964 57.9767 80.5086 57.7457C79.7016 57.2803 79.4215 56.2507 79.8814 55.4406L80.6781 54.0508C81.7223 54.5018 82.7118 55.0705 83.6272 55.7457Z" fill="#7F8C8D"/>
<path d="M92.3747 35.5934V38.9832H82.2052C82.2052 39.9193 81.4463 40.6781 80.5103 40.6781C79.5742 40.6781 78.8153 39.9193 78.8153 38.9832H70.3408C70.3408 39.9193 69.5819 40.6781 68.6459 40.6781C67.7098 40.6781 66.9509 39.9193 66.9509 38.9832H58.4764C58.4764 39.9193 57.7175 40.6781 56.7814 40.6781C55.8454 40.6781 55.0865 39.9193 55.0865 38.9832H46.612C46.612 39.9193 45.8531 40.6781 44.917 40.6781C43.981 40.6781 43.2221 39.9193 43.2221 38.9832H34.7476C34.7476 39.9193 33.9887 40.6781 33.0526 40.6781C32.1166 40.6781 31.3577 39.9193 31.3577 38.9832H7.62891V35.5934H31.3577C31.3577 34.6573 32.1166 33.8984 33.0526 33.8984C33.9887 33.8984 34.7476 34.6573 34.7476 35.5934H43.2221C43.2221 34.6573 43.981 33.8984 44.917 33.8984C45.8531 33.8984 46.612 34.6573 46.612 35.5934H55.0865C55.0865 34.6573 55.8454 33.8984 56.7814 33.8984C57.7175 33.8984 58.4764 34.6573 58.4764 35.5934H66.9509C66.9509 34.6573 67.7098 33.8984 68.6459 33.8984C69.5819 33.8984 70.3408 34.6573 70.3408 35.5934H78.8153C78.8153 34.6573 79.5742 33.8984 80.5103 33.8984C81.4463 33.8984 82.2052 34.6573 82.2052 35.5934H92.3747Z" fill="#2C3E50"/>
<path d="M12.7121 11.8643C14.5842 11.8643 16.1019 13.3819 16.1019 15.2541V22.0337H9.32227V15.2541C9.32227 13.3819 10.8399 11.8643 12.7121 11.8643Z" fill="#2C3E50"/>
<path d="M50.0018 65.4233V83.0504C49.9962 84.9202 48.4818 86.4346 46.612 86.4402H11.0187C9.1489 86.4346 7.63449 84.9202 7.62891 83.0504V77.4402C17.1543 69.6097 31.9001 61.6267 50.0018 65.4233Z" fill="#2FA8CC"/>
<path d="M43.8702 59.4513C43.2367 59.1889 42.5075 59.3341 42.0227 59.8191L36.4414 65.4005L30.86 59.8191C30.3753 59.3345 29.6464 59.1896 29.0131 59.4519C28.3799 59.7141 27.9669 60.332 27.9668 61.0174V77.9666C27.9668 78.9027 28.7256 79.6615 29.6617 79.6615C30.5978 79.6615 31.3566 78.9027 31.3566 77.9666V65.109L35.2431 68.9954C35.9049 69.6571 36.9778 69.6571 37.6397 68.9954L41.5261 65.109V77.9666C41.5261 78.9027 42.285 79.6615 43.221 79.6615C44.1571 79.6615 44.916 78.9027 44.916 77.9666V61.0174C44.9161 60.332 44.5034 59.7139 43.8702 59.4513Z" fill="#547580"/>
<path d="M22.8804 67.7968H16.1008V62.7121H22.8804C23.8165 62.7121 24.5753 61.9533 24.5753 61.0172C24.5753 60.0811 23.8165 59.3223 22.8804 59.3223H14.4059C13.4698 59.3223 12.7109 60.0811 12.7109 61.0172V77.9663C12.7109 78.9024 13.4698 79.6612 14.4059 79.6612C15.3419 79.6612 16.1008 78.9024 16.1008 77.9663V71.1867H22.8804C23.8165 71.1867 24.5753 70.4278 24.5753 69.4918C24.5753 68.5557 23.8165 67.7968 22.8804 67.7968Z" fill="#547580"/>
</g>
<defs>
<clipPath id="clip0">
<rect width="100" height="100" fill="white"/>
</clipPath>
</defs>
</svg>
