<svg width="100" height="100" viewBox="0 0 100 100" fill="none" xmlns="http://www.w3.org/2000/svg">
<path d="M4.82441 38.826L0.385937 46.5934C0.133008 47.0359 0 47.5371 0 48.0469V89.0625C0 90.6805 1.31172 91.9922 2.92969 91.9922H24.4141V34.375C24.4141 32.757 23.1023 31.4453 21.4844 31.4453H17.5428C12.2994 31.4453 7.42598 34.2734 4.82441 38.826Z" fill="#FFC89A"/>
<path d="M75.1953 100H30.2734C25.4193 100 21.4844 96.065 21.4844 91.2109V8.78906C21.4844 3.93496 25.4193 0 30.2734 0H75.1953C80.0494 0 83.9844 3.93496 83.9844 8.78906V91.2109C83.9844 96.065 80.0494 100 75.1953 100Z" fill="#0A617D"/>
<path d="M75.1953 0H52.7344V100H75.1953C80.0494 100 83.9844 96.065 83.9844 91.2109V8.78906C83.9844 3.93496 80.0494 0 75.1953 0Z" fill="#08475E"/>
<path d="M92.4316 46.582H79.834C75.6541 46.582 72.2656 43.1936 72.2656 39.0137C72.2656 34.8338 75.6541 31.4453 79.834 31.4453H92.4316C96.6115 31.4453 100 34.8338 100 39.0137C100 43.1936 96.6115 46.582 92.4316 46.582Z" fill="#FAB68C"/>
<path d="M92.4316 61.7188H79.834C75.6541 61.7188 72.2656 58.3303 72.2656 54.1504C72.2656 49.9705 75.6541 46.582 79.834 46.582H92.4316C96.6115 46.582 100 49.9705 100 54.1504C100 58.3303 96.6115 61.7188 92.4316 61.7188Z" fill="#FAB68C"/>
<path d="M92.4316 76.8555H79.834C75.6541 76.8555 72.2656 73.467 72.2656 69.2871C72.2656 65.1072 75.6541 61.7188 79.834 61.7188H92.4316C96.6115 61.7188 100 65.1072 100 69.2871C100 73.467 96.6115 76.8555 92.4316 76.8555Z" fill="#FAB68C"/>
<path d="M92.4316 91.9922H79.834C75.6541 91.9922 72.2656 88.6037 72.2656 84.4238C72.2656 80.2439 75.6541 76.8555 79.834 76.8555H92.4316C96.6115 76.8555 100 80.2439 100 84.4238C100 88.6037 96.6115 91.9922 92.4316 91.9922Z" fill="#FAB68C"/>
<path d="M52.7344 52.0508C45.7342 52.0508 40.0391 46.3557 40.0391 39.3555C40.0391 32.3553 45.7342 26.6602 52.7344 26.6602C59.7346 26.6602 65.4297 32.3553 65.4297 39.3555C65.4297 46.3557 59.7346 52.0508 52.7344 52.0508Z" fill="#FF6378"/>
<path d="M41.0156 18.6523C42.6336 18.6523 43.9453 17.3407 43.9453 15.7227C43.9453 14.1046 42.6336 12.793 41.0156 12.793C39.3976 12.793 38.0859 14.1046 38.0859 15.7227C38.0859 17.3407 39.3976 18.6523 41.0156 18.6523Z" fill="#FFE278"/>
<path d="M52.7344 18.6523C54.3524 18.6523 55.6641 17.3407 55.6641 15.7227C55.6641 14.1046 54.3524 12.793 52.7344 12.793C51.1164 12.793 49.8047 14.1046 49.8047 15.7227C49.8047 17.3407 51.1164 18.6523 52.7344 18.6523Z" fill="#FF6378"/>
<path d="M64.4531 18.6523C66.0711 18.6523 67.3828 17.3407 67.3828 15.7227C67.3828 14.1046 66.0711 12.793 64.4531 12.793C62.8351 12.793 61.5234 14.1046 61.5234 15.7227C61.5234 17.3407 62.8351 18.6523 64.4531 18.6523Z" fill="#00A763"/>
<path d="M52.7344 87.207C45.7342 87.207 40.0391 81.5119 40.0391 74.5117C40.0391 67.5115 45.7342 61.8164 52.7344 61.8164C59.7346 61.8164 65.4297 67.5115 65.4297 74.5117C65.4297 81.5119 59.7346 87.207 52.7344 87.207Z" fill="#85DC1E"/>
<path d="M52.7344 26.6602V52.0508C59.7346 52.0508 65.4297 46.3557 65.4297 39.3555C65.4297 32.3553 59.7346 26.6602 52.7344 26.6602Z" fill="#E20059"/>
<path d="M52.7344 61.8164V87.207C59.7346 87.207 65.4297 81.5119 65.4297 74.5117C65.4297 67.5115 59.7346 61.8164 52.7344 61.8164Z" fill="#00A763"/>
<path d="M52.7344 12.793V18.6523C54.3523 18.6523 55.6641 17.3406 55.6641 15.7227C55.6641 14.1047 54.3523 12.793 52.7344 12.793Z" fill="#E20059"/>
<path d="M21.4832 64.6484C27.2795 62.9096 31.2488 57.5746 31.2488 51.5232V46.582H45.1648C49.3447 46.582 52.7332 43.1936 52.7332 39.0137C52.7332 34.8338 49.3447 31.4453 45.1648 31.4453H17.5416C12.298 31.4453 7.4248 34.2734 4.82324 38.826L0.384766 46.5934" fill="#FFC89A"/>
</svg>
