<svg width="100" height="100" viewBox="0 0 100 100" fill="none" xmlns="http://www.w3.org/2000/svg">
<path fill-rule="evenodd" clip-rule="evenodd" d="M27.9746 14.2658L31.5549 16.5113L35.2354 14.2658V9.11914C35.2354 7.86523 36.2619 6.83926 37.5168 6.83926H62.4754C63.7301 6.83926 64.7568 7.86523 64.7568 9.11914V14.2658L68.1746 16.5113L72.0174 14.2658V7.13008C72.0174 3.20879 68.8062 0 64.8822 0H35.1154C31.1857 0 27.9746 3.20879 27.9746 7.13008V14.2658Z" fill="#A9AAC9"/>
<path fill-rule="evenodd" clip-rule="evenodd" d="M29.7912 82.4315L24.1676 77.3438L18.293 82.4315V85.9424C18.293 87.8744 19.8729 89.4533 21.8063 89.4533H26.523C28.4566 89.4533 30.0422 87.8746 30.0422 85.9424V82.4315H29.7912Z" fill="#8080A4"/>
<path fill-rule="evenodd" clip-rule="evenodd" d="M81.7082 82.4314L75.5203 80.4688L69.959 82.4314V85.9424C69.959 87.8744 71.5389 89.4533 73.4723 89.4533H78.1947C80.1225 89.4533 81.708 87.8746 81.708 85.9424V82.4314H81.7082Z" fill="#8080A4"/>
<path fill-rule="evenodd" clip-rule="evenodd" d="M17.0992 34.8842L9.98691 45.3369L1.20352 40.2645C0.0798829 39.609 0 38.9137 0 38.0074V30.8773C0 29.2814 0.764258 28.9736 1.59707 28.9736H8.28164L17.0992 34.8842Z" fill="#8080A4"/>
<path fill-rule="evenodd" clip-rule="evenodd" d="M82.8926 34.8842L90.0048 45.3369L98.7882 40.2645C99.9175 39.609 99.9974 38.9137 99.9974 38.0074V30.8773C99.9974 29.2814 99.2331 28.9736 98.4003 28.9736H91.7158L82.8926 34.8842Z" fill="#8080A4"/>
<path fill-rule="evenodd" clip-rule="evenodd" d="M9.98633 74.1318C9.98633 78.6971 13.7221 82.4303 18.2906 82.4303H29.7889H70.2098H81.708C86.2709 82.4303 90.0067 78.6971 90.0067 74.1318V45.3381V32.6397C89.9268 32.6453 89.8412 32.6682 89.7613 32.651L49.894 25.2988L10.2373 32.651C10.1518 32.6682 10.0662 32.6453 9.98633 32.6397V45.3381V74.1318Z" fill="#EFECFF"/>
<path fill-rule="evenodd" clip-rule="evenodd" d="M10.3145 25.3008L52.418 28.977L89.6906 25.3008C88.2361 17.5553 82.0422 14.2666 74.485 14.2666H72.0211H64.7604H49.9996H35.2389H27.9783H25.5201C17.9629 14.2666 11.7689 17.5551 10.3145 25.3008Z" fill="#C3DDFF"/>
<path fill-rule="evenodd" clip-rule="evenodd" d="M81.5768 25.3008H83.8068H89.6871C88.2326 17.5553 82.0387 14.2666 74.4814 14.2666H72.0176H66.3711C73.9283 14.2666 80.1225 17.5551 81.5768 25.3008Z" fill="#A4CCFE"/>
<path fill-rule="evenodd" clip-rule="evenodd" d="M68.3477 7.13008V14.2658H72.0207V7.13008C72.0209 3.20879 68.8098 0 64.8857 0H61.207C65.1367 0 68.3477 3.20879 68.3477 7.13008Z" fill="#8080A4"/>
<path fill-rule="evenodd" clip-rule="evenodd" d="M38.4688 55.6145V82.4305H61.5225V55.6145C61.5225 49.4533 56.4805 44.415 50.3207 44.415H49.6762C43.5108 44.415 38.4688 49.4533 38.4688 55.6145Z" fill="#FF9A9F"/>
<path fill-rule="evenodd" clip-rule="evenodd" d="M47.9365 44.5518C53.2352 45.4352 57.3075 50.0631 57.3075 55.5973V82.4133H38.4688V82.4305H61.5225V82.4133V55.6145C61.5225 49.4533 56.4805 44.415 50.3207 44.415H49.6762C49.083 44.415 48.5012 44.4605 47.9365 44.5518Z" fill="#FF8086"/>
<path fill-rule="evenodd" clip-rule="evenodd" d="M45.5486 75.3022H54.4461C54.8453 75.3022 55.1705 74.9715 55.1705 74.5727V70.1213C55.1705 69.7223 54.8453 69.3975 54.4461 69.3975H45.5486C45.1494 69.3975 44.8242 69.7223 44.8242 70.1213V74.5727C44.8242 74.9715 45.1494 75.3022 45.5486 75.3022Z" fill="#B3E59F"/>
<path fill-rule="evenodd" clip-rule="evenodd" d="M52.3297 70.1213V74.5727C52.3297 74.9717 51.9988 75.3022 51.5996 75.3022H54.4457C54.8449 75.3022 55.1701 74.9715 55.1701 74.5727V70.1213C55.1701 69.7223 54.8449 69.3975 54.4457 69.3975H51.5996C51.9988 69.3975 52.3297 69.7223 52.3297 70.1213Z" fill="#95D6A4"/>
<path fill-rule="evenodd" clip-rule="evenodd" d="M90.0047 45.34V32.6416C89.9248 32.6473 89.8449 32.6529 89.7594 32.6529H86.2232H82.2535V45.34V74.1338C82.2535 78.699 78.5178 82.4322 73.9492 82.4322H81.7061C86.2689 82.4322 90.0047 78.699 90.0047 74.1338V45.34Z" fill="#D5CEF7"/>
<path fill-rule="evenodd" clip-rule="evenodd" d="M10.2396 32.6512H89.7641C89.8496 32.6512 89.9295 32.6455 90.0094 32.6399C90.9732 32.5145 91.7205 31.6881 91.7205 30.6963V28.975V27.2537C91.7205 26.1766 90.8365 25.2988 89.7643 25.2988H89.69H10.3137H10.2395C9.16152 25.2988 8.2832 26.1766 8.2832 27.2537V28.975V30.6963C8.2832 31.6881 9.03027 32.5145 9.98848 32.6399C10.0686 32.6455 10.1541 32.6512 10.2396 32.6512Z" fill="#FF9A9F"/>
<path fill-rule="evenodd" clip-rule="evenodd" d="M81.6637 32.6512H89.7627C89.8482 32.6512 89.9281 32.6455 90.008 32.6399C90.9719 32.5145 91.7191 31.6881 91.7191 30.6963V28.975V27.2537C91.7191 26.1766 90.8352 25.2988 89.7629 25.2988H89.6887H81.6523C82.7303 25.2988 83.6086 26.1766 83.6086 27.2537V28.975V30.6963C83.6086 31.6881 82.8615 32.5145 81.9033 32.6399C81.8234 32.6455 81.7436 32.6512 81.6637 32.6512Z" fill="#FF8086"/>
<path d="M49.6472 56.0048C49.7644 56.0327 49.8814 56.046 49.9968 56.046C50.6802 56.046 51.2994 55.579 51.4638 54.8858L51.4869 54.789C51.6794 53.9786 51.1781 53.1659 50.3671 52.9737C49.5562 52.7814 48.7427 53.2823 48.5505 54.0927L48.5275 54.1896C48.3349 54.9999 48.8363 55.8126 49.6472 56.0048Z" fill="#FFC77D"/>
<path d="M50.4728 60.3738C49.6732 60.1396 48.8347 60.5969 48.5998 61.3961L48.5713 61.4931C48.3365 62.2923 48.7945 63.1302 49.5941 63.3646C49.7359 63.4062 49.8791 63.4261 50.0197 63.4261C50.6723 63.4261 51.274 63 51.467 62.3425L51.4955 62.2455C51.7305 61.4463 51.2725 60.6082 50.4728 60.3738Z" fill="#95D6A4"/>
</svg>
