<svg width="100" height="100" viewBox="0 0 100 100" fill="none" xmlns="http://www.w3.org/2000/svg">
<g clip-path="url(#clip0)">
<path d="M83.3346 95.8337C81.0305 95.8337 79.168 93.967 79.168 91.667V83.3337C79.168 81.0337 81.0305 79.167 83.3346 79.167C85.6388 79.167 87.5013 81.0337 87.5013 83.3337V91.667C87.5013 93.967 85.6388 95.8337 83.3346 95.8337Z" fill="#90A4AE"/>
<path d="M16.6667 95.8337C14.3625 95.8337 12.5 93.967 12.5 91.667V83.3337C12.5 81.0337 14.3625 79.167 16.6667 79.167C18.9708 79.167 20.8333 81.0337 20.8333 83.3337V91.667C20.8333 93.967 18.9708 95.8337 16.6667 95.8337Z" fill="#90A4AE"/>
<path d="M72.9167 56.2503C70.6125 56.2503 68.75 54.3836 68.75 52.0836V33.3337C68.75 31.0337 70.6125 29.167 72.9167 29.167C75.2208 29.167 77.0833 31.0337 77.0833 33.3337V52.0836C77.0833 54.3836 75.2208 56.2503 72.9167 56.2503Z" fill="#90A4AE"/>
<path d="M16.6667 68.75C14.3625 68.75 12.5 70.6167 12.5 72.9167V91.6667C12.5 93.9667 14.3625 95.8333 16.6667 95.8333V68.75Z" fill="#7D8F97"/>
<path d="M83.3346 68.75C81.0305 68.75 79.168 70.6167 79.168 72.9167V91.6667C79.168 93.9667 81.0305 95.8333 83.3346 95.8333V68.75Z" fill="#7D8F97"/>
<path d="M72.9167 29.167C70.6125 29.167 68.75 31.0337 68.75 33.3337V52.0836C68.75 54.3836 70.6125 56.2503 72.9167 56.2503V29.167Z" fill="#7D8F97"/>
<path d="M88.5417 87.5H11.4583C5.1375 87.5 0 82.3625 0 76.0417V61.4583C0 55.1375 5.1375 50 11.4583 50H88.5417C94.8625 50 100 55.1375 100 61.4583V76.0417C100 82.3625 94.8625 87.5 88.5417 87.5Z" fill="#607D8B"/>
<path d="M100 68.75H0V76.0417C0 82.3625 5.1375 87.5 11.4583 87.5H88.5417C94.8625 87.5 100 82.3625 100 76.0417V68.75Z" fill="#546D79"/>
<path d="M81.25 75C84.7018 75 87.5 72.2018 87.5 68.75C87.5 65.2982 84.7018 62.5 81.25 62.5C77.7982 62.5 75 65.2982 75 68.75C75 72.2018 77.7982 75 81.25 75Z" fill="white"/>
<path d="M18.75 75C22.2018 75 25 72.2018 25 68.75C25 65.2982 22.2018 62.5 18.75 62.5C15.2982 62.5 12.5 65.2982 12.5 68.75C12.5 72.2018 15.2982 75 18.75 75Z" fill="white"/>
<path d="M39.584 75C43.0358 75 45.834 72.2018 45.834 68.75C45.834 65.2982 43.0358 62.5 39.584 62.5C36.1322 62.5 33.334 65.2982 33.334 68.75C33.334 72.2018 36.1322 75 39.584 75Z" fill="white"/>
<path d="M80.8996 27.392C79.2246 24.592 76.2413 22.917 72.9163 22.917C69.5913 22.917 66.6079 24.592 64.9329 27.392C64.0538 28.8712 62.1413 29.3587 60.6496 28.4753C59.1704 27.592 58.6829 25.6712 59.5704 24.192C62.3829 19.4795 67.3704 16.667 72.9163 16.667C78.4621 16.667 83.4496 19.4795 86.2621 24.192C87.1496 25.6712 86.6663 27.592 85.1829 28.4753C83.6829 29.367 81.7704 28.8628 80.8996 27.392Z" fill="#2196F3"/>
<path d="M90.2577 18.7712C86.0535 13.4628 79.7368 10.417 72.916 10.417C66.0951 10.417 59.7785 13.4628 55.5743 18.7712C54.5118 20.1212 52.5493 20.3587 51.1868 19.2837C49.8326 18.2128 49.6035 16.2462 50.6743 14.892C56.066 8.07532 64.1701 4.16699 72.916 4.16699C81.6618 4.16699 89.766 8.07949 95.1576 14.8962C96.2285 16.2503 95.9993 18.2128 94.6451 19.2878C93.2868 20.3628 91.3202 20.117 90.2577 18.7712Z" fill="#2196F3"/>
<path d="M72.9172 16.667C67.3714 16.667 62.3839 19.4795 59.5714 24.192C58.6839 25.6712 59.1672 27.592 60.6505 28.4753C61.1547 28.7753 61.7089 28.917 62.2547 28.917C63.3214 28.917 64.3547 28.3712 64.9339 27.392C66.6089 24.592 69.5922 22.917 72.9172 22.917V16.667Z" fill="#1D83D4"/>
<path d="M72.916 4.16699C64.1701 4.16699 56.066 8.07949 50.6743 14.8962C49.6035 16.2503 49.8326 18.2128 51.1868 19.2878C51.7618 19.742 52.4451 19.9628 53.1243 19.9628C54.0493 19.9628 54.9618 19.5545 55.5743 18.7753C59.7785 13.4628 66.0951 10.417 72.916 10.417V4.16699Z" fill="#1D83D4"/>
</g>
<defs>
<clipPath id="clip0">
<rect width="100" height="100" fill="white"/>
</clipPath>
</defs>
</svg>
