<svg width="100" height="100" viewBox="0 0 100 100" fill="none" xmlns="http://www.w3.org/2000/svg">
<g clip-path="url(#clip0)">
<path d="M85.3446 0H7.75835C4.90171 0 2.58594 2.31577 2.58594 5.17241V13.7931L46.4084 17.2414L90.517 13.7931V5.17241C90.517 2.31577 88.2012 0 85.3446 0Z" fill="#90BAE1"/>
<path d="M73.2756 49.9999L47.2704 55.1723L19.8273 49.9999L2.58594 13.793H90.517L73.2756 49.9999Z" fill="#4482C3"/>
<path d="M77.4428 66.2366L48.2756 60.4883L2.58594 74.1383V94.828C2.58594 97.6846 4.90171 100 7.75835 100H85.3446C88.2012 100 90.517 97.6846 90.517 94.828V86.2073L77.4428 66.2366Z" fill="#2C3E50"/>
<path d="M69.8257 93.1031C68.8735 93.1031 68.1016 92.3312 68.1016 91.379C68.1016 90.4268 68.8735 89.6548 69.8257 89.6548C70.0654 89.6548 74.9981 89.5738 74.9981 86.2066C74.9981 85.2543 75.77 84.4824 76.7223 84.4824C77.6745 84.4824 78.4464 85.2543 78.4464 86.2066C78.4464 91.6617 72.8067 93.1031 69.8257 93.1031Z" fill="#285680"/>
<path d="M80.1714 93.1031C79.2192 93.1031 78.4473 92.3312 78.4473 91.379C78.4473 90.4268 79.2192 89.6548 80.1714 89.6548C80.4111 89.6548 85.3438 89.5738 85.3438 86.2066C85.3438 85.2543 86.1157 84.4824 87.068 84.4824C88.0202 84.4824 88.7921 85.2543 88.7921 86.2066C88.7921 91.6617 83.1524 93.1031 80.1714 93.1031Z" fill="#285680"/>
<path d="M69.7066 74.1379H2.58594L19.8273 50H73.2756L83.1204 63.7931L69.7066 74.1379Z" fill="#285680"/>
<path d="M74.6542 63.793L70.2387 57.6172C69.9151 57.1649 69.3931 56.8966 68.837 56.8965H24.2646C23.7085 56.8966 23.1865 57.1649 22.8629 57.6172L16.956 65.8775C16.7679 66.1403 16.7426 66.4863 16.8904 66.7737C17.0383 67.061 17.3345 67.2416 17.6577 67.2413H68.637" fill="#90BAE1"/>
<path d="M23.7142 42.1215L14.6832 23.1559C14.4291 22.6225 14.4659 21.9962 14.7806 21.4962C15.0953 20.9962 15.6441 20.6921 16.2349 20.6904H76.8642C77.455 20.6921 78.0038 20.9962 78.3185 21.4962C78.6332 21.9962 78.67 22.6225 78.4159 23.1559L69.3849 42.1215C69.0997 42.7202 68.4964 43.1023 67.8332 43.1042H25.2711C24.606 43.1043 24.0002 42.7219 23.7142 42.1215Z" fill="#90BAE1"/>
<path d="M95.2467 86.2068H73.0311C72.1804 86.2064 71.457 85.5856 71.3277 84.7447L68.4087 65.7792C68.3322 65.2818 68.4769 64.7758 68.8046 64.394C69.1324 64.0122 69.6107 63.7927 70.1139 63.793H90.8622C91.6654 63.7925 92.3625 64.3466 92.5432 65.1292L96.9191 84.0947C97.037 84.6054 96.9162 85.142 96.5908 85.553C96.2655 85.9639 95.7708 86.2045 95.2467 86.2068Z" fill="#B0D3F0"/>
<path d="M81.8965 72.4141H76.7241C75.7719 72.4141 75 71.6422 75 70.69C75 69.7377 75.7719 68.9658 76.7241 68.9658H81.8965C82.8488 68.9658 83.6207 69.7377 83.6207 70.69C83.6207 71.6422 82.8488 72.4141 81.8965 72.4141Z" fill="#3F5C6C"/>
<path d="M88.7936 79.3106H78.4487C77.4965 79.3106 76.7246 78.5387 76.7246 77.5864C76.7246 76.6342 77.4965 75.8623 78.4487 75.8623H88.7936C89.7458 75.8623 90.5177 76.6342 90.5177 77.5864C90.5177 78.5387 89.7458 79.3106 88.7936 79.3106Z" fill="#3F5C6C"/>
<path d="M14.6534 89.6553C16.5578 89.6553 18.1016 88.1115 18.1016 86.2071C18.1016 84.3026 16.5578 82.7588 14.6534 82.7588C12.7489 82.7588 11.2051 84.3026 11.2051 86.2071C11.2051 88.1115 12.7489 89.6553 14.6534 89.6553Z" fill="#3F5C6C"/>
<path d="M30.1729 89.6553C32.0773 89.6553 33.6212 88.1115 33.6212 86.2071C33.6212 84.3026 32.0773 82.7588 30.1729 82.7588C28.2685 82.7588 26.7246 84.3026 26.7246 86.2071C26.7246 88.1115 28.2685 89.6553 30.1729 89.6553Z" fill="#3F5C6C"/>
<path d="M12.9302 8.62113H9.48195C8.52973 8.62113 7.75781 7.84921 7.75781 6.89699C7.75781 5.94477 8.52973 5.17285 9.48195 5.17285H12.9302C13.8824 5.17285 14.6544 5.94477 14.6544 6.89699C14.6544 7.84921 13.8824 8.62113 12.9302 8.62113Z" fill="#E6E7E8"/>
<path d="M35.3429 8.62113H19.8257C18.8735 8.62113 18.1016 7.84921 18.1016 6.89699C18.1016 5.94477 18.8735 5.17285 19.8257 5.17285H35.3429C36.2952 5.17285 37.0671 5.94477 37.0671 6.89699C37.0671 7.84921 36.2952 8.62113 35.3429 8.62113Z" fill="#E6E7E8"/>
<path d="M42.2417 91.3789C43.1939 91.3789 43.9659 90.607 43.9659 89.6548C43.9659 88.7026 43.1939 87.9307 42.2417 87.9307C41.2895 87.9307 40.5176 88.7026 40.5176 89.6548C40.5176 90.607 41.2895 91.3789 42.2417 91.3789Z" fill="#CC4B4C"/>
<path d="M47.4136 91.3789C48.3658 91.3789 49.1377 90.607 49.1377 89.6548C49.1377 88.7026 48.3658 87.9307 47.4136 87.9307C46.4614 87.9307 45.6895 88.7026 45.6895 89.6548C45.6895 90.607 46.4614 91.3789 47.4136 91.3789Z" fill="#4FBA6F"/>
<path d="M52.5855 91.3789C53.5377 91.3789 54.3096 90.607 54.3096 89.6548C54.3096 88.7026 53.5377 87.9307 52.5855 87.9307C51.6333 87.9307 50.8613 88.7026 50.8613 89.6548C50.8613 90.607 51.6333 91.3789 52.5855 91.3789Z" fill="#4FBA6F"/>
</g>
<defs>
<clipPath id="clip0">
<rect width="100" height="100" fill="white"/>
</clipPath>
</defs>
</svg>
