<svg width="100" height="100" viewBox="0 0 100 100" fill="none" xmlns="http://www.w3.org/2000/svg">
<path d="M70.6904 0H29.3111C26.4545 0 24.1387 2.31582 24.1387 5.17246V94.8275C24.1387 97.6842 26.4545 100 29.3111 100H70.6904C73.5471 100 75.8629 97.6842 75.8629 94.8275V5.17246C75.8629 2.31582 73.5471 0 70.6904 0ZM43.1043 6.89648C43.1043 5.94434 43.8764 5.17227 44.8285 5.17227H55.1734C56.1256 5.17227 56.8977 5.94434 56.8977 6.89648C56.8977 7.84863 56.1256 8.6207 55.1734 8.6207H44.8285C43.8762 8.6207 43.1043 7.84863 43.1043 6.89648ZM37.9318 5.17246C38.884 5.17246 39.6561 5.94453 39.6561 6.89668C39.6561 7.84883 38.884 8.6209 37.9318 8.6209C36.9797 8.6209 36.2076 7.84883 36.2076 6.89668C36.2076 5.94453 36.9797 5.17246 37.9318 5.17246ZM50.0008 96.5518C48.0963 96.5518 46.5525 95.0078 46.5525 93.1035C46.5525 91.199 48.0963 89.6553 50.0008 89.6553C51.9053 89.6553 53.449 91.199 53.449 93.1035C53.449 95.0078 51.9053 96.5518 50.0008 96.5518ZM72.4146 65.5172V86.2068H27.5869V65.5172V13.7932H72.4145V65.5172H72.4146Z" fill="#707384"/>
<path d="M27.5859 65.517H41.3791C41.3791 64.5648 42.1512 63.7928 43.1033 63.7928C44.0555 63.7928 44.8275 64.5648 44.8275 65.517H48.2758C48.2758 64.5648 49.0479 63.7928 50 63.7928C50.9522 63.7928 51.7242 64.5648 51.7242 65.517H55.1725C55.1725 64.5648 55.9445 63.7928 56.8967 63.7928C57.8488 63.7928 58.6209 64.5648 58.6209 65.517H72.4141V13.793H27.5859V65.517ZM58.6205 22.4137C58.6205 21.4615 59.3926 20.6895 60.3447 20.6895H67.2412C68.1934 20.6895 68.9654 21.4615 68.9654 22.4137V29.3102C68.9654 30.2623 68.1934 31.0344 67.2412 31.0344H60.3447C59.3926 31.0344 58.6205 30.2623 58.6205 29.3102V22.4137ZM58.6205 36.2066C58.6205 35.2545 59.3926 34.4824 60.3447 34.4824H67.2412C68.1934 34.4824 68.9654 35.2545 68.9654 36.2066V43.1031C68.9654 44.0553 68.1934 44.8273 67.2412 44.8273H60.3447C59.3926 44.8273 58.6205 44.0553 58.6205 43.1031V36.2066ZM58.6205 49.9998C58.6205 49.0477 59.3926 48.2756 60.3447 48.2756H67.2412C68.1934 48.2756 68.9654 49.0477 68.9654 49.9998V56.8963C68.9654 57.8484 68.1934 58.6205 67.2412 58.6205H60.3447C59.3926 58.6205 58.6205 57.8484 58.6205 56.8963V49.9998ZM44.8273 22.4137C44.8273 21.4615 45.5994 20.6895 46.5516 20.6895H53.448C54.4002 20.6895 55.1723 21.4615 55.1723 22.4137V29.3102C55.1723 30.2623 54.4002 31.0344 53.448 31.0344H46.5516C45.5994 31.0344 44.8273 30.2623 44.8273 29.3102V22.4137ZM44.8273 36.2066C44.8273 35.2545 45.5994 34.4824 46.5516 34.4824H53.448C54.4002 34.4824 55.1723 35.2545 55.1723 36.2066V43.1031C55.1723 44.0553 54.4002 44.8273 53.448 44.8273H46.5516C45.5994 44.8273 44.8273 44.0553 44.8273 43.1031V36.2066ZM44.8273 49.9998C44.8273 49.0477 45.5994 48.2756 46.5516 48.2756H53.448C54.4002 48.2756 55.1723 49.0477 55.1723 49.9998V56.8963C55.1723 57.8484 54.4002 58.6205 53.448 58.6205H46.5516C45.5994 58.6205 44.8273 57.8484 44.8273 56.8963V49.9998ZM31.0344 22.4137C31.0344 21.4615 31.8064 20.6895 32.7586 20.6895H39.6551C40.6072 20.6895 41.3793 21.4615 41.3793 22.4137V29.3102C41.3793 30.2623 40.6072 31.0344 39.6551 31.0344H32.7586C31.8064 31.0344 31.0344 30.2623 31.0344 29.3102V22.4137ZM31.0344 36.2066C31.0344 35.2545 31.8064 34.4824 32.7586 34.4824H39.6551C40.6072 34.4824 41.3793 35.2545 41.3793 36.2066V43.1031C41.3793 44.0553 40.6072 44.8273 39.6551 44.8273H32.7586C31.8064 44.8273 31.0344 44.0553 31.0344 43.1031V36.2066ZM31.0344 49.9998C31.0344 49.0477 31.8064 48.2756 32.7586 48.2756H39.6551C40.6072 48.2756 41.3793 49.0477 41.3793 49.9998V56.8963C41.3793 57.8484 40.6072 58.6205 39.6551 58.6205H32.7586C31.8064 58.6205 31.0344 57.8484 31.0344 56.8963V49.9998Z" fill="#63AFDB"/>
<path d="M56.8967 67.2408C55.9445 67.2408 55.1725 66.4688 55.1725 65.5166H51.7242C51.7242 66.4688 50.9521 67.2408 50 67.2408C49.0478 67.2408 48.2758 66.4688 48.2758 65.5166H44.8275C44.8275 66.4688 44.0555 67.2408 43.1033 67.2408C42.1512 67.2408 41.3791 66.4688 41.3791 65.5166H27.5859V86.2063H72.4135V65.5166H58.6203C58.6209 66.4688 57.8488 67.2408 56.8967 67.2408ZM41.3795 79.3098C41.3795 80.2619 40.6074 81.034 39.6553 81.034H32.7588C31.8066 81.034 31.0346 80.2619 31.0346 79.3098V72.4133C31.0346 71.4611 31.8066 70.6891 32.7588 70.6891H39.6553C40.6074 70.6891 41.3795 71.4611 41.3795 72.4133V79.3098ZM55.1727 79.3098C55.1727 80.2619 54.4006 81.034 53.4484 81.034H46.5519C45.5998 81.034 44.8277 80.2619 44.8277 79.3098V72.4133C44.8277 71.4611 45.5998 70.6891 46.5519 70.6891H53.4484C54.4006 70.6891 55.1727 71.4611 55.1727 72.4133V79.3098ZM60.3451 70.6891H67.2416C68.1937 70.6891 68.9658 71.4611 68.9658 72.4133V79.3098C68.9658 80.2619 68.1937 81.034 67.2416 81.034H60.3451C59.393 81.034 58.6209 80.2619 58.6209 79.3098V72.4133C58.6209 71.4611 59.3928 70.6891 60.3451 70.6891Z" fill="#468CBE"/>
<path d="M44.8277 8.62031H55.1727C56.1248 8.62031 56.8969 7.84824 56.8969 6.89609C56.8969 5.94395 56.1248 5.17188 55.1727 5.17188H44.8277C43.8756 5.17188 43.1035 5.94395 43.1035 6.89609C43.1037 7.84824 43.8756 8.62031 44.8277 8.62031Z" fill="#464655"/>
<path d="M37.9313 8.62031C38.8835 8.62031 39.6555 7.84835 39.6555 6.89609C39.6555 5.94383 38.8835 5.17188 37.9313 5.17188C36.979 5.17188 36.207 5.94383 36.207 6.89609C36.207 7.84835 36.979 8.62031 37.9313 8.62031Z" fill="#464655"/>
<path d="M49.999 96.5518C51.9034 96.5518 53.4473 95.0079 53.4473 93.1035C53.4473 91.1991 51.9034 89.6553 49.999 89.6553C48.0946 89.6553 46.5508 91.1991 46.5508 93.1035C46.5508 95.0079 48.0946 96.5518 49.999 96.5518Z" fill="#464655"/>
<path d="M53.4469 70.6895H46.5504C45.5982 70.6895 44.8262 71.4615 44.8262 72.4137V79.3102C44.8262 80.2623 45.5982 81.0344 46.5504 81.0344H53.4469C54.399 81.0344 55.1711 80.2623 55.1711 79.3102V72.4137C55.1711 71.4615 54.399 70.6895 53.4469 70.6895ZM49.9986 79.3102C48.0941 79.3102 46.5504 77.7662 46.5504 75.8619C46.5504 73.9574 48.0941 72.4137 49.9986 72.4137C51.9031 72.4137 53.4469 73.9574 53.4469 75.8619C53.4469 77.7662 51.9031 79.3102 49.9986 79.3102Z" fill="#63AFDB"/>
<path d="M58.6211 79.3102C58.6211 80.2623 59.3932 81.0344 60.3453 81.0344H67.2418C68.1939 81.0344 68.966 80.2623 68.966 79.3102V72.4137C68.966 71.4615 68.1939 70.6895 67.2418 70.6895H60.3453C59.3932 70.6895 58.6211 71.4615 58.6211 72.4137V79.3102Z" fill="#FF6469"/>
<path d="M39.6539 70.6895H32.7574C31.8053 70.6895 31.0332 71.4615 31.0332 72.4137V79.3102C31.0332 80.2623 31.8053 81.0344 32.7574 81.0344H39.6539C40.6061 81.0344 41.3781 80.2623 41.3781 79.3102V72.4137C41.3781 71.4615 40.6062 70.6895 39.6539 70.6895Z" fill="#00DCCD"/>
<path d="M46.5504 58.6203H53.4469C54.399 58.6203 55.1711 57.8482 55.1711 56.8961V49.9996C55.1711 49.0475 54.399 48.2754 53.4469 48.2754H46.5504C45.5982 48.2754 44.8262 49.0475 44.8262 49.9996V56.8961C44.8262 57.8482 45.5982 58.6203 46.5504 58.6203Z" fill="#FFDC69"/>
<path d="M60.3453 58.6203H67.2418C68.1939 58.6203 68.966 57.8482 68.966 56.8961V49.9996C68.966 49.0475 68.1939 48.2754 67.2418 48.2754H60.3453C59.3932 48.2754 58.6211 49.0475 58.6211 49.9996V56.8961C58.6211 57.8482 59.393 58.6203 60.3453 58.6203ZM60.3453 53.4479C60.3453 52.4957 61.1174 51.7236 62.0695 51.7236H65.5178C66.4699 51.7236 67.242 52.4957 67.242 53.4479C67.242 54.4 66.4699 55.1721 65.5178 55.1721H62.0695C61.1172 55.1721 60.3453 54.4 60.3453 53.4479Z" fill="white"/>
<path d="M32.7574 58.6203H39.6539C40.6061 58.6203 41.3781 57.8482 41.3781 56.8961V49.9996C41.3781 49.0475 40.6061 48.2754 39.6539 48.2754H32.7574C31.8053 48.2754 31.0332 49.0475 31.0332 49.9996V56.8961C31.0334 57.8482 31.8053 58.6203 32.7574 58.6203ZM32.7574 53.4479C32.7574 52.4957 33.5295 51.7236 34.4816 51.7236H37.9299C38.882 51.7236 39.6541 52.4957 39.6541 53.4479C39.6541 54.4 38.882 55.1721 37.9299 55.1721H34.4816C33.5295 55.1721 32.7574 54.4 32.7574 53.4479Z" fill="#468CBE"/>
<path d="M46.5504 44.8273H53.4469C54.399 44.8273 55.1711 44.0553 55.1711 43.1031V36.2066C55.1711 35.2545 54.399 34.4824 53.4469 34.4824H46.5504C45.5982 34.4824 44.8262 35.2545 44.8262 36.2066V43.1031C44.8262 44.0555 45.5982 44.8273 46.5504 44.8273ZM46.5504 39.6549C46.5504 38.7027 47.3225 37.9307 48.2746 37.9307H51.7229C52.675 37.9307 53.4471 38.7027 53.4471 39.6549C53.4471 40.607 52.675 41.3791 51.7229 41.3791H48.2746C47.3223 41.3791 46.5504 40.6072 46.5504 39.6549Z" fill="#464655"/>
<path d="M60.3453 44.8273H67.2418C68.1939 44.8273 68.966 44.0553 68.966 43.1031V36.2066C68.966 35.2545 68.1939 34.4824 67.2418 34.4824H60.3453C59.3932 34.4824 58.6211 35.2545 58.6211 36.2066V43.1031C58.6211 44.0555 59.393 44.8273 60.3453 44.8273Z" fill="#FFA055"/>
<path d="M32.7574 44.8273H39.6539C40.6061 44.8273 41.3781 44.0553 41.3781 43.1031V36.2066C41.3781 35.2545 40.6061 34.4824 39.6539 34.4824H32.7574C31.8053 34.4824 31.0332 35.2545 31.0332 36.2066V43.1031C31.0334 44.0555 31.8053 44.8273 32.7574 44.8273ZM36.2057 36.2066C38.1102 36.2066 39.6539 37.7504 39.6539 39.6549C39.6539 41.5592 38.1102 43.1031 36.2057 43.1031C34.3012 43.1031 32.7574 41.5592 32.7574 39.6549C32.7574 37.7504 34.3012 36.2066 36.2057 36.2066Z" fill="#A0D778"/>
<path d="M46.5504 31.0344H53.4469C54.399 31.0344 55.1711 30.2623 55.1711 29.3102V22.4137C55.1711 21.4615 54.399 20.6895 53.4469 20.6895H46.5504C45.5982 20.6895 44.8262 21.4615 44.8262 22.4137V29.3102C44.8262 30.2623 45.5982 31.0344 46.5504 31.0344Z" fill="#FF6469"/>
<path d="M60.3453 31.0344H67.2418C68.1939 31.0344 68.966 30.2623 68.966 29.3102V22.4137C68.966 21.4615 68.1939 20.6895 67.2418 20.6895H60.3453C59.3932 20.6895 58.6211 21.4615 58.6211 22.4137V29.3102C58.6211 30.2623 59.393 31.0344 60.3453 31.0344ZM63.7936 22.4137C65.698 22.4137 67.2418 23.9574 67.2418 25.8619C67.2418 27.7662 65.698 29.3102 63.7936 29.3102C61.8891 29.3102 60.3453 27.7662 60.3453 25.8619C60.3453 23.9574 61.8891 22.4137 63.7936 22.4137Z" fill="#00DCCD"/>
<path d="M32.7574 31.0344H39.6539C40.6061 31.0344 41.3781 30.2623 41.3781 29.3102V22.4137C41.3781 21.4615 40.6061 20.6895 39.6539 20.6895H32.7574C31.8053 20.6895 31.0332 21.4615 31.0332 22.4137V29.3102C31.0334 30.2623 31.8053 31.0344 32.7574 31.0344Z" fill="#FFDC69"/>
<path d="M36.2061 43.1025C38.1105 43.1025 39.6543 41.5587 39.6543 39.6543C39.6543 37.7499 38.1105 36.2061 36.2061 36.2061C34.3016 36.2061 32.7578 37.7499 32.7578 39.6543C32.7578 41.5587 34.3016 43.1025 36.2061 43.1025Z" fill="#FFDC69"/>
<path d="M49.999 79.3105C51.9034 79.3105 53.4473 77.7667 53.4473 75.8623C53.4473 73.9579 51.9034 72.4141 49.999 72.4141C48.0946 72.4141 46.5508 73.9579 46.5508 75.8623C46.5508 77.7667 48.0946 79.3105 49.999 79.3105Z" fill="#FFDC69"/>
<path d="M63.792 29.3105C65.6964 29.3105 67.2402 27.7667 67.2402 25.8623C67.2402 23.9579 65.6964 22.4141 63.792 22.4141C61.8876 22.4141 60.3438 23.9579 60.3438 25.8623C60.3438 27.7667 61.8876 29.3105 63.792 29.3105Z" fill="#FF6469"/>
<path d="M48.275 41.3791H51.7232C52.6754 41.3791 53.4475 40.607 53.4475 39.6549C53.4475 38.7027 52.6754 37.9307 51.7232 37.9307H48.275C47.3229 37.9307 46.5508 38.7027 46.5508 39.6549C46.551 40.6072 47.3229 41.3791 48.275 41.3791Z" fill="#468CBE"/>
<path d="M62.0699 55.1721H65.5182C66.4703 55.1721 67.2424 54.4 67.2424 53.4479C67.2424 52.4957 66.4703 51.7236 65.5182 51.7236H62.0699C61.1178 51.7236 60.3457 52.4957 60.3457 53.4479C60.3459 54.4 61.1178 55.1721 62.0699 55.1721Z" fill="#FF6469"/>
<path d="M34.482 55.1721H37.9303C38.8824 55.1721 39.6545 54.4 39.6545 53.4479C39.6545 52.4957 38.8824 51.7236 37.9303 51.7236H34.482C33.5299 51.7236 32.7578 52.4957 32.7578 53.4479C32.7578 54.4 33.5299 55.1721 34.482 55.1721Z" fill="white"/>
<path d="M43.1031 67.2414C44.0554 67.2414 44.8273 66.4694 44.8273 65.5172C44.8273 64.5649 44.0554 63.793 43.1031 63.793C42.1509 63.793 41.3789 64.5649 41.3789 65.5172C41.3789 66.4694 42.1509 67.2414 43.1031 67.2414Z" fill="#464655"/>
<path d="M49.9996 67.2414C50.9519 67.2414 51.7238 66.4694 51.7238 65.5172C51.7238 64.5649 50.9519 63.793 49.9996 63.793C49.0474 63.793 48.2754 64.5649 48.2754 65.5172C48.2754 66.4694 49.0474 67.2414 49.9996 67.2414Z" fill="white"/>
<path d="M56.8961 67.2414C57.8484 67.2414 58.6203 66.4694 58.6203 65.5172C58.6203 64.5649 57.8484 63.793 56.8961 63.793C55.9438 63.793 55.1719 64.5649 55.1719 65.5172C55.1719 66.4694 55.9438 67.2414 56.8961 67.2414Z" fill="white"/>
</svg>
