<svg width="200" height="32" viewBox="0 0 200 32" fill="none" xmlns="http://www.w3.org/2000/svg">
<path fill-rule="evenodd" clip-rule="evenodd" d="M0 16C0 7.16344 7.16344 0 16 0C24.8366 0 32 7.16344 32 16C32 24.8366 24.8366 32 16 32C7.16344 32 0 24.8366 0 16ZM17.6677 25.4077V16.7028H20.0706L20.3891 13.7031H17.6677L17.6718 12.2017C17.6718 11.4193 17.7461 11.0001 18.8698 11.0001H20.372V8H17.9688C15.0821 8 14.066 9.4552 14.066 11.9024V13.7034H12.2667V16.7031H14.066V25.4077H17.6677Z" fill="white"/>
<path fill-rule="evenodd" clip-rule="evenodd" d="M112 16C112 7.16344 119.163 0 128 0C136.837 0 144 7.16344 144 16C144 24.8366 136.837 32 128 32C119.163 32 112 24.8366 112 16ZM128.001 7.46667C125.683 7.46667 125.392 7.4768 124.482 7.51822C123.574 7.55982 122.954 7.70365 122.411 7.91467C121.85 8.13263 121.374 8.42419 120.899 8.89868C120.425 9.373 120.133 9.84909 119.914 10.4102C119.703 10.9529 119.559 11.5732 119.518 12.4813C119.477 13.3915 119.467 13.6826 119.467 16.0001C119.467 18.3176 119.477 18.6076 119.518 19.5178C119.56 20.4263 119.704 21.0464 119.915 21.5889C120.133 22.1502 120.424 22.6263 120.899 23.1006C121.373 23.5753 121.849 23.8675 122.41 24.0855C122.953 24.2965 123.573 24.4404 124.481 24.482C125.392 24.5234 125.682 24.5335 128 24.5335C130.317 24.5335 130.607 24.5234 131.518 24.482C132.426 24.4404 133.047 24.2965 133.59 24.0855C134.151 23.8675 134.626 23.5753 135.1 23.1006C135.575 22.6263 135.867 22.1502 136.085 21.5891C136.295 21.0464 136.439 20.4261 136.482 19.518C136.523 18.6078 136.533 18.3176 136.533 16.0001C136.533 13.6826 136.523 13.3917 136.482 12.4815C136.439 11.573 136.295 10.9529 136.085 10.4103C135.867 9.84909 135.575 9.373 135.1 8.89868C134.626 8.42401 134.151 8.13245 133.589 7.91467C133.045 7.70365 132.425 7.55982 131.516 7.51822C130.606 7.4768 130.316 7.46667 127.998 7.46667H128.001Z" fill="white"/>
<path fill-rule="evenodd" clip-rule="evenodd" d="M127.235 9.00446C127.462 9.00411 127.716 9.00446 128.001 9.00446C130.279 9.00446 130.549 9.01264 131.449 9.05353C132.281 9.09157 132.733 9.2306 133.033 9.3474C133.432 9.50207 133.716 9.68696 134.014 9.98563C134.313 10.2843 134.498 10.5687 134.653 10.967C134.769 11.2674 134.909 11.719 134.946 12.551C134.987 13.4506 134.996 13.7208 134.996 15.9981C134.996 18.2755 134.987 18.5457 134.946 19.4453C134.908 20.2773 134.769 20.7288 134.653 21.0293C134.498 21.4275 134.313 21.7111 134.014 22.0096C133.715 22.3082 133.432 22.4931 133.033 22.6478C132.733 22.7651 132.281 22.9038 131.449 22.9418C130.549 22.9827 130.279 22.9916 128.001 22.9916C125.722 22.9916 125.452 22.9827 124.553 22.9418C123.721 22.9035 123.269 22.7644 122.968 22.6476C122.57 22.493 122.285 22.3081 121.987 22.0094C121.688 21.7107 121.503 21.427 121.348 21.0286C121.231 20.7281 121.092 20.2766 121.054 19.4446C121.013 18.545 121.005 18.2748 121.005 15.996C121.005 13.7172 121.013 13.4484 121.054 12.5489C121.092 11.7168 121.231 11.2653 121.348 10.9645C121.503 10.5663 121.688 10.2818 121.987 9.98314C122.285 9.68447 122.57 9.49958 122.968 9.34455C123.269 9.22722 123.721 9.08855 124.553 9.05033C125.34 9.01477 125.645 9.0041 127.235 9.00233V9.00446ZM132.556 10.4214C131.991 10.4214 131.532 10.8795 131.532 11.445C131.532 12.0104 131.991 12.469 132.556 12.469C133.121 12.469 133.58 12.0104 133.58 11.445C133.58 10.8797 133.121 10.4214 132.556 10.4214ZM128.001 11.6178C125.581 11.6178 123.619 13.58 123.619 16.0001C123.619 18.4202 125.581 20.3815 128.001 20.3815C130.421 20.3815 132.382 18.4202 132.382 16.0001C132.382 13.58 130.421 11.6178 128.001 11.6178Z" fill="white"/>
<path fill-rule="evenodd" clip-rule="evenodd" d="M128.001 13.1556C129.572 13.1556 130.845 14.4291 130.845 16.0001C130.845 17.5709 129.572 18.8446 128.001 18.8446C126.43 18.8446 125.156 17.5709 125.156 16.0001C125.156 14.4291 126.43 13.1556 128.001 13.1556Z" fill="white"/>
<path fill-rule="evenodd" clip-rule="evenodd" d="M168 16C168 7.16344 175.163 0 184 0C192.837 0 200 7.16344 200 16C200 24.8366 192.837 32 184 32C175.163 32 168 24.8366 168 16ZM183.521 13.005L183.554 13.5586L182.995 13.4908C180.958 13.231 179.178 12.3497 177.668 10.8695L176.929 10.1351L176.739 10.6775C176.336 11.8864 176.593 13.1632 177.433 14.0219C177.88 14.4964 177.779 14.5642 177.007 14.2818C176.739 14.1914 176.504 14.1236 176.481 14.1575C176.403 14.2366 176.672 15.2647 176.884 15.6715C177.175 16.2364 177.768 16.7901 178.417 17.1177L178.966 17.3776L178.317 17.3889C177.69 17.3889 177.668 17.4002 177.735 17.6375C177.959 18.3719 178.843 19.1515 179.828 19.4905L180.521 19.7277L179.917 20.0893C179.022 20.609 177.97 20.9028 176.918 20.9254C176.414 20.9367 176 20.9819 176 21.0158C176 21.1288 177.365 21.7615 178.16 22.0101C180.544 22.7445 183.375 22.4281 185.502 21.174C187.013 20.2814 188.523 18.5075 189.229 16.7901C189.609 15.8749 189.99 14.2027 189.99 13.4005C189.99 12.8807 190.023 12.8129 190.65 12.1915C191.019 11.8299 191.366 11.4345 191.433 11.3215C191.545 11.1068 191.534 11.1068 190.963 11.2989C190.012 11.6379 189.878 11.5927 190.348 11.0842C190.695 10.7227 191.109 10.0673 191.109 9.87526C191.109 9.84137 190.941 9.89786 190.751 9.99955C190.549 10.1125 190.102 10.282 189.766 10.3837L189.161 10.5758L188.613 10.2029C188.311 9.99955 187.886 9.77357 187.662 9.70578C187.091 9.5476 186.218 9.5702 185.703 9.75098C184.304 10.2594 183.42 11.5701 183.521 13.005Z" fill="white"/>
<path fill-rule="evenodd" clip-rule="evenodd" d="M56 16C56 7.16344 63.1634 0 72 0C80.8366 0 88 7.16344 88 16C88 24.8366 80.8366 32 72 32C63.1634 32 56 24.8366 56 16ZM80.1767 12.0488C79.9804 11.2948 79.4021 10.7011 78.6677 10.4996C77.3369 10.1333 72 10.1333 72 10.1333C72 10.1333 66.6631 10.1333 65.3322 10.4996C64.5978 10.7011 64.0195 11.2948 63.8232 12.0488C63.4667 13.4154 63.4667 16.2667 63.4667 16.2667C63.4667 16.2667 63.4667 19.1179 63.8232 20.4845C64.0195 21.2385 64.5978 21.8323 65.3322 22.0339C66.6631 22.4 72 22.4 72 22.4C72 22.4 77.3369 22.4 78.6677 22.0339C79.4021 21.8323 79.9804 21.2385 80.1767 20.4845C80.5333 19.1179 80.5333 16.2667 80.5333 16.2667C80.5333 16.2667 80.5333 13.4154 80.1767 12.0488Z" fill="white"/>
<path fill-rule="evenodd" clip-rule="evenodd" d="M70.3999 19.1995V13.8662L74.6666 16.533L70.3999 19.1995Z" fill="white"/>
</svg>
