<svg width="100" height="100" viewBox="0 0 100 100" fill="none" xmlns="http://www.w3.org/2000/svg">
<g clip-path="url(#clip0)">
<path d="M14.2392 0H85.7624C88.7348 0 91.1442 2.4094 91.1442 5.38173V94.6183C91.1442 97.5906 88.7348 100 85.7624 100H14.2392C11.2668 100 8.85742 97.5906 8.85742 94.6183V5.38173C8.85742 2.4094 11.2668 0 14.2392 0Z" fill="#575B6D"/>
<path d="M14.2383 5.39551H85.7627V87.9065H14.2383V5.39551Z" fill="#69B0EE"/>
<path d="M50.0015 96.8644C51.6571 96.8644 52.9992 95.5223 52.9992 93.8668C52.9992 92.2112 51.6571 90.8691 50.0015 90.8691C48.346 90.8691 47.0039 92.2112 47.0039 93.8668C47.0039 95.5223 48.346 96.8644 50.0015 96.8644Z" fill="#828A9E"/>
<path opacity="0.5" d="M21.3006 87.8821H18.7227L60.4261 5.37109H63.0043L21.3006 87.8821Z" fill="#EEEFEE"/>
<path opacity="0.5" d="M39.5761 87.8821H27.2383L68.942 5.37109H81.2798L39.5761 87.8821Z" fill="#EEEFEE"/>
</g>
<defs>
<clipPath id="clip0">
<rect width="100" height="100" fill="white"/>
</clipPath>
</defs>
</svg>
