<svg width="100" height="100" viewBox="0 0 100 100" fill="none" xmlns="http://www.w3.org/2000/svg">
<g clip-path="url(#clip0)">
<path d="M33.7773 55.333L29.9981 8.91812C29.5619 3.68543 25.0689 -0.145925 20.1155 0.00426662C15.1615 0.102116 11.0393 3.92859 10.6235 8.91812L6.66463 56.6104C6.51463 58.4183 8.02006 59.8923 9.76026 59.7763C22.2221 59.0265 17.3609 59.3193 31.0332 58.4951C32.6849 58.3967 33.9105 56.9561 33.7773 55.333Z" fill="#D20041"/>
<path d="M45.3105 24.8061C43.6925 24.8061 42.3809 23.4944 42.3809 21.8764C42.3809 9.92243 52.106 0.197266 64.06 0.197266C72.2759 0.197266 79.9444 4.90497 83.5965 12.1907C84.3217 13.637 83.7369 15.3975 82.2903 16.1225C80.8436 16.8482 79.0835 16.2629 78.3585 14.8163C75.691 9.4949 70.0783 6.05631 64.0598 6.05631C55.3368 6.05631 48.2399 13.1532 48.2399 21.8762C48.2401 23.4944 46.9284 24.8061 45.3105 24.8061Z" fill="#C9E6FE"/>
<path d="M84.3728 27.9312C79.3112 27.9312 75.1934 23.8133 75.1934 18.7517C75.1934 13.6901 79.3112 9.57227 84.3728 9.57227C89.4344 9.57227 93.5523 13.6901 93.5523 18.7517C93.5523 23.8133 89.4344 27.9312 84.3728 27.9312ZM84.3728 15.4315C82.542 15.4315 81.0526 16.9209 81.0526 18.7517C81.0526 20.5826 82.542 22.072 84.3728 22.072C86.2036 22.072 87.6931 20.5826 87.6931 18.7517C87.6931 16.9209 86.2036 15.4315 84.3728 15.4315Z" fill="#B2DCFD"/>
<path d="M39.0617 8.87321C20.3755 14.0342 6.44531 41.7857 6.44531 60.9384C6.44531 82.3994 23.8037 100 45.3116 100C66.7427 100 84.1779 82.477 84.1779 60.9384C84.1779 37.8628 63.9078 1.98607 39.0617 8.87321Z" fill="#DF4D5F"/>
<path d="M84.1768 60.9382C84.1768 82.4768 66.7417 99.9998 45.3105 99.9998V8.00977C67.0702 8.00977 84.1768 39.625 84.1768 60.9382Z" fill="#D20041"/>
<path d="M28.1249 82.8123C30.6058 82.8123 32.617 80.8011 32.617 78.3202C32.617 75.8393 30.6058 73.8281 28.1249 73.8281C25.644 73.8281 23.6328 75.8393 23.6328 78.3202C23.6328 80.8011 25.644 82.8123 28.1249 82.8123Z" fill="#E0F1FB"/>
<path d="M62.4999 82.8123C64.9808 82.8123 66.992 80.8011 66.992 78.3202C66.992 75.8393 64.9808 73.8281 62.4999 73.8281C60.019 73.8281 58.0078 75.8393 58.0078 78.3202C58.0078 80.8011 60.019 82.8123 62.4999 82.8123Z" fill="#C9E6FE"/>
<path d="M45.3104 90.6248C47.7913 90.6248 49.8025 88.6136 49.8025 86.1327C49.8025 83.6518 47.7913 81.6406 45.3104 81.6406C42.8295 81.6406 40.8184 83.6518 40.8184 86.1327C40.8184 88.6136 42.8295 90.6248 45.3104 90.6248Z" fill="#E0F1FB"/>
<path d="M49.8026 86.1327C49.8026 88.6092 47.7871 90.6248 45.3105 90.6248V81.6406C47.7871 81.6406 49.8026 83.6562 49.8026 86.1327Z" fill="#C9E6FE"/>
<path d="M62.4992 40.2362C62.4992 36.9999 59.8762 34.377 56.64 34.377H33.9842C30.748 34.377 28.125 36.9999 28.125 40.2362V56.6421C28.125 59.8685 30.7382 62.5013 33.9842 62.5013H56.64C59.877 62.5013 62.4992 59.8781 62.4992 56.6421V40.2362Z" fill="#E0F1FB"/>
<path d="M62.4976 56.6421C62.4976 59.8791 59.8745 62.5013 56.6384 62.5013H45.3105V34.377H56.6384C59.8747 34.377 62.4976 36.9999 62.4976 40.2362V56.6421Z" fill="#C9E6FE"/>
<path d="M52.613 43.2422C42.3656 53.4896 46.1858 49.6694 41.6758 54.1794C41.1269 54.7302 40.8184 55.4743 40.8184 56.2517V62.5015C57.9689 62.5015 56.7901 62.5134 57.2086 62.4742C60.1773 62.1871 62.4975 59.6871 62.4975 56.6423V48.9823L56.7574 43.2422C55.6198 42.1045 53.7616 42.0934 52.613 43.2422ZM60.4449 64.562C60.2828 64.6401 60.1167 64.7143 59.9488 64.7827C60.1167 64.7143 60.2828 64.6421 60.4449 64.562Z" fill="#00A66C"/>
<path d="M41.1345 46.367C39.9896 45.2261 38.139 45.222 36.99 46.367L28.125 55.1618V56.6422C28.125 59.8687 30.7382 62.5014 33.9842 62.5014C58.437 62.5014 56.7862 62.5139 57.2103 62.4741C43.0295 48.2652 46.8947 52.138 41.1345 46.367Z" fill="#8BE26D"/>
<path d="M45.3105 50.5508L57.2087 62.4724C56.7894 62.5118 57.7349 62.4997 45.3105 62.4997V50.5508Z" fill="#59C36A"/>
<path d="M56.6399 31.4473H33.9842C29.1386 31.4473 25.1953 35.3905 25.1953 40.2361V56.642C25.1953 61.4876 29.1386 65.4309 33.9842 65.4309C58.7611 65.4309 56.8702 65.4486 57.4914 65.3899C62.0167 64.9524 65.4288 61.1927 65.4288 56.642V40.2361C65.4288 35.3905 61.4855 31.4473 56.6399 31.4473ZM59.5695 56.642C59.5695 58.2523 58.2897 59.5716 56.6399 59.5716H33.9842C32.369 59.5716 31.0546 58.2572 31.0546 56.642V40.2361C31.0546 38.6209 32.369 37.3065 33.9842 37.3065H56.6399C58.2551 37.3065 59.5695 38.6209 59.5695 40.2361V56.642Z" fill="#D20041"/>
<path d="M65.4273 40.2361V56.642C65.4273 61.1927 62.0152 64.9524 57.4899 65.3898C56.8847 65.4471 57.6378 65.4309 45.3105 65.4309V59.5716H56.6384C58.2876 59.5716 59.568 58.2529 59.568 56.642V40.2361C59.568 38.6209 58.2536 37.3065 56.6384 37.3065H45.3105V31.4473H56.6384C61.484 31.4473 65.4273 35.3905 65.4273 40.2361Z" fill="#A60F34"/>
</g>
<defs>
<clipPath id="clip0">
<rect width="100" height="100" fill="white"/>
</clipPath>
</defs>
</svg>
