<svg width="197" height="197" viewBox="0 0 197 197" fill="none" xmlns="http://www.w3.org/2000/svg">
<path d="M0 16C0 7.16345 7.16344 0 16 0H144C152.837 0 160 7.16344 160 16V117.639C160 125.375 154.465 132.003 146.854 133.383L18.8535 156.583C9.03459 158.362 0 150.818 0 140.839V16Z" fill="#00B294"/>
<g filter="url(#filter0_d)">
<rect x="35" y="33" width="144" height="144" rx="16" fill="white"/>
</g>
<path d="M87.3121 84.5918L82.7348 79.415C81.2873 77.7784 80.4883 75.6689 80.4883 73.484C80.4883 71.605 81.0796 69.7736 82.1783 68.2492C83.277 66.7249 84.8274 65.5849 86.61 64.9906C88.1439 64.4794 89.7502 64.2188 91.367 64.2188H99.081C101.617 64.2188 104.085 65.0414 106.114 66.5631L108.613 68.4375C109.881 68.4375 111.124 68.7905 112.202 69.457C113.28 70.1234 114.152 71.077 114.719 72.2108C115.327 73.4286 115.644 74.7713 115.644 76.1327V77.759C115.644 80.8503 114.729 83.8725 113.015 86.4447L112.832 86.7188H87.3121" fill="#5B3719"/>
<path d="M107 109.905L115.597 110.979C116.402 111.08 117.166 111.393 117.81 111.886C118.453 112.379 118.954 113.035 119.261 113.785L128.094 135.397L125.281 145.782H71.8438L69.0312 135.397L77.8637 113.785C78.1705 113.034 78.6716 112.378 79.3154 111.885C79.9593 111.392 80.7228 111.079 81.5275 110.978L90.125 109.905L91.0777 109.026L98.5625 110.657L105.869 108.776L107 109.905Z" fill="#2C91FF"/>
<path d="M97.3638 135.951L97.1562 110.638L99.9687 110.612L100.176 135.925L97.3638 135.951Z" fill="#007AF6"/>
<path d="M90.125 109.903L92.9375 107.091V102.872H104.188V107.091L107 109.903L98.5625 110.782L90.125 109.903Z" fill="#FDC9A6"/>
<path d="M109.812 84.5899V93.0274C110.292 93.0283 110.768 92.9463 111.219 92.7848V84.8324C110.768 84.671 110.292 84.5889 109.812 84.5899Z" fill="#FDC9A6"/>
<path d="M109.812 84.5899V93.0274C110.292 93.0283 110.768 92.9463 111.219 92.7848V84.8324C110.768 84.671 110.292 84.5889 109.812 84.5899Z" fill="#D6A27F"/>
<path d="M104.188 97.9688V103.495C102.477 104.481 100.537 105 98.5625 105C96.588 105 94.6483 104.481 92.9375 103.495V97.9688H104.188Z" fill="#D6A27F"/>
<path d="M87.3125 84.5899V93.0274C86.8333 93.0283 86.3575 92.9463 85.9062 92.7848V84.8324C86.3575 84.671 86.8333 84.5889 87.3125 84.5899Z" fill="#FDC9A6"/>
<path d="M87.3125 84.5899V93.0274C86.8333 93.0283 86.3575 92.9463 85.9062 92.7848V84.8324C86.3575 84.671 86.8333 84.5889 87.3125 84.5899Z" fill="#D6A27F"/>
<path d="M98.5625 104.279C95.5788 104.279 92.7173 103.094 90.6075 100.984C88.4978 98.8745 87.3125 96.013 87.3125 93.0293V79.6875L90.3324 75.4688H105.801L109.812 79.6875V93.0293C109.812 96.013 108.627 98.8745 106.517 100.984C104.408 103.094 101.546 104.279 98.5625 104.279Z" fill="#FDC9A6"/>
<path d="M98.7695 93.75H97.3633C96.9903 93.75 96.6326 93.6018 96.3689 93.3381C96.1052 93.0744 95.957 92.7167 95.957 92.3438V88.125C95.957 87.752 96.1052 87.3944 96.3689 87.1306C96.6326 86.8669 96.9903 86.7188 97.3633 86.7188C97.7362 86.7188 98.0939 86.8669 98.3577 87.1306C98.6214 87.3944 98.7695 87.752 98.7695 88.125V90.9375C99.1425 90.9375 99.5002 91.0857 99.7639 91.3494C100.028 91.6131 100.176 91.9708 100.176 92.3438C100.176 92.7167 100.028 93.0744 99.7639 93.3381C99.5002 93.6018 99.1425 93.75 98.7695 93.75Z" fill="#D6A27F"/>
<path d="M97.2158 98.6547H97.1562C96.7833 98.6547 96.4256 98.5065 96.1619 98.2428C95.8982 97.9791 95.75 97.6214 95.75 97.2484C95.75 96.8755 95.8982 96.5178 96.1619 96.2541C96.4256 95.9903 96.7833 95.8422 97.1562 95.8422H97.2158C98.9255 95.8408 100.608 95.4156 102.113 94.6047C102.276 94.5149 102.455 94.4583 102.639 94.4381C102.824 94.4178 103.011 94.4344 103.189 94.4867C103.367 94.5391 103.533 94.6263 103.678 94.7432C103.822 94.8601 103.942 95.0045 104.03 95.1679C104.118 95.3314 104.173 95.5107 104.192 95.6956C104.21 95.8804 104.192 96.0671 104.138 96.2448C104.084 96.4226 103.995 96.5878 103.877 96.7311C103.759 96.8744 103.613 96.9928 103.449 97.0795C101.534 98.1117 99.3919 98.6529 97.2158 98.6547Z" fill="#D6A27F"/>
<path d="M119.657 145.781L122.469 137.639L118.298 134.531L118.029 131.719L112.625 130.312L107 134.531L87.3128 133.125C86.0246 134.843 85.2001 136.863 84.9186 138.991C84.637 141.12 84.908 143.285 85.7055 145.278L85.9066 145.781H119.657Z" fill="#FDC9A6"/>
<path d="M94.3438 116.25L98.5625 110.625L92.9375 106.406L90.125 109.219L94.3438 116.25Z" fill="#007AF6"/>
<path d="M102.781 116.25L98.5625 110.625L104.188 106.406L107 109.219L102.781 116.25Z" fill="#007AF6"/>
<path d="M81.6297 135.098H81.5875C81.4029 135.093 81.2212 135.051 81.0527 134.975C80.8842 134.9 80.7323 134.792 80.6056 134.657C80.479 134.523 80.38 134.365 80.3144 134.192C80.2488 134.019 80.2178 133.836 80.2233 133.651L80.4891 124.646C80.4941 124.461 80.5356 124.279 80.6111 124.11C80.6866 123.942 80.7947 123.789 80.9291 123.662C81.0635 123.535 81.2217 123.436 81.3945 123.37C81.5673 123.305 81.7514 123.273 81.9363 123.279C82.1211 123.284 82.3031 123.326 82.4717 123.402C82.6403 123.478 82.7924 123.586 82.9191 123.721C83.0458 123.856 83.1447 124.014 83.2101 124.187C83.2755 124.36 83.3062 124.544 83.3003 124.729L83.0345 133.734C83.0236 134.099 82.8708 134.446 82.6086 134.701C82.3464 134.955 81.9952 135.098 81.6297 135.098Z" fill="#007AF6"/>
<path d="M132.312 145.781H112.625V128.906L122.469 120.469L132.312 128.906V145.781Z" fill="#EAE9E4"/>
<path d="M118.25 134.531H126.688V145.781H118.25V134.531Z" fill="#346451"/>
<path d="M144.969 128.906H132.312L122.469 120.469H135.125L144.969 128.906Z" fill="#4E965A"/>
<path d="M132.312 128.906H144.969V145.781H132.312V128.906Z" fill="#DCDBD6"/>
<path d="M92.4102 90.0586C93.9635 90.0586 95.2227 88.7994 95.2227 87.2461C95.2227 85.6928 93.9635 84.4336 92.4102 84.4336C90.8569 84.4336 89.5977 85.6928 89.5977 87.2461C89.5977 88.7994 90.8569 90.0586 92.4102 90.0586Z" fill="#EAE9E4"/>
<path d="M105.066 90.0586C106.62 90.0586 107.879 88.7994 107.879 87.2461C107.879 85.6928 106.62 84.4336 105.066 84.4336C103.513 84.4336 102.254 85.6928 102.254 87.2461C102.254 88.7994 103.513 90.0586 105.066 90.0586Z" fill="#EAE9E4"/>
<path d="M104.922 82.3067C103.816 82.3082 102.74 82.6689 101.857 83.3347C100.973 84.0004 100.33 84.9351 100.023 85.9981H97.5161C97.177 84.8168 96.4227 83.7977 95.3918 83.1286C94.361 82.4594 93.1232 82.1852 91.9062 82.3563C90.6892 82.5275 89.575 83.1326 88.7688 84.0602C87.9625 84.9877 87.5186 86.1753 87.5186 87.4043C87.5186 88.6333 87.9625 89.8209 88.7688 90.7484C89.575 91.676 90.6892 92.2811 91.9062 92.4523C93.1232 92.6235 94.361 92.3492 95.3918 91.68C96.4227 91.0109 97.177 89.9918 97.5161 88.8106H100.023C100.285 89.7215 100.795 90.5414 101.496 91.1785C102.198 91.8155 103.063 92.2443 103.995 92.4168C104.927 92.5893 105.889 92.4986 106.772 92.155C107.655 91.8113 108.425 91.2282 108.995 90.4713C109.565 89.7143 109.913 88.8134 109.999 87.8697C110.086 86.926 109.908 85.9768 109.485 85.1288C109.062 84.2808 108.411 83.5675 107.605 83.069C106.799 82.5704 105.87 82.3065 104.922 82.3067ZM92.6174 89.6895C92.1654 89.6895 91.7236 89.5554 91.3478 89.3043C90.972 89.0533 90.6791 88.6964 90.5062 88.2788C90.3332 87.8612 90.288 87.4018 90.3761 86.9585C90.4643 86.5152 90.682 86.108 91.0015 85.7885C91.3211 85.4689 91.7283 85.2512 92.1716 85.1631C92.6149 85.0749 93.0743 85.1201 93.4919 85.2931C93.9094 85.4661 94.2663 85.759 94.5174 86.1347C94.7685 86.5105 94.9025 86.9523 94.9025 87.4043C94.9019 88.0102 94.6609 88.591 94.2325 89.0194C93.8041 89.4478 93.2232 89.6888 92.6174 89.6895ZM104.922 89.6895C104.47 89.6895 104.028 89.5554 103.653 89.3043C103.277 89.0533 102.984 88.6964 102.811 88.2788C102.638 87.8612 102.593 87.4018 102.681 86.9585C102.769 86.5152 102.987 86.108 103.306 85.7885C103.626 85.4689 104.033 85.2512 104.476 85.1631C104.92 85.0749 105.379 85.1201 105.797 85.2931C106.214 85.4661 106.571 85.759 106.822 86.1347C107.073 86.5105 107.207 86.9523 107.207 87.4043C107.207 88.0102 106.966 88.591 106.537 89.0194C106.109 89.4478 105.528 89.6888 104.922 89.6895Z" fill="#005DBB"/>
<path d="M79.7738 144.512L80.2814 145.781H85.9064L85.7053 145.278C84.9079 143.285 84.6369 141.119 84.9184 138.991C85.1999 136.863 86.0244 134.842 87.3127 133.125L86.7236 132.536C86.0762 131.888 85.2414 131.461 84.3376 131.314C83.4337 131.167 82.5067 131.309 81.6877 131.718L80.6618 133.428C79.6694 135.082 79.0729 136.943 78.9189 138.866C78.7648 140.789 79.0574 142.721 79.7738 144.512Z" fill="#007AF6"/>
<path d="M118.25 135.938H125.281V145.781H118.25V135.938Z" fill="#4E965A"/>
<defs>
<filter id="filter0_d" x="21" y="21" width="176" height="176" filterUnits="userSpaceOnUse" color-interpolation-filters="sRGB">
<feFlood flood-opacity="0" result="BackgroundImageFix"/>
<feColorMatrix in="SourceAlpha" type="matrix" values="0 0 0 0 0 0 0 0 0 0 0 0 0 0 0 0 0 0 127 0" result="hardAlpha"/>
<feOffset dx="2" dy="4"/>
<feGaussianBlur stdDeviation="8"/>
<feComposite in2="hardAlpha" operator="out"/>
<feColorMatrix type="matrix" values="0 0 0 0 0 0 0 0 0 0 0 0 0 0 0 0 0 0 0.08 0"/>
<feBlend mode="normal" in2="BackgroundImageFix" result="effect1_dropShadow"/>
<feBlend mode="normal" in="SourceGraphic" in2="effect1_dropShadow" result="shape"/>
</filter>
</defs>
</svg>
