<svg width="197" height="197" viewBox="0 0 197 197" fill="none" xmlns="http://www.w3.org/2000/svg">
<path d="M0 16C0 7.16345 7.16344 0 16 0H144C152.837 0 160 7.16344 160 16V117.639C160 125.375 154.465 132.003 146.854 133.383L18.8535 156.583C9.03459 158.362 0 150.818 0 140.839V16Z" fill="#00B294"/>
<g filter="url(#filter0_d)">
<rect x="35" y="33" width="144" height="144" rx="16" fill="white"/>
</g>
<g clip-path="url(#clip0)">
<path d="M127.323 99.9194V100.938C127.323 102.186 127.525 103.426 127.919 104.61L130.226 111.532H134.581V95.5645H131.678C129.273 95.5646 127.323 97.5142 127.323 99.9194Z" fill="#5A4146"/>
<path d="M147.198 102.935L144.742 111.533L133.129 101.371C131.525 101.371 130.226 100.071 130.226 98.4681C130.226 96.063 132.175 94.1133 134.58 94.1133H144.742C146.345 94.1133 147.645 95.4132 147.645 97.0165V99.745C147.645 100.824 147.495 101.897 147.198 102.935Z" fill="#694B4B"/>
<path d="M141.838 115.888H133.128V122.312H141.838V115.888Z" fill="#E6AF78"/>
<path d="M133.129 118.553C134.475 119.1 135.943 119.408 137.484 119.408C139.024 119.408 140.492 119.1 141.839 118.553V115.887H133.129V118.553Z" fill="#D29B6E"/>
<path d="M148.841 121.409L141.838 119.408L137.484 122.298L133.129 119.408L126.126 121.409C124.257 121.943 122.968 123.652 122.968 125.596V136.209C122.968 137.011 123.618 137.661 124.419 137.661H150.548C151.35 137.661 152 137.011 152 136.209V125.596C152 123.652 150.711 121.943 148.841 121.409Z" fill="#D5DCED"/>
<path d="M138.935 137.661H136.032L136.758 122.312H138.21L138.935 137.661Z" fill="#AFB9D2"/>
<path d="M137.484 117.339C132.674 117.339 128.774 113.439 128.774 108.629V106.928C128.774 106.158 129.08 105.42 129.625 104.875L132.257 102.243C132.814 101.686 133.577 101.365 134.364 101.39C139.005 101.536 143.112 102.53 145.357 104.723C145.907 105.26 146.194 106.011 146.194 106.779V108.629C146.194 113.439 142.294 117.339 137.484 117.339Z" fill="#F0C087"/>
<path d="M133.129 107.289C133.129 105.614 134.535 104.283 136.207 104.39C139.137 104.577 143.486 105.066 146.153 106.35C146.066 105.737 145.803 105.159 145.357 104.723C143.112 102.53 139.005 101.536 134.364 101.39L134.364 101.39V101.39C133.577 101.365 132.814 101.686 132.257 102.243L129.625 104.875C129.08 105.42 128.774 106.158 128.774 106.928V108.629C128.774 112.601 131.436 115.945 135.071 116.992C133.861 115.5 133.129 113.605 133.129 111.532L133.129 107.289Z" fill="#E6AF78"/>
<path d="M146.193 129.922C146.193 128.767 146.652 127.66 147.469 126.843L151.205 123.106C151.705 123.82 152 124.68 152 125.597V136.21C152 137.012 151.35 137.662 150.548 137.662H146.193V129.922Z" fill="#C7CFE2"/>
<path d="M138.21 125.215H136.758C136.357 125.215 136.032 124.89 136.032 124.489V122.312H138.935V124.489C138.935 124.89 138.611 125.215 138.21 125.215Z" fill="#959CB5"/>
<path d="M137.484 122.299L135.023 124.178C134.599 124.502 133.987 124.372 133.731 123.904L131.523 119.873L132.412 118.518C132.609 118.218 133.029 118.166 133.292 118.411L137.484 122.299Z" fill="#C7CFE2"/>
<path d="M137.483 122.299L139.944 124.179C140.368 124.503 140.98 124.373 141.237 123.905L143.444 119.874L142.555 118.519C142.358 118.219 141.938 118.167 141.675 118.412L137.483 122.299Z" fill="#C7CFE2"/>
<path d="M87.9848 116.732C86.7444 113.445 85.7605 107.795 85.548 104.854C85.1437 99.2557 80.9251 94.6924 75.2224 94.6924C69.5197 94.6924 65.3011 99.2558 64.8969 104.854C64.6843 107.795 63.7005 113.445 62.46 116.732C62.1867 117.457 62.5022 118.256 63.2157 118.579C64.5449 119.182 67.3791 120.362 70.7971 120.821H79.6475C83.0496 120.361 85.9036 119.18 87.229 118.579C87.9427 118.256 88.2582 117.457 87.9848 116.732Z" fill="#5A4146"/>
<path d="M87.2285 118.58C87.9419 118.257 88.2576 117.458 87.9841 116.733C86.7437 113.446 85.7597 107.796 85.5474 104.855C85.1433 99.2566 80.9245 94.6934 75.222 94.6934C75.2076 94.6934 75.1933 94.6934 75.1789 94.6935C70.8032 94.7113 69.2569 100.679 73.0237 102.906C73.2499 103.039 73.3949 103.104 73.3949 103.104L76.6942 120.822H79.6471C83.0492 120.361 85.9032 119.181 87.2285 118.58Z" fill="#694B4B"/>
<path d="M85.7217 123.736L81.0241 121.388C80.0404 120.896 79.419 119.89 79.4192 118.791L79.4196 114.436H70.7096V118.791C70.7096 119.89 70.0884 120.896 69.1047 121.387L64.4071 123.736C62.9318 124.474 62 125.982 62 127.631V136.209C62 137.011 62.6499 137.661 63.4516 137.661H86.6774C87.4791 137.661 88.129 137.011 88.129 136.209V127.631C88.129 125.982 87.197 124.474 85.7217 123.736Z" fill="#E6AF78"/>
<path d="M75.0642 120.242C76.6273 120.242 78.1244 119.92 79.4969 119.346C79.4609 119.163 79.4189 118.981 79.4189 118.791L79.4192 114.436H70.7093V118.791C70.7093 118.982 70.6672 119.165 70.6309 119.349C72.0042 119.92 73.5007 120.242 75.0642 120.242Z" fill="#D29B6E"/>
<path d="M85.7217 123.736L82.3752 122.063C80.8234 124.459 78.132 126.048 75.0646 126.048C71.9972 126.048 69.3056 124.459 67.7538 122.062L64.4073 123.736C62.932 124.474 62 125.981 62 127.631V136.209C62 137.011 62.6499 137.661 63.4516 137.661H86.6774C87.4791 137.661 88.129 137.011 88.129 136.209V127.631C88.129 125.981 87.197 124.474 85.7217 123.736Z" fill="#D5DCED"/>
<path d="M75.0643 117.339C70.636 117.339 66.9798 114.034 66.427 109.756C66.3468 109.136 66.6447 108.529 67.2027 108.247C67.871 107.91 68.8422 107.342 69.7721 106.512C70.8076 105.588 71.4151 104.614 71.7582 103.898C72.0537 103.283 72.7329 102.934 73.3949 103.103C78.5059 104.407 81.9855 107.066 83.248 108.151C83.5869 108.443 83.7822 108.873 83.7474 109.318C83.3956 113.806 79.6425 117.339 75.0643 117.339Z" fill="#F0C087"/>
<path d="M83.2478 108.151C81.9855 107.066 78.5057 104.407 73.3947 103.103C72.7327 102.934 72.0535 103.283 71.758 103.898C71.4982 104.44 71.0688 105.13 70.4316 105.835C70.4314 105.837 70.4309 105.838 70.4307 105.84C70.2329 106.064 70.0223 106.289 69.772 106.512C68.8421 107.342 67.8709 107.91 67.2026 108.247C66.6447 108.529 66.3469 109.137 66.4269 109.757C66.9235 113.598 69.9297 116.656 73.7438 117.239C72.0059 116.057 70.7095 114.431 70.7095 111.532V109.462C71.0392 109.219 71.3713 108.976 71.7049 108.679C72.5117 107.959 73.2161 107.126 73.7809 106.229C77.6908 107.449 80.3416 109.482 81.3465 110.346C81.6216 110.587 82.3043 111.216 83.1031 111.966C83.4467 111.139 83.674 110.251 83.747 109.319C83.782 108.873 83.5867 108.443 83.2478 108.151Z" fill="#E6AF78"/>
<path d="M62.8849 125.015C62.3257 125.757 62 126.667 62 127.631V136.21C62 137.012 62.6499 137.661 63.4516 137.661H67.8064V130.347C67.8064 129.465 67.4054 128.631 66.7167 128.08L62.8849 125.015Z" fill="#C7CFE2"/>
<path d="M127.856 121.756L115.71 117.339L107.001 120.242L98.291 117.339L86.1454 121.756C83.8508 122.59 82.3232 124.771 82.3232 127.213V136.21C82.3232 137.012 82.9731 137.662 83.7748 137.662H130.226C131.028 137.662 131.678 137.012 131.678 136.21V127.213C131.678 124.771 130.151 122.59 127.856 121.756Z" fill="#FF507D"/>
<path d="M105.479 123.146L104.097 137.661H109.903L108.521 123.146H105.479Z" fill="#707487"/>
<path d="M108.524 125.14H105.476C104.915 125.14 104.46 124.685 104.46 124.124V120.242H109.54V124.124C109.54 124.685 109.085 125.14 108.524 125.14Z" fill="#5B5D6E"/>
<path d="M130.115 123.256C131.095 124.308 131.677 125.709 131.677 127.212V136.21C131.677 137.011 131.028 137.661 130.226 137.661H122.968V132.808C122.968 131.268 123.579 129.791 124.668 128.702L130.115 123.256Z" fill="#D23C69"/>
<path d="M122.968 87.4026V75.2421C122.968 73.6386 121.668 72.3389 120.065 72.3389H102.645C96.2317 72.3389 91.0322 77.5381 91.0322 83.9519V87.4026C91.0322 88.9629 91.2838 90.5129 91.7772 91.993L92.2604 93.4426C92.4084 93.8867 92.4838 94.3516 92.4838 94.8197V95.5647H121.516V94.8197C121.516 94.3516 121.591 93.8867 121.739 93.4426L122.223 91.993C122.716 90.5127 122.968 88.9627 122.968 87.4026Z" fill="#5A4146"/>
<path d="M98.29 78.236C98.29 81.4929 100.93 84.1331 104.187 84.1331H105.004L105.398 95.5645H121.516V94.8195C121.516 94.3514 121.591 93.8865 121.739 93.4425L122.222 91.9928C122.716 90.5127 122.967 88.9627 122.967 87.4024V75.2421C122.967 73.6386 121.667 72.3389 120.064 72.3389H104.187C100.93 72.3389 98.29 74.9791 98.29 78.236Z" fill="#694B4B"/>
<path d="M115.71 107.178H98.29V120.242H115.71V107.178Z" fill="#E6AF78"/>
<path d="M98.2902 112.085C100.855 113.571 103.823 114.435 107 114.435C110.176 114.435 113.145 113.571 115.709 112.085V107.177H98.29L98.2902 112.085Z" fill="#D29B6E"/>
<path d="M107 120.242L102.37 124.872C101.748 125.494 100.719 125.424 100.187 124.723L95.3867 118.398L96.6423 115.752C97.0129 114.971 97.9793 114.685 98.7151 115.138L107 120.242Z" fill="#D23C69"/>
<path d="M107 120.242L111.63 124.872C112.252 125.494 113.28 125.424 113.812 124.723L118.613 118.398L117.357 115.752C116.987 114.971 116.02 114.685 115.284 115.138L107 120.242Z" fill="#D23C69"/>
<path d="M107 111.532C98.9826 111.532 92.4834 105.033 92.4834 97.016V95.3153C92.4834 94.5454 92.7893 93.8069 93.3337 93.2623L94.5362 92.0598C95.0806 91.5154 95.3864 90.777 95.3864 90.0069V86.5271C95.3864 85.8549 95.8378 85.271 96.4919 85.1165C99.9251 84.3056 110.609 82.3848 117.879 87.7321C118.351 88.0793 118.612 88.6497 118.612 89.2357V90.0069C118.612 90.7768 118.918 91.5152 119.462 92.0598L120.665 93.2623C121.209 93.8067 121.515 94.5452 121.515 95.3153V97.016C121.516 105.033 115.017 111.532 107 111.532Z" fill="#F0C087"/>
<path d="M117.879 87.7326C112.766 83.9717 105.973 83.809 101.193 84.3238C99.1768 84.5409 97.5107 84.8765 96.4923 85.117C95.8382 85.2715 95.3868 85.8554 95.3868 86.5276V90.0072C95.3868 90.7773 95.0809 91.5157 94.5363 92.0603L93.3338 93.2628C92.7893 93.8074 92.4834 94.5459 92.4834 95.316V97.0165C92.4834 104.439 98.0574 110.549 105.245 111.416C102.741 108.808 101.193 105.273 101.193 101.371V90.7609C101.193 89.2898 102.287 88.0604 103.746 87.8774C107.23 87.4406 113.611 87.178 118.612 90.0075V89.2362C118.613 88.6502 118.351 88.0796 117.879 87.7326Z" fill="#E6AF78"/>
<path d="M83.8858 123.256C82.9056 124.308 82.3232 125.709 82.3232 127.212V136.21C82.3232 137.011 82.9731 137.661 83.7748 137.661H91.0328V132.808C91.0328 131.268 90.4211 129.791 89.3322 128.702L83.8858 123.256Z" fill="#D23C69"/>
</g>
<defs>
<filter id="filter0_d" x="21" y="21" width="176" height="176" filterUnits="userSpaceOnUse" color-interpolation-filters="sRGB">
<feFlood flood-opacity="0" result="BackgroundImageFix"/>
<feColorMatrix in="SourceAlpha" type="matrix" values="0 0 0 0 0 0 0 0 0 0 0 0 0 0 0 0 0 0 127 0" result="hardAlpha"/>
<feOffset dx="2" dy="4"/>
<feGaussianBlur stdDeviation="8"/>
<feComposite in2="hardAlpha" operator="out"/>
<feColorMatrix type="matrix" values="0 0 0 0 0 0 0 0 0 0 0 0 0 0 0 0 0 0 0.08 0"/>
<feBlend mode="normal" in2="BackgroundImageFix" result="effect1_dropShadow"/>
<feBlend mode="normal" in="SourceGraphic" in2="effect1_dropShadow" result="shape"/>
</filter>
<clipPath id="clip0">
<rect width="90" height="90" fill="white" transform="translate(62 60)"/>
</clipPath>
</defs>
</svg>
