<svg width="197" height="197" viewBox="0 0 197 197" fill="none" xmlns="http://www.w3.org/2000/svg">
<path d="M0 16C0 7.16345 7.16344 0 16 0H144C152.837 0 160 7.16344 160 16V117.639C160 125.375 154.465 132.003 146.854 133.383L18.8535 156.583C9.03459 158.362 0 150.818 0 140.839V16Z" fill="#00B294"/>
<g filter="url(#filter0_d)">
<rect x="35" y="33" width="144" height="144" rx="16" fill="white"/>
</g>
<g clip-path="url(#clip0)">
<path fill-rule="evenodd" clip-rule="evenodd" d="M93.9108 82.4688L77.8204 87.1707L74.2305 101.411C74.8515 106.642 75.832 111.538 79.0659 114.279L105.753 135.968L108.982 138.452C113.843 142.191 118.447 136.966 114.751 133.104C114.7 133.047 114.643 132.99 114.587 132.934C115.834 133.983 117.236 134.281 118.462 134.081C121.162 133.644 123.01 130.784 120.526 128.115C125.382 131.992 129.529 125.816 125.726 122.426C129.966 123.763 134.585 118.265 130.181 113.595C130.151 113.559 130.114 113.518 130.079 113.482L119.037 97.0444L104.228 87.5552L93.9108 82.4688Z" fill="#FFBC85"/>
<path fill-rule="evenodd" clip-rule="evenodd" d="M105.352 136.431C109.458 132.054 103.468 127.019 100.157 129.987L96.6102 133.361C96.5691 133.402 96.5332 133.438 96.4921 133.469C93.5149 136.462 98.9253 143.282 103.401 138.509L105.352 136.431Z" fill="#FFE5C1"/>
<path fill-rule="evenodd" clip-rule="evenodd" d="M93.972 123.882L90.2249 127.811L90.2094 127.832C88.3306 129.827 89.6344 132.887 91.8572 134.081C93.2328 134.821 94.9576 134.852 96.4923 133.469L100.506 133.407L100.157 129.987L100.671 129.503C104.685 125.687 98.8895 119.094 94.3671 123.465L93.972 123.882Z" fill="#FFE5C1"/>
<path fill-rule="evenodd" clip-rule="evenodd" d="M87.2782 118.497L83.7672 122.225L83.2744 122.755C79.8096 126.433 86.0156 132.224 89.5933 128.469L90.2092 127.832C90.2605 127.775 94.0231 127.384 94.4337 127.338L94.3669 123.465L95.5681 122.205C99.7001 117.869 93.2428 112.16 89.3108 116.342L87.2782 118.497Z" fill="#FFE5C1"/>
<path fill-rule="evenodd" clip-rule="evenodd" d="M79.0661 114.279L77.8752 115.57C74.2101 119.551 79.6718 125.898 83.7679 122.226L87.1301 121.706L87.2789 118.497C90.6 114.737 84.8099 108.046 80.2517 112.994L79.0661 114.279Z" fill="#FFE5C1"/>
<path fill-rule="evenodd" clip-rule="evenodd" d="M84.0963 71.2979L67.7987 86.9899L63.1634 91.449C61.6543 92.8993 61.6081 95.3218 63.0556 96.8338L69.97 104.045C70.3704 104.461 71.0428 104.477 71.4638 104.075L74.2306 101.411L93.9108 82.469L96.3542 80.1133C96.7752 79.7122 96.7905 79.0384 96.385 78.6167L89.4706 71.406C88.0231 69.8938 85.6054 69.8475 84.0963 71.2979Z" fill="#7BACDF"/>
<path fill-rule="evenodd" clip-rule="evenodd" d="M115.09 98.5771L110.142 99.7087L112.082 101.678L127.071 116.583L127.173 116.697C128.98 118.61 129.267 120.657 128.693 122.323C131.654 121.192 133.538 117.154 130.181 113.595L130.079 113.482L125.582 109.013L115.09 98.5771Z" fill="#F5A96C"/>
<path fill-rule="evenodd" clip-rule="evenodd" d="M93.9105 82.4688L90.7588 85.498L100.609 90.3583L104.228 87.5553L93.9105 82.4688Z" fill="#F5A96C"/>
<path fill-rule="evenodd" clip-rule="evenodd" d="M104.228 87.5556L100.609 90.3586L97.2005 92.992C88.5923 99.6576 95.7324 106.241 100.84 103.983L106.584 100.522L110.141 99.7091L115.089 98.5776L125.581 109.013L130.078 113.483C132.906 112.423 136.905 109.368 141.222 102.414L134.66 88.685L119.335 81.3428L115.403 84.4852C114.756 84.9996 114.951 84.9018 114.135 84.8762C111.183 84.7835 107.431 85.0767 105.229 86.7792L104.228 87.5556Z" fill="#FFE5C1"/>
<path fill-rule="evenodd" clip-rule="evenodd" d="M104.213 98.2329L98.4686 101.694C96.9031 102.389 95.1423 102.25 93.7051 101.53C94.9524 103.926 98.1761 105.161 100.84 103.983L106.584 100.522L110.141 99.7091L115.028 98.5931C112.764 96.654 112.359 96.3712 107.765 97.4255L104.213 98.2329Z" fill="#FED1A3"/>
<path fill-rule="evenodd" clip-rule="evenodd" d="M137.65 98.9736C133.805 105.161 130.217 108.262 127.481 109.62C127.173 109.774 126.875 109.903 126.588 110.011L130.078 113.483C132.907 112.423 136.905 109.368 141.222 102.414L137.65 98.9736Z" fill="#FED1A3"/>
<path fill-rule="evenodd" clip-rule="evenodd" d="M78.5215 76.6666C80.0306 75.2317 82.433 75.2883 83.8753 76.79L90.7896 84.0007C91.19 84.4224 91.1797 85.0962 90.7588 85.4973L93.9106 82.4679L96.354 80.1123C96.775 79.7111 96.7903 79.0374 96.3847 78.6157L89.4704 71.405C88.0228 69.8929 85.6051 69.8465 84.096 71.297L78.5215 76.6666Z" fill="#3987D0"/>
<path fill-rule="evenodd" clip-rule="evenodd" d="M76.6689 118.615C76.7048 121.984 80.6369 125.034 83.768 122.226L85.9701 119.891L87.2789 118.497C88.6495 116.944 88.4647 114.897 87.4637 113.369C87.4586 114.264 87.1608 115.159 86.4781 115.936L84.1476 118.409L82.9721 119.664C80.6882 121.706 77.9829 120.642 76.6689 118.615Z" fill="#FED1A3"/>
<path fill-rule="evenodd" clip-rule="evenodd" d="M82.418 126.258C83.2392 129.015 87.0737 131.118 89.5941 128.47L90.21 127.832C90.2151 127.821 90.2202 127.816 90.2255 127.811L93.9726 123.882C94.106 123.733 94.2343 123.594 94.3679 123.465L95.569 122.205C97.7967 119.87 96.9498 117.134 95.0763 115.761C95.4151 117.021 95.1431 118.476 93.8803 119.798L92.6792 121.058C92.5458 121.187 92.4175 121.325 92.2839 121.47V121.475L88.5367 125.404C88.5316 125.409 88.5265 125.414 88.5162 125.42L87.9053 126.062C86.2317 127.822 83.9835 127.487 82.418 126.258Z" fill="#FED1A3"/>
<path fill-rule="evenodd" clip-rule="evenodd" d="M96.6108 133.361L99.3466 130.764L100.158 129.987L100.671 129.504C102.806 127.472 102.165 124.654 100.409 123.121C100.784 124.464 100.507 125.981 99.2132 127.21L98.705 127.693L97.2575 129.067L95.1529 131.072L95.0347 131.175C93.5 132.559 91.7752 132.528 90.3996 131.792C90.0608 131.607 89.7425 131.381 89.4551 131.119C89.7938 132.337 90.7024 133.464 91.8573 134.081C93.233 134.822 94.9577 134.853 96.4925 133.469L96.6108 133.361Z" fill="#FED1A3"/>
<path fill-rule="evenodd" clip-rule="evenodd" d="M105.353 136.431C107.406 134.241 106.934 131.89 105.537 130.455C105.507 131.427 105.096 132.471 104.151 133.474L102.201 135.557C99.8037 138.108 97.1395 137.342 95.6406 135.619C95.6612 138.741 99.8293 142.32 103.402 138.509L105.353 136.431Z" fill="#FED1A3"/>
<path d="M125.725 123.786C125.394 123.786 125.062 123.665 124.8 123.422L119.328 118.325C118.779 117.813 118.749 116.953 119.26 116.404C119.771 115.854 120.63 115.824 121.179 116.335L126.651 121.432C127.2 121.943 127.231 122.803 126.72 123.353C126.452 123.641 126.089 123.786 125.725 123.786Z" fill="#F5A96C"/>
<path d="M120.525 129.474C120.194 129.474 119.862 129.353 119.6 129.109L114.123 124.007C113.574 123.496 113.543 122.636 114.055 122.086C114.565 121.537 115.425 121.506 115.974 122.018L121.451 127.12C122 127.631 122.031 128.491 121.52 129.041C121.252 129.328 120.889 129.474 120.525 129.474Z" fill="#F5A96C"/>
<path d="M114.766 134.473C114.435 134.473 114.103 134.353 113.842 134.11L111.055 131.518C110.505 131.007 110.474 130.147 110.984 129.597C111.495 129.047 112.354 129.016 112.904 129.527L115.691 132.119C116.241 132.63 116.272 133.489 115.761 134.039C115.494 134.327 115.131 134.473 114.766 134.473Z" fill="#F5A96C"/>
<path fill-rule="evenodd" clip-rule="evenodd" d="M119.335 81.3423L137.649 98.9732L141.222 102.414L142.536 103.679C142.957 104.08 143.629 104.065 144.03 103.648L147.638 99.8834L150.944 96.4374C152.392 94.9253 152.346 92.5029 150.836 91.0525L147.638 87.9768L129.904 70.9015C128.395 69.4511 125.977 69.4973 124.529 71.0094L117.615 78.2201C117.21 78.6418 117.225 79.3156 117.646 79.7167L119.335 81.3423Z" fill="#FE636E"/>
<path fill-rule="evenodd" clip-rule="evenodd" d="M146.289 86.6709V86.676V86.6709ZM143.076 95.4865L139.467 99.2563C139.062 99.6729 138.395 99.6884 137.974 99.282L141.223 102.414L142.537 103.679C142.958 104.081 143.63 104.065 144.031 103.649L147.639 99.8837L150.945 96.4377C152.393 94.9256 152.347 92.5031 150.837 91.0528L146.793 87.1594L147.137 87.4937L146.29 86.676C147.778 88.1264 147.824 90.5386 146.382 92.0403L143.076 95.4865Z" fill="#FB2A39"/>
</g>
<defs>
<filter id="filter0_d" x="21" y="21" width="176" height="176" filterUnits="userSpaceOnUse" color-interpolation-filters="sRGB">
<feFlood flood-opacity="0" result="BackgroundImageFix"/>
<feColorMatrix in="SourceAlpha" type="matrix" values="0 0 0 0 0 0 0 0 0 0 0 0 0 0 0 0 0 0 127 0" result="hardAlpha"/>
<feOffset dx="2" dy="4"/>
<feGaussianBlur stdDeviation="8"/>
<feComposite in2="hardAlpha" operator="out"/>
<feColorMatrix type="matrix" values="0 0 0 0 0 0 0 0 0 0 0 0 0 0 0 0 0 0 0.08 0"/>
<feBlend mode="normal" in2="BackgroundImageFix" result="effect1_dropShadow"/>
<feBlend mode="normal" in="SourceGraphic" in2="effect1_dropShadow" result="shape"/>
</filter>
<clipPath id="clip0">
<rect width="90" height="90" fill="white" transform="translate(62 60)"/>
</clipPath>
</defs>
</svg>
