<svg width="100" height="100" viewBox="0 0 100 100" fill="none" xmlns="http://www.w3.org/2000/svg">
<path d="M92.2728 71.9191H82.8789V56.2627H92.2728C93.1375 56.2627 93.8385 56.9637 93.8385 57.8283V70.3535C93.8387 71.2182 93.1377 71.9191 92.2728 71.9191Z" fill="#5D5360"/>
<path d="M96.9693 32.7783H86.0098V39.041H96.9693C97.834 39.041 98.535 38.34 98.535 37.4754V34.3441C98.535 33.4791 97.834 32.7783 96.9693 32.7783Z" fill="#4B3F4E"/>
<path d="M68.7867 7.72754H20.2516C17.6574 7.72754 15.5547 9.83047 15.5547 12.4244V23.384H73.4838V12.4244C73.4836 9.83027 71.3807 7.72754 68.7867 7.72754Z" fill="#FFC269"/>
<path d="M73.4857 15.5557H15.5566V23.384H73.4857V15.5557Z" fill="#FFA95F"/>
<path d="M67.2232 12.4248H21.8195C20.9549 12.4248 20.2539 13.1258 20.2539 13.9904V23.3844H68.7891V13.9904C68.7891 13.1258 68.0881 12.4248 67.2232 12.4248Z" fill="#FFE09F"/>
<path d="M68.7891 15.5557H20.2539V23.384H68.7891V15.5557Z" fill="#F6D190"/>
<path d="M87.5756 78.182H1.46484V26.5156C1.46484 23.0568 4.26875 20.2529 7.72754 20.2529H81.3131C84.7719 20.2529 87.5758 23.0568 87.5758 26.5156V78.182H87.5756Z" fill="#FF8086"/>
<path d="M1.46484 78.1816V79.7473C1.46484 83.2059 4.26875 86.01 7.72754 86.01H81.3131C84.7719 86.01 87.5758 83.2061 87.5758 79.7473V78.1816H1.46484Z" fill="#5D5360"/>
<path d="M51.5658 67.2225H37.475C35.7457 67.2225 34.3438 65.8205 34.3438 64.0912C34.3438 62.3619 35.7457 60.96 37.475 60.96H51.5658C53.2951 60.96 54.6971 62.3619 54.6971 64.0912C54.6971 65.8207 53.2953 67.2225 51.5658 67.2225Z" fill="white"/>
<path d="M96.9703 32.7783H92.2734V39.041H96.9703C97.835 39.041 98.5359 38.34 98.5359 37.4754V34.3441C98.5359 33.4793 97.835 32.7783 96.9703 32.7783Z" fill="#5D5360"/>
<path d="M6.16016 90.7066C6.16016 91.5713 6.86113 92.2723 7.72578 92.2723H12.3291C13.2939 92.2723 14.1244 91.5912 14.3137 90.6453L15.241 86.0098H6.16016V90.7066Z" fill="#4B3F4E"/>
<path d="M73.7969 86.0098L74.7242 90.6453C74.9135 91.5914 75.7439 92.2723 76.7088 92.2723H81.3121C82.1768 92.2723 82.8777 91.5713 82.8777 90.7066V86.0098H73.7969Z" fill="#4B3F4E"/>
<path d="M10.0801 82.1C7.91602 82.1 6.16172 80.3457 6.16172 78.1816H1.46484V79.7473C1.46484 83.2059 4.26855 86.01 7.72754 86.01H81.3131C83.9383 86.01 86.1789 84.391 87.11 82.1H10.0801Z" fill="#4B3F4E"/>
<path d="M1.46484 26.5158V78.1822H6.16172V20.4746C3.46543 21.173 1.46484 23.601 1.46484 26.5158Z" fill="#E5646E"/>
<path d="M87.5762 67.2217H93.8389V70.3529C93.8389 71.2176 93.1379 71.9185 92.2732 71.9185H87.5764V67.2217H87.5762Z" fill="#4B3F4E"/>
</svg>
