<svg width="100" height="100" viewBox="0 0 100 100" fill="none" xmlns="http://www.w3.org/2000/svg">
<path d="M3.125 15.625H25V37.5C25 38.3288 24.6708 39.1237 24.0847 39.7097C23.4987 40.2958 22.7038 40.625 21.875 40.625H6.25C5.4212 40.625 4.62634 40.2958 4.04029 39.7097C3.45424 39.1237 3.125 38.3288 3.125 37.5V15.625Z" fill="#3B5892"/>
<path d="M6.25 15.625V3.125H21.875V15.625" fill="#CCCCCC"/>
<path d="M6.25 3.125H18.75V10.9375H6.25V3.125Z" fill="#E0E0E0"/>
<path d="M6.25 40.625V43.75C6.25 44.5788 6.57924 45.3737 7.16529 45.9597C7.75134 46.5458 8.5462 46.875 9.375 46.875H18.75C19.5788 46.875 20.3737 46.5458 20.9597 45.9597C21.5458 45.3737 21.875 44.5788 21.875 43.75V40.625" fill="#213D68"/>
<path d="M78.125 59.375H93.75C94.5788 59.375 95.3737 59.7042 95.9597 60.2903C96.5458 60.8763 96.875 61.6712 96.875 62.5V84.375H75V62.5C75 61.6712 75.3292 60.8763 75.9153 60.2903C76.5013 59.7042 77.2962 59.375 78.125 59.375Z" fill="#3B5892"/>
<path d="M78.125 84.375V96.875H93.75V84.375" fill="#CCCCCC"/>
<path d="M78.125 84.375H90.625V92.1875H78.125V84.375Z" fill="#E0E0E0"/>
<path d="M78.125 59.375V56.25C78.125 55.4212 78.4542 54.6263 79.0403 54.0403C79.6263 53.4542 80.4212 53.125 81.25 53.125H90.625C91.4538 53.125 92.2487 53.4542 92.8347 54.0403C93.4208 54.6263 93.75 55.4212 93.75 56.25V59.375" fill="#213D68"/>
<path d="M89.0625 53.125V35.9375C89.0625 30.5503 86.9224 25.3837 83.1131 21.5744C79.3038 17.7651 74.1372 15.625 68.75 15.625V21.875C72.4796 21.875 76.0565 23.3566 78.6937 25.9938C81.3309 28.631 82.8125 32.2079 82.8125 35.9375V53.125" fill="#B5B5B5"/>
<path d="M17.1875 46.875V67.9688C17.1875 71.4912 18.5868 74.8693 21.0775 77.36C23.5682 79.8507 26.9463 81.25 30.4688 81.25C33.9912 81.25 37.3693 79.8507 39.86 77.36C42.3507 74.8693 43.75 71.4912 43.75 67.9688V35.9375C43.75 30.5503 45.8901 25.3837 49.6994 21.5744C53.5087 17.7651 58.6753 15.625 64.0625 15.625V21.875C60.3329 21.875 56.756 23.3566 54.1188 25.9938C51.4816 28.631 50 32.2079 50 35.9375V67.9688C50 70.5336 49.4948 73.0734 48.5133 75.443C47.5317 77.8127 46.0931 79.9658 44.2794 81.7794C42.4658 83.5931 40.3127 85.0317 37.943 86.0133C35.5734 86.9948 33.0336 87.5 30.4688 87.5C25.2887 87.5 20.3209 85.4423 16.6581 81.7794C12.9953 78.1166 10.9375 73.1488 10.9375 67.9688V46.875" fill="#B5B5B5"/>
<path d="M9.375 7.8125H12.5V10.9375H9.375V7.8125Z" fill="#939393"/>
<path d="M15.625 7.8125H18.75V10.9375H15.625V7.8125Z" fill="#939393"/>
<path d="M81.25 89.0625H84.375V92.1875H81.25V89.0625Z" fill="#939393"/>
<path d="M87.5 89.0625H90.625V92.1875H87.5V89.0625Z" fill="#939393"/>
<path d="M7.8125 20.3125H20.3125V23.4375H7.8125V20.3125Z" fill="#5E87CA"/>
<path d="M79.6875 76.5625H92.1875V79.6875H79.6875V76.5625Z" fill="#5E87CA"/>
</svg>
