<svg width="100" height="100" viewBox="0 0 100 100" fill="none" xmlns="http://www.w3.org/2000/svg">
<g clip-path="url(#clip0)">
<path d="M99.9998 44.5798C99.9998 43.8128 99.1773 43.3269 98.5055 43.6968L78.9102 54.4852L77.0957 61.6431L78.9102 68.8124L89.4549 76.4325L99.9998 80.4233V44.5798Z" fill="#454D58"/>
<path d="M78.9102 72.4414L98.5055 83.2299C99.1773 83.5998 99.9998 83.1137 99.9998 82.3469V80.4236L78.9102 68.8125L77.0957 70.7939L78.9102 72.4414Z" fill="#3C434C"/>
<path d="M7.58789 50.0674L1.43965 47.1549C0.770898 46.8381 0 47.3258 0 48.0659V61.6082L3.79395 61.6254L7.58789 58.0137L9.40234 54.341L7.58789 50.0674Z" fill="#A6AEC4"/>
<path d="M1.43965 64.5543L7.58789 61.6416L9.40234 59.8271L7.58789 58.0127L0 61.6072V63.6432C0 64.3834 0.770898 64.8711 1.43965 64.5543Z" fill="#959DB0"/>
<path d="M15.5969 58.0137L11.5924 59.8281L7.58789 58.0137V50.0674H15.5969L17.4115 54.341L15.5969 58.0137Z" fill="#454D58"/>
<path d="M7.58789 61.6418H15.5969L17.4115 59.8272L15.5969 58.0127H7.58789V61.6418Z" fill="#3C434C"/>
<path d="M59.2201 41.0592C68.3586 41.0592 76.784 32.2242 76.784 23.4031C75.8756 14.5043 68.3586 7.56152 59.2201 7.56152C50.0814 7.56152 42.5646 14.5045 41.6563 23.4031C41.6561 32.6203 50.0814 41.0592 59.2201 41.0592Z" fill="#454D58"/>
<path d="M29.6607 41.0596C37.6227 41.0596 41.9016 34.4352 41.9016 28.685C41.0236 22.7111 35.8783 18.125 29.6607 18.125C23.443 18.125 18.2979 22.7111 17.4199 28.685C17.4197 34.9908 21.9348 41.0596 29.6607 41.0596Z" fill="#454D58"/>
<path d="M21.0342 90.624H73.4746C78.0232 90.624 78.9111 86.3754 78.9111 83.3731V48.3105C78.9111 45.308 76.4771 42.874 73.4746 42.874H21.0342C18.0316 42.874 15.5977 45.308 15.5977 48.3105V83.3731C15.5977 86.3754 16.9811 90.624 21.0342 90.624Z" fill="#A6AEC4"/>
<path d="M33.0924 71.8016H61.4168C63.433 71.8016 63.433 69.0844 63.433 67.9709V55.1039C63.433 53.9904 62.5303 53.0879 61.4168 53.0879H33.0924C31.9789 53.0879 31.0762 53.9906 31.0762 55.1039V67.9709C31.0762 69.0844 31.0762 71.8016 33.0924 71.8016Z" fill="#BED8FB"/>
<path d="M59.2193 29.5998C63.7943 29.5998 65.1457 26.0621 65.1457 23.4029C64.3699 20.866 62.0104 19.0205 59.2193 19.0205C56.4283 19.0205 54.0689 20.8658 53.293 23.4029C53.293 26.149 54.8379 29.5998 59.2193 29.5998Z" fill="#A6AEC4"/>
<path d="M26.1719 28.6848C26.1719 30.2174 26.6971 32.6205 29.6621 32.6205C32.8436 32.6205 33.1525 30.0182 33.1525 28.6848C32.4963 27.425 31.1809 26.5635 29.6621 26.5635C28.1436 26.5635 26.8281 27.4252 26.1719 28.6848Z" fill="#A6AEC4"/>
<path d="M73.4746 88.8086H21.0342C18.0316 88.8086 15.5977 86.3746 15.5977 83.3721V87.0012C15.5977 90.0037 18.0316 92.4377 21.0342 92.4377H73.4746C76.4771 92.4377 78.9111 90.0037 78.9111 87.0012V83.3721C78.9111 86.3746 76.4771 88.8086 73.4746 88.8086Z" fill="#959DB0"/>
<path d="M61.4164 69.9869H33.0922C31.9787 69.9869 31.0762 69.0844 31.0762 67.9707V71.5998C31.0762 72.7133 31.9789 73.616 33.0922 73.616H61.4166C62.5301 73.616 63.4328 72.7133 63.4328 71.5998V67.9707C63.4326 69.0844 62.5299 69.9869 61.4164 69.9869Z" fill="#A3CAF7"/>
<path d="M29.6617 39.2445C23.4439 39.2445 18.2988 34.6584 17.4209 28.6846C17.3338 29.277 17.2871 29.8824 17.2871 30.499C17.2871 37.3334 22.8273 42.8736 29.6617 42.8736C36.4959 42.8736 42.0363 37.3334 42.0363 30.499C42.0363 29.8824 41.9896 29.277 41.9027 28.6846C41.0244 34.6582 35.8793 39.2445 29.6617 39.2445Z" fill="#3C434C"/>
<path d="M29.6604 30.8057C28.1418 30.8057 26.8264 29.9441 26.1701 28.6846C25.8871 29.2279 25.7246 29.8441 25.7246 30.499C25.7246 32.6727 27.4867 34.4348 29.6604 34.4348C31.834 34.4348 33.5961 32.6727 33.5961 30.499C33.5961 29.8439 33.4338 29.2277 33.1508 28.6846C32.4943 29.9441 31.1789 30.8057 29.6604 30.8057Z" fill="#959DB0"/>
<path d="M59.2205 39.2439C50.0818 39.2439 42.565 32.301 41.6566 23.4023C41.5957 23.9988 41.5645 24.6041 41.5645 25.2168C41.5645 34.968 49.4693 42.873 59.2207 42.873C68.9721 42.873 76.877 34.9682 76.877 25.2168C76.877 24.6041 76.8457 23.9988 76.7848 23.4023C75.876 32.301 68.359 39.2439 59.2205 39.2439Z" fill="#3C434C"/>
<path d="M59.2203 27.7848C56.4293 27.7848 54.0699 25.9395 53.2939 23.4023C53.1184 23.9764 53.0234 24.5854 53.0234 25.2168C53.0234 28.6393 55.7979 31.4137 59.2203 31.4137C62.6428 31.4137 65.4172 28.6393 65.4172 25.2168C65.4172 24.5854 65.3221 23.9762 65.1467 23.4023C64.3707 25.9395 62.0113 27.7848 59.2203 27.7848Z" fill="#959DB0"/>
<path d="M55.3978 80.4424C54.5611 80.4424 53.8828 81.1207 53.8828 81.9574C53.8828 82.7941 54.5611 83.4725 55.3978 83.4725H59.1771C60.0139 83.4725 60.6922 82.7941 60.6922 81.9574C60.6922 81.1205 60.0139 80.4424 59.1771 80.4424H55.3978Z" fill="#B3E59F"/>
<path d="M45.3588 80.4424C44.5221 80.4424 43.8438 81.1207 43.8438 81.9574C43.8438 82.7941 44.5221 83.4725 45.3588 83.4725H49.1383C49.975 83.4725 50.6533 82.7941 50.6533 81.9574C50.6533 81.1205 49.975 80.4424 49.1383 80.4424H45.3588Z" fill="#DF667C"/>
<path d="M35.3178 80.4424C34.4811 80.4424 33.8027 81.1207 33.8027 81.9574C33.8027 82.7941 34.4811 83.4725 35.3178 83.4725H39.0971C39.9338 83.4725 40.6121 82.7941 40.6121 81.9574C40.6121 81.1205 39.9338 80.4424 39.0971 80.4424H35.3178Z" fill="#EACC73"/>
</g>
<defs>
<clipPath id="clip0">
<rect width="100" height="100" fill="white"/>
</clipPath>
</defs>
</svg>
