<svg width="100" height="100" viewBox="0 0 100 100" fill="none" xmlns="http://www.w3.org/2000/svg">
<g clip-path="url(#clip0)">
<path d="M56.4016 68.7354L50.0006 70.5498L43.5996 68.7354V63.1885L50.0006 61.374L56.4016 63.1885V68.7354Z" fill="#DAD8DB"/>
<path d="M43.5996 59.5596V63.1887H56.4016V59.5596L50.0006 57.7451L43.5996 59.5596Z" fill="#C8C5C9"/>
<path d="M26.4447 78.5023H73.5547C78.792 78.5023 79.6031 73.9799 79.6031 70.6395V69.7434C79.6031 69.1867 79.1518 68.7354 78.5951 68.7354H21.4045C20.8477 68.7354 20.3965 69.1867 20.3965 69.7434V70.6395C20.3965 73.9799 21.4311 78.5023 26.4447 78.5023Z" fill="#A6AEC4"/>
<path d="M19.9377 57.7447H80.0602C90.4602 57.7447 99.9158 47.9613 99.9158 37.8059C98.999 27.6445 90.4602 19.6816 80.0602 19.6816H19.9377C9.53769 19.6816 0.998828 27.6445 0.0820312 37.8059C0.0820312 47.9613 9.53769 57.7447 19.9377 57.7447Z" fill="#454D58"/>
<path d="M36.1328 37.8061C36.1328 44.8027 42.8904 51.7955 50.0014 51.7955C57.1123 51.7955 63.8699 44.8025 63.8699 37.8061C62.9797 30.9377 57.1123 25.6309 50.0014 25.6309C42.8904 25.6309 37.023 30.9377 36.1328 37.8061Z" fill="#ECEAEC"/>
<path d="M49.9992 42.9883C52.2227 42.9883 54.8539 39.7885 54.8539 37.8061C54.1184 35.8393 52.2227 34.4385 49.9992 34.4385C47.7758 34.4385 45.8799 35.8393 45.1445 37.8061C45.1445 39.9023 47.7758 42.9883 49.9992 42.9883Z" fill="#A6AEC4"/>
<path d="M73.5551 76.6871H26.4449C23.1045 76.6871 20.3965 73.9791 20.3965 70.6387V74.2678C20.3965 77.6082 23.1045 80.3162 26.4449 80.3162H73.5549C76.8953 80.3162 79.6033 77.6082 79.6033 74.2678V70.6387C79.6033 73.9793 76.8955 76.6871 73.5551 76.6871Z" fill="#959DB0"/>
<path d="M80.0611 55.9308H19.9387C9.53867 55.9308 0.999805 47.968 0.0830078 37.8066C0.0291016 38.4043 0 39.0092 0 39.6211C0 50.633 8.92695 59.5599 19.9387 59.5599H80.0611C91.073 59.5599 100 50.633 100 39.6211C100 39.0094 99.9709 38.4043 99.917 37.8066C99 47.9678 90.4613 55.9308 80.0611 55.9308Z" fill="#3C434C"/>
<path d="M49.9994 49.9807C42.8885 49.9807 37.0211 44.674 36.1309 37.8057C36.0537 38.4 36.0098 39.0049 36.0098 39.6201C36.0098 47.3463 42.273 53.6096 49.9994 53.6096C57.7258 53.6096 63.9889 47.3463 63.9889 39.6201C63.9889 39.0047 63.9449 38.4 63.8678 37.8057C62.9777 44.674 57.1104 49.9807 49.9994 49.9807Z" fill="#DAD8DB"/>
<path d="M49.9984 41.1732C47.775 41.1732 45.8791 39.7725 45.1437 37.8057C44.9326 38.3705 44.8164 38.9816 44.8164 39.6201C44.8164 42.482 47.1365 44.8021 49.9984 44.8021C52.8603 44.8021 55.1805 42.482 55.1805 39.6201C55.1805 38.9816 55.0642 38.3705 54.8531 37.8057C54.1178 39.7727 52.2219 41.1732 49.9984 41.1732Z" fill="#959DB0"/>
<path d="M24.9252 38.0859C24.0885 38.0859 23.4102 38.7643 23.4102 39.601C23.4102 40.4377 24.0885 41.116 24.9252 41.116H28.3609C29.1977 41.116 29.876 40.4377 29.876 39.601C29.876 38.7643 29.1977 38.0859 28.3609 38.0859H24.9252Z" fill="#DF667C"/>
<path d="M75.0738 41.116C75.9105 41.116 76.5889 40.4377 76.5889 39.601C76.5889 38.7643 75.9105 38.0859 75.0738 38.0859H71.6381C70.8014 38.0859 70.123 38.7643 70.123 39.601C70.123 40.4377 70.8014 41.116 71.6381 41.116H75.0738Z" fill="#B3E59F"/>
<path d="M85.2867 41.116C86.1234 41.116 86.8018 40.4377 86.8018 39.601C86.8018 38.7643 86.1234 38.0859 85.2867 38.0859H81.851C81.0143 38.0859 80.3359 38.7643 80.3359 39.601C80.3359 40.4377 81.0143 41.116 81.851 41.116H85.2867Z" fill="#EACC73"/>
</g>
<defs>
<clipPath id="clip0">
<rect width="100" height="100" fill="white"/>
</clipPath>
</defs>
</svg>
