<svg width="100" height="100" viewBox="0 0 100 100" fill="none" xmlns="http://www.w3.org/2000/svg">
<path d="M23.6368 52.7349C23.5358 52.7349 23.4343 52.7297 23.3317 52.7191C21.7222 52.5527 20.5526 51.1129 20.7189 49.5035C22.0405 36.7286 26.2317 24.1548 32.8397 13.1416C33.6721 11.7543 35.4711 11.3041 36.8592 12.1367C38.2467 12.9691 38.6965 14.7687 37.8641 16.1562C31.6944 26.439 27.7811 38.1788 26.5475 50.1064C26.3915 51.6135 25.1192 52.7349 23.6368 52.7349Z" fill="#5BC980"/>
<path d="M23.6338 52.7346C23.6163 52.7346 23.5989 52.7344 23.5811 52.7342C21.9635 52.7057 20.6751 51.3711 20.7036 49.7533C20.985 33.7837 22.9825 17.8043 26.6403 2.25929C27.0108 0.684303 28.5881 -0.291863 30.1631 0.0784473C31.7381 0.449148 32.7145 2.02629 32.3439 3.60128C28.7815 18.7408 26.8362 34.3034 26.562 49.8567C26.5338 51.4567 25.2278 52.7346 23.6338 52.7346Z" fill="#6AA9FF"/>
<path d="M23.6295 52.735C22.1468 52.735 20.8748 51.6135 20.7189 50.1065C19.4853 38.1788 15.5719 26.4391 9.40239 16.1563C8.56978 14.7688 9.01978 12.9692 10.4073 12.1368C11.7948 11.304 13.5944 11.7544 14.4268 13.1417C21.0347 24.1549 25.2259 36.7287 26.5476 49.5036C26.714 51.113 25.5443 52.5528 23.9347 52.7192C23.8322 52.7299 23.7302 52.735 23.6295 52.735Z" fill="#FFB64C"/>
<path d="M23.6326 52.7346C22.0384 52.7346 20.7324 51.4567 20.7043 49.8565C20.4302 34.3033 18.4849 18.7408 14.9223 3.60109C14.5518 2.0263 15.5281 0.449159 17.1031 0.0784576C18.6781 -0.291853 20.2554 0.684118 20.6259 2.2593C24.2839 17.8045 26.2812 33.7837 26.5626 49.7534C26.5911 51.3711 25.3027 52.7057 23.6851 52.7342C23.6677 52.7344 23.6499 52.7346 23.6326 52.7346Z" fill="#FF6C6C"/>
<path d="M61.7187 22.2245L58.8749 22.5272L61.7187 30.5135V39.8025L59.4843 41.2341L61.5331 47.906C61.1151 49.0153 60.0448 49.8063 58.789 49.8063H47.0703C45.4531 49.8063 44.1406 48.4939 44.1406 46.8767V30.5135L45.9844 28.2127L44.1406 22.2245V12.9355L45.9844 9.41987L44.1406 4.64646V2.93162C44.1406 1.31445 45.4531 0.00195312 47.0703 0.00195312H58.789C60.4062 0.00195312 61.7187 1.31445 61.7187 2.93162V22.2245Z" fill="#EFF6FE"/>
<path d="M61.7187 22.2245L58.875 22.5272L61.7187 30.5135V39.8025L59.4843 41.2341L61.5332 47.906C61.1152 49.0153 60.0449 49.8063 58.789 49.8063H52.9297V0.00195312H58.789C60.4062 0.00195312 61.7187 1.31445 61.7187 2.93162V22.2245Z" fill="#D2DCE7"/>
<path d="M61.7187 22.2227V30.5117L44.1406 12.9336V4.64453L61.7187 22.2227Z" fill="#D2DCE7"/>
<path d="M61.7187 39.8027V46.877C61.7187 47.2383 61.6523 47.5859 61.5332 47.9062L44.1406 30.5137V22.2246L61.7187 39.8027Z" fill="#D2DCE7"/>
<path d="M61.7188 22.2227V30.5117L52.9297 21.7227V13.4336L61.7188 22.2227Z" fill="#A1AEBC"/>
<path d="M52.9297 31.0117L61.7188 39.8008V46.875C61.7188 47.2363 61.6523 47.584 61.5332 47.9043L52.9297 39.3008V31.0117Z" fill="#A1AEBC"/>
<path d="M85.1562 2.93162V49.8063C85.1562 51.4235 83.8437 52.736 82.2265 52.736C80.6094 52.736 79.2969 51.4235 79.2969 49.8063V2.93162C79.2969 1.31445 80.6094 0.00195312 82.2265 0.00195312C83.8437 0.00195312 85.1562 1.31445 85.1562 2.93162Z" fill="#FED843"/>
<path d="M85.1562 2.93162V49.8063C85.1562 51.4235 83.8437 52.736 82.2266 52.736V0.00195312C83.8437 0.00195312 85.1562 1.31445 85.1562 2.93162Z" fill="#FFB64C"/>
<path d="M88.0858 46.875H76.3672C74.75 46.875 73.4375 48.1875 73.4375 49.8047V97.07C73.4375 98.6872 74.75 99.9997 76.3672 99.9997H88.0858C89.703 99.9997 91.0155 98.6872 91.0155 97.07V49.8047C91.0155 48.1875 89.703 46.875 88.0858 46.875Z" fill="#6E6E6E"/>
<path d="M91.0156 49.8047V97.07C91.0156 98.6872 89.7031 99.9997 88.0859 99.9997H82.2266V46.875H88.0859C89.7031 46.875 91.0156 48.1875 91.0156 49.8047Z" fill="#444444"/>
<path d="M29.4921 46.875H17.7734C16.1562 46.875 14.8438 48.1875 14.8438 49.8047V97.07C14.8438 98.6872 16.1562 99.9997 17.7734 99.9997H29.4921C31.1093 99.9997 32.4218 98.6872 32.4218 97.07V49.8047C32.4218 48.1875 31.1093 46.875 29.4921 46.875Z" fill="#6E6E6E"/>
<path d="M32.4218 49.8047V97.07C32.4218 98.6872 31.1093 99.9997 29.4922 99.9997H23.6328V46.875H29.4922C31.1093 46.875 32.4218 48.1875 32.4218 49.8047Z" fill="#444444"/>
<path d="M64.6483 46.875H41.2109C39.5937 46.875 38.2812 48.1875 38.2812 49.8047V97.07C38.2812 98.6872 39.5937 99.9997 41.2109 99.9997H64.6483C66.2655 99.9997 67.5779 98.6872 67.5779 97.07V49.8047C67.5779 48.1875 66.2655 46.875 64.6483 46.875Z" fill="#6E6E6E"/>
<path d="M67.578 49.8047V97.07C67.578 98.6872 66.2655 99.9997 64.6484 99.9997H52.9297V46.875H64.6484C66.2655 46.875 67.578 48.1875 67.578 49.8047Z" fill="#444444"/>
</svg>
